<svg width="345" height="57" viewBox="0 0 345 57" fill="none" xmlns="http://www.w3.org/2000/svg">
<g clip-path="url(#clip0_2109_8919)">
<g clip-path="url(#clip1_2109_8919)">
<path d="M35 14.6562L30 2.46875L30.4688 2L35 4L39.5313 2L40 2.46875L35 14.6562Z" fill="#5E5E5E"/>
</g>
</g>
<g clip-path="url(#clip2_2109_8919)">
<rect width="67" height="15" transform="translate(1 20)" fill="#2C74E0"/>
<rect width="67" height="15" transform="translate(70 20)" fill="#3C8554"/>
<rect width="67" height="15" transform="translate(139 20)" fill="#F2E701"/>
<rect width="67" height="15" transform="translate(208 20)" fill="#D5433D"/>
<rect width="67" height="15" transform="translate(277 20)" fill="#85487F"/>
</g>
<g clip-path="url(#clip3_2109_8919)">
<rect y="40.5" width="1" height="15" fill="#DDDDDD"/>
<path d="M16.432 44.168H13.312C12.784 44.168 12.424 44.192 12.052 44.24V43.376C12.4 43.424 12.772 43.448 13.324 43.448H20.512C21.064 43.448 21.424 43.424 21.784 43.376V44.24C21.412 44.192 21.052 44.168 20.524 44.168H17.248V48.62H20.98C21.568 48.62 21.952 48.596 22.264 48.536V49.436C21.952 49.376 21.58 49.352 20.956 49.352H17.248V52.664C17.248 53.108 17.272 53.552 17.332 53.972H16.348C16.408 53.54 16.432 53.12 16.432 52.664V49.352H12.856C12.244 49.352 11.86 49.376 11.536 49.436V48.536C11.872 48.596 12.232 48.62 12.844 48.62H16.432V44.168ZM12.82 45.068L13.504 44.744C14.176 45.764 14.536 46.46 15.052 47.672L14.296 48.056C13.816 46.772 13.468 46.064 12.82 45.068ZM20.212 44.732L20.944 45.08C20.428 46.4 20.056 47.072 19.24 48.2L18.52 47.84C19.348 46.796 19.72 46.112 20.212 44.732ZM28.396 44.804V43.916C28.396 43.616 28.372 43.292 28.336 43.04H29.212C29.176 43.304 29.152 43.58 29.152 43.916V44.804H30.364C30.808 44.264 31.06 43.892 31.384 43.268L32.104 43.544C31.72 44.144 31.492 44.456 31.192 44.804H32.548C33.196 44.804 33.508 44.792 33.88 44.756C33.844 45.068 33.832 45.38 33.832 45.848V46.448C33.832 46.688 33.856 46.928 33.88 47.132H33.088V45.452H24.688V47.108H23.896C23.932 46.832 23.944 46.58 23.944 46.376V45.74C23.944 45.344 23.932 45.068 23.896 44.756C24.184 44.792 24.544 44.804 25.132 44.804H26.404C26.116 44.324 25.852 43.976 25.408 43.472L26.128 43.22C26.608 43.82 26.848 44.168 27.22 44.804H28.396ZM28.396 48.824H26.812C26.308 48.824 25.996 48.836 25.732 48.872C25.756 48.632 25.768 48.452 25.768 47.888V47.192C25.768 46.796 25.756 46.508 25.732 46.244C26.032 46.28 26.452 46.292 26.86 46.292H30.964C31.456 46.292 31.792 46.28 32.068 46.244C32.044 46.532 32.032 46.76 32.032 47.204V47.888C32.032 48.476 32.044 48.656 32.068 48.872C31.756 48.836 31.336 48.824 30.892 48.824H29.14V49.808H31.9C32.512 49.808 32.788 49.796 33.052 49.76C33.016 50.024 33.004 50.348 33.004 50.816V52.412C33.004 53.06 32.752 53.24 31.852 53.24C31.516 53.24 31.144 53.228 30.64 53.192C30.604 52.868 30.568 52.712 30.472 52.472C30.94 52.532 31.42 52.568 31.732 52.568C32.164 52.568 32.26 52.52 32.26 52.292V50.48H29.14V52.688C29.14 53.18 29.164 53.576 29.2 53.912H28.336C28.372 53.528 28.396 53.144 28.396 52.688V50.48H25.528V52.16C25.528 52.748 25.54 53.084 25.588 53.336H24.712C24.748 53 24.772 52.616 24.772 52.148V50.804C24.772 50.384 24.76 50.072 24.724 49.76C25.036 49.796 25.432 49.808 25.852 49.808H28.396V48.824ZM31.3 46.928H26.5V48.2H31.3V46.928ZM44.836 44.984L45.58 45.572C45.424 45.728 45.424 45.728 45.244 45.944C44.956 46.28 44.14 47.108 43.696 47.516C43.36 47.816 43.36 47.816 42.676 48.356C43.096 48.98 43.576 49.568 44.092 50.072C44.812 50.78 45.448 51.248 46.432 51.752C46.132 52.016 46 52.172 45.796 52.508C44.812 51.92 43.972 51.2 43.216 50.312C42.688 49.7 42.256 49.064 41.86 48.32C41.572 47.78 41.452 47.492 41.224 46.796C41.296 47.84 41.32 48.5 41.32 49.136V52.688C41.32 53.444 41.08 53.648 40.228 53.648C39.772 53.648 39.28 53.624 38.704 53.564C38.68 53.216 38.632 53.048 38.512 52.736C39.184 52.856 39.652 52.904 40.12 52.904C40.456 52.904 40.528 52.844 40.528 52.556V44.36C40.528 43.928 40.504 43.544 40.444 43.148H41.392C41.32 43.532 41.296 43.916 41.296 44.348V45.176C41.452 46.028 41.728 46.748 42.304 47.744C43.66 46.604 44.452 45.74 44.836 44.984ZM39.448 46.004L39.904 46.448C39.808 46.688 39.796 46.736 39.652 47.192C39.004 49.364 37.78 51.176 36.076 52.484C35.848 52.208 35.716 52.1 35.404 51.884C36.184 51.368 36.772 50.816 37.396 50.012C38.164 49.004 38.62 48.092 38.98 46.796H37C36.496 46.796 36.148 46.82 35.86 46.868V45.992C36.16 46.04 36.46 46.052 37.024 46.052H38.308C38.944 46.052 39.22 46.04 39.448 46.004ZM53.8 45.356V44.036C53.8 43.7 53.776 43.412 53.716 43.112H54.652C54.592 43.376 54.568 43.628 54.568 44.024V45.356H56.8C57.352 45.356 57.712 45.332 58.048 45.284V46.112C57.688 46.076 57.304 46.052 56.8 46.052H51.94C51.316 46.052 50.944 46.076 50.668 46.112V45.284C50.992 45.332 51.34 45.356 51.94 45.356H53.8ZM51.652 52.508H54.472C55.18 50.84 55.972 48.068 56.116 46.736L57.028 47.012C56.908 47.384 56.908 47.384 56.608 48.452C56.26 49.772 55.756 51.248 55.252 52.508H57.124C57.712 52.508 58.084 52.484 58.42 52.436V53.3C58.048 53.24 57.628 53.216 57.124 53.216H51.676C51.136 53.216 50.74 53.24 50.356 53.3V52.436C50.692 52.484 51.052 52.508 51.652 52.508ZM48.832 52.4V48.62C48.832 48.092 48.844 47.684 48.88 47.132C48.472 47.852 48.196 48.248 47.656 48.884C47.572 48.68 47.368 48.392 47.176 48.188C48.148 47.156 48.94 45.908 49.48 44.504C49.696 43.94 49.876 43.292 49.936 42.872L50.788 43.148C50.704 43.364 50.68 43.424 50.548 43.784C50.236 44.648 50.02 45.176 49.588 46.052V52.436C49.588 52.988 49.612 53.396 49.672 53.84H48.748C48.808 53.42 48.832 53.06 48.832 52.4ZM53.428 51.584L52.636 51.824C52.288 49.856 51.952 48.632 51.352 47.132L52.108 46.868C52.708 48.476 53.008 49.568 53.428 51.584Z" fill="black"/>
<rect x="68.8" y="40.5" width="1" height="15" fill="#DDDDDD"/>
<path d="M83.6361 44.984L84.3801 45.572C84.2241 45.728 84.2241 45.728 84.0441 45.944C83.7561 46.28 82.9401 47.108 82.4961 47.516C82.1601 47.816 82.1601 47.816 81.4761 48.356C81.8961 48.98 82.3761 49.568 82.8921 50.072C83.6121 50.78 84.2481 51.248 85.2321 51.752C84.9321 52.016 84.8001 52.172 84.5961 52.508C83.6121 51.92 82.7721 51.2 82.0161 50.312C81.4881 49.7 81.0561 49.064 80.6601 48.32C80.3721 47.78 80.2521 47.492 80.0241 46.796C80.0961 47.84 80.1201 48.5 80.1201 49.136V52.688C80.1201 53.444 79.8801 53.648 79.0281 53.648C78.5721 53.648 78.0801 53.624 77.5041 53.564C77.4801 53.216 77.4321 53.048 77.3121 52.736C77.9841 52.856 78.4521 52.904 78.9201 52.904C79.2561 52.904 79.3281 52.844 79.3281 52.556V44.36C79.3281 43.928 79.3041 43.544 79.2441 43.148H80.1921C80.1201 43.532 80.0961 43.916 80.0961 44.348V45.176C80.2521 46.028 80.5281 46.748 81.1041 47.744C82.4601 46.604 83.2521 45.74 83.6361 44.984ZM78.2481 46.004L78.7041 46.448C78.6081 46.688 78.5961 46.736 78.4521 47.192C77.8041 49.364 76.5801 51.176 74.8761 52.484C74.6481 52.208 74.5161 52.1 74.2041 51.884C74.9841 51.368 75.5721 50.816 76.1961 50.012C76.9641 49.004 77.4201 48.092 77.7801 46.796H75.8001C75.2961 46.796 74.9481 46.82 74.6601 46.868V45.992C74.9601 46.04 75.2601 46.052 75.8241 46.052H77.1081C77.7441 46.052 78.0201 46.04 78.2481 46.004ZM92.0121 45.8H91.2561C90.8241 45.8 90.5241 45.812 90.1641 45.86V45.032C90.5121 45.08 90.8361 45.104 91.3281 45.104H93.0561V44.036C93.0561 43.676 93.0321 43.388 92.9841 43.112H93.8841C93.8361 43.376 93.8121 43.664 93.8121 44.036V45.104H95.9961C96.5961 45.104 96.9081 45.092 97.2441 45.032V45.86C96.8841 45.812 96.5361 45.8 96.0081 45.8H92.7681C92.7561 46.736 92.7561 46.796 92.6961 47.492H95.3121C95.8281 47.492 96.1281 47.48 96.3681 47.444C96.3441 47.624 96.3321 47.744 96.3201 48.236C96.2121 50.72 96.0201 52.304 95.7081 52.988C95.4921 53.468 95.1081 53.636 94.2561 53.636C93.8601 53.636 93.6561 53.624 92.7441 53.552C92.7201 53.228 92.6721 53.012 92.5761 52.748C93.3321 52.856 93.8121 52.892 94.2201 52.892C94.7601 52.892 94.9281 52.808 95.0481 52.496C95.3241 51.776 95.4921 50.276 95.5401 48.164H92.6241C92.4321 49.7 92.1081 50.744 91.5561 51.692C91.0281 52.568 90.4761 53.144 89.4561 53.852C89.2521 53.576 89.1081 53.432 88.8441 53.252C90.3081 52.328 91.0281 51.44 91.4961 49.988C91.8441 48.884 91.9761 47.828 92.0121 45.8ZM86.8401 52.748V44.3C86.8401 43.964 86.8281 43.628 86.8041 43.388C87.0201 43.412 87.2481 43.424 87.6321 43.424H89.4201C89.7801 43.424 89.9721 43.412 90.1521 43.376L90.5481 43.856C90.5241 43.892 90.5241 43.904 90.5001 43.952C90.4881 43.964 90.4761 44 90.4521 44.036C90.4041 44.132 90.3921 44.168 90.3441 44.312C90.0201 45.152 89.6361 45.884 88.9881 46.94C89.5761 47.564 89.8161 47.912 90.0441 48.5C90.2241 48.944 90.3081 49.376 90.3081 49.82C90.3081 50.36 90.1641 50.72 89.8641 50.936C89.6601 51.068 89.3241 51.14 88.7961 51.14C88.6281 51.14 88.4241 51.14 88.2321 51.128C88.1961 50.78 88.1601 50.624 88.0521 50.372C88.3881 50.42 88.6401 50.444 88.8921 50.444C89.3721 50.444 89.5641 50.276 89.5641 49.832C89.5641 49.424 89.4561 48.908 89.2761 48.512C89.0601 48.008 88.8081 47.672 88.1841 47.024C88.8441 45.98 89.1681 45.308 89.6241 44.084H87.5841V52.748C87.5841 53.168 87.5961 53.468 87.6441 53.864H86.7681C86.8161 53.54 86.8401 53.192 86.8401 52.748ZM104.984 46.328V45.584C104.984 45.116 104.972 44.888 104.924 44.636H105.776C105.728 44.888 105.716 45.104 105.716 45.584V46.328H106.316C106.856 46.328 107.168 46.316 107.396 46.268V47.048C107.168 47.012 106.82 46.988 106.316 46.988H105.716V51.02C105.716 51.704 105.428 51.932 104.588 51.932C104.168 51.932 103.784 51.908 103.256 51.872C103.22 51.524 103.196 51.392 103.076 51.092C103.652 51.2 104.12 51.248 104.624 51.248C104.9 51.248 104.984 51.176 104.984 50.936V46.988H101.384C100.868 46.988 100.58 47 100.268 47.048V46.268C100.544 46.316 100.796 46.328 101.384 46.328H104.984ZM103.628 49.808L102.956 50.24C102.428 49.172 102.104 48.704 101.348 47.888L101.948 47.492C102.728 48.38 103.016 48.776 103.628 49.808ZM99.5841 53.9H98.7441C98.8041 53.54 98.8161 53.204 98.8161 52.46V44.984C98.8161 44.384 98.7921 43.964 98.7441 43.508C99.1761 43.556 99.5241 43.568 100.148 43.568H107.3C107.936 43.568 108.284 43.556 108.728 43.508C108.668 43.976 108.656 44.348 108.656 44.984V52.484C108.656 53.228 108.668 53.564 108.728 53.9H107.888V53.192H99.5841V53.9ZM99.5841 44.252V52.508H107.888V44.252H99.5841ZM116.72 45.092H115.112C114.656 45.092 114.344 45.104 113.996 45.152V44.36C114.296 44.408 114.62 44.432 115.124 44.432H116.72V43.952C116.72 43.592 116.696 43.304 116.648 42.98H117.536C117.488 43.292 117.476 43.568 117.476 43.952V44.432H119.264C119.768 44.432 120.092 44.408 120.404 44.36V45.152C120.056 45.104 119.744 45.092 119.276 45.092H117.476V46.676H119.72C120.224 46.676 120.608 46.652 120.932 46.604V47.408C120.584 47.36 120.236 47.336 119.732 47.336H119.24V48.752H119.732C120.248 48.752 120.608 48.728 120.932 48.68V49.496C120.608 49.448 120.224 49.424 119.732 49.424H119.24V52.82C119.24 53.24 119.108 53.516 118.844 53.612C118.628 53.684 118.244 53.732 117.776 53.732C117.488 53.732 117.092 53.708 116.672 53.684C116.636 53.348 116.588 53.156 116.48 52.868C116.948 52.94 117.524 53.012 117.752 53.012C118.4 53.012 118.472 52.988 118.472 52.724V49.424H114.632C114.152 49.424 113.792 49.448 113.456 49.496V48.68C113.78 48.728 114.104 48.752 114.62 48.752H118.472V47.336H114.704C114.224 47.336 113.876 47.36 113.552 47.408V46.604C113.864 46.652 114.2 46.676 114.704 46.676H116.72V45.092ZM112.832 42.92L113.504 43.376C113.42 43.472 113.42 43.472 113.036 43.94C112.364 44.744 111.596 45.44 110.72 46.028C110.588 45.788 110.432 45.596 110.24 45.416C111.44 44.684 112.4 43.772 112.832 42.92ZM116.852 51.848L116.216 52.352C115.58 51.428 115.172 50.96 114.392 50.276L114.968 49.832C115.736 50.528 116.144 50.972 116.852 51.848ZM111.692 52.472V49.64C111.692 49.148 111.692 48.8 111.728 48.26C111.368 48.764 111.092 49.04 110.552 49.484C110.348 49.1 110.348 49.088 110.108 48.812C111.308 47.936 112.484 46.544 112.832 45.536L113.54 45.956C113.444 46.088 113.396 46.148 113.204 46.448C112.988 46.808 112.988 46.808 112.448 47.528V52.472C112.448 53.108 112.46 53.564 112.508 53.876H111.62C111.656 53.54 111.692 53.072 111.692 52.472ZM129.116 49.76H127.076C127.052 50.072 127.052 50.096 127.028 50.336C127.424 50.852 127.868 51.212 128.588 51.62C128.444 51.776 128.384 51.86 128.192 52.196C127.604 51.812 127.268 51.512 126.884 51.056C126.572 52.244 126.104 53.012 125.24 53.768C125.036 53.516 124.94 53.42 124.664 53.252C125.768 52.484 126.272 51.476 126.392 49.76H126.26C125.816 49.76 125.504 49.772 125.18 49.82V49.064C125.516 49.112 125.744 49.124 126.26 49.124H128.996C128.888 48.572 128.852 48.236 128.792 47.624C128.66 46.364 128.636 45.956 128.612 43.868C128.612 43.556 128.588 43.364 128.552 43.112H129.392C129.344 43.4 129.332 43.616 129.332 44.288C129.332 46.088 129.44 47.708 129.668 49.124H131.792C132.512 49.124 132.728 49.112 133.064 49.052V49.832C132.68 49.772 132.368 49.76 131.792 49.76H129.788C129.944 50.42 130.1 50.852 130.388 51.368C130.964 50.852 131.312 50.444 131.504 50.024L132.116 50.444C131.54 51.116 131.168 51.512 130.724 51.908C131.24 52.64 131.732 53.072 132.044 53.072C132.188 53.072 132.26 52.976 132.368 52.664C132.464 52.376 132.476 52.28 132.584 51.452C132.812 51.656 132.956 51.752 133.196 51.872C132.92 53.384 132.68 53.828 132.116 53.828C131.528 53.828 130.88 53.324 130.196 52.34C129.296 53.024 128.408 53.468 127.22 53.852C127.064 53.564 126.992 53.468 126.74 53.24C128.012 52.904 128.876 52.508 129.848 51.788C129.488 51.116 129.332 50.696 129.116 49.76ZM129.8 48.056L129.668 47.396C129.752 47.408 129.8 47.408 129.848 47.408C129.884 47.408 129.92 47.408 129.968 47.396C130.376 46.928 130.472 46.808 130.856 46.316C130.376 45.668 130.088 45.368 129.476 44.864L129.872 44.36C130.064 44.54 130.112 44.588 130.244 44.72C130.652 44.156 130.88 43.736 131.12 43.136L131.744 43.472C131.324 44.192 131.108 44.528 130.652 45.128C130.892 45.392 131 45.524 131.228 45.812C131.708 45.14 131.828 44.948 132.152 44.372L132.704 44.804C131.612 46.268 131.276 46.7 130.688 47.36C131.348 47.312 131.66 47.276 132.152 47.192C132.02 46.892 131.972 46.808 131.792 46.52L132.284 46.328C132.62 46.88 132.86 47.384 133.16 48.176L132.608 48.392C132.5 48.032 132.452 47.9 132.368 47.684C132.092 47.744 131.3 47.852 130.004 48.02C129.92 48.032 129.908 48.032 129.8 48.056ZM126.836 43.088L127.472 43.4C127.1 44.144 126.788 44.66 126.344 45.248C126.608 45.536 126.716 45.656 126.92 45.944C127.244 45.428 127.364 45.212 127.64 44.624L128.216 45.032C127.448 46.256 126.98 46.928 126.356 47.672C126.944 47.6 127.472 47.528 127.856 47.456C127.712 47.132 127.664 47.036 127.46 46.712L127.94 46.532C128.3 47.12 128.468 47.516 128.72 48.248L128.18 48.476C128.12 48.236 128.096 48.164 128.036 47.948C127.532 48.056 126.896 48.176 125.744 48.356C125.6 48.38 125.552 48.38 125.408 48.416L125.264 47.732C125.336 47.744 125.372 47.744 125.408 47.744C125.468 47.744 125.516 47.744 125.612 47.732C126.044 47.204 126.26 46.928 126.572 46.472C126.128 45.872 125.78 45.5 125.156 44.972L125.588 44.492C125.684 44.588 125.792 44.696 125.924 44.816C126.392 44.156 126.62 43.712 126.836 43.088ZM123.56 45.452V44.276C123.56 43.616 123.548 43.292 123.5 43.028H124.328C124.292 43.316 124.28 43.652 124.28 44.264V45.452H124.604C124.952 45.452 125.192 45.44 125.384 45.404V46.16C125.108 46.124 124.928 46.112 124.616 46.112H124.328C124.556 46.688 124.832 47.132 125.216 47.564C125.084 47.768 125.024 47.876 124.88 48.188C124.58 47.78 124.436 47.492 124.232 46.904C124.256 47.732 124.28 48.248 124.28 48.668V52.604C124.28 53.288 124.292 53.684 124.34 53.996H123.5C123.548 53.66 123.572 53.228 123.572 52.604V49.328C123.572 48.86 123.62 47.924 123.692 47.012C123.368 48.668 122.972 49.76 122.336 50.768C122.228 50.504 122.072 50.264 121.904 50.072C122.624 49.052 123.152 47.72 123.464 46.112H123.044C122.708 46.112 122.42 46.124 122.216 46.16V45.404C122.432 45.44 122.636 45.452 123.044 45.452H123.56ZM130.544 48.32L130.964 47.972C131.312 48.176 131.54 48.368 131.876 48.704L131.444 49.112C131.144 48.776 130.916 48.572 130.544 48.32Z" fill="black"/>
<rect x="137.6" y="40.5" width="1" height="15" fill="#DDDDDD"/>
<path d="M149.784 43.796L150.288 43.256C151.08 43.784 151.524 44.144 152.244 44.852L151.752 45.488C151.116 44.78 150.636 44.36 149.784 43.796ZM149.244 46.676L149.712 46.088C150.552 46.604 151.056 46.988 151.788 47.66L151.32 48.344C150.588 47.576 150.084 47.18 149.244 46.676ZM151.38 49.7L151.98 50.216C151.512 51.104 151.152 51.704 150.648 52.472C150.588 52.556 150.348 52.88 149.94 53.42C149.844 53.552 149.82 53.576 149.76 53.672L149.1 53C149.292 52.844 149.364 52.772 149.556 52.544C150.264 51.728 150.744 50.984 151.38 49.7ZM153.9 44.624V52.208C153.9 52.496 153.996 52.604 154.344 52.652C154.632 52.7 155.232 52.724 156.252 52.724C157.776 52.724 158.412 52.652 158.616 52.472C158.82 52.292 158.916 51.788 158.976 50.624C159.264 50.792 159.468 50.9 159.744 50.984C159.624 52.316 159.492 52.808 159.144 53.084C158.808 53.36 158.016 53.456 155.94 53.456C153.48 53.456 153.108 53.312 153.108 52.352V45.044C153.108 44.48 153.096 44.168 153.048 43.856C153.36 43.892 153.756 43.916 154.152 43.916H157.824C158.34 43.916 158.784 43.892 159.108 43.856C159.096 44 159.072 44.276 159.072 44.528C159.024 46.388 158.88 47.912 158.7 48.572C158.52 49.184 158.232 49.388 157.548 49.388C157.14 49.388 156.612 49.364 156.084 49.316C156.06 49.028 156.012 48.8 155.892 48.524C156.612 48.644 156.924 48.668 157.464 48.668C157.872 48.668 157.956 48.56 158.076 47.816C158.196 47.084 158.256 46.1 158.28 44.624H153.9ZM166.392 47.336V48.416H167.028C167.472 48.416 167.748 48.404 167.976 48.368V49.052C167.724 49.016 167.508 49.004 167.064 49.004H164.724C164.412 49.004 164.16 49.016 163.872 49.04C163.896 48.788 163.908 48.5 163.908 48.128V44.408C163.908 44 163.896 43.76 163.872 43.52C164.184 43.544 164.376 43.556 164.736 43.556H166.932C167.352 43.556 167.64 43.544 167.904 43.496V44.216C167.592 44.18 167.4 44.168 166.968 44.168H166.392V45.212H166.788C167.148 45.212 167.364 45.2 167.616 45.176C167.592 45.356 167.58 45.572 167.58 45.848V46.604C167.58 46.916 167.592 47.18 167.616 47.372C167.388 47.348 167.124 47.336 166.788 47.336H166.392ZM165.756 47.336H164.58V48.416H165.756V47.336ZM164.58 46.772H166.968V45.776H164.58V46.772ZM164.58 45.212H165.768V44.168H164.58V45.212ZM170.736 45.5H169.104C168.828 46.04 168.708 46.244 168.336 46.76C168.216 46.604 168.012 46.46 167.748 46.328C168.24 45.716 168.54 45.188 168.816 44.48C168.996 44 169.116 43.52 169.152 43.112L169.92 43.304C169.848 43.484 169.824 43.556 169.716 43.928C169.608 44.276 169.512 44.564 169.404 44.828H170.784C171.276 44.828 171.684 44.804 171.972 44.756V45.56C171.696 45.524 171.3 45.5 170.736 45.5ZM161.4 43.652L161.928 43.124C162.684 43.652 163.116 44.024 163.68 44.672L163.14 45.224C162.6 44.552 162.144 44.144 161.4 43.652ZM160.944 46.604L161.412 46.04C162.108 46.46 162.588 46.82 163.26 47.444L162.78 48.08C162.132 47.408 161.64 47.012 160.944 46.604ZM162.96 49.448L163.56 49.928C163.02 51.368 162.852 51.716 161.796 53.612L161.112 52.988C161.676 52.484 162.36 51.164 162.96 49.448ZM168.504 48.296V47.516C168.72 47.552 168.984 47.564 169.368 47.564H170.688C171.072 47.564 171.312 47.552 171.552 47.516V48.296C171.288 48.26 171.036 48.248 170.688 48.248H169.368C169.008 48.248 168.744 48.26 168.504 48.296ZM171.06 52.796H171.288C171.552 52.796 171.78 52.772 171.984 52.736V53.504C171.588 53.456 171.168 53.432 170.64 53.432H164.784C164.232 53.432 163.8 53.456 163.368 53.504V52.736C163.608 52.784 163.8 52.796 164.1 52.796H164.484V50.876C164.484 50.384 164.472 50.108 164.436 49.82C164.76 49.856 165.168 49.88 165.672 49.88H169.968C170.496 49.88 170.784 49.868 171.12 49.82C171.072 50.06 171.06 50.324 171.06 50.876V52.796ZM165.18 50.516V52.796H166.44V50.516H165.18ZM167.1 50.516V52.796H168.36V50.516H167.1ZM169.02 50.516V52.796H170.352V50.516H169.02ZM179.412 46.4H177.588C177.096 46.4 176.748 46.412 176.328 46.46V45.632C176.676 45.68 177.048 45.704 177.588 45.704H182.352C182.892 45.704 183.288 45.68 183.6 45.632V46.46C183.252 46.424 182.82 46.4 182.352 46.4H180.192V48.908H181.992C182.496 48.908 182.916 48.884 183.228 48.836V49.652C182.88 49.616 182.436 49.592 181.992 49.592H180.192V52.628H182.592C183.144 52.628 183.612 52.604 183.912 52.556V53.396C183.564 53.36 183.084 53.336 182.592 53.336H177.144C176.628 53.336 176.196 53.36 175.824 53.396V52.556C176.148 52.604 176.58 52.628 177.132 52.628H179.412V49.592H177.936C177.492 49.592 177.048 49.616 176.688 49.652V48.836C177 48.884 177.42 48.908 177.924 48.908H179.412V46.4ZM173.748 43.76L174.24 43.232C175.068 43.772 175.56 44.168 176.256 44.852L175.764 45.488C175.092 44.72 174.612 44.324 173.748 43.76ZM173.148 46.652L173.604 46.088C174.468 46.616 174.948 46.976 175.692 47.672L175.236 48.344C174.492 47.564 173.988 47.156 173.148 46.652ZM175.188 49.496L175.824 49.952C175.212 51.44 174.876 52.136 174.204 53.264L173.892 53.792L173.196 53.168C173.832 52.484 174.504 51.26 175.188 49.496ZM178.116 43.628L178.62 43.064C179.712 43.628 180.204 43.952 181.128 44.648L180.612 45.284C179.832 44.588 179.172 44.156 178.116 43.628ZM190.032 43.916V43.688C190.032 43.412 190.008 43.172 189.96 42.872H190.884C190.836 43.148 190.812 43.4 190.812 43.688V43.916H193.764C194.352 43.916 194.7 43.892 195 43.844V44.588C194.616 44.552 194.292 44.54 193.752 44.54H193.044C192.816 45.044 192.672 45.332 192.444 45.716H194.412C195.132 45.716 195.48 45.704 195.816 45.644V46.412C195.492 46.364 195.12 46.352 194.4 46.352H186.648C185.928 46.352 185.568 46.364 185.232 46.412V45.644C185.568 45.692 185.976 45.716 186.672 45.716H188.472C188.34 45.344 188.268 45.164 187.98 44.54H187.248C186.732 44.54 186.432 44.552 186.072 44.588V43.844C186.348 43.892 186.696 43.916 187.26 43.916H190.032ZM189.252 45.716H191.652C191.88 45.332 192.072 44.96 192.24 44.54H188.76C188.928 44.888 189.096 45.272 189.252 45.716ZM192.996 50.552H188.016C187.44 50.552 187.092 50.564 186.696 50.588C186.732 50.324 186.744 50.072 186.744 49.604V48.092C186.744 47.6 186.732 47.336 186.696 47.036C187.056 47.072 187.392 47.084 188.016 47.084H192.924C193.596 47.084 193.956 47.072 194.28 47.036C194.244 47.288 194.232 47.576 194.232 48.08V49.58C194.232 50.024 194.244 50.312 194.28 50.588C193.98 50.564 193.428 50.552 192.996 50.552ZM187.452 47.684V48.5H193.524V47.684H187.452ZM187.452 49.076V49.952H193.524V49.076H187.452ZM185.784 53.66L185.136 53.192C185.916 52.412 186.228 51.944 186.576 51.008L187.26 51.32C186.852 52.304 186.528 52.82 185.784 53.66ZM188.808 51.944V52.712C188.808 52.868 188.856 52.928 189.048 52.976C189.252 53.024 189.66 53.048 190.356 53.048C192 53.048 192.396 53.012 192.588 52.82C192.696 52.724 192.756 52.304 192.756 51.692C192.756 51.632 192.756 51.584 192.744 51.5C193.056 51.68 193.128 51.704 193.488 51.776C193.416 53.648 193.32 53.708 190.596 53.708C188.388 53.708 188.064 53.612 188.064 52.94V51.944C188.064 51.596 188.04 51.296 187.992 51.032H188.88C188.82 51.32 188.808 51.512 188.808 51.944ZM195.9 53.012L195.276 53.468C194.676 52.544 194.232 51.992 193.524 51.284L194.136 50.936C194.88 51.68 195.312 52.196 195.9 53.012ZM191.712 52.088L191.112 52.532C190.596 51.872 190.296 51.572 189.672 51.104L190.188 50.732C190.776 51.14 191.16 51.476 191.712 52.088Z" fill="black"/>
<rect x="206.4" y="40.5" width="1" height="15" fill="#DDDDDD"/>
<path d="M226.072 47.612H225.244C224.884 47.612 224.692 47.624 224.356 47.66V46.928C224.608 46.964 224.788 46.976 225.232 46.976H226.612C226.936 46.292 227.128 45.776 227.32 44.996L227.944 45.212C227.728 45.92 227.536 46.4 227.248 46.976H227.704C228.148 46.976 228.328 46.964 228.604 46.916V47.66C228.22 47.624 228.088 47.612 227.692 47.612H226.768V48.98H227.536C227.956 48.98 228.148 48.968 228.424 48.92V49.688C227.992 49.64 227.956 49.64 227.524 49.64H226.768V51.14C226.768 51.632 226.78 51.86 226.828 52.124H226.012C226.06 51.8 226.072 51.548 226.072 51.14V49.64H225.46C225.088 49.64 224.932 49.652 224.56 49.688V48.92C224.848 48.968 225.016 48.98 225.472 48.98H226.072V47.612ZM221.716 50.756V48.968C221.716 48.536 221.704 48.212 221.692 48.02C221.524 49.424 221.32 50.144 220.792 51.26C220.516 50.912 220.504 50.9 220.252 50.696C221.008 49.136 221.176 47.984 221.176 44.396C221.176 43.988 221.164 43.64 221.128 43.352C221.32 43.388 221.656 43.4 222.244 43.4H223.132C223.684 43.4 223.912 43.388 224.128 43.364C224.104 43.544 224.092 43.724 224.092 44.168V46.004C224.092 46.448 224.104 46.64 224.128 46.808C223.816 46.784 223.576 46.772 223.168 46.772H221.8C221.752 47.36 221.728 47.648 221.692 48.008C221.896 48.032 222.004 48.032 222.568 48.032H223.24C223.708 48.032 223.972 48.02 224.2 47.996C224.188 48.104 224.176 48.428 224.176 48.968V50.792C224.176 51.56 224.176 51.56 224.2 51.764C223.96 51.74 223.6 51.728 223.24 51.728H222.688C222.328 51.728 221.872 51.74 221.68 51.764C221.704 51.416 221.716 51.164 221.716 50.756ZM221.824 46.136H223.444V44.036H221.86L221.824 46.136ZM222.328 48.656V51.104H223.564V48.656H222.328ZM226.06 44.18V43.82C226.06 43.508 226.048 43.364 226 43.052H226.828C226.78 43.268 226.768 43.46 226.768 43.808V44.18H227.62C228.04 44.18 228.256 44.168 228.52 44.12V44.864C228.1 44.816 228.028 44.816 227.62 44.816H225.364C224.956 44.816 224.884 44.816 224.5 44.864V44.12C224.776 44.168 224.968 44.18 225.4 44.18H226.06ZM224.944 45.188L225.532 44.984C225.796 45.668 225.868 45.92 226.036 46.592L225.448 46.808C225.304 46.172 225.184 45.788 224.944 45.188ZM220.372 45.452L219.76 45.956C219.22 45.056 218.8 44.516 218.02 43.7L218.584 43.244C219.616 44.348 219.808 44.576 220.372 45.452ZM217.852 48.524V47.732C218.188 47.792 218.272 47.792 218.776 47.792H219.208C219.592 47.792 219.892 47.768 220.12 47.732C220.072 48.128 220.06 48.38 220.06 49.004V51.32C220.324 51.896 220.612 52.196 221.14 52.436C221.74 52.7 222.46 52.796 223.972 52.796C226.072 52.796 227.512 52.724 228.964 52.568C228.796 52.916 228.712 53.168 228.688 53.444C227.104 53.492 225.496 53.528 224.224 53.528C222.232 53.528 221.464 53.408 220.72 52.976C220.324 52.748 220.036 52.472 219.724 52.028C219.484 52.292 219.388 52.4 219.124 52.64C218.992 52.772 218.872 52.88 218.788 52.952C218.584 53.12 218.452 53.228 218.44 53.24L218.068 53.612L217.648 52.832C218.056 52.64 218.764 52.088 219.34 51.512V48.464H218.728C218.332 48.464 218.248 48.464 217.852 48.524ZM234.364 51.164H233.032C233.536 51.836 234.184 52.352 235.108 52.796C234.904 53 234.784 53.144 234.64 53.384C233.692 52.82 233.104 52.28 232.54 51.452C232.12 52.544 231.556 53.144 230.368 53.804C230.236 53.54 230.14 53.396 229.9 53.18C230.56 52.868 230.848 52.676 231.196 52.34C231.556 51.98 231.76 51.656 231.94 51.164H230.92C230.488 51.164 230.212 51.176 229.936 51.224V50.492C230.212 50.54 230.452 50.552 230.92 50.552H232.096C232.168 50.216 232.192 50.096 232.24 49.652H231.196C230.764 49.652 230.488 49.664 230.212 49.712V49.004C230.5 49.052 230.74 49.064 231.196 49.064H232.288C232.312 48.716 232.312 48.632 232.324 48.296H231.088C230.632 48.296 230.524 48.296 230.296 48.32C230.32 48.056 230.32 47.972 230.32 47.816V46.364C230.32 46.208 230.32 46.124 230.296 45.86C230.524 45.884 230.632 45.884 231.1 45.884H234.292C234.736 45.884 234.844 45.884 235.084 45.86C235.072 46.028 235.06 46.16 235.06 46.244V47.84C235.06 48.008 235.06 48.128 235.084 48.32C234.868 48.296 234.7 48.296 234.292 48.296H233.008C232.996 48.68 232.996 48.68 232.972 49.064H234.172C234.64 49.064 234.82 49.052 235.12 49.016V49.712C234.82 49.664 234.616 49.652 234.172 49.652H232.912C232.876 50.012 232.84 50.276 232.78 50.552H234.376C234.844 50.552 235.06 50.54 235.324 50.492V51.224C235.048 51.176 234.82 51.164 234.364 51.164ZM232.348 46.472H230.98V47.708H232.348C232.348 47.612 232.348 47.204 232.348 46.472ZM233.044 46.472L233.032 47.648V47.708H234.424V46.472H233.044ZM236.716 45.008H238.12C238.48 44.384 238.72 43.76 238.888 43.052L239.608 43.256C239.308 44.048 239.092 44.516 238.828 45.008H239.536C240.052 45.008 240.448 44.984 240.712 44.936V45.74C240.46 45.704 240.064 45.68 239.536 45.68H238.9V47.372H239.38C239.884 47.372 240.244 47.348 240.496 47.3V48.092C240.256 48.056 239.896 48.032 239.392 48.032H238.9V49.844H239.356C239.848 49.844 240.22 49.82 240.472 49.772V50.564C240.208 50.516 239.86 50.504 239.344 50.504H238.9V52.496H239.668C240.304 52.496 240.556 52.484 240.844 52.424V53.252C240.544 53.204 240.208 53.192 239.668 53.192H236.62V53.876H235.84C235.9 53.588 235.912 53.276 235.912 52.652V46.316C235.768 46.532 235.696 46.64 235.504 46.904C235.384 46.664 235.264 46.496 235.072 46.304C235.684 45.692 236.164 44.852 236.524 43.76C236.632 43.412 236.68 43.232 236.728 42.968L237.52 43.172C237.448 43.304 237.436 43.316 237.352 43.556C237.124 44.12 236.908 44.636 236.716 45.008ZM236.62 47.372H238.204V45.68H236.62V47.372ZM236.62 48.032V49.844H238.204V48.032H236.62ZM236.62 50.504V52.496H238.204V50.504H236.62ZM231.352 44.048V43.82C231.352 43.496 231.34 43.292 231.304 43.076H232.084C232.048 43.244 232.036 43.4 232.036 43.808V44.048H233.344V43.808C233.344 43.436 233.332 43.28 233.296 43.076H234.076C234.04 43.256 234.028 43.412 234.028 43.784V44.048H234.34C234.772 44.048 235.072 44.036 235.384 43.988V44.732C235.132 44.684 234.808 44.672 234.34 44.672H234.028V44.924C234.028 45.236 234.04 45.452 234.064 45.608H233.308C233.332 45.44 233.344 45.284 233.344 44.924V44.672H232.036V44.924C232.036 45.2 232.048 45.416 232.072 45.608H231.316C231.34 45.428 231.352 45.224 231.352 44.924V44.672H230.908C230.476 44.672 230.188 44.696 229.936 44.744V43.976C230.188 44.024 230.488 44.048 230.932 44.048H231.352ZM244.804 47.876H243.46C242.968 47.876 242.632 47.9 242.332 47.948V47.12C242.608 47.18 242.884 47.192 243.46 47.192H244.804V44.216C244.804 43.652 244.78 43.316 244.732 43.028H245.632C245.584 43.316 245.56 43.628 245.56 44.216V47.192H246.76C247.42 47.192 247.696 47.18 247.948 47.12V47.936C247.696 47.888 247.384 47.876 246.772 47.876H245.56V49.664H246.964C247.648 49.664 247.948 49.652 248.2 49.604V50.42C247.9 50.372 247.636 50.36 246.976 50.36H245.56V52.556C245.56 53.096 245.584 53.48 245.644 53.888H244.72C244.78 53.468 244.804 53.12 244.804 52.568V50.36H243.112C242.536 50.36 242.224 50.372 241.888 50.432V49.592C242.176 49.652 242.488 49.664 243.124 49.664H244.804V47.876ZM242.164 43.964L242.836 43.664C243.34 44.54 243.604 45.14 243.964 46.172L243.304 46.472C242.956 45.392 242.692 44.828 242.164 43.964ZM247.396 43.52L248.152 43.832C247.684 45.068 247.36 45.752 246.832 46.616L246.196 46.292C246.808 45.332 247.096 44.648 247.396 43.52ZM248.872 43.928H249.772C249.712 44.252 249.7 44.564 249.7 45.236V49.688C249.7 50.444 249.712 50.732 249.76 51.032H248.872C248.92 50.708 248.932 50.408 248.932 49.688V45.236C248.932 44.528 248.92 44.216 248.872 43.928ZM251.44 43.136H252.388C252.328 43.472 252.304 43.904 252.304 44.588V52.544C252.304 53.384 252.004 53.612 250.936 53.612C250.516 53.612 250.06 53.6 249.556 53.552C249.496 53.228 249.448 53.048 249.34 52.796C249.964 52.88 250.396 52.916 250.852 52.916C251.452 52.916 251.524 52.88 251.524 52.544V44.6C251.524 43.94 251.5 43.484 251.44 43.136ZM261.016 46.616H263.8C264.232 46.616 264.568 46.592 264.88 46.544V47.384C264.568 47.336 264.34 47.324 263.848 47.324H263.488V52.604C263.488 53.192 263.512 53.528 263.56 53.828H262.66C262.708 53.516 262.732 53.18 262.732 52.592V47.324H261.004C260.968 48.644 260.884 49.592 260.728 50.504C260.476 51.932 260.14 52.748 259.336 53.876C259.156 53.684 258.988 53.54 258.688 53.36C259.948 51.872 260.296 50.168 260.296 45.536C260.296 44.948 260.272 44.54 260.224 44.18C261.364 44.132 263.224 43.52 263.992 42.932L264.616 43.592C264.568 43.616 264.568 43.616 264.412 43.676C264.4 43.676 264.304 43.724 264.172 43.784C263.26 44.216 262.336 44.504 261.016 44.78V46.148C261.016 46.232 261.016 46.316 261.016 46.616ZM257.884 46.688H258.868C259.216 46.688 259.48 46.664 259.66 46.628V47.408C259.48 47.372 259.168 47.348 258.832 47.348H258.016C258.556 48.452 258.82 48.836 259.684 49.664C259.492 49.88 259.372 50.048 259.264 50.264C258.52 49.388 258.208 48.896 257.836 47.996C257.872 48.44 257.884 48.92 257.884 49.256V50.492C257.884 51.056 257.896 51.224 257.932 51.476H257.152C257.188 51.2 257.2 51.02 257.2 50.492V49.292C257.2 48.932 257.224 48.404 257.248 47.984C256.828 49.184 256.468 49.796 255.58 50.804C255.448 50.6 255.292 50.432 255.088 50.24C255.796 49.544 256.18 49.064 256.564 48.32C256.72 48.02 256.78 47.888 256.972 47.348H256.06C255.772 47.348 255.52 47.372 255.292 47.408V46.628C255.532 46.676 255.748 46.688 256.096 46.688H257.2V44.192C257.2 43.664 257.188 43.352 257.14 43.088H257.944C257.896 43.352 257.884 43.64 257.884 44.204V46.688ZM254.2 43.352H255.088C255.04 43.688 255.016 43.952 255.016 44.36V51.872H257.956C258.508 51.872 258.808 51.86 259.12 51.812V52.604C258.808 52.556 258.52 52.544 257.956 52.544H255.016V53.576H254.2C254.248 53.216 254.272 52.88 254.272 52.4V44.468C254.272 44.024 254.248 43.712 254.2 43.352ZM255.34 43.892L255.94 43.64C256.36 44.72 256.492 45.128 256.708 46.052L256.108 46.304C255.928 45.332 255.748 44.78 255.34 43.892ZM258.988 43.604L259.624 43.844C259.228 45.224 259.132 45.5 258.772 46.256L258.256 45.992C258.64 45.152 258.796 44.648 258.988 43.604Z" fill="black"/>
<rect x="275.2" y="40.5" width="1" height="15" fill="#DDDDDD"/>
<path d="M287.384 43.796L287.888 43.256C288.68 43.784 289.124 44.144 289.844 44.852L289.352 45.488C288.716 44.78 288.236 44.36 287.384 43.796ZM286.844 46.676L287.312 46.088C288.152 46.604 288.656 46.988 289.388 47.66L288.92 48.344C288.188 47.576 287.684 47.18 286.844 46.676ZM288.98 49.7L289.58 50.216C289.112 51.104 288.752 51.704 288.248 52.472C288.188 52.556 287.948 52.88 287.54 53.42C287.444 53.552 287.42 53.576 287.36 53.672L286.7 53C286.892 52.844 286.964 52.772 287.156 52.544C287.864 51.728 288.344 50.984 288.98 49.7ZM291.5 44.624V52.208C291.5 52.496 291.596 52.604 291.944 52.652C292.232 52.7 292.832 52.724 293.852 52.724C295.376 52.724 296.012 52.652 296.216 52.472C296.42 52.292 296.516 51.788 296.576 50.624C296.864 50.792 297.068 50.9 297.344 50.984C297.224 52.316 297.092 52.808 296.744 53.084C296.408 53.36 295.616 53.456 293.54 53.456C291.08 53.456 290.708 53.312 290.708 52.352V45.044C290.708 44.48 290.696 44.168 290.648 43.856C290.96 43.892 291.356 43.916 291.752 43.916H295.424C295.94 43.916 296.384 43.892 296.708 43.856C296.696 44 296.672 44.276 296.672 44.528C296.624 46.388 296.48 47.912 296.3 48.572C296.12 49.184 295.832 49.388 295.148 49.388C294.74 49.388 294.212 49.364 293.684 49.316C293.66 49.028 293.612 48.8 293.492 48.524C294.212 48.644 294.524 48.668 295.064 48.668C295.472 48.668 295.556 48.56 295.676 47.816C295.796 47.084 295.856 46.1 295.88 44.624H291.5ZM303.992 47.336V48.416H304.628C305.072 48.416 305.348 48.404 305.576 48.368V49.052C305.324 49.016 305.108 49.004 304.664 49.004H302.324C302.012 49.004 301.76 49.016 301.472 49.04C301.496 48.788 301.508 48.5 301.508 48.128V44.408C301.508 44 301.496 43.76 301.472 43.52C301.784 43.544 301.976 43.556 302.336 43.556H304.532C304.952 43.556 305.24 43.544 305.504 43.496V44.216C305.192 44.18 305 44.168 304.568 44.168H303.992V45.212H304.388C304.748 45.212 304.964 45.2 305.216 45.176C305.192 45.356 305.18 45.572 305.18 45.848V46.604C305.18 46.916 305.192 47.18 305.216 47.372C304.988 47.348 304.724 47.336 304.388 47.336H303.992ZM303.356 47.336H302.18V48.416H303.356V47.336ZM302.18 46.772H304.568V45.776H302.18V46.772ZM302.18 45.212H303.368V44.168H302.18V45.212ZM308.336 45.5H306.704C306.428 46.04 306.308 46.244 305.936 46.76C305.816 46.604 305.612 46.46 305.348 46.328C305.84 45.716 306.14 45.188 306.416 44.48C306.596 44 306.716 43.52 306.752 43.112L307.52 43.304C307.448 43.484 307.424 43.556 307.316 43.928C307.208 44.276 307.112 44.564 307.004 44.828H308.384C308.876 44.828 309.284 44.804 309.572 44.756V45.56C309.296 45.524 308.9 45.5 308.336 45.5ZM299 43.652L299.528 43.124C300.284 43.652 300.716 44.024 301.28 44.672L300.74 45.224C300.2 44.552 299.744 44.144 299 43.652ZM298.544 46.604L299.012 46.04C299.708 46.46 300.188 46.82 300.86 47.444L300.38 48.08C299.732 47.408 299.24 47.012 298.544 46.604ZM300.56 49.448L301.16 49.928C300.62 51.368 300.452 51.716 299.396 53.612L298.712 52.988C299.276 52.484 299.96 51.164 300.56 49.448ZM306.104 48.296V47.516C306.32 47.552 306.584 47.564 306.968 47.564H308.288C308.672 47.564 308.912 47.552 309.152 47.516V48.296C308.888 48.26 308.636 48.248 308.288 48.248H306.968C306.608 48.248 306.344 48.26 306.104 48.296ZM308.66 52.796H308.888C309.152 52.796 309.38 52.772 309.584 52.736V53.504C309.188 53.456 308.768 53.432 308.24 53.432H302.384C301.832 53.432 301.4 53.456 300.968 53.504V52.736C301.208 52.784 301.4 52.796 301.7 52.796H302.084V50.876C302.084 50.384 302.072 50.108 302.036 49.82C302.36 49.856 302.768 49.88 303.272 49.88H307.568C308.096 49.88 308.384 49.868 308.72 49.82C308.672 50.06 308.66 50.324 308.66 50.876V52.796ZM302.78 50.516V52.796H304.04V50.516H302.78ZM304.7 50.516V52.796H305.96V50.516H304.7ZM306.62 50.516V52.796H307.952V50.516H306.62ZM317.084 46.028H320C320.804 46.028 321.008 46.016 321.332 45.968V46.772C320.936 46.724 320.648 46.712 320.024 46.712H313.064V47.564C313.064 49.136 312.896 50.432 312.536 51.56C312.248 52.52 311.936 53.12 311.312 53.888C311.06 53.636 310.94 53.54 310.652 53.384C311.336 52.604 311.66 51.98 311.924 50.972C312.176 50.012 312.32 48.764 312.32 47.372C312.32 47.084 312.308 46.796 312.296 46.52C311.864 46.868 311.72 46.976 311.252 47.288C311.036 47 310.94 46.892 310.736 46.724C312.068 45.884 312.836 45.188 313.58 44.132C314.024 43.496 314.168 43.244 314.3 42.824L315.176 43.064C315.044 43.232 315.032 43.244 314.816 43.616C314.78 43.676 314.756 43.7 314.648 43.88H317.06C317.564 43.88 317.864 43.868 318.164 43.82L318.548 44.252C318.2 44.708 317.984 44.984 317.912 45.08C317.672 45.38 317.372 45.728 317.084 46.028ZM313.448 46.028H316.208C316.724 45.488 317 45.164 317.408 44.528H314.192C313.784 45.092 313.34 45.584 312.86 46.016C313.112 46.028 313.22 46.028 313.448 46.028ZM315.44 47.756H318.776C319.208 47.756 319.484 47.744 319.7 47.72C319.664 47.924 319.664 47.996 319.652 48.236C319.568 49.76 319.496 50.336 319.328 50.648C319.148 50.972 318.752 51.092 317.924 51.092C317.552 51.092 317.3 51.068 316.796 51.008C316.76 50.708 316.712 50.528 316.604 50.228C317.3 50.372 317.708 50.42 318.092 50.42C318.572 50.42 318.68 50.336 318.776 49.892C318.836 49.568 318.872 49.124 318.884 48.416H315.38V52.412C315.38 52.688 315.476 52.796 315.788 52.856C316.076 52.916 316.688 52.952 317.612 52.952C319.28 52.952 319.856 52.868 320.072 52.604C320.252 52.388 320.324 52.004 320.36 51.116C320.66 51.284 320.828 51.356 321.116 51.44C320.948 52.796 320.792 53.204 320.336 53.408C319.964 53.588 319.064 53.66 317.408 53.66C316.172 53.66 315.584 53.612 315.152 53.48C314.732 53.36 314.612 53.156 314.612 52.592V48.68C314.612 48.26 314.6 47.936 314.576 47.72C314.78 47.744 315.044 47.756 315.44 47.756ZM329.348 46.472H328.676C328.184 46.472 327.944 46.484 327.596 46.52V45.836C327.14 46.184 326.804 46.388 326.18 46.712C326.012 46.412 325.928 46.316 325.676 46.1C327.248 45.404 328.46 44.348 329.216 43.016H330.02C330.968 44.432 332.204 45.356 333.968 45.98C333.728 46.208 333.596 46.388 333.464 46.676C332.804 46.376 332.468 46.196 331.976 45.86V46.52C331.652 46.484 331.376 46.472 330.908 46.472H330.044V47.048C330.044 47.252 330.044 47.348 330.044 47.528H331.796C332.3 47.528 332.624 47.516 332.888 47.492C332.864 47.864 332.852 48.056 332.852 48.356V49.664C332.852 50.132 332.864 50.288 332.888 50.576C332.564 50.54 332.24 50.528 331.724 50.528H330.14C330.8 51.752 331.904 52.568 333.692 53.144C333.488 53.384 333.344 53.588 333.236 53.84C331.484 53.18 330.26 52.172 329.588 50.852C329.024 52.328 327.992 53.204 326.024 53.888C325.88 53.588 325.76 53.42 325.544 53.216C327.44 52.712 328.424 51.932 328.964 50.528H327.716C327.248 50.528 326.96 50.54 326.612 50.576C326.648 50.204 326.648 50.096 326.648 49.832V48.284C326.648 47.912 326.648 47.804 326.612 47.492C326.972 47.528 327.068 47.528 327.668 47.528H329.348C329.348 47.312 329.348 47.288 329.348 47.216V46.472ZM329.336 48.164H327.344V49.88H329.144C329.252 49.352 329.3 48.872 329.336 48.164ZM332.144 48.164H330.02C329.984 48.944 329.936 49.388 329.852 49.88H332.144V48.164ZM328.676 45.824H330.908C331.328 45.824 331.604 45.812 331.88 45.788C330.92 45.116 330.308 44.516 329.648 43.616C329.108 44.456 328.52 45.104 327.656 45.788C327.932 45.812 328.22 45.824 328.676 45.824ZM325.652 44.072H323.876V52.724C323.876 53.228 323.888 53.504 323.936 53.84H323.06C323.108 53.516 323.132 53.204 323.132 52.724V44.276C323.132 43.952 323.12 43.664 323.096 43.364C323.312 43.388 323.564 43.4 323.924 43.4H325.412C325.796 43.4 325.988 43.388 326.156 43.352L326.564 43.808C326.492 43.928 326.444 44.036 326.384 44.18C325.856 45.464 325.508 46.22 325.1 46.952C325.664 47.636 325.88 48.008 326.036 48.644C326.144 49.052 326.192 49.448 326.192 49.94C326.192 50.612 325.964 51.008 325.508 51.152C325.304 51.212 325.052 51.236 324.632 51.236C324.584 51.236 324.488 51.236 324.32 51.224C324.284 50.9 324.236 50.72 324.116 50.48C324.368 50.516 324.572 50.54 324.812 50.54C325.328 50.54 325.472 50.372 325.472 49.796C325.472 49.196 325.352 48.632 325.136 48.152C324.956 47.768 324.788 47.528 324.368 47.06C324.884 46.076 325.208 45.344 325.652 44.072Z" fill="black"/>
<rect x="344" y="40.5" width="1" height="15" fill="#DDDDDD"/>
</g>
<defs>
<clipPath id="clip0_2109_8919">
<rect width="290" height="16" fill="white" transform="translate(27.5)"/>
</clipPath>
<clipPath id="clip1_2109_8919">
<rect width="16" height="16" fill="white" transform="translate(43 16) rotate(-180)"/>
</clipPath>
<clipPath id="clip2_2109_8919">
<rect x="1" y="20" width="343" height="15" rx="7.5" fill="white"/>
</clipPath>
<clipPath id="clip3_2109_8919">
<rect width="345" height="18" fill="white" transform="translate(0 39)"/>
</clipPath>
</defs>
</svg>
