<svg width="261" height="202" viewBox="0 0 261 202" fill="none" xmlns="http://www.w3.org/2000/svg">
<path d="M260.708 51.6343C259.453 47.0924 257.671 42.7752 255.392 38.7611C249.445 40.925 242.53 39.6653 237.758 34.8934C232.986 30.1215 231.732 23.2119 233.89 17.2588C229.876 14.98 225.564 13.203 221.017 11.9434C218.336 17.6717 212.566 21.6596 205.823 21.6596C199.081 21.6596 193.311 17.6665 190.629 11.9434C186.087 13.1977 181.77 14.98 177.756 17.2588C179.915 23.2067 178.66 30.1215 173.889 34.8934C169.117 39.6653 162.207 40.9197 156.254 38.7611C153.975 42.7752 152.198 47.0871 150.938 51.6343C156.667 54.3155 160.66 60.0857 160.66 66.8281C160.66 73.5704 156.667 79.3406 150.938 82.0218C152.193 86.5638 153.975 90.881 156.254 94.895C162.202 92.7312 169.117 93.9908 173.889 98.7627C178.66 103.535 179.915 110.444 177.756 116.397C181.77 118.676 186.082 120.453 190.629 121.713C193.311 115.984 199.081 111.996 205.823 111.996C212.566 111.996 218.336 115.99 221.017 121.713C225.559 120.458 229.876 118.676 233.89 116.397C231.732 110.449 232.986 103.535 237.758 98.7627C242.53 93.9908 249.439 92.7364 255.392 94.895C257.671 90.881 259.448 86.569 260.708 82.0218C254.98 79.3406 250.986 73.5704 250.986 66.8281C250.986 60.0857 254.98 54.3155 260.708 51.6343ZM205.828 86.7572C194.821 86.7572 185.899 77.8353 185.899 66.8281C185.899 55.8208 194.821 46.899 205.828 46.899C216.836 46.899 225.757 55.8208 225.757 66.8281C225.757 77.8353 216.836 86.7572 205.828 86.7572Z" fill="#D2E0F8"/>
<path d="M55.5895 132.511C54.9571 130.222 54.0581 128.048 52.9135 126.025C49.9186 127.112 46.4324 126.48 44.0334 124.076C41.6292 121.671 40.9968 118.19 42.0839 115.196C40.0612 114.051 37.8869 113.152 35.5977 112.52C34.2492 115.405 31.338 117.417 27.9407 117.417C24.5434 117.417 21.6374 115.405 20.2837 112.52C17.9944 113.152 15.8202 114.051 13.7975 115.196C14.8846 118.19 14.2522 121.677 11.8479 124.076C9.44368 126.48 5.96275 127.112 2.9679 126.025C1.82327 128.048 0.924291 130.222 0.29187 132.511C3.17696 133.86 5.18921 136.771 5.18921 140.168C5.18921 143.566 3.17696 146.472 0.29187 147.825C0.924291 150.115 1.82327 152.289 2.9679 154.312C5.96275 153.224 9.4489 153.857 11.8479 156.261C14.2522 158.665 14.8846 162.146 13.7975 165.141C15.8202 166.286 17.9944 167.185 20.2837 167.817C21.6321 164.932 24.5434 162.92 27.9407 162.92C31.338 162.92 34.244 164.932 35.5977 167.817C37.8869 167.185 40.0612 166.286 42.0839 165.141C40.9968 162.146 41.6292 158.66 44.0334 156.261C46.4377 153.857 49.9186 153.224 52.9135 154.312C54.0581 152.289 54.9571 150.115 55.5895 147.825C52.7044 146.477 50.6921 143.566 50.6921 140.168C50.6921 136.771 52.7044 133.865 55.5895 132.511ZM27.9407 150.203C22.3952 150.203 17.9003 145.709 17.9003 140.163C17.9003 134.618 22.3952 130.123 27.9407 130.123C33.4861 130.123 37.981 134.618 37.981 140.163C37.981 145.709 33.4861 150.203 27.9407 150.203Z" fill="#D2E0F8"/>
<path d="M210.815 189.367H186.496C185.701 189.367 185.001 189.879 184.755 190.632L182.367 198.064C182.304 198.252 182.272 198.451 182.272 198.65C182.272 199.705 183.13 200.563 184.185 200.563H213.12C214.176 200.563 215.033 199.705 215.033 198.65C215.033 198.451 215.002 198.252 214.939 198.064L212.55 190.632C212.31 189.879 211.604 189.367 210.81 189.367H210.815Z" fill="#E2685C"/>
<path d="M211.191 195.728H186.125L188.367 182.75L189.632 175.38L191.116 166.783L192.391 159.413L194.539 146.958C194.884 144.951 196.625 143.482 198.663 143.482C200.702 143.482 202.442 144.951 202.787 146.958L204.935 159.413L206.211 166.783L207.695 175.38L208.96 182.75L211.202 195.728H211.191Z" fill="#E2685C"/>
<path d="M184.191 198.514C185.398 198.483 186.6 198.467 187.807 198.446C189.015 198.431 190.217 198.415 191.424 198.404C193.834 198.383 196.248 198.373 198.658 198.373H202.275C203.482 198.389 204.684 198.389 205.891 198.404C207.099 198.415 208.301 198.431 209.508 198.446L211.317 198.478L212.221 198.493L213.125 198.514V199.016L212.221 199.037L211.317 199.053L209.508 199.084C208.301 199.1 207.099 199.115 205.891 199.126C204.684 199.141 203.482 199.141 202.275 199.152H198.658C196.248 199.152 193.834 199.152 191.424 199.126C190.217 199.115 189.015 199.1 187.807 199.084C186.6 199.063 185.398 199.047 184.191 199.016V198.514Z" fill="#C44E44"/>
<path d="M210.784 193.789C210.784 193.972 210.731 194.15 210.653 194.296C210.569 194.442 210.47 194.563 210.36 194.667C210.141 194.876 209.9 195.033 209.66 195.169C209.169 195.435 208.662 195.629 208.149 195.796C207.12 196.12 206.069 196.34 205.019 196.502C202.912 196.831 200.785 196.956 198.663 196.962C196.541 196.962 194.414 196.831 192.308 196.502C191.257 196.334 190.206 196.12 189.177 195.796C188.665 195.629 188.152 195.435 187.666 195.169C187.421 195.033 187.18 194.876 186.966 194.667C186.856 194.563 186.757 194.442 186.673 194.296C186.59 194.15 186.537 193.972 186.543 193.789H187.044C187.05 193.951 187.165 194.118 187.337 194.27C187.504 194.416 187.719 194.547 187.938 194.657C188.382 194.876 188.874 195.043 189.365 195.179C189.861 195.32 190.363 195.435 190.875 195.53C191.388 195.629 191.9 195.712 192.417 195.78C193.452 195.916 194.492 196.021 195.532 196.078C196.578 196.141 197.623 196.172 198.668 196.172C199.714 196.172 200.759 196.146 201.804 196.084C202.85 196.026 203.89 195.927 204.919 195.786C205.437 195.718 205.949 195.629 206.461 195.535C206.973 195.435 207.475 195.32 207.972 195.179C208.468 195.038 208.954 194.876 209.399 194.657C209.618 194.547 209.827 194.416 210 194.27C210.172 194.124 210.287 193.951 210.292 193.789H210.794H210.784Z" fill="#C44E44"/>
<path d="M208.949 182.745H188.367L189.631 175.375H207.684L208.949 182.745Z" fill="#F8DAD4"/>
<path d="M206.2 166.777H191.116L192.386 159.402H204.93L206.2 166.777Z" fill="#F8DAD4"/>
<path d="M131.72 192.775L131.48 199.094C131.448 199.857 130.826 200.463 130.058 200.463C126.865 200.463 119.009 200.484 116.803 200.578C114.018 200.693 105.781 201.969 104.85 200.113C103.92 198.258 104.965 195.587 107.171 194.777C109.376 193.967 114.943 191.991 114.943 191.991C114.943 191.991 115.988 189.09 119.814 188.86C123.645 188.63 128.516 189.383 131.71 192.775H131.72Z" fill="#071D33"/>
<path d="M114.755 115.055C114.755 115.055 115.09 143.07 115.011 154.328C114.975 159.816 114.849 192.012 114.849 192.012C114.849 192.012 120.577 192.054 131.721 194.38L132.719 156.204C132.719 156.204 134.203 131.195 134.35 130.322C134.496 129.449 135.803 128.765 136.289 130.097C137.214 132.611 137.71 148.391 138.207 157.203C138.4 160.6 139.372 194.035 139.372 194.035C139.372 194.035 147.521 197.029 155.005 193.7C155.005 193.7 156.171 161.525 156.171 157.203C156.171 155.133 156.505 135.742 156.505 132.517C156.505 128.096 156.526 117.177 156.171 113.059L114.76 115.055H114.755Z" fill="#1B4976"/>
<path d="M135.703 117.638C148.164 117.444 156.317 115.296 156.317 115.296C156.317 115.296 157.132 69.5371 157.247 64.2687C157.326 60.6205 157.613 55.3416 157.274 52.1377C157.049 50.0418 154.472 48.1603 153.453 47.7578C147.981 45.5731 142.012 44.9668 142.012 44.9668C142.012 44.9668 139.994 47.8937 135.724 47.8937C131.454 47.8937 129.4 44.9668 129.4 44.9668C129.4 44.9668 121.686 45.8187 117.473 47.8153C116.422 48.3118 113.746 49.9739 113.511 52.0855C113.182 55.0019 113.746 59.8992 113.971 63.2809C114.316 68.5336 114.745 115.343 114.745 115.343C114.745 115.343 123.248 117.439 135.709 117.632L135.703 117.638Z" fill="#81ADEB"/>
<path d="M141.933 34.0781V46.7004C141.891 50.244 131.443 53.7929 128.956 46.4182V34.0781H141.933Z" fill="#FFDCC7"/>
<g style="mix-blend-mode:multiply" opacity="0.6">
<path d="M141.933 40.156V46.13C135.123 48.6231 128.956 43.7205 128.956 43.7205V40.0096C131.49 38.8127 135.207 37.0723 135.437 37.0723C135.687 37.0723 139.524 38.9382 141.938 40.156H141.933Z" fill="#F4BDA2"/>
</g>
<path d="M147.196 200.755C141.813 200.87 137.694 201.199 137.208 200.086C136.722 198.973 135.99 195.962 137.94 194.959C139.889 193.955 143.851 192.852 147.076 192.952C150.729 193.061 154.022 193.73 155.972 194.399C157.921 195.068 157.921 199.192 157.069 200.196C156.217 201.199 152.438 200.64 147.201 200.755H147.196Z" fill="#071D33"/>
<path d="M147.108 198.498C153.171 198.441 157.342 197.746 157.373 196.826C157.404 195.906 156.955 195.216 156.584 194.652C156.186 194.05 155.287 193.214 154.754 192.759C153.542 191.725 152.193 190.611 147.688 190.611C143.183 190.611 141.275 191.327 139.984 192.441C138.097 194.066 137.324 194.463 136.77 196.376C136.445 197.484 136.822 198.483 138.682 198.953C140.543 199.423 144.066 198.524 147.113 198.493L147.108 198.498Z" fill="#071D33"/>
<path d="M120.797 47.3119C118.027 47.3119 116.349 47.2021 111.483 53.6308C106.612 60.07 99.9531 73.5233 99.9531 73.5233L82.7679 80.2396L85.7628 89.0516C85.7628 89.0516 103.444 86.7781 106.607 84.447C109.769 82.1159 116.417 73.9676 119.914 68.9814C123.405 63.99 124.79 56.563 124.513 51.5193C124.32 47.9547 122.428 47.3066 120.797 47.3066V47.3119Z" fill="#81ADEB"/>
<path d="M91.758 68.3652L91.6952 73.3566L91.5959 81.1129L84.8275 84.9022L78.1583 80.9352L78.2576 73.435L78.3255 68.1875C73.9195 70.5133 70.8881 75.118 70.8149 80.4544C70.7156 88.2211 76.93 94.6028 84.702 94.7021C92.4688 94.8014 98.8505 88.587 98.9498 80.8202C99.0177 75.4839 96.1065 70.806 91.758 68.3652Z" fill="#A8C8F9"/>
<path d="M77.5361 90.0234L91.9825 90.2116L91.1828 178.536L76.7365 178.348L77.5361 90.0234Z" fill="#A8C8F9"/>
<path d="M84.0223 173.452C76.2555 173.353 69.8738 179.568 69.7745 187.334C69.6752 195.101 75.8896 201.483 83.6564 201.582C91.4231 201.681 97.8048 195.467 97.9041 187.7C98.0035 179.933 91.789 173.552 84.0223 173.452ZM90.6496 191.568L83.7348 195.441L76.9245 191.39L77.029 183.467L83.9438 179.594L90.7541 183.644L90.6496 191.568Z" fill="#A8C8F9"/>
<path d="M89.2908 77.1996C88.8413 76.3634 87.2106 76.3111 86.4527 76.9488C85.6949 77.5864 85.9039 78.1927 85.9039 78.1927C85.9039 78.1927 85.4911 77.6387 84.0328 78.4383C83.275 78.8565 82.9927 79.5203 82.883 80.0743C82.883 80.0743 81.4456 80.5813 81.1268 81.4123C80.808 82.2381 81.2209 83.2782 81.2209 83.2782C81.2209 83.2782 82.6425 86.0326 83.7454 85.6981C84.5712 85.4472 84.5816 84.5901 84.5816 84.5901C84.5816 84.5901 85.0572 85.3427 85.9353 85.1964C86.8134 85.05 87.1636 84.4176 87.1688 83.6022C87.1688 83.6022 87.9632 84.6267 88.7681 84.4646C90.4145 84.1301 90.0487 81.7834 89.9755 80.0691C89.9075 78.5063 89.688 77.947 89.2908 77.2049V77.1996Z" fill="#FFDCC7"/>
<path d="M91.5069 76.3682C90.3571 75.4901 89.0923 76.2166 88.6689 77.4867C88.4337 78.1923 89.3222 81.1923 89.9756 82.9642C90.6393 84.7621 92.0192 83.6541 92.3119 82.8178C92.6986 81.6889 92.2962 79.6871 92.2753 78.4797C92.2544 77.2724 92.061 76.7915 91.5069 76.3734V76.3682Z" fill="#FFDCC7"/>
<path d="M89.9125 82.5042C89.7975 82.5042 89.693 82.4311 89.6616 82.3161C89.5727 82.0077 89.4891 81.715 89.4055 81.438C88.9717 79.9589 88.6581 78.8926 88.6999 77.8212C88.6999 77.6748 88.8253 77.5703 88.9717 77.5703C89.118 77.5755 89.2278 77.6957 89.2226 77.8421C89.186 78.8299 89.4891 79.8648 89.9073 81.2917C89.9909 81.5687 90.0745 81.8614 90.1634 82.1697C90.2052 82.3109 90.1215 82.452 89.9857 82.4938C89.9595 82.499 89.9386 82.5042 89.9125 82.5042Z" fill="#F2B49C"/>
<path d="M86.9491 83.0574C86.855 83.0574 86.7609 83.0051 86.7139 82.9111C85.5117 80.512 85.7313 79.6235 85.7626 79.5294C85.8044 79.3935 85.9508 79.3099 86.0919 79.3569C86.2278 79.3988 86.3062 79.5399 86.2644 79.6758C86.2591 79.7071 86.0971 80.512 87.1843 82.6758C87.247 82.8065 87.1947 82.9633 87.0693 83.026C87.0327 83.0469 86.9909 83.0522 86.9543 83.0522L86.9491 83.0574Z" fill="#F2B49C"/>
<path d="M84.3985 84.3856C84.3201 84.3856 84.2364 84.349 84.1842 84.2758C82.8775 82.4726 82.8357 81.0248 82.8357 80.9621C82.8357 80.8158 82.9455 80.7008 83.0918 80.6956C83.2486 80.6747 83.3531 80.8053 83.3584 80.9517C83.3584 80.9674 83.4054 82.3106 84.6075 83.9674C84.6911 84.0824 84.665 84.2497 84.55 84.3333C84.503 84.3647 84.4507 84.3803 84.3985 84.3803V84.3856Z" fill="#F2B49C"/>
<path d="M175.504 142.928H184.07V124.258H175.504V142.928Z" fill="#A8C8F9"/>
<path d="M174.145 124.498H172.347V121.624C172.347 119.836 170.884 118.383 169.096 118.383L163.289 118.394C161.502 118.394 160.044 119.857 160.049 121.645V124.519H158.256V121.645C158.246 118.864 160.504 116.596 163.289 116.591L169.096 116.58C171.877 116.58 174.145 118.833 174.15 121.613V124.488L174.145 124.498Z" fill="#81ADEB"/>
<path d="M148.284 142.928H175.472V124.258H148.284V142.928Z" fill="#D2E0F8"/>
<path d="M147.709 127.691H184.682V124.174H147.709V127.691Z" fill="#81ADEB"/>
<path d="M166.577 133.545C166.457 133.116 166.29 132.704 166.075 132.327C165.511 132.531 164.857 132.411 164.403 131.961C163.948 131.507 163.833 130.853 164.037 130.289C163.655 130.075 163.248 129.902 162.819 129.787C162.563 130.331 162.019 130.707 161.377 130.707C160.734 130.707 160.19 130.331 159.934 129.787C159.505 129.907 159.092 130.075 158.716 130.289C158.92 130.853 158.8 131.507 158.35 131.961C157.901 132.416 157.242 132.531 156.678 132.327C156.464 132.709 156.291 133.116 156.176 133.545C156.72 133.801 157.096 134.345 157.096 134.988C157.096 135.63 156.72 136.174 156.176 136.43C156.296 136.859 156.464 137.272 156.678 137.648C157.242 137.444 157.896 137.564 158.35 138.014C158.805 138.469 158.92 139.122 158.716 139.686C159.098 139.901 159.505 140.073 159.934 140.188C160.19 139.645 160.734 139.268 161.377 139.268C162.019 139.268 162.563 139.645 162.819 140.188C163.248 140.068 163.661 139.901 164.037 139.686C163.833 139.122 163.953 138.469 164.403 138.014C164.857 137.559 165.511 137.444 166.075 137.648C166.29 137.266 166.462 136.859 166.577 136.43C166.033 136.174 165.657 135.63 165.657 134.988C165.657 134.345 166.033 133.801 166.577 133.545ZM161.377 136.874C160.331 136.874 159.49 136.028 159.49 134.988C159.49 133.947 160.336 133.101 161.377 133.101C162.417 133.101 163.263 133.947 163.263 134.988C163.263 136.028 162.417 136.874 161.377 136.874Z" fill="#81ADEB"/>
<path d="M161.345 110.393C161.345 110.393 159.003 113.142 158.747 114.72C158.491 116.304 158.841 117.37 159.035 117.741C159.233 118.107 160.618 119.001 160.618 119.001C160.618 119.001 161.638 121.374 162.213 121.771C162.782 122.168 165.27 122.811 166.002 122.095C166.002 122.095 169.875 120.809 170.711 118.818C171.547 116.827 171.061 113.879 168.683 111.02L161.35 110.398L161.345 110.393Z" fill="#FFDCC7"/>
<path d="M152.993 47.6324C154.812 48.2125 157.038 50.115 157.942 51.4164C161.753 56.8887 167.089 66.882 170.528 84.2919C170.957 86.4661 170.178 112.082 170.178 112.082C170.178 112.082 165.814 114.063 159.495 111.622L159.437 86.6752C159.437 86.6752 151.942 71.1365 150.014 68.6591C147.573 65.5283 145.937 54.9392 149.099 50.6168C150.594 48.5679 151.723 47.2299 152.993 47.6376V47.6324Z" fill="#81ADEB"/>
<path d="M135.206 113.853C124.899 113.821 117.133 111.788 113.856 110.764L113.835 115.342C113.835 115.342 121.241 118.269 135.875 118.494C148.921 118.692 157.137 115.342 157.137 115.342L157.116 111.229C153.348 112.201 145.451 113.858 135.483 113.858C135.389 113.858 135.295 113.858 135.201 113.858L135.206 113.853Z" fill="#EF8E80"/>
<path d="M157.085 103.221L156.976 78.1332C156.976 78.1332 155.455 67.126 154.948 63.1642C154.284 57.9532 153.395 47.7195 153.395 47.7195C153.395 47.7195 150.594 46.2561 145.414 45.4512L135.379 76.6332L125.569 45.5348C120.384 46.3397 117.588 47.7352 117.588 47.7352C117.729 47.8188 116.799 58.7372 116.422 62.5004C116.025 66.4726 114.008 78.1332 114.008 78.1332L113.898 102.704C116.318 103.503 124.189 105.798 135.228 105.918C145.545 106.038 153.756 104.136 157.085 103.221Z" fill="#EF8E80"/>
<path d="M135.478 111.244C145.696 111.244 153.808 109.404 157.106 108.526L157.095 105.934C153.39 106.911 145.774 108.537 136.142 108.537C135.828 108.537 135.515 108.537 135.196 108.537C124.727 108.422 117.117 106.462 113.882 105.453L113.871 108.019C116.307 108.83 124.382 111.208 135.217 111.239C135.305 111.239 135.394 111.239 135.483 111.239L135.478 111.244Z" fill="#EF8E80"/>
<path d="M135.478 111.243C135.389 111.243 135.3 111.243 135.211 111.243C124.377 111.212 116.302 108.828 113.866 108.023L113.855 110.773C117.127 111.797 124.899 113.83 135.206 113.862C135.3 113.862 135.394 113.862 135.488 113.862C145.456 113.862 153.353 112.205 157.121 111.233L157.111 108.525C153.813 109.403 145.701 111.243 135.483 111.243H135.478Z" fill="white"/>
<path d="M136.142 108.536C145.775 108.536 153.395 106.905 157.095 105.933L157.085 103.221C153.75 104.135 145.545 106.038 135.227 105.917C124.189 105.797 116.317 103.503 113.897 102.703L113.887 105.447C117.122 106.456 124.732 108.411 135.201 108.531C135.52 108.531 135.834 108.531 136.147 108.531L136.142 108.536Z" fill="white"/>
<path d="M135.379 118.279C135.191 118.279 135.039 118.127 135.039 117.939V77.0565C135.039 76.8684 135.191 76.7168 135.379 76.7168C135.567 76.7168 135.719 76.8684 135.719 77.0565V117.939C135.719 118.127 135.567 118.279 135.379 118.279Z" fill="#E2685C"/>
<path d="M149.272 26.802C149.272 36.8633 143.392 45.022 135.635 45.022C127.879 45.022 121.999 36.8633 121.999 26.802C121.999 16.7408 127.879 8.58203 135.635 8.58203C143.392 8.58203 149.272 16.7408 149.272 26.802Z" fill="#FFDCC7"/>
<path d="M121.461 25.9294C121.246 26.0601 124.126 25.6158 125.13 18.8212C125.767 14.5145 144.865 15.0215 146.156 18.1731C147.285 20.9275 146.141 23.9328 148.702 25.9294C148.702 25.9294 150.442 24.3771 151.66 25.0879C151.66 25.0879 154.493 10.26 145.702 8.79656C145.702 8.79656 140.914 1.01413 127.11 7.15018C120.028 10.3018 117.87 18.748 119.438 26.081C119.438 26.081 120.865 25.0618 121.455 25.9294H121.461Z" fill="#103254"/>
<path d="M141.014 29.6615C141.79 29.6615 142.419 29.0321 142.419 28.2556C142.419 27.4791 141.79 26.8496 141.014 26.8496C140.237 26.8496 139.608 27.4791 139.608 28.2556C139.608 29.0321 140.237 29.6615 141.014 29.6615Z" fill="#103254"/>
<path d="M142.639 25.0104C142.576 25.0104 142.514 24.9947 142.461 24.9581C142.08 24.7229 141.578 24.5818 141.081 24.5818C140.543 24.5818 140.057 24.7072 139.686 24.9424C139.529 25.0417 139.32 24.9947 139.216 24.8379C139.116 24.6811 139.163 24.4668 139.32 24.3675C139.79 24.0644 140.412 23.9023 141.066 23.9023H141.081C141.698 23.9023 142.331 24.08 142.817 24.3832C142.979 24.4825 143.026 24.6916 142.926 24.8484C142.864 24.9529 142.749 25.0104 142.639 25.0104Z" fill="#103254"/>
<path d="M130.038 29.6615C130.814 29.6615 131.444 29.0321 131.444 28.2556C131.444 27.4791 130.814 26.8496 130.038 26.8496C129.261 26.8496 128.632 27.4791 128.632 28.2556C128.632 29.0321 129.261 29.6615 130.038 29.6615Z" fill="#103254"/>
<path d="M128.449 25.0104C128.339 25.0104 128.229 24.9581 128.161 24.8536C128.057 24.6968 128.104 24.4877 128.261 24.3832C128.736 24.0748 129.358 23.9023 130.017 23.9023H130.032C130.644 23.9023 131.271 24.0696 131.757 24.3623C131.919 24.4616 131.966 24.6707 131.872 24.8275C131.773 24.9895 131.564 25.0417 131.407 24.9424C131.025 24.7125 130.524 24.5766 130.038 24.5766H130.027C129.494 24.5766 129.003 24.7125 128.637 24.9477C128.579 24.9843 128.517 25.0052 128.454 25.0052L128.449 25.0104Z" fill="#103254"/>
<path d="M143.229 14.1073C143.229 14.1073 139.937 19.2921 132.154 20.5936C132.154 20.5936 133.55 19.1981 134.945 16.3025C134.945 16.3025 129.86 20.5936 126.164 21.8898C126.164 21.8898 127.685 19.6946 128.935 16.3548C128.935 16.3548 126.692 16.9558 124.147 22.3393C124.147 22.3393 122.778 17.3008 124.868 14.8077C126.964 12.3146 138.536 9.7222 143.522 10.4173C148.508 11.1177 143.224 14.1073 143.224 14.1073H143.229Z" fill="#103254"/>
<path d="M152.784 29.1178C152.455 31.2712 151.017 32.8444 149.569 32.6196C148.122 32.4001 147.218 30.4715 147.547 28.3181C147.876 26.1648 149.313 24.5916 150.761 24.8163C152.209 25.0358 153.113 26.9644 152.784 29.1178Z" fill="#FFDCC7"/>
<path d="M118.623 29.1178C118.952 31.2712 120.389 32.8444 121.837 32.6196C123.285 32.4001 124.189 30.4715 123.865 28.3181C123.536 26.1648 122.098 24.5916 120.651 24.8163C119.203 25.0358 118.299 26.9644 118.628 29.1178H118.623Z" fill="#FFDCC7"/>
<path d="M135.374 33.7387C135.327 33.7387 135.28 33.7283 135.233 33.7074C133.889 33.1011 133.801 32.6882 133.769 32.5575C133.733 32.385 133.775 32.2178 133.895 32.0871C134.721 31.1463 135.102 30.2683 135.107 30.2578C135.18 30.0853 135.379 30.0069 135.552 30.0801C135.724 30.1533 135.802 30.3519 135.729 30.5244C135.714 30.5609 135.327 31.4599 134.47 32.4582C134.59 32.5889 134.94 32.8293 135.51 33.0906C135.682 33.169 135.755 33.3676 135.677 33.5401C135.619 33.6656 135.494 33.7387 135.369 33.7387H135.374Z" fill="#F2B49C"/>
<path d="M149.329 30.6957C149.329 30.6957 149.303 30.6957 149.292 30.6957C149.104 30.6748 148.973 30.5076 148.994 30.3194C149.334 27.3298 150.876 27.0109 150.939 27.0005C151.122 26.9639 151.299 27.0893 151.336 27.2723C151.367 27.4552 151.252 27.6277 151.069 27.6643C151.038 27.6747 149.946 27.9779 149.669 30.3926C149.648 30.5651 149.501 30.6957 149.329 30.6957Z" fill="#F2B49C"/>
<path d="M150.761 29.8496C150.646 29.8496 150.531 29.7921 150.468 29.6875C150.165 29.1858 149.763 29.3635 149.716 29.3844C149.548 29.4628 149.344 29.3948 149.261 29.2276C149.177 29.0603 149.25 28.8565 149.418 28.7729C149.763 28.6056 150.547 28.5116 151.048 29.3374C151.148 29.4994 151.095 29.7084 150.933 29.8025C150.881 29.8339 150.818 29.8496 150.761 29.8496Z" fill="#F2B49C"/>
<path d="M122.229 30.6958C122.056 30.6958 121.91 30.5652 121.889 30.3927C121.607 27.9466 120.499 27.6644 120.488 27.6644C120.311 27.6226 120.19 27.4449 120.227 27.2619C120.264 27.079 120.436 26.964 120.619 26.9954C120.682 27.0058 122.224 27.3247 122.563 30.3143C122.584 30.5024 122.448 30.6697 122.265 30.6906C122.255 30.6906 122.239 30.6906 122.229 30.6906V30.6958Z" fill="#F2B49C"/>
<path d="M120.797 29.8492C120.739 29.8492 120.677 29.8335 120.624 29.8022C120.462 29.7029 120.41 29.499 120.509 29.337C121.006 28.5112 121.795 28.6105 122.14 28.7725C122.307 28.8562 122.381 29.0548 122.297 29.2272C122.219 29.3945 122.015 29.4677 121.847 29.3893C121.738 29.3422 121.372 29.222 121.095 29.6924C121.032 29.7969 120.917 29.8544 120.802 29.8544L120.797 29.8492Z" fill="#F2B49C"/>
<path d="M135.327 38.5885C135.243 38.5885 135.159 38.5884 135.076 38.5832C133.508 38.4944 132.813 37.8724 132.787 37.8463C132.651 37.7208 132.64 37.5065 132.766 37.3654C132.891 37.2295 133.105 37.2191 133.241 37.3445C133.252 37.355 133.816 37.8306 135.112 37.9038C136.44 37.9769 137.517 37.3132 137.527 37.3079C137.689 37.2086 137.898 37.2557 137.997 37.4125C138.097 37.5693 138.05 37.7783 137.893 37.8829C137.846 37.9142 136.759 38.5885 135.327 38.5885Z" fill="#EC8B80"/>
<path d="M152.721 18.154C152.737 9.53003 145.331 1.7476 135.541 2.03507C125.752 2.32253 118.314 9.53003 118.298 18.154H152.721Z" fill="#D3C942"/>
<path d="M118.508 16.6476C118.508 16.6476 117.269 18.1528 116.846 18.7278C116.407 19.2452 116.589 20.7034 117.718 20.5571C118.711 20.4264 129.186 18.1999 135.51 18.0953C141.834 18.1999 152.308 20.4264 153.301 20.5571C154.43 20.7034 154.613 19.2452 154.174 18.7278C153.751 18.1581 152.512 16.6476 152.512 16.6476C152.512 16.6476 136.388 9.95227 118.508 16.6476Z" fill="#D3C942"/>
<path d="M119.062 17.9285C118.915 17.9285 118.779 17.8344 118.738 17.688C118.685 17.5103 118.785 17.317 118.967 17.2647C119.046 17.2438 126.818 14.9336 133.581 14.7141C139.179 14.5312 145.174 15.2263 151.906 16.8309C152.089 16.8727 152.198 17.0556 152.157 17.2386C152.115 17.4215 151.932 17.5365 151.749 17.4894C145.08 15.9005 139.147 15.2159 133.607 15.3936C126.928 15.6131 119.239 17.8971 119.166 17.918C119.135 17.9285 119.103 17.9337 119.067 17.9337L119.062 17.9285Z" fill="#B5AD38"/>
<path d="M135.51 0.916016C137.768 0.916016 139.116 1.20871 139.665 1.41254C140.789 1.83067 140.663 3.32549 140.663 3.32549H130.351C130.351 3.32549 130.226 1.83067 131.349 1.41254C131.898 1.20871 133.252 0.916016 135.505 0.916016L135.51 0.916016Z" fill="#D3C942"/>
<path d="M128.051 13.9509C128.051 13.9509 128.025 13.9509 128.015 13.9509C127.827 13.93 127.691 13.7628 127.712 13.5798C128.375 7.32357 129.52 4.63709 129.567 4.52733C129.64 4.35486 129.839 4.27646 130.011 4.34963C130.184 4.4228 130.262 4.62664 130.189 4.79389C130.179 4.82002 129.034 7.51173 128.386 13.6478C128.365 13.8203 128.219 13.9509 128.046 13.9509H128.051Z" fill="#B5AD38"/>
<path d="M142.937 13.9516C142.764 13.9516 142.618 13.8209 142.597 13.6484C141.944 7.50192 140.606 4.71091 140.595 4.68477C140.511 4.51752 140.585 4.31368 140.752 4.23006C140.919 4.14643 141.123 4.21961 141.207 4.38686C141.264 4.50184 142.613 7.31376 143.276 13.5805C143.297 13.7686 143.161 13.9359 142.973 13.9516C142.963 13.9516 142.947 13.9516 142.937 13.9516Z" fill="#B5AD38"/>
</svg>
