<svg width="32" height="32" viewBox="0 0 32 32" fill="none" xmlns="http://www.w3.org/2000/svg">
<path d="M12.765 27.7096V23.6204C12.765 22.5842 13.6076 21.7424 14.6513 21.7358H18.4836C19.5319 21.7358 20.3818 22.5796 20.3818 23.6204V23.6204V27.6977C20.3817 28.5965 21.1121 29.3269 22.0173 29.3334H24.6318C25.8529 29.3365 27.0251 28.8571 27.8896 28.001C28.7542 27.1449 29.2401 25.9824 29.2401 24.7701V13.1545C29.24 12.1753 28.8028 11.2464 28.0462 10.6181L19.164 3.56577C17.6114 2.33224 15.3939 2.37209 13.8873 3.66059L5.19609 10.6181C4.40373 11.2278 3.93014 12.1595 3.90674 13.1545V24.7583C3.90674 27.285 5.96991 29.3334 8.51497 29.3334H11.0698C11.5056 29.3365 11.9247 29.1668 12.234 28.862C12.5433 28.5571 12.7173 28.1423 12.7173 27.7096H12.765Z" fill="#014164"/>
</svg>
