<svg width="206" height="86" viewBox="0 0 206 86" fill="none" xmlns="http://www.w3.org/2000/svg">
<path d="M13.1921 0H0V58.8572H13.1921V0Z" fill="white"/>
<path d="M49.7241 0H36.532V58.8572H49.7241V0Z" fill="white"/>
<path d="M109.596 13.1921V0L74.0788 0V13.1921L109.596 13.1921Z" fill="white"/>
<path d="M109.596 58.8572V44.6503H74.0788V58.8572H109.596Z" fill="white"/>
<path d="M64.9458 13.1921V0L36.532 0V13.1921L64.9458 13.1921Z" fill="white"/>
<path d="M34.5024 13.1921V0L26.3842 0V13.1921H34.5024Z" fill="#E93131"/>
<path d="M99.4482 36.5321V22.3252H74.0788V36.5321H99.4482Z" fill="white"/>
<path d="M24.3547 13.1921V0L22.3252 0V13.1921H24.3547Z" fill="#E93131"/>
<path d="M201.518 47.9545C202.143 47.9545 202.695 48.0814 203.173 48.3353C203.662 48.5794 204.042 48.8869 204.316 49.2579V48.0863H206V56.2879C206 57.0299 205.844 57.689 205.531 58.265C205.219 58.8509 204.765 59.3098 204.169 59.6417C203.583 59.9737 202.881 60.1397 202.06 60.1397C200.967 60.1397 200.059 59.8809 199.336 59.3635C198.614 58.8557 198.204 58.1625 198.106 57.2838H199.761C199.888 57.7036 200.156 58.0405 200.566 58.2943C200.986 58.558 201.484 58.6898 202.06 58.6898C202.734 58.6898 203.276 58.4847 203.686 58.0746C204.106 57.6646 204.316 57.069 204.316 56.2879V54.9405C204.033 55.3213 203.647 55.6435 203.159 55.9071C202.68 56.1609 202.134 56.2879 201.518 56.2879C200.815 56.2879 200.171 56.1121 199.585 55.7606C199.009 55.3994 198.55 54.9014 198.209 54.2668C197.877 53.6224 197.711 52.895 197.711 52.0846C197.711 51.2742 197.877 50.5565 198.209 49.9316C198.55 49.3068 199.009 48.8234 199.585 48.4817C200.171 48.1302 200.815 47.9545 201.518 47.9545ZM204.316 52.1138C204.316 51.5573 204.199 51.074 203.964 50.6639C203.74 50.2538 203.442 49.9414 203.071 49.7266C202.7 49.5118 202.3 49.4044 201.87 49.4044C201.44 49.4044 201.04 49.5118 200.669 49.7266C200.298 49.9316 199.995 50.2392 199.761 50.6493C199.536 51.0496 199.424 51.528 199.424 52.0846C199.424 52.6411 199.536 53.1293 199.761 53.5491C199.995 53.969 200.298 54.2912 200.669 54.5157C201.05 54.7305 201.45 54.8379 201.87 54.8379C202.3 54.8379 202.7 54.7305 203.071 54.5157C203.442 54.3009 203.74 53.9885 203.964 53.5784C204.199 53.1586 204.316 52.6704 204.316 52.1138Z" fill="#E93131"/>
<path d="M192.827 47.9545C193.462 47.9545 194.028 48.0863 194.526 48.3499C195.034 48.6135 195.43 49.0041 195.713 49.5216C195.996 50.039 196.137 50.6639 196.137 51.3962V56.1561H194.482V51.6452C194.482 50.9227 194.302 50.371 193.941 49.9902C193.579 49.5997 193.086 49.4044 192.461 49.4044C191.836 49.4044 191.339 49.5997 190.967 49.9902C190.606 50.371 190.426 50.9227 190.426 51.6452V56.1561H188.756V48.0863H190.426V49.009C190.699 48.677 191.046 48.4182 191.465 48.2327C191.895 48.0472 192.349 47.9545 192.827 47.9545Z" fill="#E93131"/>
<path d="M185.744 47.0173C185.441 47.0173 185.187 46.9148 184.982 46.7097C184.777 46.5047 184.675 46.2508 184.675 45.9482C184.675 45.6455 184.777 45.3916 184.982 45.1866C185.187 44.9816 185.441 44.879 185.744 44.879C186.037 44.879 186.286 44.9816 186.491 45.1866C186.696 45.3916 186.798 45.6455 186.798 45.9482C186.798 46.2508 186.696 46.5047 186.491 46.7097C186.286 46.9148 186.037 47.0173 185.744 47.0173ZM186.564 48.0864V56.1562H184.894V48.0864H186.564Z" fill="#E93131"/>
<path d="M180.943 49.2579C181.187 48.8479 181.509 48.5305 181.91 48.306C182.32 48.0716 182.803 47.9545 183.36 47.9545V49.6827H182.935C182.281 49.6827 181.783 49.8486 181.441 50.1806C181.109 50.5126 180.943 51.0886 180.943 51.9088V56.1561H179.273V48.0863H180.943V49.2579Z" fill="#E93131"/>
<path d="M177.63 51.9235C177.63 52.2261 177.611 52.4995 177.572 52.7436H171.406C171.455 53.388 171.694 53.9055 172.123 54.2961C172.553 54.6866 173.08 54.8819 173.705 54.8819C174.603 54.8819 175.238 54.506 175.609 53.7542H177.411C177.166 54.4962 176.722 55.1065 176.078 55.5849C175.443 56.0535 174.652 56.2879 173.705 56.2879C172.934 56.2879 172.241 56.117 171.625 55.7753C171.02 55.4238 170.542 54.9356 170.19 54.3107C169.848 53.6761 169.678 52.9438 169.678 52.1138C169.678 51.2839 169.844 50.5565 170.176 49.9316C170.517 49.297 170.991 48.8088 171.596 48.4671C172.211 48.1253 172.914 47.9545 173.705 47.9545C174.467 47.9545 175.145 48.1205 175.741 48.4524C176.337 48.7844 176.8 49.2531 177.132 49.8584C177.464 50.454 177.63 51.1424 177.63 51.9235ZM175.887 51.3962C175.878 50.7811 175.658 50.288 175.228 49.917C174.799 49.546 174.267 49.3605 173.632 49.3605C173.056 49.3605 172.563 49.546 172.153 49.917C171.743 50.2783 171.499 50.7713 171.42 51.3962H175.887Z" fill="#E93131"/>
<path d="M168.591 51.9235C168.591 52.2261 168.572 52.4995 168.533 52.7436H162.367C162.416 53.388 162.655 53.9055 163.084 54.2961C163.514 54.6866 164.041 54.8819 164.666 54.8819C165.564 54.8819 166.199 54.506 166.57 53.7542H168.371C168.127 54.4962 167.683 55.1065 167.039 55.5849C166.404 56.0535 165.613 56.2879 164.666 56.2879C163.895 56.2879 163.202 56.117 162.586 55.7753C161.981 55.4238 161.503 54.9356 161.151 54.3107C160.809 53.6761 160.639 52.9438 160.639 52.1138C160.639 51.2839 160.805 50.5565 161.137 49.9316C161.478 49.297 161.952 48.8088 162.557 48.4671C163.172 48.1253 163.875 47.9545 164.666 47.9545C165.428 47.9545 166.106 48.1205 166.702 48.4524C167.297 48.7844 167.761 49.2531 168.093 49.8584C168.425 50.454 168.591 51.1424 168.591 51.9235ZM166.848 51.3962C166.839 50.7811 166.619 50.288 166.189 49.917C165.76 49.546 165.228 49.3605 164.593 49.3605C164.017 49.3605 163.524 49.546 163.114 49.917C162.704 50.2783 162.46 50.7713 162.381 51.3962H166.848Z" fill="#E93131"/>
<path d="M155.755 47.9545C156.39 47.9545 156.956 48.0863 157.454 48.3499C157.962 48.6135 158.358 49.0041 158.641 49.5216C158.924 50.039 159.065 50.6639 159.065 51.3962V56.1561H157.41V51.6452C157.41 50.9227 157.23 50.371 156.869 49.9902C156.507 49.5997 156.014 49.4044 155.389 49.4044C154.764 49.4044 154.266 49.5997 153.895 49.9902C153.534 50.371 153.354 50.9227 153.354 51.6452V56.1561H151.684V48.0863H153.354V49.009C153.627 48.677 153.974 48.4182 154.393 48.2327C154.823 48.0472 155.277 47.9545 155.755 47.9545Z" fill="#E93131"/>
<path d="M148.672 47.0173C148.369 47.0173 148.115 46.9148 147.91 46.7097C147.705 46.5047 147.603 46.2508 147.603 45.9482C147.603 45.6455 147.705 45.3916 147.91 45.1866C148.115 44.9816 148.369 44.879 148.672 44.879C148.965 44.879 149.214 44.9816 149.419 45.1866C149.624 45.3916 149.726 45.6455 149.726 45.9482C149.726 46.2508 149.624 46.5047 149.419 46.7097C149.214 46.9148 148.965 47.0173 148.672 47.0173ZM149.492 48.0864V56.1562H147.822V48.0864H149.492Z" fill="#E93131"/>
<path d="M141.148 47.9545C141.773 47.9545 142.324 48.0814 142.803 48.3353C143.291 48.5794 143.672 48.8869 143.945 49.2579V48.0863H145.629V56.2879C145.629 57.0299 145.473 57.689 145.161 58.265C144.848 58.8509 144.394 59.3098 143.799 59.6417C143.213 59.9737 142.51 60.1397 141.69 60.1397C140.596 60.1397 139.688 59.8809 138.966 59.3635C138.243 58.8557 137.833 58.1625 137.735 57.2838H139.39C139.517 57.7036 139.786 58.0405 140.196 58.2943C140.616 58.558 141.114 58.6898 141.69 58.6898C142.363 58.6898 142.905 58.4847 143.315 58.0746C143.735 57.6646 143.945 57.069 143.945 56.2879V54.9405C143.662 55.3213 143.276 55.6435 142.788 55.9071C142.31 56.1609 141.763 56.2879 141.148 56.2879C140.445 56.2879 139.8 56.1121 139.214 55.7606C138.638 55.3994 138.18 54.9014 137.838 54.2668C137.506 53.6224 137.34 52.895 137.34 52.0846C137.34 51.2742 137.506 50.5565 137.838 49.9316C138.18 49.3068 138.638 48.8234 139.214 48.4817C139.8 48.1302 140.445 47.9545 141.148 47.9545ZM143.945 52.1138C143.945 51.5573 143.828 51.074 143.594 50.6639C143.369 50.2538 143.071 49.9414 142.7 49.7266C142.329 49.5118 141.929 49.4044 141.499 49.4044C141.07 49.4044 140.669 49.5118 140.298 49.7266C139.927 49.9316 139.625 50.2392 139.39 50.6493C139.166 51.0496 139.053 51.528 139.053 52.0846C139.053 52.6411 139.166 53.1293 139.39 53.5491C139.625 53.969 139.927 54.2912 140.298 54.5157C140.679 54.7305 141.079 54.8379 141.499 54.8379C141.929 54.8379 142.329 54.7305 142.7 54.5157C143.071 54.3009 143.369 53.9885 143.594 53.5784C143.828 53.1586 143.945 52.6704 143.945 52.1138Z" fill="#E93131"/>
<path d="M132.457 47.9545C133.092 47.9545 133.658 48.0863 134.156 48.3499C134.663 48.6135 135.059 49.0041 135.342 49.5216C135.625 50.039 135.767 50.6639 135.767 51.3962V56.1561H134.112V51.6452C134.112 50.9227 133.931 50.371 133.57 49.9902C133.209 49.5997 132.716 49.4044 132.091 49.4044C131.466 49.4044 130.968 49.5997 130.597 49.9902C130.236 50.371 130.055 50.9227 130.055 51.6452V56.1561H128.385V48.0863H130.055V49.009C130.328 48.677 130.675 48.4182 131.095 48.2327C131.524 48.0472 131.978 47.9545 132.457 47.9545Z" fill="#E93131"/>
<path d="M122.375 47.3248V50.3125H125.89V51.6746H122.375V54.7941H126.329V56.1562H120.705V45.9628H126.329V47.3248H122.375Z" fill="#E93131"/>
<path d="M205.546 26.1178L200.595 37.9808H198.867L200.507 34.0558L197.329 26.1178H199.189L201.459 32.269L203.817 26.1178H205.546Z" fill="white"/>
<path d="M191.607 25.986C192.232 25.986 192.783 26.1129 193.262 26.3667C193.75 26.6108 194.131 26.9184 194.404 27.2894V26.1178H196.088V34.3194C196.088 35.0614 195.932 35.7205 195.62 36.2965C195.307 36.8824 194.853 37.3413 194.258 37.6732C193.672 38.0052 192.969 38.1712 192.149 38.1712C191.055 38.1712 190.147 37.9124 189.425 37.395C188.702 36.8872 188.292 36.194 188.194 35.3153H189.849C189.976 35.7351 190.245 36.072 190.655 36.3258C191.075 36.5894 191.573 36.7213 192.149 36.7213C192.822 36.7213 193.364 36.5162 193.774 36.1061C194.194 35.6961 194.404 35.1005 194.404 34.3194V32.972C194.121 33.3527 193.735 33.675 193.247 33.9386C192.769 34.1924 192.222 34.3194 191.607 34.3194C190.904 34.3194 190.259 34.1436 189.673 33.7921C189.097 33.4309 188.639 32.9329 188.297 32.2983C187.965 31.6538 187.799 30.9264 187.799 30.116C187.799 29.3057 187.965 28.588 188.297 27.9631C188.639 27.3382 189.097 26.8549 189.673 26.5132C190.259 26.1617 190.904 25.986 191.607 25.986ZM194.404 30.1453C194.404 29.5888 194.287 29.1055 194.053 28.6954C193.828 28.2853 193.53 27.9729 193.159 27.7581C192.788 27.5433 192.388 27.4359 191.958 27.4359C191.529 27.4359 191.128 27.5433 190.757 27.7581C190.386 27.9631 190.084 28.2707 189.849 28.6808C189.625 29.0811 189.512 29.5595 189.512 30.116C189.512 30.6726 189.625 31.1608 189.849 31.5806C190.084 32.0005 190.386 32.3227 190.757 32.5472C191.138 32.762 191.538 32.8694 191.958 32.8694C192.388 32.8694 192.788 32.762 193.159 32.5472C193.53 32.3324 193.828 32.02 194.053 31.6099C194.287 31.1901 194.404 30.7019 194.404 30.1453Z" fill="white"/>
<path d="M182.516 34.3194C181.755 34.3194 181.067 34.1485 180.451 33.8068C179.836 33.4553 179.353 32.9671 179.001 32.3422C178.65 31.7075 178.474 30.9753 178.474 30.1453C178.474 29.3252 178.655 28.5978 179.016 27.9631C179.377 27.3285 179.87 26.8403 180.495 26.4986C181.12 26.1568 181.818 25.986 182.59 25.986C183.361 25.986 184.059 26.1568 184.684 26.4986C185.309 26.8403 185.802 27.3285 186.163 27.9631C186.524 28.5978 186.705 29.3252 186.705 30.1453C186.705 30.9655 186.52 31.6929 186.149 32.3275C185.778 32.9622 185.27 33.4553 184.625 33.8068C183.991 34.1485 183.288 34.3194 182.516 34.3194ZM182.516 32.8694C182.946 32.8694 183.346 32.7669 183.717 32.5619C184.098 32.3568 184.406 32.0493 184.64 31.6392C184.874 31.2291 184.992 30.7312 184.992 30.1453C184.992 29.5595 184.879 29.0664 184.655 28.6661C184.43 28.256 184.132 27.9485 183.761 27.7434C183.39 27.5384 182.99 27.4359 182.56 27.4359C182.131 27.4359 181.73 27.5384 181.359 27.7434C180.998 27.9485 180.71 28.256 180.495 28.6661C180.281 29.0664 180.173 29.5595 180.173 30.1453C180.173 31.0143 180.393 31.688 180.832 32.1664C181.281 32.6351 181.843 32.8694 182.516 32.8694Z" fill="white"/>
<path d="M176.824 23.3499V34.1877H175.154V23.3499H176.824Z" fill="white"/>
<path d="M169.315 34.3194C168.554 34.3194 167.865 34.1485 167.25 33.8068C166.635 33.4553 166.152 32.9671 165.8 32.3422C165.449 31.7075 165.273 30.9753 165.273 30.1453C165.273 29.3252 165.454 28.5978 165.815 27.9631C166.176 27.3285 166.669 26.8403 167.294 26.4986C167.919 26.1568 168.617 25.986 169.389 25.986C170.16 25.986 170.858 26.1568 171.483 26.4986C172.108 26.8403 172.601 27.3285 172.962 27.9631C173.323 28.5978 173.504 29.3252 173.504 30.1453C173.504 30.9655 173.318 31.6929 172.947 32.3275C172.576 32.9622 172.069 33.4553 171.424 33.8068C170.79 34.1485 170.087 34.3194 169.315 34.3194ZM169.315 32.8694C169.745 32.8694 170.145 32.7669 170.516 32.5619C170.897 32.3568 171.205 32.0493 171.439 31.6392C171.673 31.2291 171.79 30.7312 171.79 30.1453C171.79 29.5595 171.678 29.0664 171.454 28.6661C171.229 28.256 170.931 27.9485 170.56 27.7434C170.189 27.5384 169.789 27.4359 169.359 27.4359C168.93 27.4359 168.529 27.5384 168.158 27.7434C167.797 27.9485 167.509 28.256 167.294 28.6661C167.079 29.0664 166.972 29.5595 166.972 30.1453C166.972 31.0143 167.192 31.688 167.631 32.1664C168.08 32.6351 168.642 32.8694 169.315 32.8694Z" fill="white"/>
<path d="M160.375 25.986C161.01 25.986 161.576 26.1178 162.074 26.3814C162.582 26.645 162.977 27.0356 163.26 27.553C163.544 28.0705 163.685 28.6954 163.685 29.4277V34.1876H162.03V29.6767C162.03 28.9542 161.85 28.4025 161.488 28.0217C161.127 27.6312 160.634 27.4359 160.009 27.4359C159.384 27.4359 158.886 27.6312 158.515 28.0217C158.154 28.4025 157.973 28.9542 157.973 29.6767V34.1876H156.304V26.1178H157.973V27.0405C158.247 26.7085 158.593 26.4497 159.013 26.2642C159.443 26.0787 159.897 25.986 160.375 25.986Z" fill="white"/>
<path d="M150.967 25.9861C151.582 25.9861 152.129 26.1179 152.607 26.3815C153.095 26.6451 153.476 27.0357 153.749 27.5532C154.032 28.0707 154.174 28.6955 154.174 29.4278V34.1877H152.519V29.6768C152.519 28.9543 152.338 28.4026 151.977 28.0218C151.616 27.6313 151.123 27.436 150.498 27.436C149.873 27.436 149.375 27.6313 149.004 28.0218C148.643 28.4026 148.462 28.9543 148.462 29.6768V34.1877H146.793V23.3499H148.462V27.0552C148.745 26.7135 149.102 26.4499 149.531 26.2643C149.971 26.0788 150.449 25.9861 150.967 25.9861Z" fill="white"/>
<path d="M137.454 30.1453C137.454 29.3154 137.62 28.588 137.952 27.9631C138.294 27.3285 138.763 26.8403 139.358 26.4986C139.954 26.1568 140.637 25.986 141.409 25.986C142.385 25.986 143.191 26.2203 143.825 26.689C144.47 27.1479 144.904 27.8069 145.129 28.6661H143.327C143.181 28.2658 142.946 27.9534 142.624 27.7288C142.302 27.5042 141.897 27.3919 141.409 27.3919C140.725 27.3919 140.178 27.636 139.768 28.1242C139.368 28.6027 139.168 29.2764 139.168 30.1453C139.168 31.0143 139.368 31.6929 139.768 32.1811C140.178 32.6693 140.725 32.9134 141.409 32.9134C142.375 32.9134 143.015 32.4887 143.327 31.6392H145.129C144.894 32.4594 144.455 33.1135 143.811 33.6017C143.166 34.0802 142.366 34.3194 141.409 34.3194C140.637 34.3194 139.954 34.1485 139.358 33.8068C138.763 33.4553 138.294 32.9671 137.952 32.3422C137.62 31.7075 137.454 30.9753 137.454 30.1453Z" fill="white"/>
<path d="M136.368 29.9549C136.368 30.2576 136.348 30.531 136.309 30.7751H130.143C130.192 31.4195 130.431 31.937 130.861 32.3275C131.291 32.7181 131.818 32.9134 132.443 32.9134C133.341 32.9134 133.976 32.5375 134.347 31.7857H136.148C135.904 32.5277 135.46 33.1379 134.815 33.6164C134.181 34.085 133.39 34.3194 132.443 34.3194C131.671 34.3194 130.978 34.1485 130.363 33.8068C129.758 33.4553 129.279 32.9671 128.928 32.3422C128.586 31.7075 128.415 30.9753 128.415 30.1453C128.415 29.3154 128.581 28.588 128.913 27.9631C129.255 27.3285 129.728 26.8403 130.334 26.4986C130.949 26.1568 131.652 25.986 132.443 25.986C133.204 25.986 133.883 26.1519 134.478 26.4839C135.074 26.8159 135.538 27.2845 135.87 27.8899C136.202 28.4855 136.368 29.1738 136.368 29.9549ZM134.625 29.4277C134.615 28.8126 134.395 28.3195 133.966 27.9485C133.536 27.5775 133.004 27.3919 132.369 27.3919C131.793 27.3919 131.3 27.5775 130.89 27.9485C130.48 28.3097 130.236 28.8028 130.158 29.4277H134.625Z" fill="white"/>
<path d="M127.281 24.0088V25.3708H124.571V34.1876H122.902V25.3708H120.178V24.0088H127.281Z" fill="white"/>
<path d="M201.767 4.01733C202.401 4.01733 202.968 4.14915 203.465 4.41277C203.973 4.67639 204.369 5.06694 204.652 5.58442C204.935 6.10191 205.076 6.72679 205.076 7.45907V12.2189H203.422V7.70805C203.422 6.98553 203.241 6.43387 202.88 6.05309C202.518 5.66253 202.025 5.46726 201.4 5.46726C200.776 5.46726 200.278 5.66253 199.907 6.05309C199.545 6.43387 199.365 6.98553 199.365 7.70805V12.2189H197.695V4.14915H199.365V5.07182C199.638 4.73986 199.985 4.48111 200.405 4.2956C200.834 4.11009 201.288 4.01733 201.767 4.01733Z" fill="white"/>
<path d="M191.856 12.3507C191.094 12.3507 190.406 12.1799 189.791 11.8381C189.176 11.4866 188.692 10.9985 188.341 10.3736C187.989 9.73892 187.814 9.00664 187.814 8.17671C187.814 7.35655 187.994 6.62915 188.355 5.9945C188.717 5.35986 189.21 4.87167 189.835 4.52993C190.46 4.1882 191.158 4.01733 191.929 4.01733C192.7 4.01733 193.398 4.1882 194.023 4.52993C194.648 4.87167 195.141 5.35986 195.503 5.9945C195.864 6.62915 196.044 7.35655 196.044 8.17671C196.044 8.99687 195.859 9.72428 195.488 10.3589C195.117 10.9936 194.609 11.4866 193.965 11.8381C193.33 12.1799 192.627 12.3507 191.856 12.3507ZM191.856 10.9008C192.285 10.9008 192.686 10.7983 193.057 10.5933C193.438 10.3882 193.745 10.0807 193.979 9.67057C194.214 9.26049 194.331 8.76254 194.331 8.17671C194.331 7.59088 194.219 7.09781 193.994 6.6975C193.77 6.28742 193.472 5.97986 193.101 5.77482C192.73 5.56978 192.329 5.46726 191.9 5.46726C191.47 5.46726 191.07 5.56978 190.699 5.77482C190.338 5.97986 190.05 6.28742 189.835 6.6975C189.62 7.09781 189.512 7.59088 189.512 8.17671C189.512 9.04569 189.732 9.71939 190.172 10.1978C190.621 10.6665 191.182 10.9008 191.856 10.9008Z" fill="white"/>
<path d="M185.343 3.08029C185.041 3.08029 184.787 2.97777 184.582 2.77273C184.377 2.56769 184.274 2.31383 184.274 2.01115C184.274 1.70847 184.377 1.45462 184.582 1.24958C184.787 1.04454 185.041 0.942017 185.343 0.942017C185.636 0.942017 185.885 1.04454 186.09 1.24958C186.295 1.45462 186.398 1.70847 186.398 2.01115C186.398 2.31383 186.295 2.56769 186.09 2.77273C185.885 2.97777 185.636 3.08029 185.343 3.08029ZM186.163 4.14943V12.2192H184.494V4.14943H186.163Z" fill="white"/>
<path d="M180.992 5.51146V9.97839C180.992 10.2811 181.061 10.5008 181.197 10.6375C181.344 10.7644 181.588 10.8278 181.93 10.8278H182.955V12.2192H181.637C180.885 12.2192 180.309 12.0434 179.909 11.6919C179.508 11.3404 179.308 10.7693 179.308 9.97839V5.51146H178.356V4.14941H179.308V2.14294H180.992V4.14941H182.955V5.51146H180.992Z" fill="white"/>
<path d="M168.562 8.14742C168.562 7.33703 168.728 6.61939 169.06 5.9945C169.402 5.36962 169.861 4.88631 170.437 4.54458C171.023 4.19308 171.667 4.01733 172.37 4.01733C173.005 4.01733 173.556 4.14426 174.025 4.39812C174.503 4.64222 174.884 4.94978 175.167 5.3208V4.14915H176.852V12.2189H175.167V11.018C174.884 11.3988 174.499 11.7161 174.01 11.9699C173.522 12.2238 172.966 12.3507 172.341 12.3507C171.647 12.3507 171.013 12.175 170.437 11.8235C169.861 11.4622 169.402 10.9643 169.06 10.3296C168.728 9.68522 168.562 8.95782 168.562 8.14742ZM175.167 8.17671C175.167 7.62018 175.05 7.13687 174.816 6.72679C174.591 6.31671 174.293 6.00427 173.922 5.78946C173.551 5.57466 173.151 5.46726 172.722 5.46726C172.292 5.46726 171.892 5.57466 171.521 5.78946C171.15 5.9945 170.847 6.30206 170.613 6.71214C170.388 7.11246 170.276 7.59088 170.276 8.14742C170.276 8.70396 170.388 9.19215 170.613 9.61199C170.847 10.0318 171.15 10.354 171.521 10.5786C171.901 10.7934 172.302 10.9008 172.722 10.9008C173.151 10.9008 173.551 10.7934 173.922 10.5786C174.293 10.3638 174.591 10.0514 174.816 9.64128C175.05 9.22144 175.167 8.73325 175.167 8.17671Z" fill="white"/>
<path d="M163.67 4.01733C164.304 4.01733 164.871 4.14915 165.368 4.41277C165.876 4.67639 166.272 5.06694 166.555 5.58442C166.848 6.10191 166.994 6.72679 166.994 7.45907V12.2189H165.339V7.70805C165.339 6.98553 165.159 6.43387 164.797 6.05309C164.436 5.66253 163.943 5.46726 163.318 5.46726C162.693 5.46726 162.195 5.66253 161.824 6.05309C161.463 6.43387 161.282 6.98553 161.282 7.70805V12.2189H159.627V7.70805C159.627 6.98553 159.447 6.43387 159.085 6.05309C158.724 5.66253 158.231 5.46726 157.606 5.46726C156.981 5.46726 156.483 5.66253 156.112 6.05309C155.751 6.43387 155.57 6.98553 155.57 7.70805V12.2189H153.901V4.14915H155.57V5.07182C155.844 4.73986 156.19 4.48111 156.61 4.2956C157.03 4.11009 157.479 4.01733 157.958 4.01733C158.602 4.01733 159.178 4.15403 159.686 4.42741C160.194 4.7008 160.584 5.09623 160.858 5.61371C161.102 5.12552 161.482 4.73985 162 4.4567C162.517 4.16379 163.074 4.01733 163.67 4.01733Z" fill="white"/>
<path d="M149.95 5.3208C150.194 4.91072 150.516 4.5934 150.916 4.36883C151.326 4.1345 151.81 4.01733 152.366 4.01733V5.74553H151.941C151.287 5.74553 150.789 5.91151 150.448 6.24348C150.116 6.57545 149.95 7.15151 149.95 7.97167V12.2189H148.28V4.14915H149.95V5.3208Z" fill="white"/>
<path d="M142.441 12.3507C141.679 12.3507 140.991 12.1799 140.376 11.8381C139.761 11.4866 139.277 10.9985 138.926 10.3736C138.574 9.73892 138.399 9.00664 138.399 8.17671C138.399 7.35655 138.579 6.62915 138.941 5.9945C139.302 5.35986 139.795 4.87167 140.42 4.52993C141.045 4.1882 141.743 4.01733 142.514 4.01733C143.285 4.01733 143.984 4.1882 144.608 4.52993C145.233 4.87167 145.726 5.35986 146.088 5.9945C146.449 6.62915 146.63 7.35655 146.63 8.17671C146.63 8.99687 146.444 9.72428 146.073 10.3589C145.702 10.9936 145.194 11.4866 144.55 11.8381C143.915 12.1799 143.212 12.3507 142.441 12.3507ZM142.441 10.9008C142.871 10.9008 143.271 10.7983 143.642 10.5933C144.023 10.3882 144.33 10.0807 144.565 9.67057C144.799 9.26049 144.916 8.76254 144.916 8.17671C144.916 7.59088 144.804 7.09781 144.579 6.6975C144.355 6.28742 144.057 5.97986 143.686 5.77482C143.315 5.56978 142.914 5.46726 142.485 5.46726C142.055 5.46726 141.655 5.56978 141.284 5.77482C140.923 5.97986 140.635 6.28742 140.42 6.6975C140.205 7.09781 140.098 7.59088 140.098 8.17671C140.098 9.04569 140.317 9.71939 140.757 10.1978C141.206 10.6665 141.767 10.9008 142.441 10.9008Z" fill="white"/>
<path d="M137.461 5.51135H135.967V12.2191H134.283V5.51135H133.331V4.1493H134.283V3.57811C134.283 2.65055 134.527 1.97685 135.015 1.55701C135.513 1.1274 136.289 0.912598 137.344 0.912598V2.30394C136.836 2.30394 136.48 2.40158 136.274 2.59685C136.069 2.78237 135.967 3.10945 135.967 3.57811V4.1493H137.461V5.51135Z" fill="white"/>
<path d="M128.638 4.01733C129.273 4.01733 129.839 4.14915 130.337 4.41277C130.845 4.67639 131.24 5.06694 131.523 5.58442C131.806 6.10191 131.948 6.72679 131.948 7.45907V12.2189H130.293V7.70805C130.293 6.98553 130.112 6.43387 129.751 6.05309C129.39 5.66253 128.897 5.46726 128.272 5.46726C127.647 5.46726 127.149 5.66253 126.778 6.05309C126.417 6.43387 126.236 6.98553 126.236 7.70805V12.2189H124.567V4.14915H126.236V5.07182C126.51 4.73986 126.856 4.48111 127.276 4.2956C127.706 4.11009 128.16 4.01733 128.638 4.01733Z" fill="white"/>
<path d="M122.375 2.04028V12.219H120.705V2.04028H122.375Z" fill="white"/>
<path d="M8.47 72.2098C8.19933 71.6404 7.80733 71.2018 7.294 70.8938C6.78067 70.5764 6.18333 70.4178 5.502 70.4178C4.82067 70.4178 4.20467 70.5764 3.654 70.8938C3.11267 71.2018 2.68333 71.6498 2.366 72.2378C2.058 72.8164 1.904 73.4884 1.904 74.2538C1.904 75.0191 2.058 75.6911 2.366 76.2698C2.68333 76.8484 3.11267 77.2964 3.654 77.6138C4.20467 77.9218 4.82067 78.0758 5.502 78.0758C6.454 78.0758 7.238 77.7911 7.854 77.2218C8.47 76.6524 8.82933 75.8824 8.932 74.9118H5.04V73.8758H10.29V74.8558C10.2153 75.6584 9.96333 76.3958 9.534 77.0678C9.10467 77.7304 8.54 78.2578 7.84 78.6498C7.14 79.0324 6.36067 79.2238 5.502 79.2238C4.59667 79.2238 3.77067 79.0138 3.024 78.5938C2.27733 78.1644 1.68467 77.5718 1.246 76.8158C0.816667 76.0598 0.602 75.2058 0.602 74.2538C0.602 73.3018 0.816667 72.4478 1.246 71.6918C1.68467 70.9264 2.27733 70.3338 3.024 69.9138C3.77067 69.4844 4.59667 69.2698 5.502 69.2698C6.538 69.2698 7.45267 69.5264 8.246 70.0398C9.04867 70.5531 9.632 71.2764 9.996 72.2098H8.47ZM22.4745 75.0098C22.4745 75.2524 22.4605 75.5091 22.4325 75.7798H16.3005C16.3472 76.5358 16.6038 77.1284 17.0705 77.5578C17.5465 77.9778 18.1205 78.1878 18.7925 78.1878C19.3432 78.1878 19.8005 78.0618 20.1645 77.8098C20.5378 77.5484 20.7992 77.2031 20.9485 76.7738H22.3205C22.1152 77.5111 21.7045 78.1131 21.0885 78.5798C20.4725 79.0371 19.7072 79.2658 18.7925 79.2658C18.0645 79.2658 17.4112 79.1024 16.8325 78.7758C16.2632 78.4491 15.8152 77.9871 15.4885 77.3898C15.1618 76.7831 14.9985 76.0831 14.9985 75.2898C14.9985 74.4964 15.1572 73.8011 15.4745 73.2038C15.7918 72.6064 16.2352 72.1491 16.8045 71.8318C17.3832 71.5051 18.0458 71.3418 18.7925 71.3418C19.5205 71.3418 20.1645 71.5004 20.7245 71.8178C21.2845 72.1351 21.7138 72.5738 22.0125 73.1338C22.3205 73.6844 22.4745 74.3098 22.4745 75.0098ZM21.1585 74.7438C21.1585 74.2584 21.0512 73.8431 20.8365 73.4978C20.6218 73.1431 20.3278 72.8771 19.9545 72.6998C19.5905 72.5131 19.1845 72.4198 18.7365 72.4198C18.0925 72.4198 17.5418 72.6251 17.0845 73.0358C16.6365 73.4464 16.3798 74.0158 16.3145 74.7438H21.1585ZM31.3941 71.3278C32.3275 71.3278 33.0835 71.6124 33.6621 72.1818C34.2408 72.7418 34.5301 73.5538 34.5301 74.6178V79.1398H33.2701V74.7998C33.2701 74.0344 33.0788 73.4511 32.6961 73.0498C32.3135 72.6391 31.7908 72.4338 31.1281 72.4338C30.4561 72.4338 29.9195 72.6438 29.5181 73.0638C29.1261 73.4838 28.9301 74.0951 28.9301 74.8978V79.1398H27.6561V71.4678H28.9301V72.5598C29.1821 72.1678 29.5228 71.8644 29.9521 71.6498C30.3908 71.4351 30.8715 71.3278 31.3941 71.3278ZM47.1112 75.0098C47.1112 75.2524 47.0972 75.5091 47.0692 75.7798H40.9372C40.9839 76.5358 41.2405 77.1284 41.7072 77.5578C42.1832 77.9778 42.7572 78.1878 43.4292 78.1878C43.9799 78.1878 44.4372 78.0618 44.8012 77.8098C45.1745 77.5484 45.4359 77.2031 45.5852 76.7738H46.9572C46.7519 77.5111 46.3412 78.1131 45.7252 78.5798C45.1092 79.0371 44.3439 79.2658 43.4292 79.2658C42.7012 79.2658 42.0479 79.1024 41.4692 78.7758C40.8999 78.4491 40.4519 77.9871 40.1252 77.3898C39.7985 76.7831 39.6352 76.0831 39.6352 75.2898C39.6352 74.4964 39.7939 73.8011 40.1112 73.2038C40.4285 72.6064 40.8719 72.1491 41.4412 71.8318C42.0199 71.5051 42.6825 71.3418 43.4292 71.3418C44.1572 71.3418 44.8012 71.5004 45.3612 71.8178C45.9212 72.1351 46.3505 72.5738 46.6492 73.1338C46.9572 73.6844 47.1112 74.3098 47.1112 75.0098ZM45.7952 74.7438C45.7952 74.2584 45.6879 73.8431 45.4732 73.4978C45.2585 73.1431 44.9645 72.8771 44.5912 72.6998C44.2272 72.5131 43.8212 72.4198 43.3732 72.4198C42.7292 72.4198 42.1785 72.6251 41.7212 73.0358C41.2732 73.4464 41.0165 74.0158 40.9512 74.7438H45.7952ZM53.5668 72.7138C53.7908 72.2751 54.1082 71.9344 54.5188 71.6918C54.9388 71.4491 55.4475 71.3278 56.0448 71.3278V72.6438H55.7088C54.2808 72.6438 53.5668 73.4184 53.5668 74.9678V79.1398H52.2928V71.4678H53.5668V72.7138ZM60.5395 75.2758C60.5395 74.4918 60.6982 73.8058 61.0155 73.2178C61.3328 72.6204 61.7668 72.1584 62.3175 71.8318C62.8775 71.5051 63.4982 71.3418 64.1795 71.3418C64.8515 71.3418 65.4348 71.4864 65.9295 71.7758C66.4242 72.0651 66.7928 72.4291 67.0355 72.8678V71.4678H68.3235V79.1398H67.0355V77.7118C66.7835 78.1598 66.4055 78.5331 65.9015 78.8318C65.4068 79.1211 64.8282 79.2658 64.1655 79.2658C63.4842 79.2658 62.8682 79.0978 62.3175 78.7618C61.7668 78.4258 61.3328 77.9544 61.0155 77.3478C60.6982 76.7411 60.5395 76.0504 60.5395 75.2758ZM67.0355 75.2898C67.0355 74.7111 66.9188 74.2071 66.6855 73.7778C66.4522 73.3484 66.1348 73.0218 65.7335 72.7978C65.3415 72.5644 64.9075 72.4478 64.4315 72.4478C63.9555 72.4478 63.5215 72.5598 63.1295 72.7838C62.7375 73.0078 62.4248 73.3344 62.1915 73.7638C61.9582 74.1931 61.8415 74.6971 61.8415 75.2758C61.8415 75.8638 61.9582 76.3771 62.1915 76.8158C62.4248 77.2451 62.7375 77.5764 63.1295 77.8098C63.5215 78.0338 63.9555 78.1458 64.4315 78.1458C64.9075 78.1458 65.3415 78.0338 65.7335 77.8098C66.1348 77.5764 66.4522 77.2451 66.6855 76.8158C66.9188 76.3771 67.0355 75.8684 67.0355 75.2898ZM75.5304 72.5178V77.0398C75.5304 77.4131 75.6098 77.6791 75.7684 77.8378C75.9271 77.9871 76.2024 78.0618 76.5944 78.0618H77.5324V79.1398H76.3844C75.6751 79.1398 75.1431 78.9764 74.7884 78.6498C74.4338 78.3231 74.2564 77.7864 74.2564 77.0398V72.5178H73.2624V71.4678H74.2564V69.5358H75.5304V71.4678H77.5324V72.5178H75.5304ZM83.234 70.2218C82.9914 70.2218 82.786 70.1378 82.618 69.9698C82.45 69.8018 82.366 69.5964 82.366 69.3538C82.366 69.1111 82.45 68.9058 82.618 68.7378C82.786 68.5698 82.9914 68.4858 83.234 68.4858C83.4674 68.4858 83.6634 68.5698 83.822 68.7378C83.99 68.9058 84.074 69.1111 84.074 69.3538C84.074 69.5964 83.99 69.8018 83.822 69.9698C83.6634 70.1378 83.4674 70.2218 83.234 70.2218ZM83.85 71.4678V79.1398H82.576V71.4678H83.85ZM92.8674 79.2658C92.1487 79.2658 91.4954 79.1024 90.9074 78.7758C90.3287 78.4491 89.8714 77.9871 89.5354 77.3898C89.2087 76.7831 89.0454 76.0831 89.0454 75.2898C89.0454 74.5058 89.2134 73.8151 89.5494 73.2178C89.8947 72.6111 90.3614 72.1491 90.9494 71.8318C91.5374 71.5051 92.1954 71.3418 92.9234 71.3418C93.6514 71.3418 94.3094 71.5051 94.8974 71.8318C95.4854 72.1491 95.9474 72.6064 96.2834 73.2038C96.6287 73.8011 96.8014 74.4964 96.8014 75.2898C96.8014 76.0831 96.624 76.7831 96.2694 77.3898C95.924 77.9871 95.4527 78.4491 94.8554 78.7758C94.258 79.1024 93.5954 79.2658 92.8674 79.2658ZM92.8674 78.1458C93.3247 78.1458 93.754 78.0384 94.1554 77.8238C94.5567 77.6091 94.8787 77.2871 95.1214 76.8578C95.3734 76.4284 95.4994 75.9058 95.4994 75.2898C95.4994 74.6738 95.378 74.1511 95.1354 73.7218C94.8927 73.2924 94.5754 72.9751 94.1834 72.7698C93.7914 72.5551 93.3667 72.4478 92.9094 72.4478C92.4427 72.4478 92.0134 72.5551 91.6214 72.7698C91.2387 72.9751 90.9307 73.2924 90.6974 73.7218C90.464 74.1511 90.3474 74.6738 90.3474 75.2898C90.3474 75.9151 90.4594 76.4424 90.6834 76.8718C90.9167 77.3011 91.2247 77.6231 91.6074 77.8378C91.99 78.0431 92.41 78.1458 92.8674 78.1458ZM105.714 71.3278C106.648 71.3278 107.404 71.6124 107.982 72.1818C108.561 72.7418 108.85 73.5538 108.85 74.6178V79.1398H107.59V74.7998C107.59 74.0344 107.399 73.4511 107.016 73.0498C106.634 72.6391 106.111 72.4338 105.448 72.4338C104.776 72.4338 104.24 72.6438 103.838 73.0638C103.446 73.4838 103.25 74.0951 103.25 74.8978V79.1398H101.976V71.4678H103.25V72.5598C103.502 72.1678 103.843 71.8644 104.272 71.6498C104.711 71.4351 105.192 71.3278 105.714 71.3278ZM127.684 70.0118L123.792 79.1398H122.504L126.452 70.1378H121.048V69.0458H127.684V70.0118ZM145.807 76.9698H141.551L140.767 79.1398H139.423L142.951 69.4378H144.421L147.935 79.1398H146.591L145.807 76.9698ZM145.443 75.9338L143.679 71.0058L141.915 75.9338H145.443ZM154.247 68.7798V79.1398H152.973V68.7798H154.247ZM166.722 71.4678V79.1398H165.448V78.0058C165.205 78.3978 164.865 78.7058 164.426 78.9298C163.997 79.1444 163.521 79.2518 162.998 79.2518C162.401 79.2518 161.864 79.1304 161.388 78.8878C160.912 78.6358 160.534 78.2624 160.254 77.7678C159.983 77.2731 159.848 76.6711 159.848 75.9618V71.4678H161.108V75.7938C161.108 76.5498 161.299 77.1331 161.682 77.5438C162.065 77.9451 162.587 78.1458 163.25 78.1458C163.931 78.1458 164.468 77.9358 164.86 77.5158C165.252 77.0958 165.448 76.4844 165.448 75.6818V71.4678H166.722ZM181.599 71.3278C182.196 71.3278 182.728 71.4538 183.195 71.7058C183.662 71.9484 184.03 72.3171 184.301 72.8118C184.572 73.3064 184.707 73.9084 184.707 74.6178V79.1398H183.447V74.7998C183.447 74.0344 183.256 73.4511 182.873 73.0498C182.5 72.6391 181.991 72.4338 181.347 72.4338C180.684 72.4338 180.157 72.6484 179.765 73.0778C179.373 73.4978 179.177 74.1091 179.177 74.9118V79.1398H177.917V74.7998C177.917 74.0344 177.726 73.4511 177.343 73.0498C176.97 72.6391 176.461 72.4338 175.817 72.4338C175.154 72.4338 174.627 72.6484 174.235 73.0778C173.843 73.4978 173.647 74.1091 173.647 74.9118V79.1398H172.373V71.4678H173.647V72.5738C173.899 72.1724 174.235 71.8644 174.655 71.6498C175.084 71.4351 175.556 71.3278 176.069 71.3278C176.713 71.3278 177.282 71.4724 177.777 71.7618C178.272 72.0511 178.64 72.4758 178.883 73.0358C179.098 72.4944 179.452 72.0744 179.947 71.7758C180.442 71.4771 180.992 71.3278 181.599 71.3278ZM194.035 71.3278C194.968 71.3278 195.724 71.6124 196.303 72.1818C196.881 72.7418 197.171 73.5538 197.171 74.6178V79.1398H195.911V74.7998C195.911 74.0344 195.719 73.4511 195.337 73.0498C194.954 72.6391 194.431 72.4338 193.769 72.4338C193.097 72.4338 192.56 72.6438 192.159 73.0638C191.767 73.4838 191.571 74.0951 191.571 74.8978V79.1398H190.297V71.4678H191.571V72.5598C191.823 72.1678 192.163 71.8644 192.593 71.6498C193.031 71.4351 193.512 71.3278 194.035 71.3278ZM203.41 70.2218C203.167 70.2218 202.962 70.1378 202.794 69.9698C202.626 69.8018 202.542 69.5964 202.542 69.3538C202.542 69.1111 202.626 68.9058 202.794 68.7378C202.962 68.5698 203.167 68.4858 203.41 68.4858C203.643 68.4858 203.839 68.5698 203.998 68.7378C204.166 68.9058 204.25 69.1111 204.25 69.3538C204.25 69.5964 204.166 69.8018 203.998 69.9698C203.839 70.1378 203.643 70.2218 203.41 70.2218ZM204.026 71.4678V79.1398H202.752V71.4678H204.026Z" fill="white"/>
</svg>
