<svg width="26" height="26" viewBox="0 0 26 26" fill="none" xmlns="http://www.w3.org/2000/svg">
<g id="Mail">
<g id="Icon">
<path d="M2.80425 8.8074L14 14.4046L25.1958 8.8074C25.1544 8.09402 24.8418 7.42348 24.322 6.93312C23.8022 6.44275 23.1146 6.16967 22.4 6.1698H5.60005C4.88547 6.16967 4.19787 6.44275 3.6781 6.93312C3.15832 7.42348 2.84569 8.09402 2.80425 8.8074Z" fill="white"/>
<path d="M25.2 11.935L14 17.535L2.80005 11.935V20.1698C2.80005 20.9124 3.09505 21.6246 3.62015 22.1497C4.14525 22.6748 4.85744 22.9698 5.60005 22.9698H22.4C23.1427 22.9698 23.8548 22.6748 24.3799 22.1497C24.905 21.6246 25.2 20.9124 25.2 20.1698V11.935Z" fill="white"/>
</g>
</g>
</svg>
