<svg width="11" height="11" viewBox="0 0 11 11" fill="none" xmlns="http://www.w3.org/2000/svg">
<path fill-rule="evenodd" clip-rule="evenodd" d="M0.25 1.17255C0.25 0.758333 0.585786 0.422546 1 0.422546H10C10.4142 0.422546 10.75 0.758333 10.75 1.17255C10.75 1.58676 10.4142 1.92255 10 1.92255H1C0.585786 1.92255 0.25 1.58676 0.25 1.17255ZM0.25 4.17255C0.25 3.75833 0.585786 3.42255 1 3.42255H10C10.4142 3.42255 10.75 3.75833 10.75 4.17255C10.75 4.58676 10.4142 4.92255 10 4.92255H1C0.585786 4.92255 0.25 4.58676 0.25 4.17255ZM0.25 7.17255C0.25 6.75833 0.585786 6.42255 1 6.42255H10C10.4142 6.42255 10.75 6.75833 10.75 7.17255C10.75 7.58676 10.4142 7.92255 10 7.92255H1C0.585786 7.92255 0.25 7.58676 0.25 7.17255ZM0.25 10.1725C0.25 9.75833 0.585786 9.42255 1 9.42255H10C10.4142 9.42255 10.75 9.75833 10.75 10.1725C10.75 10.5868 10.4142 10.9225 10 10.9225H1C0.585786 10.9225 0.25 10.5868 0.25 10.1725Z" fill="#014164"/>
</svg>
