<svg width="26" height="26" viewBox="0 0 26 26" fill="none" xmlns="http://www.w3.org/2000/svg">
<path opacity="0.4" d="M14.8143 20.8306C14.304 20.715 11.1939 20.715 10.6835 20.8306C10.2472 20.9376 9.77539 21.1863 9.77539 21.7319C9.80076 22.2523 10.0879 22.7116 10.4857 23.0029L10.4847 23.004C10.9991 23.4295 11.6028 23.7001 12.235 23.7972C12.5719 23.8463 12.9148 23.8442 13.2639 23.7972C13.895 23.7001 14.4988 23.4295 15.0132 23.004L15.0122 23.0029C15.41 22.7116 15.6971 22.2523 15.7225 21.7319C15.7225 21.1863 15.2507 20.9376 14.8143 20.8306" fill="white"/>
<path fill-rule="evenodd" clip-rule="evenodd" d="M14.7072 2.44562C14.0869 2.26299 13.4456 2.16675 12.8085 2.16675H12.7182C10.6391 2.16675 8.53767 3.18689 7.22669 4.88895C6.34492 6.05421 5.91571 7.24565 5.91571 9.06772V9.53033C5.91571 10.8909 5.59912 11.6917 4.831 12.6159C4.26582 13.2967 4.08521 14.1717 4.08521 15.1188C4.08521 16.0669 4.37845 16.9648 4.96697 17.6948C5.73509 18.5698 6.8198 19.1284 7.92784 19.2255C9.53207 19.4197 11.1363 19.4928 12.7639 19.4928C14.3904 19.4928 15.9946 19.3706 17.5999 19.2255C18.7069 19.1284 19.7916 18.5698 20.5597 17.6948C21.1472 16.9648 21.4415 16.0669 21.4415 15.1188C21.4415 14.1717 21.2609 13.2967 20.6957 12.6159C19.9827 11.7324 19.6416 10.9617 19.613 9.7069C19.1155 9.89634 18.5758 10.0001 18.0119 10.0001C15.5266 10.0001 13.5119 7.98536 13.5119 5.50008C13.5119 4.32107 13.9653 3.24797 14.7072 2.44562Z" fill="white"/>
<circle cx="18.012" cy="5.5" r="3.5" fill="#E23A35"/>
</svg>
