<svg width="26" height="26" viewBox="0 0 26 26" fill="none" xmlns="http://www.w3.org/2000/svg">
<g id="Phone">
<path id="Icon" d="M2.80005 4.76987C2.80005 3.99667 3.42685 3.36987 4.20005 3.36987H7.21407C7.89845 3.36987 8.48251 3.86465 8.59502 4.53971L9.63006 10.7499C9.7311 11.3562 9.42493 11.9574 8.87521 12.2323L6.70781 13.316C8.27063 17.1995 11.3704 20.2993 15.2539 21.8621L16.3376 19.6947C16.6125 19.145 17.2137 18.8388 17.82 18.9399L24.0302 19.9749C24.7053 20.0874 25.2001 20.6715 25.2001 21.3559V24.3699C25.2001 25.1431 24.5732 25.7699 23.8001 25.7699H21.0001C10.9485 25.7699 2.80005 17.6215 2.80005 7.56987V4.76987Z" fill="white"/>
</g>
</svg>
