<svg width="16" height="16" viewBox="0 0 16 16" fill="none" xmlns="http://www.w3.org/2000/svg">
<g id="Search">
<path id="Icon" fill-rule="evenodd" clip-rule="evenodd" d="M6.09988 3.31253C4.41542 3.31253 3.0499 4.79562 3.0499 6.6251C3.0499 8.45458 4.41542 9.93766 6.09988 9.93766C7.78434 9.93766 9.14987 8.45458 9.14987 6.6251C9.14987 4.79562 7.78434 3.31253 6.09988 3.31253ZM1.5249 6.6251C1.5249 3.88088 3.57319 1.65625 6.09988 1.65625C8.62657 1.65625 10.6749 3.88088 10.6749 6.6251C10.6749 7.69823 10.3616 8.6919 9.82906 9.50416L13.5015 13.4928C13.7993 13.8162 13.7993 14.3405 13.5015 14.664C13.2037 14.9874 12.721 14.9874 12.4232 14.664L8.75073 10.6753C8.00286 11.2538 7.08795 11.5939 6.09988 11.5939C3.57319 11.5939 1.5249 9.36932 1.5249 6.6251Z" fill="#111827"/>
</g>
</svg>
