<svg width="333" height="200" viewBox="0 0 333 200" fill="none" xmlns="http://www.w3.org/2000/svg">
<g clip-path="url(#clip0_2559_26351)">
<path d="M58.8844 65.7664C52.2743 65.7664 15.0699 65.1289 15.0699 65.1289L0 76.562C0 76.562 30.9393 76.4627 35.4435 76.7344C39.953 77.0061 82.3253 76.4627 84.128 76.4627L70.9079 66.0329L58.8896 65.7612L58.8844 65.7664Z" fill="#D2E0F8"/>
<path d="M22.9392 53.9565C21.8837 53.9565 20.222 54.2909 19.9451 54.6201C19.6681 54.9493 19.2815 56.8357 19.1717 58.0009C19.062 59.1662 18.064 65.0969 18.1737 66.095C18.2834 67.093 20.7759 67.2602 21.9986 67.3125C23.2214 67.3647 24.9928 67.3125 25.6564 66.1472C26.32 64.982 27.9817 63.43 28.1489 63.1531C28.3161 62.8762 26.9314 55.3412 26.8164 54.3954C26.7015 53.4496 23.932 53.9513 22.9392 53.9513V53.9565Z" fill="#81ADEB"/>
<path d="M21.9046 55.3675C21.5336 51.0566 21.9673 50.4766 22.4271 49.8652L22.5055 49.7607C22.8085 49.3427 23.4304 49.1076 23.9999 49.1964C24.3866 49.2539 25.0972 49.5204 25.4578 50.6072C25.7765 51.5582 25.7452 52.5563 25.7191 53.4394C25.6982 54.1343 25.6825 54.7352 25.8392 55.1428L25.3533 55.3309C25.1599 54.8293 25.1756 54.1761 25.1965 53.4237C25.2226 52.5876 25.2488 51.6366 24.9614 50.7744C24.7001 49.9906 24.2507 49.7659 23.9215 49.7137C23.4931 49.6458 23.0907 49.8443 22.9287 50.069L22.8451 50.184C22.4637 50.6908 22.0718 51.2134 22.4271 55.3257L21.9046 55.3727V55.3675Z" fill="#81ADEB"/>
<path d="M25.876 66.3453C25.5729 67.3224 25.4318 70.1128 31.0856 70.3375C36.7395 70.5621 36.8492 69.005 37.0687 67.1239C37.2881 65.2375 35.1823 63.9103 32.857 63.4661C30.5318 63.022 26.9838 62.8025 25.876 66.3505V66.3453Z" fill="#81ADEB"/>
<path d="M36.52 66.3453C36.217 67.3224 36.0759 70.1128 41.7297 70.3375C47.3835 70.5621 47.4932 69.005 47.7127 67.1239C47.9322 65.2375 45.8264 63.9103 43.5011 63.4661C41.1758 63.022 37.6278 62.8025 36.52 66.3505V66.3453Z" fill="#81ADEB"/>
<path d="M31.2423 34.5708C31.2057 33.2436 30.657 31.9163 31.6342 29.962C32.6113 28.0078 34.482 26.8373 35.5375 26.7223C36.593 26.6074 36.9797 26.8007 37.45 26.9575C37.45 26.9575 38.819 26.8425 39.5192 27.271C40.2194 27.6995 41.5519 29.0685 41.902 31.2161C42.2521 33.3637 41.1234 35.5897 41.16 36.2534C41.1965 36.917 41.902 40.5486 41.902 40.5486H31.2841L31.2475 34.576L31.2423 34.5708Z" fill="#497AB4"/>
<path d="M34.5499 38.9609L38.3487 38.9714L40.0156 40.4188L39.7543 50.8277L33.3533 50.1014L33.7661 40.2098L34.5499 38.9609Z" fill="white"/>
<path d="M38.3487 38.9707V45.0112C38.3487 46.6781 37.8262 53.3404 37.8262 53.3404C37.8262 53.3404 41.5048 65.7349 43.2762 66.2888C45.0476 66.8427 48.9091 69.6382 49.3167 68.7813C49.7243 67.9243 50.414 66.341 50.205 63.7388C49.996 61.1366 48.5486 51.36 47.8223 47.6134C47.0959 43.8668 45.22 41.2646 42.9261 40.4286C40.6374 39.5977 38.3435 38.9707 38.3435 38.9707H38.3487Z" fill="#F3B6AB"/>
<path d="M48.9301 69.005L47.4566 62.9697C47.4566 62.9697 45.0633 58.4916 43.8667 56.877C42.6701 55.2623 39.5454 51.5158 39.2319 51.0455C38.9183 50.5752 36.7864 44.6967 35.5375 43.1343C34.2887 41.5719 34.4454 39.0742 34.4454 39.0742C34.4454 39.0742 29.6016 41.2584 28.9797 41.99C28.3579 42.7215 25.855 46.4681 25.1287 51.568C24.4023 56.668 24.1045 60.6915 24.1045 60.6915C24.1045 60.6915 24.1045 66.7894 24.8778 68.2264C25.5676 69.5118 30.098 65.2793 34.8008 66.732C39.7648 68.263 40.2299 68.1742 48.9353 69.005H48.9301Z" fill="#F3B6AB"/>
<path d="M32.0105 34.6341C32.2196 37.6126 34.2783 39.8281 36.7708 39.5564C39.2633 39.2847 40.9877 36.6668 40.7787 33.6831C40.5697 30.7047 38.5161 28.4891 36.0184 28.7608C33.5259 29.0326 31.8015 31.6504 32.0105 34.6341Z" fill="#FFDCC7"/>
<path d="M41.8915 35.338C41.7348 36.0957 41.1966 36.6182 40.6897 36.5137C40.1829 36.4092 39.9007 35.709 40.0575 34.9566C40.2142 34.1989 40.7524 33.6764 41.2593 33.7809C41.7661 33.8854 42.0483 34.5856 41.8915 35.338Z" fill="#FFDCC7"/>
<path d="M31.075 35.338C31.2318 36.0957 31.77 36.6182 32.2769 36.5137C32.7837 36.4092 33.0659 35.709 32.9091 34.9566C32.7524 34.1989 32.2142 33.6764 31.7073 33.7809C31.2004 33.8854 30.9183 34.5856 31.075 35.338Z" fill="#FFDCC7"/>
<path d="M37.058 30.4734C36.9796 30.8653 35.0672 31.9574 34.2834 32.6994C33.4996 33.4414 32.4493 33.5564 32.0992 35.5472C32.0992 35.5472 31.5139 33.7915 32.0626 31.8007L32.6113 29.8098C32.6113 29.8098 33.51 28.7961 35.109 28.2892C36.7079 27.7824 38.7772 28.6393 38.7772 28.6393C38.7772 28.6393 40.5329 29.6948 40.7314 30.9803C40.9248 32.2709 41.5884 33.8699 40.6949 35.589C40.6949 35.589 39.8379 32.4277 38.8608 31.6439C37.8836 30.8601 37.0632 30.4734 37.0632 30.4734H37.058Z" fill="#497AB4"/>
<path d="M37.0477 43.5955C36.5513 42.6811 35.5376 42.6602 35.5376 42.6602L34.3932 42.7647C34.3932 42.7647 34.2887 43.3394 34.6545 43.7C35.0203 44.0605 35.3808 44.5308 35.3808 44.5308C35.3808 44.5308 36.1594 45.6752 36.5774 45.9364C36.9954 46.1977 37.4082 46.6628 37.4082 46.6628C37.4082 46.6628 37.7218 44.8391 37.0425 43.5903L37.0477 43.5955Z" fill="#FFDCC7"/>
<path d="M54.6884 57.2085C54.6884 57.2085 54.1188 56.3829 53.3455 56.7435L53.3977 58.0864L54.6884 57.2085Z" fill="#FFDCC7"/>
<path d="M59.9032 50.3262C59.7673 49.8141 59.6994 49.4588 59.6994 49.4588C59.6994 49.4588 58.8581 49.6417 58.4192 48.9467C58.4139 48.9362 56.0573 44.0087 54.5942 44.3902C52.8594 44.8448 52.457 46.6162 52.7392 48.3667C52.8594 49.1087 52.5929 49.4849 52.3473 49.9291C52.2533 50.1015 52.4518 50.3366 52.6504 50.2426L52.9012 50.1642C52.9587 50.1485 53.0162 50.1799 53.0371 50.2321C53.2095 50.7024 53.4133 51.1309 53.6589 51.4914C54.2389 52.3275 54.4845 53.336 56.0782 52.7089C56.2663 52.6358 56.4387 52.5522 56.6112 52.4634L57.5831 55.5724C58.461 56.1106 59.7621 54.1982 60.2585 53.8063C60.3421 53.7436 61.3871 52.7507 61.3297 52.6619C60.781 51.8259 60.1122 51.1152 59.9032 50.3157V50.3262Z" fill="#FFDCC7"/>
<path d="M58.7797 49.2183C58.5864 49.025 58.0847 48.6748 57.4629 48.2516C56.8411 47.8231 55.3728 44.573 55.3728 44.573C54.3643 45.2679 53.0893 46.5899 52.8908 47.17C52.6922 47.75 52.619 48.1366 52.619 48.1366C52.619 48.1366 52.2794 47.3633 52.2689 46.5116C52.2585 45.2418 52.8594 44.0191 53.5073 43.4913C53.9724 43.1099 55.3258 41.8244 57.0344 41.8662C58.7431 41.908 60.0181 41.5945 61.8365 43.8048C63.655 46.0152 62.9495 48.3613 62.3277 49.5109C61.8261 50.441 60.1592 51.4077 60.1592 51.4077L58.7745 49.2287L58.7797 49.2183Z" fill="#497AB4"/>
<path d="M59.1037 48.5241C59.0932 49.287 58.67 49.9036 58.1579 49.8984C57.6458 49.8931 57.2382 49.2661 57.2435 48.5032C57.2539 47.7403 57.6772 47.1237 58.1892 47.1289C58.7013 47.1342 59.1089 47.7612 59.1037 48.5241Z" fill="#FFDCC7"/>
<path d="M62.077 51.4548C59.6577 50.5665 58.3461 51.042 57.7243 51.3973C57.0711 51.7735 55.9215 52.9858 55.3624 54.1092C54.8608 55.1177 54.3957 56.8212 54.3957 56.8212C54.3957 56.8212 52.6923 58.2164 52.3056 58.4463C51.9189 58.6762 47.5767 57.9028 46.4166 59.298C45.2566 60.6932 44.3997 63.0185 43.7831 64.4136C43.1613 65.8088 42.0012 71.3111 41.8445 72.006C41.6877 72.701 43.318 73.0929 44.7132 73.558C46.1084 74.023 50.9104 73.6364 52.4624 74.2529C54.0143 74.8748 58.6596 74.6396 59.5897 74.4829C60.5198 74.3261 68.6505 72.7951 68.6505 72.7951C68.6505 72.7951 69.4552 67.5802 68.6505 61.9786C67.7622 55.8023 64.4075 52.3013 62.0822 51.4495L62.077 51.4548Z" fill="#F3B6AB"/>
<path d="M52.917 56.4129C52.6087 56.4965 52.1489 57.181 52.1489 57.181L51.433 57.6095C51.433 57.6095 51.0045 58.1372 51.2397 58.4717C51.4748 58.8061 52.3266 59.7153 52.3266 59.7153C52.3266 59.7153 52.6139 59.9295 53.0424 59.893C53.5179 59.8512 54.2025 59.9034 54.2495 59.4279C54.2965 58.9524 54.0561 58.1372 53.9151 57.7035C53.774 57.2698 53.4343 56.2666 52.9118 56.4129H52.917Z" fill="#FFDCC7"/>
<path d="M79.5873 140.494C79.5873 140.494 115.977 148.384 125.037 151.99C134.098 155.595 162.613 163.298 166.605 163.961C166.605 163.961 136.011 180.452 128.031 184.774C120.052 189.095 101.33 200.006 101.33 200.006C101.33 200.006 54.0406 183.112 42.7382 178.791C31.4306 174.469 10.3149 167.817 10.3149 167.817L79.5873 140.499" fill="#A5C5F6"/>
<path d="M262.432 140.494C262.432 140.494 226.043 148.384 216.982 151.99C207.922 155.595 179.407 163.298 175.415 163.961C175.415 163.961 206.009 180.452 213.988 184.774C221.967 189.095 240.69 200.006 240.69 200.006C240.69 200.006 287.979 183.112 299.282 178.791C310.589 174.469 331.705 167.817 331.705 167.817L262.432 140.499" fill="#A5C5F6"/>
<path d="M291.083 62.7988L275.909 73.6048C275.909 73.6048 296.12 74.7649 299.114 75.0523C302.109 75.3344 330.811 74.3155 332.008 74.3155L323.224 63.3684L291.078 62.7988H291.083Z" fill="#D2E0F8"/>
<path d="M324.055 58.2692C324.055 57.731 323.611 57.2973 323.073 57.2973L319.676 57.313C319.603 56.733 319.431 55.5938 319.101 54.6376C318.934 54.1517 318.584 53.7598 318.082 53.4985C317.675 53.2842 317.168 53.1641 316.661 53.1641C316.661 53.1641 316.656 53.1641 316.651 53.1641H316.64H316.63C316.63 53.1641 316.625 53.1641 316.619 53.1641C316.113 53.1745 315.611 53.2947 315.203 53.5142C314.702 53.7807 314.357 54.1778 314.195 54.6637C313.876 55.6252 313.714 56.7643 313.651 57.3443L310.291 57.36C309.753 57.36 309.32 57.8042 309.32 58.3424V59.4815H309.325L309.367 67.0112C309.367 67.5494 309.811 67.9831 310.349 67.9831H311.122C311.169 68.0981 311.284 68.1765 311.415 68.1765H311.838C311.922 68.1765 312 68.1399 312.063 68.0824C312.094 68.0511 312.115 68.0145 312.131 67.9779L321.359 67.9309C321.374 67.9727 321.401 68.004 321.427 68.0354C321.484 68.0929 321.568 68.1294 321.651 68.1242H322.075C322.205 68.1242 322.32 68.0406 322.367 67.9204H323.141C323.679 67.9152 324.113 67.4763 324.113 66.9381L324.065 58.2692H324.055ZM314.77 54.8623C315.015 54.1255 315.883 53.7911 316.64 53.7807C317.398 53.7807 318.271 54.1098 318.521 54.8414C318.814 55.6984 318.981 56.7487 319.054 57.3182L314.258 57.3443C314.325 56.7748 314.482 55.7193 314.764 54.8623H314.77Z" fill="#A8C8F9"/>
<path d="M303.415 44.1964C304.214 44.3166 307.741 44.0867 309.408 44.86C311.075 45.6334 313.515 53.5132 314.289 57.3956C315.067 61.2781 314.179 64.941 312.627 65.9391C311.075 66.9371 301.753 67.491 299.867 64.1625C297.981 60.8339 298.644 57.2859 297.761 53.1788C296.878 49.0717 297.542 45.9678 298.869 45.1892C300.196 44.4107 301.199 43.8568 303.42 44.1912L303.415 44.1964Z" fill="#497AB4"/>
<path d="M294.595 51.4085C295.781 49.9349 298.064 49.6893 298.571 49.4437C299.078 49.1982 302.631 49.5273 304.408 49.9349C306.184 50.3425 307.621 50.3425 309.147 50.3425C310.673 50.3425 314.393 53.6188 314.561 56.1583C314.728 58.6978 315.454 60.835 316.128 62.7161C316.807 64.5972 317.863 69.1746 317.863 70.4026C317.863 71.6305 309.147 72.1217 306.608 72.1217C304.068 72.1217 299.752 71.8761 298.315 72.4509C296.878 73.0257 293.915 72.7801 293.915 72.7801L293.659 70.4078C293.659 70.4078 293.152 70.6534 291.459 70.2458C289.766 69.8383 289.003 70.0002 287.906 69.1799C287.906 69.1799 287.65 66.8076 288.073 63.8605C288.585 60.2916 291.71 54.9983 294.589 51.4137L294.595 51.4085Z" fill="#F3B6AB"/>
<path d="M298.242 43.7535C299.297 46.5961 301.936 48.1584 304.288 47.1813C306.639 46.2042 307.564 43.1578 306.508 40.3152C305.453 37.4726 302.814 35.9102 300.463 36.8874C298.111 37.8645 297.186 40.9109 298.242 43.7535Z" fill="#FFDCC7"/>
<path d="M302.26 39.8337C301.377 40.7168 299.6 41.3647 299.094 41.9291C298.587 42.4934 298.482 43.5646 298.43 44.2282C298.378 44.8918 297.51 43.4078 297.202 42.4412C296.894 41.4745 296.538 40.2413 297.051 38.9141C297.563 37.5868 299.146 35.6952 300.118 35.4915C301.09 35.2877 302.825 35.1361 303.54 35.9513C303.54 35.9513 304.512 35.6952 305.28 36.3589C306.049 37.0225 307.428 38.5587 307.684 39.6822C307.94 40.8056 307.94 42.8017 307.12 43.7214C307.12 43.7214 305.84 42.2374 305.28 41.5738C304.721 40.9101 304.413 39.4784 303.796 39.2746C303.18 39.0708 302.772 39.3269 302.265 39.8389L302.26 39.8337Z" fill="#497AB4"/>
<path d="M308.081 42.9944C307.919 43.7886 307.355 44.3425 306.822 44.2276C306.289 44.1178 305.991 43.3863 306.158 42.592C306.32 41.7978 306.885 41.2439 307.418 41.3589C307.951 41.4686 308.249 42.2001 308.081 42.9944Z" fill="#FFDCC7"/>
<path d="M169.928 155.343L88.9929 135.059V0.0722656H169.928V155.343Z" fill="url(#paint0_linear_2559_26351)"/>
<path d="M250.864 135.059L169.928 155.344V0H250.864V135.059Z" fill="url(#paint1_linear_2559_26351)"/>
<mask id="mask0_2559_26351" style="mask-type:luminance" maskUnits="userSpaceOnUse" x="250" y="22" width="37" height="28">
<path d="M286.197 22.8301H250.67V49.3591H286.197V22.8301Z" fill="white"/>
</mask>
<g mask="url(#mask0_2559_26351)">
<path d="M260.928 41.146C263.498 41.146 278.129 40.2891 278.129 40.2891L285.043 45.7913C285.043 45.7913 264.465 46.2825 257.39 46.5229C250.315 46.7685 222.025 45.0546 222.025 45.0546L225.787 40.7959L260.928 41.146Z" fill="#D2E0F8"/>
<path d="M272.287 37.9991C273.254 37.9991 274.696 38.9083 275.02 39.9795C275.344 41.0507 275.397 42.2316 274.911 42.7124C274.425 43.1931 270.84 43.1408 269.016 43.1408C267.193 43.1408 267.193 39.8698 269.445 38.4798C271.697 37.0899 272.287 37.9991 272.287 37.9991Z" fill="white"/>
<path d="M266.77 32.6954C266.77 32.6954 267.25 31.6242 269.34 31.3577C271.431 31.0912 272.554 32.9671 273.306 33.986C274.059 35.005 274.111 38.0043 272.826 39.133C271.54 40.2617 269.555 40.8469 268.86 40.8469C268.165 40.8469 265.965 34.2003 266.77 32.7006V32.6954Z" fill="#497AB4"/>
<path d="M265.698 43.8419C268.327 43.5179 270.574 43.2514 270.788 39.9856C271.002 36.7145 269.022 33.8772 267.464 32.5917C265.913 31.3063 264.465 30.6113 263.07 30.6113C261.675 30.6113 255.19 33.3442 255.19 33.3442C255.19 33.3442 252.51 31.6825 251.224 31.6303C249.939 31.578 247.42 32.0065 246.453 32.8112C245.487 33.6159 243.935 34.9536 243.292 35.4395C242.649 35.9255 239.221 38.4964 238.898 39.2958C238.574 40.0953 241.526 43.7426 242.54 43.9046C243.553 44.0666 245.967 43.5284 245.967 43.5284C245.967 43.5284 247.091 44.3853 249.609 44.4951C252.128 44.6048 254.485 44.7616 258.184 44.2286C261.884 43.6904 265.688 43.8523 265.688 43.8523L265.698 43.8419Z" fill="#F3B6AB"/>
</g>
<path d="M280.298 116.64C279.854 116.64 279.488 116.274 279.488 115.83V87.5345C279.488 87.0904 279.854 86.7246 280.298 86.7246C280.742 86.7246 281.108 87.0904 281.108 87.5345V115.83C281.108 116.274 280.742 116.64 280.298 116.64Z" fill="#497AB4"/>
<path d="M292.828 87.5345C292.828 87.0872 292.466 86.7246 292.018 86.7246C291.571 86.7246 291.208 87.0872 291.208 87.5345V115.83C291.208 116.277 291.571 116.64 292.018 116.64C292.466 116.64 292.828 116.277 292.828 115.83V87.5345Z" fill="#497AB4"/>
<path d="M280.24 165.722C279.525 165.722 278.934 165.136 278.934 164.415V160.131C278.934 159.409 279.519 158.824 280.24 158.824C280.956 158.824 281.547 159.409 281.547 160.131V164.415C281.547 165.136 280.962 165.722 280.24 165.722Z" fill="#103254"/>
<path d="M299.59 165.722C298.874 165.722 298.283 165.136 298.283 164.415V160.131C298.283 159.409 298.869 158.824 299.59 158.824C300.306 158.824 300.896 159.409 300.896 160.131V164.415C300.896 165.136 300.311 165.722 299.59 165.722Z" fill="#103254"/>
<path d="M299.7 113.254H280.726C277.52 113.254 274.921 115.853 274.921 119.059V157.737C274.921 160.943 277.52 163.543 280.726 163.543H299.7C302.906 163.543 305.505 160.943 305.505 157.737V119.059C305.505 115.853 302.906 113.254 299.7 113.254Z" fill="#2A6298"/>
<path d="M269.56 165.722C268.844 165.722 268.253 165.136 268.253 164.415V160.131C268.253 159.409 268.839 158.824 269.56 158.824C270.276 158.824 270.866 159.409 270.866 160.131V164.415C270.866 165.136 270.281 165.722 269.56 165.722Z" fill="#103254"/>
<path d="M288.904 165.722C288.188 165.722 287.598 165.136 287.598 164.415V160.131C287.598 159.409 288.183 158.824 288.904 158.824C289.62 158.824 290.21 159.409 290.21 160.131V164.415C290.21 165.136 289.625 165.722 288.904 165.722Z" fill="#103254"/>
<path d="M289.787 113.254H270.814C267.608 113.254 265.009 115.853 265.009 119.059V157.737C265.009 160.943 267.608 163.543 270.814 163.543H289.787C292.993 163.543 295.592 160.943 295.592 157.737V119.059C295.592 115.853 292.993 113.254 289.787 113.254Z" fill="#497AB4"/>
<path d="M298.743 162.805C298.66 162.805 298.576 162.763 298.529 162.69C298.451 162.57 298.482 162.408 298.597 162.329C300.133 161.289 301.048 159.57 301.048 157.731V119.058C301.048 116.127 298.921 113.791 297.092 113.733C296.946 113.733 296.836 113.608 296.836 113.467C296.836 113.321 296.982 113.221 297.103 113.211C299.208 113.274 301.565 115.787 301.565 119.058V157.731C301.565 159.743 300.562 161.624 298.885 162.758C298.837 162.789 298.79 162.805 298.738 162.805H298.743Z" fill="#1B4976"/>
<path d="M270.866 157.92C270.563 157.92 270.317 157.675 270.317 157.371V124.603C270.317 124.3 270.563 124.055 270.866 124.055C271.169 124.055 271.415 124.3 271.415 124.603V157.371C271.415 157.675 271.169 157.92 270.866 157.92Z" fill="#2A6298"/>
<path d="M279.608 157.92C279.305 157.92 279.06 157.675 279.06 157.371V124.603C279.06 124.3 279.305 124.055 279.608 124.055C279.911 124.055 280.157 124.3 280.157 124.603V157.371C280.157 157.675 279.911 157.92 279.608 157.92Z" fill="#2A6298"/>
<path d="M288.355 157.92C288.052 157.92 287.807 157.675 287.807 157.371V124.603C287.807 124.3 288.052 124.055 288.355 124.055C288.658 124.055 288.904 124.3 288.904 124.603V157.371C288.904 157.675 288.658 157.92 288.355 157.92Z" fill="#2A6298"/>
<path d="M277.46 118.453H270.375C269.864 118.453 269.45 118.867 269.45 119.378V119.451C269.45 119.962 269.864 120.376 270.375 120.376H277.46C277.971 120.376 278.385 119.962 278.385 119.451V119.378C278.385 118.867 277.971 118.453 277.46 118.453Z" fill="white"/>
<path d="M294.009 85.3867H278.375C277.636 85.3867 277.037 85.9856 277.037 86.7244C277.037 87.4632 277.636 88.0621 278.375 88.0621H294.009C294.748 88.0621 295.347 87.4632 295.347 86.7244C295.347 85.9856 294.748 85.3867 294.009 85.3867Z" fill="#1B4976"/>
<path d="M281.918 95.3045V87.8113C281.918 87.0148 281.272 86.3691 280.476 86.3691H280.12C279.324 86.3691 278.678 87.0148 278.678 87.8113V95.3045C278.678 96.101 279.324 96.7467 280.12 96.7467H280.476C281.272 96.7467 281.918 96.101 281.918 95.3045Z" fill="#1B4976"/>
<path d="M293.638 95.3104V87.8172C293.638 87.0207 292.992 86.375 292.196 86.375H291.841C291.044 86.375 290.398 87.0207 290.398 87.8172V95.3104C290.398 96.1069 291.044 96.7526 291.841 96.7526H292.196C292.992 96.7526 293.638 96.1069 293.638 95.3104Z" fill="#1B4976"/>
<path d="M249.338 174.541L249.568 180.577C249.594 181.308 250.19 181.888 250.921 181.888C253.973 181.888 261.476 181.909 263.582 181.998C266.242 182.108 274.111 183.33 275 181.554C275.888 179.782 274.89 177.232 272.784 176.454C270.678 175.675 265.134 172.88 265.134 172.88C265.134 172.88 264.361 171.025 260.698 170.8C257.04 170.581 252.384 171.296 249.338 174.541Z" fill="#1B4976"/>
<path d="M234.587 173.084L234.132 179.103C234.074 179.835 234.602 180.472 235.329 180.556C238.359 180.906 245.816 181.773 247.896 182.097C250.524 182.51 258.205 184.611 259.287 182.949C260.368 181.287 259.668 178.643 257.662 177.63C255.655 176.616 252.191 174.244 252.191 174.244C252.191 174.244 249.907 171.276 246.297 170.643C242.686 170.011 237.978 170.199 234.587 173.073V173.084Z" fill="#1B4976"/>
<path d="M259.814 181.816C259.757 181.816 259.7 181.8 259.652 181.759C259.538 181.67 259.517 181.508 259.605 181.393C259.794 181.153 259.893 179.757 259.773 178.989C259.585 177.761 258.236 177.176 257.045 176.659C256.852 176.575 256.664 176.497 256.486 176.413C255.169 175.812 251.804 174.213 251.773 174.192C251.642 174.13 251.585 173.973 251.647 173.842C251.71 173.712 251.867 173.654 251.997 173.717C252.029 173.733 255.394 175.331 256.705 175.932C256.878 176.011 257.066 176.089 257.254 176.173C258.503 176.716 260.06 177.385 260.29 178.9C260.384 179.527 260.384 181.236 260.018 181.706C259.966 181.774 259.888 181.806 259.809 181.806L259.814 181.816Z" fill="#071D33"/>
<path d="M230.605 76.4739C226.665 77.1846 222.072 78.9141 220.405 80.9102C218.743 82.9063 213.753 91.3296 212.98 95.9853C212.206 100.641 214.532 105.187 216.972 107.293C219.412 109.399 219.856 109.733 219.297 110.841C218.738 111.949 216.528 113.835 214.197 115.387C211.867 116.939 210.095 120.153 209.097 123.81C208.099 127.468 202.336 153.961 202.78 162.603C203.224 171.251 210.43 175.792 215.415 175.959C221.79 176.173 223.007 174.465 232.873 174.794C242.738 175.128 251.219 172.291 254.323 160.874C257.427 149.456 263.525 145.689 263.854 140.699C264.183 135.708 263.08 124.025 260.64 121.919C258.2 119.813 255.765 118.151 257.317 113.825C258.869 109.503 260.086 103.071 261.419 99.5281C262.751 95.9801 261.638 89.9971 260.755 86.4491C259.872 82.9011 256.763 78.7992 250.67 77.4719C244.577 76.1447 236.149 75.4759 230.61 76.4739H230.605Z" fill="#EF8E80"/>
<path d="M246.788 113.719C246.788 113.719 245.429 117.293 242.66 118.51L235.595 114.382L246.788 113.719Z" fill="#E2685C"/>
<path d="M225.604 77.252C221.905 79.9117 218.764 90.169 218.001 94.8561C217.239 99.538 217.092 101.612 219.611 103.06C222.129 104.507 224.575 105.861 222.668 107.993C220.76 110.125 220.546 112.11 224.392 113.615C228.243 115.125 227.37 117.707 225.693 118.527C225.693 118.527 235.48 118.705 235.235 114.132C235.015 110.13 233.165 111.373 231.937 108.066C230.709 104.753 229.628 88.7686 229.628 88.7686L225.61 77.252H225.604Z" fill="#D3C942"/>
<path d="M255.075 80.9095C255.99 82.4876 259.313 86.5633 259.48 90.3047C259.647 94.046 258.482 95.1277 258.482 96.8729C258.482 98.6182 258.733 99.7835 260.227 100.949C261.722 102.114 263.467 106.017 260.395 107.846C257.322 109.675 254.244 110.171 255.326 112C256.408 113.829 257.071 116.076 254.908 117.32C252.745 118.569 250.001 118.569 248.256 118.814C248.256 118.814 250.832 117.733 250.085 116.154C249.338 114.576 247.592 114.242 248.591 110.501C249.589 106.759 255.075 80.9043 255.075 80.9043V80.9095Z" fill="#D3C942"/>
<path d="M226.268 76.5828C221.361 80.2823 220.285 89.9649 220.363 92.7082C220.588 100.128 222.929 104.737 228.416 106.231C236.891 108.541 251.501 107.59 255.321 100.107C259.146 92.6246 259.475 90.2993 259.475 90.2993C259.224 85.978 257.714 79.9949 249.829 75.3339C244.342 72.0942 240.852 72.507 238.521 73.5887C238.521 73.5887 236.112 73.0923 233.782 73.3379C231.451 73.5834 229.189 74.3725 226.257 76.5776L226.268 76.5828Z" fill="#D3C942"/>
<path d="M222.574 100.64C223.185 102.986 224.956 104.554 226.529 104.141C228.102 103.728 228.88 101.497 228.269 99.1509C227.658 96.8047 225.886 95.2371 224.314 95.6499C222.741 96.0628 221.962 98.294 222.574 100.64Z" fill="#FFDCC7"/>
<path d="M226.681 97.7289C226.681 107.62 233.024 115.641 241.39 115.641C249.756 115.641 256.099 107.62 256.099 97.7289C256.099 87.8373 249.756 79.8164 241.39 79.8164C233.024 79.8164 226.681 87.8373 226.681 97.7289Z" fill="#FFDCC7"/>
<path d="M238.161 100.969C239.024 100.969 239.723 100.269 239.723 99.4061C239.723 98.5433 239.024 97.8438 238.161 97.8438C237.298 97.8438 236.598 98.5433 236.598 99.4061C236.598 100.269 237.298 100.969 238.161 100.969Z" fill="#2A6295"/>
<path d="M249.103 100.969C249.966 100.969 250.665 100.269 250.665 99.4061C250.665 98.5433 249.966 97.8438 249.103 97.8438C248.24 97.8438 247.54 98.5433 247.54 99.4061C247.54 100.269 248.24 100.969 249.103 100.969Z" fill="#2A6295"/>
<path d="M235.694 96.0371C235.527 96.0371 235.376 95.9326 235.323 95.7654C235.256 95.5564 235.371 95.3369 235.58 95.2742L239.488 94.0254C239.697 93.9627 239.917 94.0724 239.979 94.2814C240.047 94.4904 239.932 94.7099 239.723 94.7726L235.815 96.0215C235.773 96.0319 235.736 96.0424 235.694 96.0424V96.0371Z" fill="#99922E"/>
<path d="M251.48 96.0361C251.438 96.0361 251.402 96.0308 251.36 96.0152L247.451 94.7663C247.248 94.6984 247.133 94.4789 247.195 94.2751C247.263 94.0713 247.483 93.9564 247.687 94.0191L251.595 95.2679C251.799 95.3359 251.914 95.5553 251.851 95.7591C251.799 95.9263 251.642 96.0308 251.48 96.0308V96.0361Z" fill="#99922E"/>
<path d="M244.693 110.7C244.598 110.7 244.504 110.668 244.431 110.601C244.416 110.585 243.862 110.125 242.592 110.057C241.275 109.973 240.22 110.637 240.209 110.642C240.026 110.757 239.786 110.705 239.671 110.517C239.556 110.334 239.608 110.094 239.791 109.979C239.843 109.947 241.066 109.195 242.639 109.273C244.201 109.362 244.886 109.958 244.959 110.026C245.116 110.172 245.126 110.418 244.98 110.58C244.902 110.663 244.797 110.705 244.693 110.705V110.7Z" fill="#EC8B80"/>
<path d="M226.106 101.769C225.933 101.769 225.787 101.638 225.766 101.466C225.442 98.6388 224.235 98.644 224.23 98.6545C224.047 98.6545 223.885 98.5238 223.875 98.3357C223.864 98.1528 223.995 97.9908 224.178 97.9752C224.256 97.9752 226.038 97.8498 226.445 101.387C226.466 101.575 226.331 101.743 226.148 101.764C226.137 101.764 226.122 101.764 226.111 101.764L226.106 101.769Z" fill="#F2B49C"/>
<path d="M224.235 100.608C224.178 100.608 224.115 100.592 224.063 100.561C223.901 100.462 223.849 100.258 223.948 100.096C224.512 99.1657 225.395 99.2702 225.782 99.4584C225.949 99.542 226.022 99.7405 225.939 99.913C225.855 100.08 225.657 100.153 225.489 100.075C225.39 100.033 224.894 99.845 224.533 100.451C224.47 100.556 224.355 100.613 224.24 100.613L224.235 100.608Z" fill="#F2B49C"/>
<path d="M228.557 81.2391C233.103 75.486 238.364 77.5814 238.364 77.5814C243.187 74.42 250.67 78.4122 255.326 85.8949C259.982 93.3776 256.073 101.607 256.073 101.607C256.073 101.607 256.287 98.4305 255.655 97.0353C254.908 95.3736 254.323 94.872 251.501 93.2104C248.679 91.5487 247.843 87.3893 246.511 84.2332C245.178 81.0771 241.521 84.066 240.69 84.8968C240.69 84.8968 237.863 82.9008 235.7 83.5644C233.536 84.228 230.38 89.3018 230.547 93.5396C230.798 99.9876 227.47 101.853 227.47 101.853C227.47 101.853 227.966 98.3625 225.892 94.9556C224.381 92.4788 226.059 84.3952 228.551 81.2391H228.557Z" fill="#D3C942"/>
<path d="M243.303 105.912C243.088 105.912 242.911 105.734 242.911 105.52C242.911 105.306 243.088 105.128 243.303 105.128C243.883 105.128 245.267 104.872 245.863 104.652C245.058 103.874 243.198 101.956 243.658 100.065C243.71 99.8555 243.919 99.7249 244.133 99.7771C244.342 99.8294 244.473 100.038 244.421 100.253C244.165 101.298 244.881 102.63 246.542 104.224L246.678 104.355C246.83 104.506 246.871 104.715 246.793 104.903C246.485 105.645 243.538 105.917 243.297 105.917L243.303 105.912Z" fill="#F2B49C"/>
<path d="M235.376 136.6C243.48 133.653 248.564 133.716 252.003 133.831C255.441 133.94 265.636 133.721 267.851 137.708C270.067 141.695 271.399 142.918 270.955 147.354C270.511 151.79 271.289 157.773 273.28 162.429C275.276 167.085 276.107 175.79 275.109 177.232C275.109 177.232 259.313 175.623 256.209 175.848C253.105 176.067 243.684 177.065 238.474 178.842C233.265 180.613 223.953 180.613 220.52 179.95C220.52 179.95 221.074 169.525 221.408 165.752C221.743 161.985 222.96 149.679 224.512 144.804C226.064 139.929 229.278 138.821 235.376 136.6Z" fill="#EF8E80"/>
<path d="M250.393 134.223C250.341 134.223 250.294 134.212 250.247 134.186C250.158 134.145 248.021 133.094 246.777 131.851C245.267 130.34 246.318 128.156 246.835 127.284C247.582 126.035 247.833 124.974 247.577 124.117C247.504 123.866 247.425 123.558 247.347 123.218C247.128 122.299 246.757 120.762 246.234 120.569C245.304 120.219 238.527 117.105 235.407 114.915C235.256 114.806 235.214 114.597 235.323 114.44C235.433 114.283 235.642 114.246 235.799 114.356C238.877 116.514 245.555 119.581 246.474 119.932C247.331 120.256 247.692 121.745 248.011 123.056C248.089 123.38 248.162 123.678 248.23 123.919C248.549 124.974 248.282 126.192 247.42 127.629C246.981 128.36 246.088 130.189 247.258 131.365C248.423 132.53 250.524 133.559 250.545 133.57C250.712 133.653 250.785 133.857 250.702 134.024C250.644 134.145 250.524 134.218 250.399 134.218L250.393 134.223Z" fill="#E2685C"/>
<path d="M243.057 125.56C240.24 125.56 235.172 124.4 231.964 123.668C231.159 123.485 230.511 123.334 230.093 123.255C227.856 122.806 224.491 121.082 224.35 121.009C224.183 120.925 224.12 120.716 224.204 120.549C224.293 120.382 224.496 120.314 224.664 120.402C224.7 120.418 228.081 122.158 230.229 122.587C230.647 122.67 231.305 122.822 232.115 123.005C235.527 123.783 241.881 125.236 244.06 124.802C244.243 124.766 244.421 124.886 244.457 125.069C244.494 125.252 244.374 125.434 244.191 125.471C243.877 125.534 243.491 125.56 243.052 125.56H243.057Z" fill="#E2685C"/>
<path d="M225.395 134.281C225.27 134.281 225.15 134.213 225.092 134.093C225.009 133.926 225.077 133.722 225.244 133.638C227.585 132.468 235.313 130.66 237.858 130.174C240.617 129.646 241.98 129.934 243.062 131.292C243.177 131.438 243.156 131.653 243.01 131.768C242.864 131.883 242.649 131.862 242.534 131.715C241.745 130.733 240.789 130.299 237.988 130.838C234.884 131.433 227.684 133.179 225.552 134.245C225.505 134.271 225.453 134.281 225.4 134.281H225.395Z" fill="#E2685C"/>
<path d="M248.12 125.585C247.943 125.585 247.791 125.444 247.781 125.266C247.77 125.078 247.911 124.916 248.099 124.906C251.355 124.702 252.656 119.67 252.666 119.618C252.713 119.435 252.896 119.325 253.079 119.372C253.262 119.419 253.372 119.602 253.325 119.785C253.267 120.01 251.893 125.35 248.141 125.585C248.136 125.585 248.125 125.585 248.12 125.585Z" fill="#E2685C"/>
<path d="M213.262 157.78C213.21 157.78 213.152 157.764 213.1 157.738C212.933 157.649 212.87 157.446 212.959 157.278C213.706 155.878 224.909 139.324 230.38 136.194C236.191 132.871 245.461 132.672 248.591 133.498C250.174 133.916 252.217 133.874 254.584 133.822C256.826 133.775 259.371 133.717 262.124 134.041C262.312 134.062 262.443 134.235 262.422 134.418C262.401 134.606 262.234 134.736 262.046 134.715C259.339 134.397 256.821 134.449 254.6 134.496C252.186 134.548 250.096 134.595 248.418 134.151C245.377 133.346 236.374 133.545 230.715 136.779C225.531 139.742 214.605 155.622 213.555 157.592C213.492 157.707 213.377 157.77 213.257 157.77L213.262 157.78Z" fill="#E2685C"/>
<path d="M221.131 174.688C220.943 174.688 220.792 174.537 220.792 174.349C220.792 170.67 222.14 159.018 223.42 155.867C223.964 154.534 223.89 153.416 223.822 152.334C223.744 151.065 223.666 149.863 224.627 148.583C224.742 148.431 224.951 148.4 225.103 148.515C225.254 148.624 225.286 148.839 225.171 148.99C224.361 150.067 224.429 151.096 224.502 152.293C224.57 153.395 224.648 154.644 224.047 156.123C222.887 158.971 221.466 170.414 221.466 174.349C221.466 174.537 221.314 174.688 221.126 174.688H221.131Z" fill="#E2685C"/>
<path d="M214.756 149.367C213.523 149.367 212.593 148.902 211.982 147.982C211.877 147.826 211.919 147.617 212.076 147.512C212.233 147.408 212.442 147.449 212.546 147.606C212.766 147.935 213.44 148.944 215.54 148.625C217.27 148.359 217.547 148.217 218.89 147.523C219.182 147.371 219.517 147.199 219.93 146.995C220.097 146.911 220.301 146.979 220.384 147.146C220.468 147.314 220.4 147.517 220.233 147.601C219.825 147.805 219.491 147.977 219.203 148.129C217.845 148.829 217.484 149.017 215.645 149.299C215.336 149.346 215.039 149.372 214.762 149.372L214.756 149.367Z" fill="#E2685C"/>
<path d="M244.52 167.755C244.332 167.755 244.18 167.603 244.18 167.415C244.18 165.278 247.598 160.591 250.608 156.458C252.207 154.263 253.717 152.189 254.359 150.961C254.448 150.793 254.652 150.731 254.819 150.82C254.986 150.908 255.049 151.112 254.96 151.279C254.291 152.554 252.839 154.545 251.156 156.86C248.35 160.711 244.86 165.498 244.86 167.415C244.86 167.603 244.708 167.755 244.52 167.755Z" fill="#E2685C"/>
<path d="M255.822 165.262C255.697 165.262 255.577 165.194 255.519 165.074C254.318 162.67 255.122 158.704 255.159 158.537C255.195 158.354 255.373 158.234 255.561 158.276C255.744 158.312 255.864 158.495 255.822 158.678C255.812 158.715 255.028 162.582 256.126 164.776C256.209 164.943 256.141 165.147 255.974 165.231C255.927 165.257 255.875 165.267 255.822 165.267V165.262Z" fill="#E2685C"/>
<path d="M218.001 163.701V169.574L218.116 169.945L218.628 170.933L218.236 171.878L218.001 172.453V183.567L218.628 185.182H227.078L227.705 183.567V172.453L227.47 171.878L227.078 170.933L227.59 169.945L227.705 169.574V163.701L227.454 162.306L224.313 159.447H221.398L218.257 162.306L218.001 163.701Z" fill="#D2E0F8"/>
<path d="M221.246 159.441H224.46V157.121H221.246V159.441Z" fill="#6593CF"/>
<path d="M227.71 163.73H218.001V169.572H227.71V163.73Z" fill="#81ADEB"/>
<path d="M226.409 171.7H219.48C219.334 171.7 219.219 171.585 219.219 171.439C219.219 171.293 219.334 171.178 219.48 171.178H226.409C226.555 171.178 226.67 171.293 226.67 171.439C226.67 171.585 226.555 171.7 226.409 171.7Z" fill="#A8C8F9"/>
<path d="M34.5239 140.848V146.717L34.6389 147.088L35.1562 148.075L34.7643 149.021L34.5239 149.596V160.715L35.1562 162.325H43.6003L44.2326 160.715V149.596L43.9922 149.021L43.6003 148.075L44.1177 147.088L44.2326 146.717V140.848L43.9766 139.453L40.8361 136.59H37.9204L34.78 139.453L34.5239 140.848Z" fill="#D2E0F8"/>
<path d="M37.7688 136.596H40.9824V134.276H37.7688V136.596Z" fill="#6593CF"/>
<path d="M44.2326 140.881H34.5239V146.723H44.2326V140.881Z" fill="#81ADEB"/>
<path d="M42.9367 148.849H36.0078C35.8615 148.849 35.7466 148.734 35.7466 148.587C35.7466 148.441 35.8615 148.326 36.0078 148.326H42.9367C43.083 148.326 43.1979 148.441 43.1979 148.587C43.1979 148.734 43.083 148.849 42.9367 148.849Z" fill="#A8C8F9"/>
<path d="M64.763 141.945C62.2391 142.092 43.7049 150.369 41.7088 151.477C39.7127 152.584 37.053 153.692 37.4971 156.576C37.9413 159.461 39.4932 160.344 39.4932 160.344C39.4932 160.344 37.4971 162.115 39.7127 164.111C41.9282 166.107 49.2437 166.552 51.2398 167.435C53.2359 168.323 58.3358 171.871 60.9955 168.542C63.6552 165.219 73.1862 159.895 76.9589 157.235C80.7264 154.575 80.0628 153.023 79.8433 149.475C79.6239 145.927 68.5357 141.716 64.7682 141.94L64.763 141.945Z" fill="#EC8B80"/>
<path d="M60.8335 166.248C60.8074 166.248 60.776 166.248 60.7499 166.238C60.6819 166.222 53.774 164.707 51.3547 164.049C48.9458 163.39 41.4579 161.41 41.3795 161.389C41.1705 161.331 41.0451 161.117 41.1026 160.908C41.1601 160.699 41.3743 160.574 41.5833 160.631C41.6565 160.652 49.1496 162.632 51.5637 163.291C53.9674 163.944 60.8492 165.459 60.9223 165.475C61.1313 165.522 61.2672 165.731 61.2202 165.94C61.1784 166.123 61.0164 166.248 60.8387 166.248H60.8335Z" fill="#DF685C"/>
<path d="M57.6669 160.736C57.6669 160.736 57.6147 160.736 57.5886 160.731C53.7584 159.962 50.1581 158.567 48.0105 157.736C47.6656 157.601 47.3626 157.486 47.1118 157.392C46.4325 157.136 45.7061 156.812 45.0059 156.498C43.8616 155.986 42.6807 155.453 41.6095 155.187C41.4004 155.134 41.2698 154.92 41.3221 154.711C41.3743 154.502 41.5886 154.371 41.7976 154.424C42.9367 154.706 44.149 155.254 45.3247 155.777C46.0458 156.101 46.7251 156.404 47.3835 156.65C47.6395 156.744 47.9426 156.864 48.2927 157C50.4194 157.825 53.9778 159.205 57.7401 159.957C57.9543 159.999 58.0902 160.208 58.0484 160.417C58.0118 160.605 57.8498 160.731 57.6669 160.731V160.736Z" fill="#DF685C"/>
<path d="M79.9583 105.019C79.9583 105.019 74.1477 108.609 71.4828 113.881C68.8179 119.153 60.3372 134.281 60.3372 134.281L68.149 144.92L85.1105 124.468L79.9583 105.014V105.019Z" fill="#D2E0F8"/>
<path d="M100.907 100.781C100.907 100.781 104.314 100.201 111.049 105.849C115.851 109.878 117.889 114.523 118.145 118.265C119.033 131.344 114.378 163.38 113.045 168.365C113.045 168.365 92.5408 172.686 74.9157 166.703C74.9157 166.703 70.1502 127.466 70.4794 120.151C70.6153 117.152 72.1202 112.464 74.3044 109.841C78.1816 105.185 82.3566 102.839 84.7812 101.308C88.8674 98.7217 100.907 100.781 100.907 100.781Z" fill="#A5C5F6"/>
<path d="M112.601 109.842C115.548 109.633 117.915 112.82 119.404 121.322C120.893 129.823 121.745 143.216 121.317 148.744C120.888 154.273 118.129 154.696 113.453 154.696C108.776 154.696 93.5388 139.767 93.5388 139.767C93.5388 139.767 99.4121 133.006 97.3063 129.013L105.954 134.667C105.954 134.667 104.737 127.268 104.099 124.081C103.462 120.893 100.483 110.688 112.601 109.836V109.842Z" fill="#A5C5F6"/>
<path d="M87.7178 107.68H95.0855L93.8419 113.114L88.6322 113.093L87.7178 107.68Z" fill="#B27FB0"/>
<path d="M88.6322 113.094L86.772 136.446L91.1822 140.631L95.5871 136.832L93.8419 113.115L88.6322 113.094Z" fill="#B27FB0"/>
<path d="M91.3441 113.872C89.9123 113.872 88.9979 113.652 88.9456 113.642C88.7366 113.589 88.606 113.38 88.6583 113.166C88.7105 112.957 88.9247 112.826 89.1338 112.879C89.1494 112.879 90.9261 113.307 93.3872 112.936C93.6014 112.905 93.8 113.051 93.8313 113.265C93.8627 113.48 93.7164 113.678 93.5021 113.71C92.7027 113.83 91.9711 113.872 91.3441 113.872Z" fill="#966595"/>
<path d="M91.1824 107.595L96.5018 113.578C96.5018 113.578 101.988 107.094 103.154 102.939" fill="#A5C5F6"/>
<path d="M96.5017 113.975C96.392 113.975 96.2822 113.928 96.2091 113.845L90.8897 107.856C90.7434 107.694 90.759 107.449 90.921 107.303C91.083 107.156 91.3286 107.172 91.4749 107.334L96.4912 112.977C97.6304 111.582 101.8 106.315 102.777 102.835C102.835 102.626 103.054 102.506 103.258 102.563C103.467 102.621 103.587 102.84 103.53 103.044C102.354 107.235 97.0294 113.563 96.7995 113.834C96.7264 113.923 96.6166 113.97 96.5069 113.975H96.5017Z" fill="#80AAE8"/>
<path d="M82.5342 104.021C82.5342 104.021 83.6158 110.172 86.9391 112.831L91.1769 107.596" fill="#A5C5F6"/>
<path d="M86.9393 113.229C86.8556 113.229 86.7668 113.203 86.6937 113.145C83.292 110.423 82.1894 104.351 82.1476 104.095C82.111 103.881 82.2521 103.677 82.4664 103.641C82.6754 103.604 82.8844 103.745 82.921 103.959C82.9314 104.017 83.9504 109.624 86.887 112.278L90.8739 107.351C91.0098 107.183 91.2554 107.157 91.4226 107.293C91.5898 107.429 91.6159 107.675 91.4801 107.842L87.2423 113.078C87.1639 113.172 87.0542 113.224 86.9393 113.224V113.229Z" fill="#80AAE8"/>
<path d="M107.595 88.6065C107.841 86.9552 108.253 85.8684 108.499 84.2224C108.692 82.9317 109.246 78.694 108.729 76.2903C108.353 74.5555 107.694 73.0715 106.796 71.5405C106.069 70.3125 104.967 69.1316 103.843 68.0081C103.399 67.564 99.8197 65.0767 96.9457 64.3086C96.0574 64.0735 92.7811 63.6032 91.851 63.5718C89.092 63.4778 84.6139 64.3138 83.48 64.2825C82.7067 64.2616 82.7171 64.4915 83.5166 65.2283C82.1789 65.2178 79.9947 65.3067 78.657 65.1133C77.706 64.9775 77.8941 65.7038 78.5682 66.4562C78.9183 66.8481 79.2788 67.1094 79.676 67.2975C78.4637 68.468 77.1678 69.5601 76.0182 70.7985C75.2867 71.5875 74.5551 72.4445 74.0796 73.4112C73.6094 74.3674 73.3899 75.4334 73.2384 76.4784C72.6374 80.5019 74.0901 88.7737 74.1058 88.8416L107.6 88.6065H107.595Z" fill="#103254"/>
<path d="M72.0679 91.4283C73.0764 93.9887 75.2867 95.5093 77.0059 94.8352C78.725 94.1559 79.2946 91.5328 78.2861 88.9776C77.2776 86.4172 75.0673 84.8966 73.3481 85.5759C71.629 86.2552 71.0594 88.8783 72.0679 91.4335V91.4283Z" fill="#FFDCC7"/>
<path d="M110.208 91.4283C109.199 93.9887 106.989 95.5093 105.27 94.8352C103.551 94.1559 102.981 91.5328 103.99 88.9776C104.998 86.4172 107.208 84.8966 108.928 85.5759C110.647 86.2552 111.216 88.8783 110.208 91.4335V91.4283Z" fill="#FFDCC7"/>
<path d="M106.32 87.7918C106.32 98.974 99.7885 108.035 91.1667 108.035C82.5449 108.035 76.0132 98.9688 76.0132 87.7918C76.0132 76.6148 82.5449 67.5488 91.1667 67.5488C99.7885 67.5488 106.32 76.6148 106.32 87.7918Z" fill="#FFDCC7"/>
<path d="M84.5148 90.9685C85.3777 90.9685 86.0771 90.269 86.0771 89.4061C86.0771 88.5433 85.3777 87.8438 84.5148 87.8438C83.6519 87.8438 82.9524 88.5433 82.9524 89.4061C82.9524 90.269 83.6519 90.9685 84.5148 90.9685Z" fill="#103254"/>
<path d="M82.0797 84.5752C81.8968 84.5752 81.7348 84.4445 81.6982 84.2616C81.6564 84.0474 81.7923 83.8436 82.0065 83.8018L86.03 83.0075C86.239 82.9657 86.4481 83.1016 86.4899 83.3158C86.5317 83.5301 86.3958 83.7339 86.1816 83.7757L82.158 84.5699C82.158 84.5699 82.1058 84.5752 82.0797 84.5752Z" fill="#103254"/>
<path d="M96.0365 90.9685C96.8994 90.9685 97.5989 90.269 97.5989 89.4061C97.5989 88.5433 96.8994 87.8438 96.0365 87.8438C95.1736 87.8438 94.4741 88.5433 94.4741 89.4061C94.4741 90.269 95.1736 90.9685 96.0365 90.9685Z" fill="#103254"/>
<path d="M98.4717 84.5752C98.4717 84.5752 98.4194 84.5752 98.3933 84.5699L94.3698 83.7757C94.1556 83.7339 94.0197 83.5301 94.0615 83.3158C94.1033 83.1016 94.3123 82.9657 94.5213 83.0075L98.5448 83.8018C98.7591 83.8436 98.8949 84.0474 98.8531 84.2616C98.8166 84.4497 98.6546 84.5752 98.4717 84.5752Z" fill="#103254"/>
<path d="M94.098 101.9C94.051 101.9 94.004 101.889 93.9569 101.873C93.9412 101.868 92.4363 101.293 90.55 101.367C88.7002 101.429 87.906 101.847 87.8955 101.853C87.7074 101.957 87.4671 101.884 87.3625 101.696C87.258 101.508 87.326 101.272 87.5141 101.168C87.5507 101.147 88.4546 100.651 90.5186 100.583C92.5774 100.52 94.1659 101.116 94.2286 101.142C94.4324 101.22 94.5317 101.445 94.4533 101.649C94.3959 101.805 94.2443 101.9 94.0876 101.9H94.098Z" fill="#EC8B80"/>
<path d="M77.1 90.373C77.1 90.373 76.5984 79.405 80.5906 76.6356C84.5827 73.8661 86.2444 73.7512 91.0099 73.8661C95.7754 73.9811 99.4332 74.3103 101.539 77.4141C103.645 80.518 104.23 90.4514 104.23 90.4514L106.749 85.6179C107.198 83.2038 106.608 77.759 105.531 74.7544C103.425 68.8812 101.095 65.6676 93.3404 65.4429C85.586 65.2182 81.2594 67.2143 78.2653 70.987C75.8669 74.0072 74.3045 81.3279 75.3809 85.7277C75.3809 85.7277 76.6089 89.7094 77.1 90.3782V90.373Z" fill="#103254"/>
<path d="M92.729 73.0866C92.729 73.0866 86.9079 76.5248 84.1385 78.8501C84.1385 78.8501 84.081 77.2982 85.7479 74.1943C85.7479 74.1943 81.8707 78.5157 80.7577 80.9559C80.7577 80.9559 79.6499 78.0715 80.9772 74.1943C80.9772 74.1943 80.533 72.0885 83.4174 70.3171C86.3018 68.5457 89.9595 68.6555 91.5115 70.0977C93.0634 71.5399 92.729 73.0918 92.729 73.0918V73.0866Z" fill="#103254"/>
<path d="M95.9633 93.6856C94.0508 93.6856 92.384 92.6144 91.8092 91.0154C91.5792 90.3675 91.4382 89.6987 91.3911 89.0246L91.365 88.6588L91.0045 88.5961C90.6439 88.5334 90.299 88.502 89.9803 88.502C89.7399 88.502 89.51 88.5177 89.301 88.5543L88.93 88.6118L88.9039 88.988C88.8621 89.6778 88.721 90.3623 88.4858 91.0154C87.9163 92.6144 86.2442 93.6856 84.3317 93.6856H83.4591C81.625 93.6856 79.9999 92.7085 79.3154 91.1983C79.1011 90.728 78.9391 90.1951 78.8399 89.6203L78.751 89.1395L77.105 89.6255C77.0737 89.6307 77.0476 89.6359 77.0162 89.6359C76.8229 89.6359 76.6504 89.5001 76.6086 89.3068C76.5616 89.0821 76.7027 88.8626 76.9274 88.8103L78.8399 88.2669L78.9339 88.0422C79.2422 87.3054 79.8902 86.7516 80.7158 86.5321C81.8497 86.2238 83.0097 86.0723 84.1697 86.0723C85.2357 86.0723 86.2912 86.2029 87.3049 86.4589C87.9058 86.6105 88.4127 86.9867 88.6896 87.4936L88.8464 87.781L89.1756 87.7287C89.4369 87.6869 89.7086 87.666 89.9907 87.666C90.3461 87.666 90.7223 87.6974 91.109 87.7653L91.4434 87.8228L91.6002 87.5197C91.8719 86.9972 92.384 86.6105 92.9953 86.4589C94.009 86.2029 95.0646 86.0723 96.1305 86.0723C97.2853 86.0723 98.4506 86.229 99.5793 86.5321C100.431 86.762 101.11 87.3629 101.392 88.1363L101.481 88.3766L104.225 88.9723C104.334 88.9985 104.428 89.0612 104.486 89.1552C104.549 89.2493 104.564 89.359 104.543 89.4687C104.502 89.6569 104.329 89.7979 104.136 89.7979C104.104 89.7979 104.078 89.7979 104.047 89.7875L101.534 89.244L101.445 89.7196C101.34 90.2525 101.183 90.7542 100.98 91.1983C100.295 92.7085 98.67 93.6856 96.8359 93.6856H95.9581H95.9633ZM96.1253 86.9031C95.1273 86.9031 94.1449 87.0233 93.1939 87.2636C92.6243 87.41 92.2167 87.8541 92.2063 88.3505C92.1854 89.1552 92.316 89.9599 92.593 90.7333C93.0371 91.9821 94.4271 92.8548 95.9633 92.8548H96.8412C98.3252 92.8548 99.689 92.0501 100.227 90.8587C100.462 90.3361 100.624 89.7457 100.703 89.1082C100.802 88.3192 100.238 87.5772 99.3598 87.3368C98.299 87.0494 97.2069 86.9031 96.1253 86.9031ZM84.1645 86.9031C83.0776 86.9031 81.9907 87.0494 80.93 87.3368C80.0521 87.5772 79.4878 88.3192 79.5871 89.1082C79.6655 89.7457 79.8275 90.3361 80.0626 90.8587C80.606 92.0553 81.9646 92.8548 83.4486 92.8548H84.3212C85.8575 92.8548 87.2474 91.9821 87.6916 90.7333C87.9685 89.9599 88.0992 89.1552 88.0783 88.3505C88.0678 87.8541 87.6602 87.4047 87.0907 87.2636C86.1397 87.0233 85.1573 86.9031 84.1593 86.9031H84.1645Z" fill="#103254"/>
<path d="M90.4611 96.7641C90.4088 96.7641 90.3513 96.7537 90.2991 96.7275C88.8569 96.0796 88.7628 95.6302 88.7263 95.4839C88.6845 95.2906 88.7367 95.1077 88.8674 94.9561C89.74 93.9633 90.1423 93.0332 90.1476 93.0228C90.2312 92.8242 90.4611 92.7301 90.6596 92.8137C90.8582 92.8973 90.9523 93.1273 90.8687 93.3258C90.853 93.3676 90.4454 94.3082 89.5466 95.3637C89.6825 95.4996 90.0483 95.7452 90.6231 96.0064C90.8216 96.0953 90.9105 96.3252 90.8216 96.5237C90.7589 96.67 90.6126 96.7537 90.4663 96.7537L90.4611 96.7641Z" fill="#F2B49C"/>
<path d="M106.466 92.3006C106.466 92.3006 106.44 92.3006 106.43 92.3006C106.242 92.2797 106.111 92.1125 106.132 91.9244C106.529 88.4652 108.29 88.0994 108.363 88.089C108.546 88.0576 108.724 88.1778 108.76 88.3607C108.792 88.5436 108.677 88.7212 108.494 88.7526C108.462 88.763 107.14 89.1079 106.806 92.0027C106.785 92.1752 106.639 92.3058 106.466 92.3058V92.3006Z" fill="#F2B49C"/>
<path d="M108.394 90.7115C108.279 90.7115 108.165 90.654 108.102 90.5495C107.72 89.9172 107.203 90.1471 107.146 90.1732C106.978 90.2516 106.775 90.1837 106.691 90.0165C106.607 89.8493 106.681 89.6455 106.848 89.5619C107.234 89.3738 108.118 89.2693 108.682 90.1994C108.781 90.3613 108.729 90.5704 108.567 90.6644C108.515 90.6958 108.452 90.7115 108.394 90.7115Z" fill="#F2B49C"/>
<path d="M75.7047 92.3007C75.5322 92.3007 75.3859 92.1701 75.365 91.9977C75.0306 89.0819 73.6929 88.7527 73.6772 88.7527C73.4943 88.7109 73.3794 88.5333 73.416 88.3556C73.4525 88.1727 73.625 88.0578 73.8079 88.0891C73.881 88.1048 75.642 88.4653 76.0391 91.9245C76.06 92.1126 75.9241 92.2798 75.7412 92.3007C75.7308 92.3007 75.7151 92.3007 75.7047 92.3007Z" fill="#F2B49C"/>
<path d="M73.7766 90.7115C73.7191 90.7115 73.6564 90.6958 73.5989 90.6644C73.4369 90.5651 73.3847 90.3613 73.484 90.1994C74.0483 89.2693 74.9261 89.3738 75.3181 89.5619C75.4853 89.6455 75.5584 89.844 75.4748 90.0165C75.3964 90.1837 75.1926 90.2568 75.0254 90.1785C74.9314 90.1367 74.435 89.9486 74.0692 90.5547C74.0065 90.6592 73.8915 90.7167 73.7766 90.7167V90.7115Z" fill="#F2B49C"/>
<path d="M111.049 134.177C110.971 134.177 110.892 134.157 110.824 134.104C104.773 129.851 100.661 127.782 100.619 127.761C100.426 127.661 100.348 127.426 100.442 127.233C100.536 127.04 100.776 126.961 100.969 127.055C101.011 127.076 105.165 129.166 111.274 133.456C111.451 133.582 111.493 133.827 111.368 134C111.289 134.11 111.169 134.167 111.049 134.167V134.177Z" fill="#81ADEB"/>
<path d="M108.557 132.347C108.363 132.347 108.191 132.201 108.17 132.003C107.893 129.797 107.093 123.877 106.702 122.963C106.618 122.764 106.707 122.534 106.905 122.445C107.104 122.362 107.334 122.451 107.417 122.649C107.924 123.83 108.839 131.078 108.943 131.898C108.969 132.112 108.818 132.311 108.604 132.337C108.588 132.337 108.572 132.337 108.557 132.337V132.347Z" fill="#81ADEB"/>
<g style="mix-blend-mode:multiply" opacity="0.4">
<path d="M113.453 154.957H113.442C113.322 154.957 110.401 154.78 105.244 150.95C105.129 150.866 105.103 150.699 105.192 150.584C105.28 150.469 105.442 150.443 105.557 150.532C110.568 154.247 113.442 154.435 113.468 154.435C113.615 154.44 113.725 154.566 113.714 154.707C113.709 154.848 113.594 154.957 113.453 154.957Z" fill="#497AB1"/>
</g>
<path fill-rule="evenodd" clip-rule="evenodd" d="M74.5867 90.3771L66.8271 91.2967C66.6703 91.3176 66.5293 91.3646 66.4039 91.4326C65.9701 91.6729 65.7141 92.185 65.8029 92.7389L68.9486 112.956C69.0583 113.672 69.701 114.184 70.3803 114.105L78.14 113.186C78.8193 113.107 79.2791 112.459 79.1694 111.743L76.0237 91.5266C75.914 90.8108 75.2713 90.2987 74.592 90.3771H74.5867Z" fill="#103254"/>
<path fill-rule="evenodd" clip-rule="evenodd" d="M66.3358 91.5158C65.8655 91.6987 65.5624 92.1742 65.5938 92.7176C65.5833 92.7646 65.6251 93.0834 65.6356 93.1356L68.7394 113.081C68.8492 113.797 69.4919 114.309 70.1712 114.23L77.9308 113.311C78.6101 113.232 79.0699 112.584 78.9602 111.868L75.8145 91.6516C75.7048 90.9358 75.0621 90.4237 74.3828 90.5021L66.759 91.406C66.6545 91.4165 66.4246 91.4635 66.341 91.5158H66.3358Z" fill="#103254"/>
<path fill-rule="evenodd" clip-rule="evenodd" d="M66.2732 91.5996C65.7716 91.7198 65.4215 92.1692 65.3902 92.7022C65.3745 92.7962 65.3902 93.0314 65.4111 93.1306L68.5358 113.212C68.6455 113.928 69.2883 114.44 69.9676 114.361L77.7272 113.442C78.4065 113.363 78.8663 112.715 78.7566 111.999L75.6109 91.7825C75.5012 91.0666 74.8585 90.5545 74.1792 90.6329L66.6965 91.516C66.6442 91.5212 66.3255 91.5683 66.2837 91.5944L66.2732 91.5996Z" fill="#103254"/>
<path fill-rule="evenodd" clip-rule="evenodd" d="M73.9649 90.7696L66.2052 91.6893C65.5259 91.7677 65.0661 92.4156 65.1759 93.1315L68.3215 113.348C68.4312 114.064 69.074 114.576 69.7533 114.498L77.5129 113.578C78.1922 113.5 78.652 112.852 78.5423 112.136L75.3966 91.9192C75.2869 91.2033 74.6442 90.6913 73.9649 90.7696Z" fill="#103254"/>
<path fill-rule="evenodd" clip-rule="evenodd" d="M73.9649 90.7696L66.2052 91.6893C65.5259 91.7677 65.0661 92.4156 65.1759 93.1315L68.3215 113.348C68.4312 114.064 69.074 114.576 69.7533 114.498L77.5129 113.578C78.1922 113.5 78.652 112.852 78.5423 112.136L75.3966 91.9192C75.2869 91.2033 74.6442 90.6913 73.9649 90.7696Z" fill="#2A6298"/>
<path d="M70.2411 92.2619L66.8104 92.705C66.5013 92.745 66.2831 93.0279 66.323 93.337L66.8257 97.2289C66.8657 97.538 67.1486 97.7563 67.4577 97.7163L70.8884 97.2732C71.1975 97.2333 71.4157 96.9503 71.3758 96.6412L70.8731 92.7493C70.8332 92.4402 70.5502 92.222 70.2411 92.2619Z" fill="#103254"/>
<path fill-rule="evenodd" clip-rule="evenodd" d="M68.844 93.784C68.9172 94.2856 69.3822 94.6305 69.8839 94.5574C70.3855 94.4842 70.7304 94.0191 70.6572 93.5175C70.5841 93.0159 70.119 92.671 69.6174 92.7442C69.1157 92.8173 68.7709 93.2824 68.844 93.784Z" fill="#071D33"/>
<path fill-rule="evenodd" clip-rule="evenodd" d="M69.2778 93.737C69.3144 93.993 69.5548 94.1707 69.8056 94.1341C70.0616 94.0975 70.2341 93.8572 70.1975 93.6011C70.1609 93.3451 69.9206 93.1674 69.6697 93.204C69.4137 93.2406 69.2413 93.4809 69.2778 93.737Z" fill="#1B4976"/>
<path fill-rule="evenodd" clip-rule="evenodd" d="M66.7122 94.0613C66.7853 94.563 67.2504 94.9079 67.752 94.8347C68.2537 94.7615 68.5985 94.2965 68.5254 93.7949C68.4522 93.2932 67.9872 92.9483 67.4855 93.0215C66.9839 93.0947 66.639 93.5597 66.7122 94.0613Z" fill="#071D33"/>
<path fill-rule="evenodd" clip-rule="evenodd" d="M67.146 94.0143C67.1826 94.2704 67.4229 94.448 67.6738 94.4114C67.9298 94.3749 68.1022 94.1345 68.0657 93.8785C68.0291 93.6224 67.7887 93.4448 67.5379 93.4813C67.2819 93.5179 67.1094 93.7583 67.146 94.0143Z" fill="#1B4976"/>
<path fill-rule="evenodd" clip-rule="evenodd" d="M67.0935 96.4129C67.1667 96.9145 67.6317 97.2594 68.1334 97.1863C68.635 97.1131 68.9799 96.648 68.9067 96.1464C68.8336 95.6448 68.3685 95.2999 67.8669 95.3731C67.3652 95.4462 67.0204 95.9113 67.0935 96.4129Z" fill="#071D33"/>
<path fill-rule="evenodd" clip-rule="evenodd" d="M67.522 96.36C67.5586 96.6161 67.7989 96.7937 68.0497 96.7571C68.3058 96.7206 68.4782 96.4802 68.4416 96.2242C68.4051 95.9681 68.1647 95.7905 67.9139 95.827C67.6578 95.8636 67.4854 96.104 67.522 96.36Z" fill="#1B4976"/>
<path fill-rule="evenodd" clip-rule="evenodd" d="M69.4398 96.1609C69.5077 96.5423 69.8735 96.7931 70.2497 96.7252C70.6312 96.6573 70.882 96.2915 70.8141 95.9153C70.7461 95.5338 70.3804 95.283 70.0041 95.3509C69.6227 95.4189 69.3719 95.7846 69.4398 96.1609Z" fill="#1B4976"/>
<path d="M70.6779 121.344L71.3677 114.363C71.7387 114.013 71.9216 113.668 71.9216 113.328C71.9529 113.015 71.817 112.388 71.5088 111.432C72.9771 110.329 73.8967 109.55 74.2677 109.106C74.7537 108.558 74.9836 108.072 74.9575 107.659C74.9313 107.309 74.6283 107.23 74.0483 107.424C73.6877 107.507 72.5695 108.046 70.6988 109.033C70.8765 108.626 71.2266 108.244 71.7596 107.884C72.188 107.57 73.1495 107.1 74.6335 106.462C74.8739 106.243 74.9522 105.888 74.8739 105.396C74.7694 105.109 74.4924 104.9 74.043 104.769C74.158 104.012 74.1005 103.536 73.8706 103.332C73.6982 103.134 73.4317 102.998 73.0607 102.914C71.3781 102.627 69.7217 102.967 68.0862 103.933C68.3526 103.343 68.6871 102.972 69.079 102.82C69.2671 102.742 69.4865 102.674 69.7321 102.627C71.1587 102.407 71.9006 102.277 71.9686 102.23C72.5486 102.068 72.9562 101.906 73.1913 101.76C73.9333 101.263 74.2312 100.835 74.0744 100.469C73.7609 99.9097 72.0992 99.8366 69.079 100.239C67.6315 100.432 66.4663 100.986 65.5937 101.89C65.1286 102.36 64.7837 102.825 64.559 103.291C64.1201 104.09 63.9059 104.675 63.9111 105.041C63.8902 105.564 63.9163 106.002 64.0052 106.363C64.0417 106.65 64.3291 107.774 64.8569 109.718C64.998 110.319 65.0659 110.663 65.0764 110.752C65.1704 111.374 65.207 111.918 65.1809 112.377C65.1756 112.618 65.1391 112.984 65.0816 113.485L63.9477 118.716L70.6727 121.349" fill="#FFDCC7"/>
<path d="M68.7758 106.279C68.7026 106.279 68.6243 106.248 68.572 106.185C68.478 106.075 68.4936 105.908 68.6034 105.819C68.6243 105.798 69.1573 105.365 70.3539 104.983C71.54 104.602 73.5465 104.555 73.6301 104.555C73.7765 104.555 73.8914 104.664 73.8966 104.811C73.8966 104.957 73.7869 105.072 73.6406 105.077C73.6197 105.077 71.6288 105.124 70.5158 105.48C69.429 105.83 68.943 106.216 68.9378 106.222C68.8908 106.263 68.8281 106.279 68.7706 106.279H68.7758Z" fill="#F2B49C"/>
<path d="M64.0262 111.953C64.0262 111.953 67.0517 114.707 73.6304 114.08C73.6304 114.08 72.5801 131.485 71.6552 137.374C70.7304 143.263 66.2575 142.882 62.7094 142.511C59.1614 142.14 58.2366 136.126 59.4175 129.489C60.6036 122.853 64.021 111.958 64.021 111.958L64.0262 111.953Z" fill="#A5C5F6"/>
<path d="M73.0293 127.08C73.0293 127.08 73.0137 127.08 73.0084 127.08C72.7942 127.07 72.627 126.887 72.6374 126.667L73.2488 114.754C73.2592 114.539 73.4369 114.362 73.6616 114.383C73.8758 114.393 74.043 114.576 74.0326 114.795L73.4212 126.709C73.4108 126.918 73.2383 127.08 73.0293 127.08Z" fill="#81ADEB"/>
<path d="M94.6413 153.736C90.4872 144.09 82.947 131.043 78.2912 128.048C73.6354 125.054 68.3997 124.809 64.0731 127.468C60.6661 129.564 59.9973 135.698 61.497 140.689C62.9967 145.679 72.4127 176.712 77.2357 179.706C82.0587 182.7 91.48 183.338 95.1377 178.849C98.7955 174.361 98.5342 162.776 94.6413 153.741V153.736Z" fill="#1B4976"/>
<path d="M73.5572 175.489L73.3273 181.524C73.3011 182.255 72.7055 182.835 71.9739 182.835C68.9223 182.835 61.4187 182.856 59.3129 182.945C56.6532 183.055 48.7838 184.278 47.8955 182.501C47.0072 180.73 48.0053 178.18 50.1111 177.401C52.2169 176.623 57.761 173.827 57.761 173.827C57.761 173.827 58.5343 171.972 62.1973 171.747C65.855 171.528 70.5108 172.244 73.5572 175.489Z" fill="#071D33"/>
<path d="M64.6219 127.249C60.8805 129.229 59.8355 132.443 59.0464 138.551C58.2626 144.655 54.908 174.982 54.908 174.982C54.908 174.982 64.9302 174.497 71.8224 177.365C71.8224 177.365 77.2933 148.788 77.8786 145.642C78.6101 141.708 79.1744 131.236 74.4612 128.252C69.7479 125.269 66.2104 126.413 64.6166 127.254L64.6219 127.249Z" fill="#1B4976"/>
<g style="mix-blend-mode:multiply" opacity="0.8">
<path d="M75.7988 176.111C75.7988 176.111 75.7884 176.111 75.7831 176.111C75.6368 176.1 75.5323 175.975 75.5375 175.834L77.7008 143.134C77.7113 142.987 77.8315 142.872 77.9778 142.888C78.1241 142.899 78.2286 143.024 78.2234 143.165L76.0601 175.865C76.0496 176.001 75.9347 176.111 75.7988 176.111Z" fill="#497AB1"/>
</g>
<g style="mix-blend-mode:multiply" opacity="0.8">
<path d="M90.8218 176.888C90.8218 176.888 90.8113 176.888 90.8061 176.888C90.6598 176.878 90.5553 176.752 90.5605 176.611L92.776 143.138C92.7865 142.991 92.9119 142.876 93.053 142.892C93.1993 142.903 93.3038 143.028 93.2986 143.169L91.083 176.643C91.0726 176.778 90.9576 176.888 90.8218 176.888Z" fill="#497AB1"/>
</g>
<path d="M109.717 153.736C105.562 144.09 98.0222 131.042 93.3664 128.048C88.7107 125.054 84.0549 125.054 80.2299 126.219C76.405 127.385 75.0777 135.698 76.5722 140.683C78.0666 145.673 81.9491 177.01 86.7721 180.004C91.5951 182.998 106.555 183.327 110.213 178.839C113.871 174.35 113.609 162.765 109.717 153.731V153.736Z" fill="#1B4976"/>
<path d="M88.6324 175.489L88.4025 181.524C88.3763 182.255 87.7806 182.835 87.0491 182.835C83.9975 182.835 76.4939 182.856 74.3881 182.945C71.7284 183.055 63.859 184.278 62.9707 182.501C62.0824 180.73 63.0805 178.18 65.1863 177.401C67.2921 176.623 71.0073 174.658 71.0073 174.658C71.0073 174.658 73.6095 171.972 77.2725 171.747C80.9302 171.528 85.586 172.244 88.6324 175.489Z" fill="#071D33"/>
<path d="M78.443 125.884C74.8061 128.048 73.9178 131.313 73.4371 137.448C72.9563 143.583 69.8159 175.018 69.8159 175.018C69.8159 175.018 82.1582 175.321 89.1863 177.845C89.1863 177.845 92.1752 146.76 92.6036 143.593C93.1418 139.627 93.1784 129.14 88.3241 126.391C83.4697 123.648 79.9897 124.965 78.443 125.884Z" fill="#1B4976"/>
<path d="M69.4815 175.244C69.4815 175.244 69.4606 175.244 69.4502 175.244C69.2359 175.223 69.0739 175.035 69.0948 174.82C69.121 174.517 71.7127 144.252 71.8799 140.15C72.2562 131.199 75.893 127.818 76.0445 127.677C76.2065 127.531 76.4521 127.547 76.5984 127.703C76.7447 127.865 76.7291 128.111 76.5723 128.257C76.5148 128.31 73.0191 131.617 72.6637 140.182C72.4913 144.299 69.8995 174.58 69.8734 174.888C69.8577 175.092 69.6853 175.249 69.4815 175.249V175.244Z" fill="#071D33"/>
<path d="M88.6897 177.694C88.6897 177.694 88.6479 177.694 88.6322 177.694C88.418 177.662 88.2717 177.464 88.3031 177.249L93.3351 144.042C93.3664 143.828 93.565 143.682 93.7792 143.713C93.9935 143.745 94.1398 143.943 94.1084 144.157L89.0764 177.364C89.0451 177.558 88.8778 177.699 88.6897 177.699V177.694Z" fill="#071D33"/>
<path d="M62.976 182.893C62.861 182.893 62.7461 182.84 62.6677 182.741C62.6363 182.699 62.5945 182.658 62.5579 182.621C62.1608 182.208 61.8159 181.701 61.9779 179.998C62.1295 178.404 63.7441 177.72 65.0348 177.171C65.2438 177.082 65.4476 176.993 65.6409 176.91C66.942 176.314 67.3862 176.089 67.3914 176.084C67.5847 175.985 67.8199 176.063 67.9191 176.257C68.0184 176.45 67.94 176.685 67.7467 176.784C67.731 176.795 67.2869 177.014 65.9649 177.62C65.7663 177.709 65.5573 177.798 65.343 177.892C64.183 178.383 62.8662 178.942 62.7565 180.071C62.6154 181.55 62.8924 181.842 63.1171 182.072C63.1745 182.135 63.232 182.193 63.2843 182.255C63.4149 182.428 63.3888 182.673 63.2163 182.804C63.1432 182.861 63.0596 182.887 62.976 182.887V182.893Z" fill="#000102"/>
<path d="M99.987 130.706C98.7747 131.683 97.066 130.779 95.6604 130.205C94.2548 129.63 91.8982 127.498 91.083 127.754C90.2679 128.01 88.5853 127.754 87.1692 128.052C87.1692 128.052 85.518 129.076 84.7081 128.465C83.8982 127.853 84.4521 127.289 84.4521 127.289C84.4521 127.289 83.987 127.571 83.36 127.148C82.7329 126.724 83.3443 125.627 83.3443 125.627C83.3443 125.627 82.6023 125.93 82.7486 124.645C82.8949 123.359 85.3926 122.236 86.4377 121.912C87.4828 121.583 89.7924 120.674 93.2097 121.651C96.6219 122.628 100.081 126.474 100.081 126.474C100.577 127.184 101.403 129.567 99.9922 130.706H99.987Z" fill="#FFDCC7"/>
<path d="M83.3392 125.893C83.266 125.893 83.1929 125.862 83.1406 125.799C83.0466 125.689 83.0622 125.522 83.172 125.428C83.2399 125.371 84.8493 124.012 86.281 123.563C87.6919 123.118 89.1184 122.988 89.1759 122.983C89.317 122.977 89.4476 123.077 89.4581 123.218C89.4685 123.364 89.364 123.489 89.2229 123.5C89.2072 123.5 87.7912 123.631 86.4378 124.059C85.1053 124.477 83.5273 125.81 83.5116 125.825C83.4646 125.867 83.4019 125.888 83.3444 125.888L83.3392 125.893Z" fill="#F2B49C"/>
<path d="M84.4469 127.55C84.3581 127.55 84.2745 127.509 84.2275 127.43C84.1491 127.31 84.1856 127.148 84.3058 127.07C84.3947 127.012 86.5266 125.669 87.8852 125.194C89.2647 124.713 89.9283 124.765 89.9544 124.765C90.0955 124.781 90.2052 124.906 90.1896 125.048C90.1739 125.194 90.0589 125.293 89.9074 125.283C89.9074 125.283 89.3117 125.241 88.0576 125.68C86.7565 126.134 84.6089 127.493 84.5828 127.503C84.541 127.53 84.4887 127.545 84.4417 127.545L84.4469 127.55Z" fill="#F2B49C"/>
<path d="M135.451 154.017L126.218 154.064C126.02 152.491 125.549 149.393 124.661 146.79C124.212 145.474 123.25 144.402 121.881 143.692C120.768 143.112 119.394 142.788 118.014 142.777C118.014 142.777 117.993 142.777 117.983 142.777H117.952H117.915C117.905 142.777 117.894 142.777 117.884 142.777C116.504 142.798 115.135 143.138 114.027 143.734C112.669 144.46 111.718 145.542 111.284 146.864C110.422 149.476 109.983 152.585 109.8 154.153L100.666 154.2C99.2031 154.205 98.0221 155.402 98.0274 156.865L98.043 159.958L98.1475 180.436C98.1528 181.899 99.3494 183.08 100.812 183.075L102.924 183.065C103.054 183.383 103.368 183.603 103.723 183.598H104.867C105.097 183.592 105.311 183.498 105.473 183.336C105.557 183.253 105.62 183.154 105.662 183.049L130.754 182.918C130.795 183.023 130.863 183.122 130.947 183.206C131.109 183.368 131.328 183.457 131.553 183.451H132.698C133.053 183.446 133.366 183.222 133.492 182.903L135.603 182.892C137.066 182.887 138.247 181.69 138.242 180.227L138.116 156.656C138.111 155.193 136.914 154.012 135.451 154.017ZM111.483 154.142C111.671 152.591 112.094 149.727 112.867 147.386C113.531 145.385 115.898 144.47 117.952 144.449C120.005 144.449 122.388 145.338 123.072 147.334C123.872 149.67 124.321 152.523 124.525 154.075L111.483 154.142Z" fill="#071D33"/>
<path d="M137.766 160.929L98.4094 161.135L98.412 161.626L137.769 161.42L137.766 160.929Z" fill="#1B4976"/>
<path d="M107.799 182.238C107.799 182.238 107.799 182.238 107.793 182.238C107.793 182.238 107.793 182.238 107.788 182.238C105.583 181.418 102.741 179.845 101.69 177.023C100.708 174.385 99.6576 173.151 98.9417 172.577C98.9051 172.55 98.8738 172.524 98.8424 172.498C98.6909 172.383 98.5655 172.31 98.4714 172.258L98.5132 180.441C98.5185 181.7 99.5479 182.719 100.807 182.714L103.054 182.703L109.095 182.672C108.75 182.573 108.347 182.447 107.919 182.29C107.882 182.275 107.84 182.264 107.804 182.249L107.799 182.238Z" fill="#071D33"/>
<path d="M136.914 172.791C136.266 173.476 135.425 174.699 134.652 176.846C134.26 177.944 133.56 178.942 132.572 179.82C131.788 180.52 130.816 181.142 129.693 181.669C129.322 181.842 128.961 181.993 128.616 182.129C128.611 182.129 128.601 182.134 128.595 182.14C128.125 182.322 127.686 182.464 127.31 182.573L130.884 182.552L135.597 182.526C136.857 182.521 137.876 181.492 137.865 180.232L137.823 172.055C137.63 172.164 137.306 172.379 136.914 172.797V172.791Z" fill="#071D33"/>
<path d="M126.709 154.999C126.761 155.066 126.788 155.15 126.782 155.234C126.782 155.244 126.782 155.255 126.782 155.265L126.793 156.969C126.793 157.162 126.631 157.319 126.427 157.319L124.556 157.329C124.353 157.329 124.185 157.172 124.185 156.984L124.175 155.281C124.175 155.281 124.175 155.26 124.175 155.249C124.164 155.166 124.191 155.082 124.243 155.014L124.588 154.57C124.588 154.534 124.577 154.492 124.572 154.45H123.532L123.558 159.644L127.415 159.628L127.389 154.439H126.27C126.27 154.439 126.27 154.45 126.276 154.45L126.714 155.004L126.709 154.999Z" fill="#1B4976"/>
<path d="M112.475 154.514H111.436C111.436 154.561 111.425 154.602 111.42 154.639L111.77 155.078C111.822 155.146 111.848 155.23 111.843 155.313C111.843 155.324 111.843 155.334 111.843 155.344L111.854 157.048C111.854 157.241 111.692 157.398 111.488 157.398L109.617 157.409C109.413 157.409 109.246 157.252 109.246 157.064L109.236 155.36C109.236 155.36 109.236 155.339 109.236 155.329C109.231 155.245 109.251 155.162 109.304 155.094L109.737 154.535C109.737 154.535 109.737 154.529 109.743 154.529H108.619L108.645 159.723L112.502 159.708L112.475 154.519V154.514Z" fill="#1B4976"/>
</g>
<defs>
<linearGradient id="paint0_linear_2559_26351" x1="129.463" y1="155.343" x2="129.463" y2="0.0722656" gradientUnits="userSpaceOnUse">
<stop offset="0.7" stop-color="#DCE4F1"/>
<stop offset="0.8" stop-color="#E4EAF4" stop-opacity="0.6"/>
<stop offset="1" stop-color="white" stop-opacity="0"/>
</linearGradient>
<linearGradient id="paint1_linear_2559_26351" x1="210.398" y1="155.344" x2="210.398" y2="0" gradientUnits="userSpaceOnUse">
<stop offset="0.7" stop-color="#C4D2E7"/>
<stop offset="0.8" stop-color="#C4D2E7" stop-opacity="0.6"/>
<stop offset="1" stop-color="white" stop-opacity="0"/>
</linearGradient>
<clipPath id="clip0_2559_26351">
<rect width="332.013" height="200" fill="white"/>
</clipPath>
</defs>
</svg>
