<svg width="343" height="193" viewBox="0 0 343 193" fill="none" xmlns="http://www.w3.org/2000/svg">
<g clip-path="url(#clip0_2559_17773)">
<path d="M278.728 109.105H64.2719L2.70032 192.766H340.3L278.728 109.105Z" fill="#D0DBEC"/>
<path d="M278.728 1.65039H64.2719V109.1H278.728V1.65039Z" fill="#DCE4F1"/>
<path d="M64.2719 109.105L2.70032 192.766V44.6805L64.2719 1.65039V109.105Z" fill="#C4D2E7"/>
<path d="M64.2719 1.6508L2.70031 44.6809L0 43.697L62.621 0L64.2719 1.6508Z" fill="#D0DBEC"/>
<path d="M2.70031 192.767H0V43.6973L2.70031 44.6812V192.767Z" fill="#DCE4F1"/>
<path d="M278.728 109.105L340.3 192.766V44.6805L278.728 1.65039V109.105Z" fill="#C4D2E7"/>
<path d="M278.728 1.6508L340.3 44.6809L343 43.697L280.379 0L278.728 1.6508Z" fill="#D0DBEC"/>
<path d="M340.3 192.767H343V43.6973L340.3 44.6812V192.767Z" fill="#DCE4F1"/>
<path d="M64.2719 1.6508L62.6211 0H280.379L278.728 1.6508H64.2719Z" fill="#D0DBEC"/>
<path d="M267.67 84.6992C253.266 84.6992 192.116 84.6992 187.311 84.6992C182.512 84.6992 178.128 85.8471 175.416 89.187C172.705 92.5269 167.693 98.9989 165.818 101.71C163.943 104.421 163.522 110.893 167.485 112.981C167.485 112.981 164.774 114.862 165.605 120.498C166.435 126.133 171.186 127.953 174.996 129.473C181.101 131.906 217.157 131.955 228.007 131.856C239.705 131.752 276.011 131.649 284.358 130.812C292.705 129.976 297.51 125.505 299.177 121.749C300.844 117.994 301.058 111.314 295.422 104.427C289.786 97.5394 283.779 92.2809 281.439 89.8156C277.476 85.6394 273.508 84.7047 267.664 84.7047L267.67 84.6992Z" fill="white"/>
<path d="M232.221 118.219C218.004 118.219 201.479 117.858 183.321 116.831C171.82 116.18 168.841 114.606 168.72 114.535C168.524 114.425 168.447 114.174 168.562 113.977C168.671 113.78 168.923 113.709 169.114 113.813C169.147 113.83 172.142 115.371 183.37 116.005C242.963 119.378 284.954 115.535 285.37 115.497C285.594 115.47 285.796 115.639 285.818 115.869C285.84 116.093 285.676 116.295 285.446 116.317C285.156 116.344 264.718 118.214 232.221 118.214V118.219Z" fill="#D2E0F8"/>
<path d="M267.67 56.2363C253.266 56.2363 192.116 56.2363 187.311 56.2363C182.512 56.2363 178.128 57.3842 175.416 60.7241C172.705 64.064 167.693 70.536 165.818 73.2472C163.943 75.9585 163.522 82.4305 167.485 84.5186C167.485 84.5186 164.774 86.3989 165.605 92.0346C166.441 97.6703 171.186 99.4905 174.996 101.01C181.101 103.443 217.157 103.492 228.007 103.393C239.705 103.29 276.011 103.186 284.358 102.349C292.705 101.513 297.51 97.0417 299.177 93.2864C300.844 89.5311 301.058 82.8514 295.422 75.9639C289.786 69.0765 283.779 63.818 281.439 61.3527C277.476 57.1765 273.508 56.2418 267.664 56.2418L267.67 56.2363Z" fill="white"/>
<path d="M217.709 89.3344C204.579 89.3344 192.176 89.0829 183.31 88.3723C171.847 87.454 168.868 86.1476 168.748 86.0929C168.54 86 168.453 85.754 168.545 85.5518C168.638 85.344 168.879 85.2566 169.087 85.3495C169.114 85.3604 172.131 86.6559 183.375 87.5579C213.478 89.9739 284.67 87.0768 285.386 87.044C285.605 87.0222 285.801 87.208 285.812 87.4376C285.823 87.6617 285.648 87.853 285.419 87.864C284.916 87.8858 249.238 89.3398 217.703 89.3398L217.709 89.3344Z" fill="#D2E0F8"/>
<path d="M219.966 103.831C208.684 103.831 192.619 103.678 185.923 103.131C175.712 102.716 170.595 99.2394 170.382 99.0919C170.196 98.9607 170.152 98.7092 170.278 98.5234C170.409 98.3375 170.661 98.2883 170.847 98.4195C170.896 98.4523 176.001 101.907 185.972 102.311C194.532 103.011 218.419 103.066 228.007 102.978C231.221 102.951 235.911 102.956 241.345 102.967C255.174 102.989 274.109 103.022 280.144 102.415C280.215 102.41 287.108 101.781 289.939 100.568C290.147 100.48 290.388 100.573 290.475 100.781C290.562 100.989 290.47 101.229 290.262 101.317C287.316 102.579 280.51 103.202 280.22 103.224C274.147 103.831 255.956 103.804 241.339 103.776C235.906 103.765 231.216 103.76 228.007 103.787C225.908 103.804 223.12 103.82 219.961 103.82L219.966 103.831Z" fill="#D2E0F8"/>
<path d="M53.744 86.9023L51.2842 89.2911L51.7652 93.3252L53.7385 93.2541L53.5855 89.9908L54.0501 89.2255H55.8102L56.253 89.9908L56.0999 93.2541L58.0678 93.3252L58.5488 89.2911L56.0945 86.9023H53.744Z" fill="#AF7FAD"/>
<path d="M77.1011 138.581L76.2538 129.386C75.4011 121.313 74.7397 113.245 73.9034 105.171C73.6027 102.23 72.4329 99.9453 70.558 97.4582C69.5358 96.1026 68.3825 94.8399 66.7371 94.0363C63.5667 92.4785 58.1388 92.3473 54.4655 92.3418C50.7922 92.3527 45.3642 92.4785 42.1938 94.0363C40.5539 94.8453 39.3951 96.108 38.3729 97.4582C36.498 99.9453 35.3282 102.236 35.0276 105.171C34.1967 113.245 33.5298 121.313 32.6771 129.386L31.8298 138.581C31.7041 139.772 31.8626 143.265 32.6334 144.244C34.0819 146.08 35.4922 149.021 37.9903 149.622C42.9536 150.814 49.289 150.18 54.4709 150.317C59.6474 150.185 65.9883 150.819 70.9516 149.622C73.4497 149.021 74.86 146.08 76.3085 144.244C77.0792 143.265 77.2378 139.772 77.112 138.581H77.1011Z" fill="#CD98CC"/>
<path d="M49.3436 92.9589C49.1906 91.4885 48.0263 89.9962 47.5015 88.6078C45.0527 88.4985 42.2376 88.3017 39.8324 88.9303C37.9794 89.4168 37.9958 91.2316 37.6241 92.948C37.1977 94.9213 36.6675 98.3541 36.9845 100.355C38.5861 99.0483 39.57 96.7689 41.2974 95.4788C44.2874 93.2541 47.2501 93.1994 49.3436 92.9589Z" fill="#CD98CC"/>
<path d="M59.5873 92.9589C59.7403 91.4885 60.9046 89.9962 61.4294 88.6078C63.8783 88.4985 66.6934 88.3017 69.0985 88.9303C70.9516 89.4168 70.9352 91.2316 71.3069 92.948C71.7332 94.9213 72.5969 98.4251 72.2853 100.426C70.6837 99.1193 69.3664 96.7689 67.6336 95.4843C64.6435 93.2595 61.6808 93.2049 59.5873 92.9644V92.9589Z" fill="#CD98CC"/>
<path d="M49.2507 92.4495C49.2343 92.3894 49.2179 92.3293 49.2015 92.2637C47.0642 92.4605 44.0633 93.0016 42.1501 93.9418C40.3955 94.8055 39.2202 96.172 38.2964 97.391C38.209 97.5112 38.1051 97.6479 37.9903 97.79C37.6514 98.2383 37.236 98.7794 36.8916 99.2714C36.8916 99.3807 36.8971 99.4846 36.9025 99.5884C37.2578 99.0527 37.7443 98.4132 38.1379 97.8994C38.2472 97.7518 38.3511 97.6151 38.444 97.5003C39.3514 96.2923 40.5102 94.9476 42.2321 94.1058C44.1289 93.1711 47.1298 92.6354 49.2507 92.4441V92.4495Z" fill="#966595"/>
<path d="M72.34 99.7743C71.6294 98.7248 70.6455 97.4183 70.6345 97.3965C69.7107 96.172 68.5355 94.8055 66.7808 93.9473C64.9606 93.0508 62.0034 92.5261 59.713 92.3184C59.6966 92.3785 59.6802 92.4386 59.6638 92.5042C61.9432 92.7119 64.8895 93.2312 66.6934 94.1167C68.4098 94.964 69.5686 96.3087 70.4815 97.5113C70.8696 98.0251 71.7387 99.2058 72.3181 100.086C72.3291 99.9875 72.3345 99.8836 72.3345 99.7743H72.34Z" fill="#966595"/>
<path d="M41.1389 94.7297C41.1389 94.7297 41.0842 94.7188 41.0678 94.6969C40.4009 93.8825 39.991 93.0079 39.5974 92.1551C39.3514 91.6304 39.1 91.0892 38.7884 90.559C38.7611 90.5153 38.7775 90.4551 38.8212 90.4333C38.8649 90.406 38.925 90.4224 38.9469 90.4661C39.2639 91.0072 39.5154 91.5484 39.7614 92.0786C40.1713 92.9532 40.554 93.7841 41.2045 94.5821C41.2373 94.6204 41.2318 94.6805 41.1935 94.7133C41.1771 94.7297 41.1553 94.7352 41.1334 94.7352L41.1389 94.7297Z" fill="#966595"/>
<path d="M67.8467 94.6969C67.8467 94.6969 67.803 94.6915 67.7866 94.6751C67.7484 94.6423 67.7429 94.5821 67.7757 94.5439C68.4152 93.7622 68.7815 92.9532 69.1641 92.1005C69.4046 91.5648 69.6561 91.0182 69.9786 90.4661C70.0059 90.4224 70.0606 90.406 70.1043 90.4333C70.148 90.4606 70.1644 90.5153 70.1371 90.559C69.8201 91.1002 69.5686 91.6468 69.3336 92.177C68.9455 93.0407 68.5738 93.8606 67.9178 94.6587C67.9014 94.6805 67.8741 94.6915 67.8467 94.6915V94.6969Z" fill="#966595"/>
<path d="M70.2902 132.397C69.6889 121.606 69.4703 121.562 69.3008 121.562C69.2298 121.562 61.9761 122.011 55.0012 122.011C48.0263 122.011 40.5594 121.568 40.4774 121.562C40.308 121.562 40.0948 121.563 39.6356 132.397C39.4115 137.704 39.2421 143.083 39.2421 143.138C39.2421 143.192 39.2639 143.247 39.3077 143.296C40.0183 144.051 49.2234 145.619 54.4163 145.619C59.6092 145.619 70.0224 144.078 70.7603 143.285C70.804 143.236 70.8259 143.187 70.8204 143.138C70.8204 143.083 70.5745 137.704 70.2793 132.397H70.2902ZM69.1095 143.493C65.9446 144.297 58.6253 145.209 54.4218 145.209C50.2182 145.209 43.5822 144.269 40.7835 143.482L40.6469 129.51C42.1392 129.581 50.2073 129.948 54.9848 129.948C57.789 129.948 61.6317 129.822 64.6217 129.702C64.4796 131.03 64.7201 133.26 64.8787 134.468C65.223 134.632 66.0375 134.37 66.3655 134.348C66.3436 134.107 66.2069 133.167 66.1851 132.927C66.1468 132.489 65.8844 130.254 65.8079 129.653C67.7375 129.571 69.104 129.505 69.2352 129.499L69.104 143.493H69.1095ZM69.2407 129.33L69.1696 127.925C69.0822 127.925 60.2105 128.373 54.9903 128.373C50.1362 128.373 41.8495 127.991 40.6359 127.936L40.5758 121.765H40.5212C41.188 121.803 48.3215 122.208 55.0012 122.208C61.6809 122.208 68.3333 121.819 69.2079 121.765L69.2516 128.242L69.2407 129.33Z" fill="#966595"/>
<path d="M76.2539 129.38C76.2429 129.249 76.2265 129.123 76.2156 128.992C76.0297 128.276 75.8384 127.559 75.6416 126.854C75.423 126.051 75.1989 125.225 74.9966 124.433C74.7014 123.279 74.3571 122.11 74.0072 120.962C74.4445 120.754 74.7834 120.3 75.0349 119.732C75.177 120.317 75.3191 120.902 75.4667 121.486C75.3355 120.131 75.2098 118.77 75.0841 117.414C75.0841 117.431 75.0841 117.447 75.0786 117.463C74.8381 116.43 74.5976 115.403 74.3625 114.391C73.7777 111.855 73.1709 109.237 72.5259 106.668C72.0121 104.629 71.2468 102.245 69.432 100.059C68.1365 98.4955 66.3545 97.3312 63.8291 96.391C59.8552 94.9152 55.4658 94.4177 51.142 94.9534C45.3752 95.6695 41.434 97.5061 39.0999 100.567C37.5202 102.639 36.8533 104.924 36.1974 107.477C35.5086 110.166 34.8472 112.839 34.1749 115.561L34.0492 116.064C34.0492 115.944 34.0492 115.834 34.0546 115.736H34.0054C33.9234 116.594 33.8469 117.452 33.7649 118.311C34 119.377 34.4045 120.431 35.0768 120.869C34.7434 122.093 34.4318 123.258 34.1366 124.433C33.8742 125.471 33.5353 126.537 33.2074 127.565C33.0379 128.101 32.863 128.647 32.699 129.194C32.6935 129.254 32.6881 129.314 32.6826 129.374C32.6826 129.374 32.5951 130.293 32.4803 131.555C32.7701 130.254 33.18 128.953 33.5845 127.68C33.9125 126.647 34.2514 125.581 34.5192 124.526C34.8199 123.34 35.1369 122.159 35.4758 120.913C35.9077 119.3 36.3614 117.633 36.7713 115.944C37.5749 112.648 38.4221 110.013 39.4334 107.662C40.4282 105.35 41.6855 102.737 44.0031 100.999C46.6871 98.982 50.989 98.9656 54.4436 98.9547H54.4655H54.4928C57.9475 98.9656 62.2494 98.982 64.9333 100.999C67.251 102.737 68.5082 105.35 69.5031 107.662C70.5143 110.013 71.3616 112.642 72.1651 115.944C72.5314 117.441 72.996 118.972 73.4442 120.442C73.8487 121.782 74.2696 123.165 74.614 124.52C74.8162 125.313 75.0403 126.144 75.259 126.953C75.7018 128.571 76.15 130.238 76.478 131.845C76.3468 130.435 76.2484 129.369 76.2484 129.369L76.2539 129.38ZM73.8433 120.415C73.8433 120.415 73.8269 120.36 73.8214 120.339C73.3732 118.868 72.914 117.349 72.5478 115.856C71.7388 112.538 70.886 109.887 69.8638 107.515C68.8471 105.153 67.5626 102.486 65.1684 100.687C62.3806 98.5939 58.0076 98.5775 54.4874 98.5666H54.46H54.4327C50.9179 98.5775 46.5449 98.5939 43.7517 100.687C41.3575 102.486 40.0729 105.153 39.0562 107.515C38.034 109.887 37.1813 112.538 36.3723 115.856C36.0061 117.359 35.607 118.841 35.2189 120.284C34.716 119.819 34.3771 118.721 34.1913 117.666H34.2131L34.6996 115.698C35.372 112.976 36.0389 110.303 36.7221 107.619C37.3835 105.033 38.0067 102.901 39.5263 100.906C41.7675 97.9708 45.5829 96.2052 51.1912 95.511C55.4275 94.9862 59.724 95.4727 63.6159 96.9158C66.0484 97.8177 67.7539 98.9328 68.9838 100.414C70.3667 102.087 71.2632 103.995 71.9683 106.804C72.6134 109.368 73.2201 111.986 73.805 114.517C74.1275 115.905 74.4555 117.316 74.7889 118.737C74.5648 119.508 74.2478 120.169 73.8323 120.415H73.8433Z" fill="#966595"/>
<path d="M56.2802 104.76H53.4869V111.647H56.2802V104.76Z" fill="white"/>
<path d="M51.4371 106.81V109.604H58.3246V106.81H51.4371Z" fill="white"/>
<path d="M122.214 160.243C122.214 160.243 138.88 160.243 156.963 162.331C175.045 164.419 174.69 154.159 175.4 150.157C176.111 146.156 174.334 141.81 169.371 139.028C164.408 136.246 145.959 132.939 140.509 131.436L122.569 133.114L98.5888 131.436C93.139 132.939 78.9542 136.24 73.9908 139.028C69.0275 141.816 67.2564 146.162 67.9616 150.157C68.6667 154.153 68.3169 164.419 86.3992 162.331C104.481 160.243 122.208 160.243 122.208 160.243H122.214Z" fill="#1B4976"/>
<path d="M120.711 163.556C120.711 163.556 113.134 171.865 111.478 173.521C109.822 175.177 106.936 176.856 104.328 177.036C101.94 177.2 96.5117 175.582 98.8676 170.482C101.224 165.382 110.369 156.374 112.107 154.92C114.66 152.788 116.961 152.039 119.885 152.717C122.81 153.395 124.439 158.877 120.711 163.556Z" fill="white"/>
<path d="M116.496 151.135C116.496 151.135 115.277 157.525 115.463 160.668C115.649 163.811 118.59 167.452 118.59 167.452C118.59 167.452 131.26 168.288 136.333 167.862C141.406 167.43 156.82 165.801 164.249 163.576C171.678 161.352 173.755 155.016 173.788 151.015C173.826 147.014 173.963 143.122 168.464 139.591C163.746 136.557 153.699 138.814 151.387 139.738C149.075 140.662 116.491 151.141 116.491 151.141L116.496 151.135Z" fill="#1B4976"/>
<path d="M120.667 164.654C120.667 164.654 128.243 172.963 129.899 174.619C131.556 176.275 134.442 177.953 137.049 178.134C139.438 178.298 144.866 176.68 142.51 171.58C140.154 166.48 131.009 157.471 129.271 156.017C126.718 153.885 124.417 153.137 121.492 153.814C118.568 154.492 116.939 159.975 120.667 164.654Z" fill="white"/>
<path d="M126.139 52.2148V66.8862C126.095 71.0023 110.866 75.4135 111.052 62.8904V52.2148H126.139Z" fill="#FFDCC7"/>
<path d="M126.139 56.5433V63.4908C118.223 66.3879 111.052 60.6867 111.052 60.6867V56.3738C114.004 54.9854 118.316 52.9629 118.584 52.9629C118.879 52.9629 123.34 55.133 126.139 56.5433Z" fill="#F4BDA2"/>
<path d="M118.595 134.213C133.502 133.984 142.138 131.431 142.138 131.431C142.138 131.431 144.762 95.7146 145.456 89.4503C146.15 83.1915 146.577 76.14 144.199 73.8278C136.912 66.7327 126.139 63.8574 126.139 63.8574C126.139 63.8574 123.722 67.3613 118.617 67.3613C113.512 67.3613 111.046 63.8574 111.046 63.8574C111.046 63.8574 100.278 66.7327 92.9859 73.8278C90.6081 76.14 91.0345 83.1915 91.7287 89.4503C92.4229 95.7091 95.2926 131.431 95.2926 131.431C95.2926 131.431 103.689 133.984 118.595 134.213Z" fill="#6593CF"/>
<path d="M140.69 71.3613C144.199 73.8266 145.385 73.9687 148.692 81.1021C151.999 88.2356 158.837 104.41 158.837 104.41L176.696 93.9751L182.954 103.251C182.954 103.251 170.054 116.78 159.909 120.585C155.038 122.41 150.999 120.158 148.78 117.365C145.391 113.101 135.819 95.7134 135.819 95.7134L140.69 71.3613Z" fill="#6593CF"/>
<path d="M124.881 152.229C124.881 152.229 126.1 158.619 125.914 161.762C125.729 164.905 122.788 168.546 122.788 168.546C122.788 168.546 110.117 169.382 105.044 168.956C99.9718 168.524 84.557 166.895 77.1284 164.67C69.6944 162.445 67.6227 156.11 67.5899 152.109C67.5516 148.107 67.415 144.216 72.914 140.684C77.6313 137.651 87.6782 139.908 89.9905 140.832C92.3027 141.756 124.887 152.234 124.887 152.234L124.881 152.229Z" fill="#1B4976"/>
<path d="M98.9168 43.7583C99.9718 46.4368 102.284 48.0274 104.082 47.3223C105.881 46.6117 106.477 43.8676 105.422 41.1946C104.367 38.5162 102.054 36.9255 100.256 37.6361C98.4577 38.3467 97.8619 41.0908 98.9168 43.7638V43.7583Z" fill="#FFDCC7"/>
<path d="M138.815 43.7583C137.76 46.4368 135.448 48.0274 133.649 47.3223C131.851 46.6117 131.255 43.8676 132.31 41.1946C133.365 38.5162 135.677 36.9255 137.476 37.6361C139.274 38.3467 139.87 41.0908 138.815 43.7638V43.7583Z" fill="#FFDCC7"/>
<path d="M134.748 39.9535C134.748 51.6512 127.915 61.1296 118.896 61.1296C109.877 61.1296 103.044 51.6457 103.044 39.9535C103.044 28.2612 109.877 18.7773 118.896 18.7773C127.915 18.7773 134.748 28.2612 134.748 39.9535Z" fill="#FFDCC7"/>
<path d="M133.431 20.3131C136.257 24.1067 138.148 29.3925 137.333 37.641C137.333 37.641 135.426 37.9253 134.731 38.9365C134.731 38.9365 133.146 31.5845 131.381 29.1739C128.391 25.0906 109.095 24.943 106.242 28.8951C104.214 31.6993 103.066 36.2581 103.066 38.942C103.066 38.942 101.043 37.1381 99.6274 37.9635C99.6274 37.9635 97.7197 26.8234 104.782 19.3784C108.969 14.9617 116.075 12.7752 122.635 14.4151C123.87 14.7212 125.565 15.9839 125.565 15.9839C125.565 15.9839 130.123 15.88 133.431 20.3186V20.3131Z" fill="#103254"/>
<path d="M112.872 43.2766C113.775 43.2766 114.506 42.5449 114.506 41.6422C114.506 40.7396 113.775 40.0078 112.872 40.0078C111.969 40.0078 111.238 40.7396 111.238 41.6422C111.238 42.5449 111.969 43.2766 112.872 43.2766Z" fill="#103254"/>
<path d="M135.338 31.8083C133.534 19.4437 123.46 19.236 123.46 19.236C116.376 17.7766 108.805 20.209 105.334 25.4839C101.863 30.7643 103.06 38.9308 103.06 38.9308C108.669 36.9411 115.075 29.2666 115.075 29.2666C114.676 31.1743 113.752 32.9125 113.118 33.9456C112.888 34.3173 113.249 34.7601 113.665 34.6289C119.054 32.9344 123.602 26.5717 123.602 26.5717C123.602 26.5717 128.019 29.0424 130.391 33.9839C130.637 34.4977 131.375 34.4704 131.561 33.9347C131.884 33.0109 132.151 31.5296 131.862 29.3759C131.862 29.3759 134.737 36.482 134.726 38.9363C134.726 38.9363 135.852 35.345 135.338 31.8083Z" fill="#103254"/>
<path d="M110.281 37.4543C110.09 37.4543 109.931 37.3013 109.926 37.1045C109.926 36.9077 110.079 36.7437 110.276 36.7437L114.567 36.6562C114.769 36.6562 114.927 36.8093 114.927 37.0061C114.927 37.2029 114.774 37.3669 114.578 37.3669L110.287 37.4543H110.281Z" fill="#103254"/>
<path d="M124.925 43.2766C125.828 43.2766 126.56 42.5449 126.56 41.6422C126.56 40.7396 125.828 40.0078 124.925 40.0078C124.023 40.0078 123.291 40.7396 123.291 41.6422C123.291 42.5449 124.023 43.2766 124.925 43.2766Z" fill="#103254"/>
<path d="M127.511 37.4545H127.505L123.214 37.367C123.017 37.367 122.864 37.203 122.864 37.0062C122.864 36.8094 123.023 36.6509 123.225 36.6564L127.516 36.7438C127.713 36.7438 127.866 36.9078 127.866 37.1046C127.866 37.2959 127.702 37.4545 127.511 37.4545Z" fill="#103254"/>
<path d="M122.383 54.6687C122.334 54.6687 122.285 54.6577 122.236 54.6413C122.219 54.6359 120.645 54.04 118.672 54.1056C116.737 54.1712 115.906 54.6085 115.895 54.614C115.698 54.7179 115.447 54.6468 115.337 54.45C115.228 54.2532 115.299 54.0072 115.496 53.8979C115.534 53.8761 116.48 53.3568 118.644 53.2857C120.798 53.2092 122.46 53.8433 122.525 53.8706C122.739 53.9526 122.842 54.1876 122.76 54.4008C122.7 54.5648 122.542 54.6632 122.378 54.6632L122.383 54.6687Z" fill="#EC8B80"/>
<path d="M118.89 47.9671C118.836 47.9671 118.776 47.9562 118.721 47.9289C117.212 47.2511 117.114 46.781 117.076 46.6279C117.032 46.4257 117.086 46.2344 117.223 46.0758C118.136 45.0372 118.557 44.0643 118.562 44.0533C118.65 43.8456 118.89 43.7472 119.098 43.8347C119.306 43.9221 119.404 44.1627 119.317 44.3704C119.3 44.4141 118.874 45.398 117.934 46.5022C118.076 46.6443 118.459 46.9012 119.06 47.1745C119.268 47.2675 119.36 47.508 119.268 47.7157C119.202 47.8688 119.049 47.9562 118.896 47.9562L118.89 47.9671Z" fill="#F2B49C"/>
<path d="M102.344 44.8463C102.147 44.8463 101.989 44.6878 101.989 44.491C101.989 41.501 100.661 41.1019 100.644 41.0965C100.458 41.0473 100.344 40.8505 100.393 40.6646C100.442 40.4788 100.628 40.364 100.814 40.4077C100.89 40.4241 102.699 40.8888 102.699 44.491C102.699 44.6878 102.541 44.8463 102.344 44.8463Z" fill="#F2B49C"/>
<path d="M100.529 43.1347C100.453 43.1347 100.376 43.1128 100.311 43.0636C100.158 42.9433 100.125 42.7192 100.245 42.5662C100.939 41.6642 101.841 41.8829 102.224 42.1234C102.388 42.2273 102.437 42.4459 102.333 42.6154C102.229 42.7794 102.011 42.8285 101.847 42.7302C101.754 42.6755 101.256 42.4186 100.808 43.0089C100.737 43.1019 100.633 43.1456 100.524 43.1456L100.529 43.1347Z" fill="#F2B49C"/>
<path d="M135.475 45.0211C135.278 45.0211 135.12 44.8626 135.12 44.6658C135.12 41.0253 136.907 40.4349 136.984 40.413C137.175 40.3529 137.372 40.4622 137.426 40.6481C137.481 40.8339 137.383 41.0307 137.197 41.0909C137.159 41.1018 135.83 41.6265 135.83 44.6658C135.83 44.8626 135.672 45.0211 135.475 45.0211Z" fill="#F2B49C"/>
<path d="M137.29 43.1347C137.186 43.1347 137.076 43.0855 137.005 42.998C136.552 42.4131 136.06 42.6646 135.967 42.7247C135.797 42.8231 135.584 42.7739 135.48 42.6099C135.377 42.4459 135.426 42.2273 135.59 42.1234C135.972 41.8829 136.874 41.6642 137.568 42.5662C137.689 42.7192 137.661 42.9433 137.503 43.0636C137.437 43.1128 137.361 43.1347 137.284 43.1347H137.29Z" fill="#F2B49C"/>
<path d="M117.994 149.896C117.814 149.896 117.65 149.776 117.6 149.596C117.54 149.377 117.666 149.153 117.885 149.093L148.758 140.423C148.976 140.363 149.201 140.489 149.261 140.707C149.321 140.926 149.195 141.15 148.976 141.21L118.103 149.88C118.065 149.891 118.027 149.896 117.994 149.896Z" fill="#071D33"/>
<path d="M124.881 152.639C124.838 152.639 124.794 152.634 124.756 152.617L93.3139 142.363C93.1007 142.292 92.9804 142.062 93.0515 141.843C93.1225 141.63 93.3521 141.51 93.5708 141.581L125.012 151.836C125.226 151.907 125.346 152.136 125.275 152.355C125.22 152.53 125.056 152.639 124.887 152.639H124.881Z" fill="#071D33"/>
<path d="M109.778 137.147C111.232 136.89 114.091 136.535 119.038 139.667C120.153 140.372 118.54 142.395 117.923 143.505C117.404 144.773 118.453 145.932 119.552 146.713C120.831 147.621 122.378 148.441 124.482 149.403C125.526 149.878 125.964 150.469 125.761 150.917C125.433 151.638 124.455 151.436 124.455 151.436C124.455 151.436 126.155 152.015 125.674 153.469C125.401 154.306 123.903 153.863 123.903 153.863C123.903 153.863 124.761 154.322 124.449 155.224C124.225 155.864 123.094 155.831 122.268 155.623C121.503 155.432 119.973 154.852 119.973 154.852C119.973 154.852 120.197 155.257 119.503 155.716C118.781 156.192 117.895 155.76 116.365 155.159C115.474 154.814 112.189 153.284 110.986 152.087C110.122 151.223 107.05 146.637 106.405 145.215C105.859 144.018 105.329 141.307 106.504 139.383C107.127 138.361 108.28 137.415 109.778 137.153V137.147Z" fill="#FFDCC7"/>
<path d="M120.109 139.892C122.416 141.281 124.203 145.249 124.346 145.55C125.056 147.053 123.444 148.162 122.334 146.61C121.465 145.391 119.732 143.565 118.551 143.571C117.119 143.576 117.928 145.435 117.928 145.435C116.485 144.183 111.281 137.826 112.998 137.367C114.217 137.039 118.426 138.881 120.109 139.898V139.892Z" fill="#FFDCC7"/>
<path d="M124.001 153.693C124.001 153.693 124.018 153.704 124.023 153.704C124.023 153.704 124.007 153.693 124.001 153.693Z" fill="#55330D"/>
<path d="M124.111 151.628C124.111 151.628 124.078 151.628 124.061 151.628C122.05 151.251 118.469 149.589 116.551 147.812C116.441 147.708 116.436 147.539 116.534 147.424C116.638 147.315 116.808 147.309 116.922 147.408C118.776 149.124 122.225 150.726 124.165 151.087C124.313 151.114 124.411 151.256 124.384 151.404C124.362 151.535 124.247 151.628 124.116 151.628H124.111Z" fill="#F2B49C"/>
<path d="M123.466 153.841C123.466 153.841 123.433 153.841 123.416 153.841C121.41 153.464 117.453 152.049 114.796 149.698C114.681 149.6 114.67 149.425 114.774 149.31C114.873 149.195 115.048 149.19 115.162 149.288C117.737 151.568 121.574 152.94 123.52 153.306C123.668 153.333 123.766 153.475 123.739 153.623C123.717 153.754 123.602 153.847 123.471 153.847L123.466 153.841Z" fill="#F2B49C"/>
<path d="M119.727 154.952C119.727 154.952 119.694 154.952 119.677 154.952C117.496 154.542 115.162 153.148 113.823 152.082C113.703 151.989 113.686 151.814 113.779 151.699C113.872 151.585 114.047 151.563 114.162 151.656C115.447 152.683 117.693 154.028 119.776 154.416C119.923 154.443 120.022 154.586 119.994 154.733C119.973 154.864 119.858 154.957 119.727 154.957V154.952Z" fill="#F2B49C"/>
<path d="M104.104 146.385C104.104 146.385 113.495 143.368 114.424 136.18L97.2059 116.409C97.2059 116.409 101.311 103.497 102.481 100.699C103.651 97.8999 107.641 82.5835 102.596 76.1498C97.5502 69.716 93.8278 72.9575 92.1606 74.4935C90.1654 76.3302 87.4049 79.3639 85.0873 88.4105C82.7696 97.4571 82.1792 107.488 81.9005 113.282C81.6381 118.639 83.1194 121.629 86.9458 126.849C90.5316 131.741 104.104 146.385 104.104 146.385Z" fill="#6593CF"/>
<path d="M143.822 109.692C143.822 109.692 143.8 109.692 143.789 109.692C143.565 109.676 143.395 109.473 143.412 109.249L145.046 89.4232C145.063 89.1991 145.265 89.0296 145.489 89.046C145.713 89.0624 145.883 89.2647 145.866 89.4888L144.232 109.315C144.215 109.528 144.035 109.692 143.822 109.692Z" fill="#2A6298"/>
<path d="M112.347 134.016C112.233 134.016 112.112 133.967 112.036 133.869C111.484 133.218 98.567 117.847 97.687 114.726C96.8178 111.649 95.413 90.4944 95.3529 89.598C95.3365 89.3738 95.5114 89.1771 95.7355 89.1607C95.9596 89.1497 96.1564 89.3192 96.1728 89.5433C96.1892 89.7619 97.6268 111.507 98.4796 114.502C99.1464 116.863 108.051 127.856 112.67 133.339C112.817 133.514 112.796 133.771 112.621 133.918C112.544 133.984 112.451 134.016 112.358 134.016H112.347Z" fill="#2A6298"/>
<path d="M233.566 62.5781V78.698C233.566 78.698 235.305 83.1038 240.175 82.754C245.045 82.4041 248.177 79.3922 248.177 79.3922V62.6382L233.566 62.5781Z" fill="#FFDCC7"/>
<path d="M248.178 62.5952V75.4573C240.503 78.3544 233.572 72.6531 233.572 72.6531V62.4258L248.178 62.5952Z" fill="#F4BDA2"/>
<path d="M227.624 79.0973C227.624 79.0973 222.262 82.2239 220.753 87.2255C219.245 92.2271 218.365 104.635 218.365 104.635L215.14 103.263C215.14 103.263 211.854 102.761 210.16 104.389C208.465 106.018 208.236 109.205 209.569 111.616C209.569 111.616 211.668 122.953 213.172 125.336C214.675 127.719 219.037 130.54 223.891 127.965C228.745 125.391 231.429 100.722 231.429 100.722L227.63 79.0918L227.624 79.0973Z" fill="#F0B3A8"/>
<path d="M210.942 101.437C210.942 101.437 211.86 99.9397 213.921 101.372L211.975 103.132L210.942 101.437Z" fill="#F4BDA2"/>
<path d="M260.968 163.304C260.968 163.304 263.915 162.9 264.62 162.659C265.325 162.419 268.053 162.621 270.048 163.02C273.054 163.627 275.345 162.233 275.547 160.369C275.82 157.854 270.95 155.351 266.735 153.47C262.521 151.59 261.089 150.256 258.492 151.82C255.896 153.383 256.431 155.64 255.803 156.832C255.174 158.024 253.349 160.833 253.349 160.833L260.974 163.299L260.968 163.304Z" fill="white"/>
<path d="M216.872 139.542C209.324 145.09 202.955 150.556 203.076 156.471C203.196 162.385 207.175 166.589 212.86 167.983C218.545 169.377 225.919 166.676 230.789 165.168C235.66 163.659 248.413 157.98 248.413 157.98C248.413 157.98 250.266 153.109 247.254 150.097C247.254 150.097 249.921 147.315 250.615 143.603C251.31 139.892 250.386 131.66 247.254 128.068L231.598 129.577C231.598 129.577 220.814 136.65 216.872 139.547V139.542Z" fill="#1B4976"/>
<path d="M229.335 145.686C221.787 151.235 215.418 156.701 215.539 162.615C215.659 168.53 220.059 171.312 225.744 172.706C231.429 174.1 238.382 172.821 243.252 171.312C248.123 169.803 260.876 164.124 260.876 164.124C260.876 164.124 262.729 159.254 259.717 156.242C259.717 156.242 262.384 153.459 263.078 149.748C263.773 146.036 262.849 137.804 259.717 134.213L244.061 135.722C244.061 135.722 233.277 142.795 229.335 145.692V145.686Z" fill="#1B4976"/>
<path d="M231.188 76.928C231.188 76.928 235.709 78.9013 240.814 78.781C245.914 78.6662 251.599 76.5781 251.599 76.5781C251.599 76.5781 259.252 80.9839 262.499 84.925C265.746 88.8662 264.931 93.0752 264.467 98.7546C264.002 104.434 261.592 137.253 261.592 137.253C261.592 137.253 251.331 142.933 235.157 141.309C223 140.09 221.01 136.636 221.01 136.636C221.01 136.636 220.983 112.989 221.213 103.712C221.442 94.4363 221.098 86.0894 223.88 82.3778C226.662 78.6662 231.183 76.928 231.183 76.928H231.188Z" fill="#EF8E80"/>
<path d="M239.306 168.132C239.142 168.132 238.989 168.033 238.923 167.869C238.841 167.656 238.945 167.421 239.153 167.339C239.213 167.317 245.111 164.994 250.479 162.255C255.803 159.539 259.383 155.991 259.421 155.953C259.58 155.794 259.842 155.794 260.001 155.953C260.159 156.111 260.159 156.374 260.001 156.532C259.963 156.571 256.3 160.206 250.856 162.982C245.45 165.743 239.513 168.077 239.453 168.099C239.404 168.121 239.355 168.126 239.306 168.126V168.132Z" fill="#071D33"/>
<path d="M217.55 168.744C217.43 168.744 217.315 168.694 217.233 168.596C217.184 168.536 212.396 162.556 217.971 155.291C222.841 148.945 230.855 144.053 230.937 144.003C231.128 143.889 231.385 143.949 231.5 144.14C231.615 144.331 231.555 144.588 231.363 144.703C231.281 144.752 223.399 149.568 218.622 155.789C213.451 162.523 217.687 167.847 217.867 168.071C218.009 168.246 217.987 168.503 217.813 168.645C217.736 168.705 217.643 168.738 217.55 168.738V168.744Z" fill="#071D33"/>
<path d="M258.552 44.752C258.552 44.752 258.361 55.8375 256.464 63.1895C255.284 67.7702 255.229 69.9075 256.524 71.0827C256.825 71.3561 256.743 71.8425 256.355 71.9628C254.524 72.5258 250.561 73.4114 248.167 71.4927L248.15 68.0654L258.552 44.752Z" fill="#103254"/>
<path d="M222.289 44.752C222.289 44.752 223.208 55.6844 224.378 63.1895C224.869 66.3545 226.504 69.1477 224.405 71.0117C224.055 71.3233 224.142 71.8917 224.585 72.0448C227.089 72.9085 233.205 74.4007 234.785 69.0493L222.289 44.7574V44.752Z" fill="#103254"/>
<path d="M220.464 46.4911C220.726 41.9705 222.289 37.0126 229.423 31.7924C236.217 26.8236 246.816 28.6602 252.119 33.1863C256.306 36.7557 257.765 40.7023 258.552 44.1461C260.291 51.7113 257.568 62.5563 251.829 64.1196C242.963 66.5357 227.679 65.5408 223.683 57.7132C219.688 49.8856 220.464 46.4965 220.464 46.4965V46.4911Z" fill="#103254"/>
<path d="M257.94 58.26C257.301 60.7143 255.447 62.3542 253.802 61.9223C252.157 61.4905 251.342 59.1564 251.982 56.7021C252.621 54.2477 254.475 52.6079 256.12 53.0397C257.765 53.4715 258.58 55.8056 257.94 58.26Z" fill="#FFDCC7"/>
<path d="M253.649 55.2148C253.649 65.5623 247.013 73.953 238.262 73.953C229.51 73.953 222.874 65.5623 222.874 55.2148C222.874 44.8672 229.51 36.4766 238.262 36.4766C247.013 36.4766 253.649 44.8672 253.649 55.2148Z" fill="#FFDCC7"/>
<path d="M241.64 56.97C242.543 56.97 243.274 56.2382 243.274 55.3356C243.274 54.4329 242.543 53.7012 241.64 53.7012C240.737 53.7012 240.005 54.4329 240.005 55.3356C240.005 56.2382 240.737 56.97 241.64 56.97Z" fill="#103254"/>
<path d="M230.188 56.97C231.091 56.97 231.823 56.2382 231.823 55.3356C231.823 54.4329 231.091 53.7012 230.188 53.7012C229.285 53.7012 228.554 54.4329 228.554 55.3356C228.554 56.2382 229.285 56.97 230.188 56.97Z" fill="#103254"/>
<path d="M244.22 51.8095C244.176 51.8095 244.138 51.804 244.094 51.7876L240.005 50.4812C239.792 50.4102 239.672 50.1806 239.738 49.9674C239.809 49.7542 240.038 49.634 240.251 49.6996L244.34 51.006C244.553 51.077 244.674 51.3066 244.608 51.5198C244.553 51.6947 244.389 51.804 244.22 51.804V51.8095Z" fill="#103254"/>
<path d="M227.707 51.8105C227.532 51.8105 227.373 51.7012 227.318 51.5262C227.247 51.3131 227.368 51.078 227.586 51.0124L231.675 49.706C231.888 49.6349 232.123 49.7552 232.189 49.9738C232.26 50.187 232.14 50.4221 231.921 50.4877L227.832 51.7941C227.789 51.805 227.75 51.8159 227.707 51.8159V51.8105Z" fill="#103254"/>
<path d="M251.064 57.8341C251.08 58.2714 251.665 58.419 251.878 58.0363C256.59 49.6074 254.196 38.3525 247.773 34.3184C240.989 30.0547 234.643 31.3612 230.817 33.012C226.99 34.6628 222.727 39.7956 221.426 42.7528C220.125 45.71 219.775 49.5364 220.906 53.7126C222.038 57.8888 223.257 58.9328 223.257 58.9328C223.257 58.9328 222.956 54.6254 223.432 51.5425C224.563 44.1521 229.084 40.5827 229.084 40.5827C229.084 40.5827 235.955 45.3656 244.302 48.1479C250.031 50.0557 250.976 55.2103 251.069 57.8341H251.064Z" fill="#103254"/>
<path d="M240.601 67.6501C240.525 67.6501 240.454 67.6282 240.383 67.5845C240.366 67.5736 238.819 66.6115 236.901 66.7263C235.015 66.8302 234.2 67.5353 234.195 67.5408C234.025 67.6884 233.769 67.6774 233.615 67.5134C233.462 67.3495 233.473 67.0925 233.637 66.9395C233.676 66.9012 234.643 66.0321 236.851 65.9118C239.043 65.7916 240.743 66.852 240.814 66.8958C241.006 67.016 241.06 67.2675 240.94 67.4588C240.864 67.5845 240.727 67.6501 240.596 67.6501H240.601Z" fill="#EC8B80"/>
<path d="M235.791 61.4085C235.736 61.4085 235.676 61.3976 235.622 61.3703C234.113 60.6925 234.014 60.2224 233.976 60.0693C233.932 59.8671 233.982 59.6758 234.118 59.5172C235.031 58.4787 235.452 57.5057 235.458 57.4947C235.545 57.287 235.786 57.1886 235.993 57.2761C236.201 57.3635 236.299 57.6041 236.212 57.8118C236.195 57.8555 235.769 58.8394 234.829 59.9436C234.971 60.0857 235.354 60.3426 235.955 60.6159C236.163 60.7089 236.256 60.9494 236.163 61.1571C236.097 61.3102 235.944 61.3976 235.791 61.3976V61.4085Z" fill="#F2B49C"/>
<path d="M254.119 59.402C254.119 59.402 254.092 59.402 254.081 59.402C253.884 59.3802 253.742 59.2053 253.764 59.0139C254.086 55.931 255.672 55.5921 255.737 55.5757C255.934 55.5429 256.114 55.6631 256.153 55.8545C256.191 56.0458 256.065 56.2316 255.879 56.2699C255.841 56.2808 254.731 56.6033 254.469 59.085C254.447 59.2654 254.294 59.402 254.114 59.402H254.119Z" fill="#F2B49C"/>
<path d="M255.792 58.0362C255.672 58.0362 255.557 57.976 255.491 57.8667C255.202 57.3912 254.824 57.5169 254.72 57.5661C254.546 57.6481 254.332 57.5715 254.25 57.3966C254.168 57.2217 254.239 57.014 254.409 56.9265C254.764 56.7516 255.573 56.6423 256.098 57.495C256.202 57.6645 256.147 57.8831 255.983 57.9815C255.923 58.0198 255.863 58.0362 255.797 58.0362H255.792Z" fill="#F2B49C"/>
<path d="M229.281 85.2792C226.312 79.8895 221.103 77.0088 215.03 80.2776C208.733 83.6667 208.558 89.4062 211.526 94.7959C214.495 100.186 220.874 102.427 225.777 99.7975C230.68 97.1683 232.249 90.6689 229.281 85.2792Z" fill="#FFDCC7"/>
<path d="M216.266 90.937C216.288 91.5109 216.769 91.9592 217.342 91.9373C217.916 91.9154 218.365 91.4344 218.343 90.8605C218.321 90.2865 217.84 89.8383 217.266 89.8601C216.692 89.882 216.244 90.363 216.266 90.937Z" fill="#103254"/>
<path d="M224.142 86.9526C224.164 87.5266 224.645 87.9748 225.219 87.9529C225.793 87.9311 226.242 87.45 226.22 86.8761C226.198 86.3021 225.717 85.8539 225.143 85.8758C224.569 85.8976 224.121 86.3787 224.142 86.9526Z" fill="#103254"/>
<path d="M219.775 79.0267C219.775 79.0267 220.655 81.4701 218.9 83.1264C218.731 83.2904 218.441 83.2084 218.376 82.9842C218.255 82.5743 218.064 81.9457 217.845 81.3444C217.845 81.3444 218.206 82.9897 216.632 84.3289C216.473 84.4656 216.222 84.3727 216.2 84.1649C216.145 83.7167 216.047 83.0061 215.872 82.3174C215.872 82.3174 215.621 83.9736 214.434 85.373C214.254 85.5862 213.899 85.4878 213.85 85.2145C213.762 84.7662 213.609 84.0666 213.358 83.0826C213.358 83.0826 212.013 81.5302 214.03 79.956C216.047 78.3817 218.818 77.4798 219.775 79.0322V79.0267Z" fill="#103254"/>
<path d="M210.701 78.9876C212.543 77.5172 215.637 76.003 218.868 76.1506C221.694 76.2818 224.388 77.1837 226.613 80.0535C227.985 81.8191 228.663 84.2461 228.663 84.2461C228.663 84.2461 227.149 81.7972 224.864 80.7258C220.95 78.8892 219.114 79.8622 216.9 80.7094C214.686 81.5567 212.04 83.6229 211.166 86.2413C210.291 88.8596 210.477 92.5711 211.198 93.4785L208.974 94.9216C208.974 94.9216 207.629 93.7573 206.689 90.8329C205.344 86.6348 206.689 82.2017 210.701 78.993V78.9876Z" fill="#103254"/>
<path d="M212.893 94.232C214.074 95.5329 214.227 97.3149 213.237 98.2114C212.248 99.1078 210.488 98.7799 209.307 97.4789C208.126 96.1779 207.973 94.3959 208.963 93.4995C209.952 92.603 211.712 92.931 212.893 94.232Z" fill="#FFDCC7"/>
<path d="M223.246 94.9772C223.383 95.4856 223.858 95.7972 224.306 95.6769C224.755 95.5566 225.006 95.0483 224.869 94.5399C224.733 94.0316 224.257 93.72 223.809 93.8402C223.361 93.9605 223.109 94.4689 223.246 94.9772Z" fill="#EC8B80"/>
<path d="M215.052 89.1429C214.948 89.1429 214.85 89.0992 214.779 89.0117C214.653 88.8587 214.675 88.6346 214.828 88.5143L216.233 87.3609C216.386 87.2352 216.61 87.2571 216.73 87.4101C216.856 87.5632 216.834 87.7873 216.681 87.9076L215.276 89.0609C215.211 89.1156 215.129 89.1429 215.052 89.1429Z" fill="#F2B49C"/>
<path d="M223.159 84.623C222.984 84.623 222.831 84.4972 222.809 84.3168C222.781 84.1255 222.918 83.9451 223.109 83.9123L224.924 83.65C225.121 83.6226 225.296 83.7593 225.329 83.9506C225.356 84.1419 225.219 84.3223 225.028 84.3551L223.213 84.6175C223.213 84.6175 223.18 84.6175 223.164 84.6175L223.159 84.623Z" fill="#F2B49C"/>
<path d="M212.363 96.3602C212.27 96.3602 212.182 96.3274 212.111 96.2563C211.603 95.748 211.144 95.5075 210.816 95.5676C210.499 95.6332 210.346 95.9885 210.346 95.9885C210.269 96.1689 210.067 96.2563 209.881 96.1798C209.701 96.1088 209.613 95.901 209.684 95.7207C209.695 95.6933 209.974 95.01 210.668 94.8679C211.248 94.7477 211.904 95.0428 212.614 95.748C212.751 95.8846 212.756 96.1088 212.614 96.2509C212.543 96.3219 212.456 96.3547 212.363 96.3547V96.3602Z" fill="#F2B49C"/>
<path d="M222.667 91.5921C222.568 91.5921 222.475 91.5538 222.404 91.4718C222.273 91.3243 222.284 91.1001 222.432 90.9689C222.639 90.7831 222.874 90.5098 222.809 90.2747C222.721 89.9741 222.218 89.7281 221.901 89.6735C221.71 89.6407 221.579 89.4548 221.612 89.2635C221.644 89.0722 221.83 88.941 222.022 88.9738C222.508 89.0558 223.306 89.422 223.492 90.0779C223.585 90.4005 223.563 90.9143 222.907 91.4992C222.841 91.5593 222.754 91.5921 222.672 91.5921H222.667Z" fill="#F2B49C"/>
<path d="M236.431 96.9551C236.431 96.9551 236.502 95.1676 236.922 94.5062C237.343 93.8448 237.808 93.566 237.994 93.5004C238.18 93.4349 238.95 93.5715 238.95 93.5715C238.95 93.5715 240.071 93.0467 240.399 93.0905C240.727 93.1342 241.798 93.73 241.82 94.2329C241.82 94.2329 242.755 95.993 242.405 97.0043C242.055 98.0155 240.935 98.9284 239.186 99.1799L236.431 96.9606V96.9551Z" fill="#FFDCC7"/>
<path d="M210.657 103.886C212.396 100.753 213.609 100.016 215.615 99.1027C217.621 98.1898 223.383 97.9712 227.007 100.272C229.559 101.89 230.139 104.137 230.396 107.81C230.653 111.484 230.221 115.725 230.221 116.48C230.221 117.234 230.751 123.28 224.569 124.646C217.785 126.144 209.263 125.248 208.219 117.141C207.175 109.035 210.652 103.886 210.652 103.886H210.657Z" fill="#6590CC"/>
<path d="M220.201 98.9779C220.201 98.9779 223.213 98.5789 225.596 99.776C227.98 100.973 230.609 100.574 231.183 100.574C231.757 100.574 236.031 96.8188 236.031 96.8188C236.031 96.8188 239.235 96.5291 240.055 99.8853C240.055 99.8853 235.621 105.368 233.566 106.407C231.511 107.445 228.226 108.325 225.104 107.762C221.983 107.205 215.97 106.724 216.725 102.088C217.217 99.0545 220.201 98.9725 220.201 98.9725V98.9779Z" fill="#6590CC"/>
<path d="M241.268 118.584C241.268 118.584 237.704 114.151 236.31 113.107C234.916 112.063 232.834 111.888 228.92 112.757C225.006 113.626 222.486 114.67 222.486 114.67C221.092 115.02 218.135 118.196 219.966 121.716C221.142 123.979 224.492 124.324 226.531 123.979C228.57 123.635 233.621 120.935 233.621 120.935C233.621 120.935 237.272 122.76 238.923 122.848C238.923 122.848 240.836 123.455 241.274 118.584H241.268Z" fill="#6590CC"/>
<path d="M227.963 108.368C227.138 108.368 226.132 108.319 225.05 108.171C224.826 108.138 224.667 107.931 224.7 107.707C224.733 107.482 224.935 107.329 225.165 107.357C227.799 107.728 230.013 107.439 230.035 107.439C230.259 107.406 230.467 107.564 230.494 107.789C230.527 108.013 230.368 108.22 230.144 108.248C230.09 108.253 229.237 108.368 227.969 108.368H227.963Z" fill="#2A6298"/>
<path d="M228.368 122.472C227.548 121.837 225.821 120.209 221.781 118.727C220.868 118.394 220.502 120.356 220.174 121.274C219.709 122.209 218.578 122.133 217.632 121.848C216.533 121.515 215.358 120.974 213.844 120.159C213.095 119.755 212.565 119.782 212.412 120.121C212.166 120.673 212.734 121.165 212.734 121.165C212.734 121.165 211.625 120.416 211.04 121.417C210.706 121.991 211.647 122.685 211.647 122.685C211.647 122.685 210.991 122.384 210.635 123.018C210.384 123.466 210.931 124.139 211.428 124.538C211.893 124.909 212.926 125.56 212.926 125.56C212.926 125.56 212.598 125.626 212.663 126.265C212.734 126.937 213.39 127.265 214.434 127.899C215.041 128.271 217.545 129.157 218.736 129.474C219.928 129.791 223.246 129.851 224.372 129.791C225.236 129.747 228.767 129.561 229.04 128.566C229.281 127.681 229.303 123.199 228.373 122.477L228.368 122.472Z" fill="#FFDCC7"/>
<path d="M221.825 118.52C219.906 118.023 217.162 118.673 216.932 118.733C215.768 119.034 215.899 120.554 217.282 120.472C218.359 120.406 219.299 120.204 219.846 120.925C220.507 121.8 219.103 122.21 219.103 122.21C220.469 122.478 226.717 121.193 226.717 121.193C225.624 120.236 222.869 118.793 221.825 118.52Z" fill="#FFDCC7"/>
<path d="M211.668 122.537C211.668 122.537 211.679 122.537 211.685 122.543C211.685 122.543 211.674 122.543 211.668 122.537Z" fill="#55330D"/>
<path d="M219.108 124.117C219.108 124.117 219.092 124.117 219.081 124.117C216.987 123.92 214.074 122.658 212.767 121.657C212.647 121.564 212.625 121.395 212.718 121.275C212.811 121.154 212.98 121.133 213.101 121.226C214.347 122.182 217.129 123.385 219.13 123.576C219.277 123.592 219.392 123.724 219.376 123.871C219.365 124.013 219.245 124.117 219.103 124.117H219.108Z" fill="#F2B49C"/>
<path d="M218.922 126.168C218.922 126.168 218.9 126.168 218.889 126.168C216.058 125.835 213.09 124.222 211.789 123.222C211.669 123.129 211.647 122.959 211.74 122.839C211.832 122.719 212.002 122.697 212.122 122.79C213.374 123.752 216.227 125.304 218.95 125.627C219.097 125.643 219.206 125.78 219.19 125.933C219.174 126.07 219.053 126.174 218.917 126.174L218.922 126.168Z" fill="#F2B49C"/>
<path d="M218.031 128.025C218.031 128.025 217.998 128.025 217.987 128.025C216.632 127.796 214.544 127.14 213.128 126.052C213.008 125.959 212.986 125.79 213.079 125.669C213.172 125.549 213.341 125.527 213.461 125.62C214.795 126.648 216.785 127.271 218.08 127.49C218.228 127.517 218.332 127.653 218.305 127.807C218.283 127.938 218.168 128.036 218.037 128.036L218.031 128.025Z" fill="#F2B49C"/>
<path d="M250.44 99.7705C250.44 99.7705 253.228 113.928 252.31 114.803C250.484 116.541 238.726 118.787 228.062 121.105C228.062 121.105 225.744 125.976 228.526 130.496C228.526 130.496 254.037 128.758 258.558 127.829C263.078 126.899 264.702 124.931 266.096 120.526C267.49 116.12 266.096 103.597 265.401 92.4676C264.707 81.3384 256.355 85.3943 255.081 85.9737C253.808 86.5531 250.211 97.4528 250.44 99.7705Z" fill="#EF8E80"/>
<path d="M241.465 118.94C241.285 118.94 241.121 118.82 241.071 118.634C241.011 118.415 241.142 118.191 241.361 118.131C245.084 117.142 251.277 115.229 252.042 114.316C252.829 113.376 252.091 105.548 251.315 100.289C251.282 100.065 251.435 99.8575 251.659 99.8247C251.884 99.7919 252.091 99.945 252.124 100.169C252.447 102.345 253.983 113.277 252.671 114.84C251.49 116.245 242.586 118.65 241.574 118.918C241.541 118.929 241.503 118.935 241.47 118.935L241.465 118.94Z" fill="#E2685C"/>
<path d="M236.846 131.135C232.085 131.135 228.57 130.911 228.499 130.906C228.275 130.89 228.1 130.698 228.116 130.469C228.133 130.244 228.319 130.075 228.554 130.086C228.696 130.097 242.766 130.988 252.802 129.162C255.901 128.599 258.935 127.932 261.985 125.97C262.176 125.85 262.428 125.904 262.554 126.096C262.674 126.287 262.619 126.538 262.428 126.664C259.252 128.703 256.136 129.392 252.949 129.971C247.839 130.9 241.695 131.13 236.846 131.13V131.135Z" fill="#E2685C"/>
<path d="M208.908 102.792C208.132 102.584 207.153 103.563 207.11 104.399C207.066 105.235 207.563 105.454 207.563 105.454C207.563 105.454 206.984 105.388 206.634 106.749C206.454 107.46 206.7 108.018 206.979 108.406C206.979 108.406 206.459 109.586 206.787 110.264C207.115 110.942 207.995 111.286 207.995 111.286C207.995 111.286 209.236 112.074 209.734 111.237C210.368 110.171 209.717 109.483 209.717 109.483C209.717 109.483 210.471 109.778 210.887 109.149C211.302 108.521 211.106 107.635 210.603 107.159C210.603 107.159 211.231 107.22 211.51 106.585C211.789 105.951 211.696 105.312 210.942 104.224C210.187 103.136 209.597 102.972 208.908 102.786V102.792Z" fill="#FFDCC7"/>
<path d="M209.673 100.939C208.471 101.141 208.586 102.721 208.722 103.339C208.859 103.957 209.499 104.979 211.067 105.263C212.636 105.547 212.915 104.268 212.729 103.541C212.51 102.705 212.177 102.371 211.423 101.683C210.668 100.994 210.258 100.841 209.679 100.939H209.673Z" fill="#FFDCC7"/>
<path d="M211.155 105.35C211.067 105.35 210.98 105.306 210.925 105.224C209.843 103.568 209.001 103.316 208.996 103.316C208.853 103.278 208.766 103.125 208.804 102.983C208.843 102.841 208.985 102.753 209.132 102.786C209.176 102.797 210.165 103.06 211.384 104.929C211.466 105.055 211.434 105.224 211.302 105.306C211.259 105.339 211.204 105.35 211.155 105.35Z" fill="#F2B49C"/>
<path d="M210.28 107.308C210.22 107.308 210.165 107.291 210.111 107.253C208.843 106.275 207.82 106.138 207.809 106.138C207.662 106.122 207.552 105.985 207.569 105.832C207.585 105.684 207.722 105.575 207.87 105.591C207.919 105.597 209.045 105.739 210.439 106.816C210.559 106.909 210.581 107.078 210.488 107.199C210.433 107.27 210.351 107.302 210.269 107.302L210.28 107.308Z" fill="#F2B49C"/>
<path d="M209.52 109.789C209.52 109.789 209.471 109.789 209.449 109.778C208.504 109.527 207.465 109.084 207.421 109.062C207.285 109.002 207.219 108.844 207.279 108.702C207.339 108.565 207.498 108.499 207.64 108.559C207.651 108.559 208.684 109.008 209.597 109.248C209.744 109.286 209.832 109.434 209.788 109.582C209.755 109.702 209.646 109.784 209.526 109.784L209.52 109.789Z" fill="#F2B49C"/>
<path d="M177.477 92.6078C177.477 92.6078 174.58 91.5091 174.345 94.346L177.505 94.8653L177.477 92.6078Z" fill="#F4BDA2"/>
<path d="M186.404 166.718C186.404 166.718 187.951 166.549 188.328 166.429C188.705 166.308 190.126 166.456 191.17 166.691C192.739 167.052 193.958 166.347 194.089 165.374C194.264 164.056 191.744 162.679 189.563 161.64C187.382 160.602 186.644 159.88 185.267 160.667C183.889 161.454 184.135 162.641 183.791 163.258C183.447 163.876 182.452 165.325 182.452 165.325L186.415 166.718H186.404Z" fill="white"/>
<path d="M170.054 157.06C166.02 159.869 162.609 162.646 162.593 165.751C162.576 168.856 164.845 170.37 167.808 171.179C170.77 171.982 174.433 171.408 177.007 170.687C179.582 169.96 186.344 167.156 186.344 167.156C186.344 167.156 187.382 164.625 185.841 163.007C185.841 163.007 187.278 161.586 187.694 159.645C188.109 157.705 187.732 153.381 186.141 151.451L177.915 152.031C177.915 152.031 172.164 155.595 170.06 157.06H170.054Z" fill="#B27FB0"/>
<path d="M163.604 153.67C159.57 156.48 156.159 159.257 156.143 162.362C156.126 165.467 158.154 167.724 161.117 168.528C164.08 169.331 167.983 168.019 170.557 167.292C173.132 166.565 179.893 163.761 179.893 163.761C179.893 163.761 180.932 161.23 179.391 159.612C179.391 159.612 180.828 158.191 181.244 156.251C181.659 154.315 181.282 149.986 179.691 148.057L171.913 148.636C171.913 148.636 165.714 152.2 163.61 153.665L163.604 153.67Z" fill="#B27FB0"/>
<path d="M163.402 168.883C163.282 168.883 163.161 168.828 163.085 168.73C163.063 168.697 160.696 165.674 163.817 161.815C166.479 158.524 168.447 157.365 168.529 157.316C168.726 157.201 168.972 157.267 169.087 157.464C169.202 157.661 169.136 157.912 168.939 158.027C168.923 158.038 167.004 159.175 164.451 162.329C161.762 165.658 163.637 168.112 163.719 168.21C163.861 168.385 163.828 168.648 163.653 168.784C163.577 168.845 163.489 168.872 163.396 168.872L163.402 168.883Z" fill="#966595"/>
<path d="M174.985 169.157C174.815 169.157 174.662 169.053 174.597 168.889C174.52 168.676 174.629 168.441 174.843 168.364C174.875 168.353 177.991 167.216 180.834 165.861C183.649 164.51 185.409 163.035 185.425 163.024C185.6 162.876 185.857 162.898 186.005 163.073C186.152 163.248 186.13 163.505 185.955 163.652C185.879 163.718 184.097 165.21 181.189 166.604C178.308 167.981 175.154 169.129 175.127 169.14C175.083 169.157 175.034 169.162 174.985 169.162V169.157Z" fill="#966595"/>
<path d="M177.275 122.509C180.282 122.585 184.026 123.897 186.595 132.84C188.891 140.82 187.131 152.168 187.131 152.168C187.131 152.168 185.83 155.443 175.728 155.705C164.982 155.984 161.051 151.326 161.051 151.326L160.297 131.648C160.297 131.648 159.586 124.148 165.342 122.733C171.098 121.317 177.281 122.519 177.281 122.519L177.275 122.509Z" fill="#EF8E80"/>
<path d="M173.503 162.653C173.503 162.653 172.263 163.467 171.842 163.861C171.716 163.976 170.934 164.752 170.661 164.965C170.388 165.178 170.071 165.282 169.781 165.134C169.393 164.943 169.677 164.457 169.677 164.457C169.677 164.457 169.065 165.309 168.655 165.036C168.245 164.763 168.496 164.161 168.496 164.161C168.272 164.413 167.862 164.91 167.436 164.621C166.971 164.303 167.474 163.686 167.474 163.686C167.474 163.686 167.075 164.047 166.791 163.877C166.425 163.658 166.539 163.429 166.616 163.117C166.796 162.363 167.862 160.701 168.999 159.783C170.267 158.755 172.235 157.881 172.235 157.881C172.235 157.881 173.624 157.154 173.749 157.094C175.291 156.323 178.647 158.274 177.527 160.417C177.1 161.231 176.045 161.866 175.318 162.139C174.591 162.412 173.93 162.412 173.503 162.653Z" fill="#FFDCC7"/>
<path d="M167.638 163.675C167.605 163.675 167.573 163.67 167.545 163.653C167.447 163.599 167.409 163.478 167.458 163.375C167.512 163.271 167.999 162.347 168.261 162.063C168.518 161.784 169.245 161.166 169.278 161.139C169.366 161.068 169.497 161.079 169.568 161.161C169.639 161.243 169.628 161.374 169.546 161.45C169.54 161.456 168.802 162.079 168.567 162.341C168.376 162.549 167.966 163.298 167.83 163.566C167.791 163.637 167.72 163.675 167.649 163.675H167.638Z" fill="#F2B49C"/>
<path d="M168.633 164.145C168.6 164.145 168.567 164.134 168.535 164.117C168.436 164.063 168.398 163.937 168.453 163.839C168.54 163.68 168.994 162.866 169.136 162.702C169.284 162.532 169.95 162.057 170.082 161.964C170.174 161.898 170.3 161.92 170.366 162.013C170.431 162.106 170.41 162.231 170.317 162.297C170.005 162.516 169.529 162.871 169.447 162.964C169.36 163.068 169.01 163.675 168.813 164.035C168.775 164.101 168.704 164.139 168.633 164.139V164.145Z" fill="#F2B49C"/>
<path d="M174.679 133.195C173.859 137.126 171.257 157.487 171.257 157.487C171.257 157.487 172.979 160.669 178.516 159.756L184.234 136.792L174.679 133.201V133.195Z" fill="#EF8E80"/>
<path d="M179.828 155.606C179.8 155.606 179.768 155.606 179.74 155.595C179.522 155.546 179.38 155.327 179.423 155.108C179.44 155.043 180.899 148.254 182.156 143.586C182.217 143.367 182.441 143.236 182.659 143.296C182.878 143.356 183.009 143.58 182.949 143.799C181.697 148.44 180.238 155.212 180.221 155.278C180.178 155.469 180.008 155.6 179.822 155.6L179.828 155.606Z" fill="#E2685C"/>
<path d="M171.475 155.692C171.475 155.692 171.437 155.692 171.415 155.692C171.191 155.66 171.038 155.452 171.071 155.228C172.268 147.012 174.045 134.598 174.083 133.888C174.072 133.691 174.203 133.511 174.4 133.467C174.619 133.412 174.843 133.554 174.892 133.773C174.914 133.866 174.974 134.117 171.885 155.348C171.858 155.55 171.678 155.698 171.481 155.698L171.475 155.692Z" fill="#E2685C"/>
<path d="M167.239 155.819C167.283 156.376 167.157 157.295 166.386 158.798C165.796 159.951 164.03 159.23 163.134 160.29C162.97 160.481 162.15 161.629 161.838 162.012C161.647 162.247 161.429 162.504 161.002 162.389C160.576 162.274 160.685 161.411 161.035 160.902C161.035 160.902 160.538 161.892 160.33 162.072C160.007 162.351 159.723 162.334 159.504 162.017C159.346 161.788 159.493 161.416 159.493 161.416C159.493 161.416 159.187 161.629 158.92 161.383C158.728 161.208 158.663 160.973 159.018 160.263C159.018 160.263 158.794 160.498 158.471 160.252C158.149 160.006 158.51 159.273 159.073 158.475C159.636 157.677 160.554 156.573 160.997 156.212C162.205 155.217 162.779 154.693 163.347 154.359C163.916 154.026 164.364 153.802 165.348 153.982C166.332 154.162 167.152 154.54 167.25 155.824L167.239 155.819Z" fill="#FFDCC7"/>
<path d="M166.928 157.612C166.928 157.612 166.556 158.705 166.015 159.411C165.474 160.116 164.697 160.996 164.369 161.171C164.041 161.346 163.522 161.039 163.883 160.356C164.244 159.673 164.391 158.875 164.391 158.875C164.391 158.875 164.818 157.279 165.802 157C166.785 156.721 166.906 157.273 166.928 157.612Z" fill="#FFDCC7"/>
<path d="M161.046 161.231L160.68 161.045C160.68 161.045 161.33 159.788 161.5 159.449C161.68 159.082 162.369 158.552 162.451 158.498C162.538 158.426 162.669 158.448 162.735 158.536C162.801 158.629 162.784 158.754 162.697 158.82C162.434 159.022 161.975 159.416 161.866 159.629C161.696 159.968 161.046 161.231 161.046 161.231Z" fill="#F2B49C"/>
<path d="M159.668 161.137C159.668 161.137 159.614 161.137 159.592 161.121C159.488 161.077 159.439 160.957 159.483 160.853C159.504 160.804 159.964 159.699 160.248 159.317C160.417 159.082 160.937 158.344 160.937 158.344L161.27 158.579C161.27 158.579 160.751 159.322 160.576 159.557C160.368 159.841 159.991 160.705 159.86 161.011C159.827 161.088 159.75 161.137 159.668 161.137Z" fill="#F2B49C"/>
<path d="M159.051 160.253C159.051 160.253 158.996 160.253 158.969 160.236C158.865 160.193 158.816 160.072 158.859 159.968C158.87 159.947 159.105 159.4 159.422 159.017C159.493 158.93 159.625 158.919 159.712 158.99C159.8 159.061 159.81 159.192 159.739 159.28C159.461 159.613 159.242 160.127 159.237 160.132C159.204 160.209 159.127 160.258 159.051 160.258V160.253Z" fill="#F2B49C"/>
<path d="M169.896 164.313C169.868 164.313 169.836 164.307 169.808 164.291C169.704 164.242 169.661 164.121 169.71 164.017C169.803 163.821 170.043 163.356 170.224 163.225C170.382 163.11 170.809 162.82 170.809 162.82L171.038 163.159C171.038 163.159 170.623 163.438 170.464 163.553C170.399 163.602 170.218 163.903 170.076 164.192C170.043 164.263 169.967 164.307 169.89 164.307L169.896 164.313Z" fill="#F2B49C"/>
<path d="M165.386 122.338C165.386 122.338 160.007 124.093 159.258 130.57C158.51 137.047 160.63 156.004 160.63 156.004C160.63 156.004 163.79 158.207 167.501 156.043L167.179 138.786L165.381 122.338H165.386Z" fill="#EF8E80"/>
<path d="M167.562 154.694C167.365 154.694 167.19 154.546 167.157 154.344L164.473 136.694C164.44 136.47 164.593 136.262 164.818 136.229C165.042 136.196 165.249 136.349 165.282 136.573L167.966 154.224C167.999 154.448 167.846 154.656 167.622 154.688C167.6 154.688 167.578 154.688 167.562 154.688V154.694Z" fill="#E2685C"/>
<path d="M175.903 122.197L176.078 124.952C176.242 127.297 169.365 130.462 167.551 125.663L167.327 122.891L175.909 122.197H175.903Z" fill="#F4BDA2"/>
<path d="M160.292 116.906C160.292 116.906 158.187 116.6 156.493 118.568C154.798 120.535 154.913 122.028 154.913 122.028C154.913 122.028 156.87 122.208 158.766 121.115C160.663 120.022 161.161 118.3 161.161 118.3L160.292 116.906Z" fill="#103254"/>
<path d="M181.101 119.949C181.101 119.949 183.206 120.255 184.261 122.627C185.316 125 184.786 126.394 184.786 126.394C184.786 126.394 182.856 126.005 181.358 124.415C179.855 122.824 179.872 121.031 179.872 121.031L181.107 119.943L181.101 119.949Z" fill="#103254"/>
<path d="M185.682 101.949C187.327 105.295 187.546 108.186 185.972 114.527C185.972 114.527 184.452 114.527 183.796 115.238C183.796 115.238 183.397 109.323 182.299 107.241C180.435 103.715 165.408 101.397 162.73 104.152C160.833 106.109 159.417 109.531 159.105 111.625C159.105 111.625 157.722 110.242 156.525 110.723C156.525 110.723 154.727 104.136 161.144 97.6093C165.736 92.9411 171.295 93.7501 173.651 94.3077C173.651 94.3077 181.894 94.2475 185.682 101.949Z" fill="#103254"/>
<path d="M155.798 114.177C156.241 116.068 157.63 117.358 158.903 117.063C160.171 116.762 160.844 114.991 160.401 113.1C159.958 111.209 158.57 109.919 157.296 110.214C156.028 110.515 155.356 112.286 155.798 114.177Z" fill="#FFDCC7"/>
<path d="M186.185 118.621C185.218 120.305 183.518 121.146 182.386 120.496C181.255 119.846 181.123 117.954 182.091 116.271C183.058 114.587 184.758 113.745 185.89 114.396C187.021 115.046 187.153 116.937 186.185 118.621Z" fill="#FFDCC7"/>
<path d="M183.857 114.909C182.802 122.114 176.619 127.181 169.59 126.153C162.56 125.126 158.089 118.501 159.144 111.296C160.199 104.092 166.381 99.0244 173.411 100.058C180.44 101.085 184.911 107.71 183.857 114.915V114.909Z" fill="#FFDCC7"/>
<path d="M175.056 115.621C175.768 115.621 176.346 115.044 176.346 114.331C176.346 113.619 175.768 113.041 175.056 113.041C174.343 113.041 173.766 113.619 173.766 114.331C173.766 115.044 174.343 115.621 175.056 115.621Z" fill="#103254"/>
<path d="M175.892 108.001C176.646 105.792 177.204 103.693 177.204 103.693C177.204 103.693 177.543 106.153 177.275 108.345C177.248 108.58 177.39 108.804 177.619 108.864C178.407 109.067 180.189 109.548 181.5 110.018C181.779 110.116 182.074 109.941 182.118 109.651C182.233 108.908 182.413 107.585 182.391 106.601C182.391 106.601 183.851 110.652 183.889 114.598C183.889 114.598 185.977 109.684 184.458 103.573C182.938 97.4563 180.063 96.4013 174.176 95.1058C163.839 92.8318 161.352 99.1344 159.778 102.704C158.203 106.268 159.198 110.865 159.198 110.865C160.117 107.11 162.828 103.518 162.828 103.518C162.183 104.896 162.068 105.984 162.057 106.508C162.057 106.705 162.205 106.864 162.407 106.875C164.9 106.978 168.36 107.383 169.584 107.536C169.857 107.569 170.114 107.427 170.235 107.181C171.164 105.251 172.295 102.704 172.295 102.704C172.06 104.502 171.454 106.246 171.12 107.099C171.016 107.372 171.191 107.667 171.486 107.705C172.858 107.869 174.668 108.165 175.422 108.296C175.63 108.329 175.832 108.208 175.898 108.012L175.892 108.001Z" fill="#103254"/>
<path d="M177.188 111.892C177.089 111.892 176.985 111.848 176.92 111.766C176.614 111.411 176.155 111.116 175.663 110.952C175.132 110.782 174.602 110.749 174.159 110.87C173.968 110.919 173.777 110.809 173.722 110.618C173.673 110.427 173.782 110.236 173.974 110.181C174.542 110.028 175.22 110.061 175.876 110.274C176.488 110.471 177.062 110.848 177.456 111.301C177.581 111.449 177.565 111.673 177.417 111.804C177.352 111.864 177.27 111.892 177.188 111.892Z" fill="#103254"/>
<path d="M165.61 114.242C166.323 114.242 166.9 113.665 166.9 112.952C166.9 112.24 166.323 111.662 165.61 111.662C164.898 111.662 164.32 112.24 164.32 112.952C164.32 113.665 164.898 114.242 165.61 114.242Z" fill="#103254"/>
<path d="M164.369 110.017C164.255 110.017 164.14 109.957 164.069 109.853C163.965 109.689 164.009 109.47 164.178 109.361C164.681 109.038 165.337 108.847 165.982 108.831C166.665 108.82 167.327 108.978 167.835 109.284C168.004 109.388 168.054 109.607 167.95 109.771C167.846 109.94 167.627 109.989 167.463 109.886C167.075 109.645 166.55 109.519 165.998 109.536C165.479 109.547 164.96 109.7 164.561 109.951C164.501 109.989 164.435 110.006 164.369 110.006V110.017Z" fill="#103254"/>
<path d="M170.125 116.74C170.082 116.74 170.032 116.729 169.994 116.707C169.458 116.407 169.185 116.057 169.185 115.669C169.185 115.079 169.825 114.658 170.103 114.505C170.235 114.433 170.404 114.477 170.475 114.608C170.546 114.74 170.502 114.909 170.371 114.98C170.076 115.144 169.737 115.423 169.737 115.669C169.737 115.838 169.923 116.041 170.262 116.226C170.393 116.297 170.442 116.467 170.366 116.598C170.317 116.686 170.224 116.74 170.125 116.74Z" fill="#F2B49C"/>
<path d="M169.201 120.737C169.333 121.245 169.803 121.562 170.251 121.448C170.699 121.333 170.956 120.824 170.825 120.316C170.694 119.808 170.224 119.491 169.775 119.606C169.327 119.72 169.07 120.229 169.196 120.737H169.201Z" fill="#EC8B80"/>
<path d="M183.523 118.814C183.37 118.814 183.25 118.693 183.25 118.54C183.25 116.556 184.846 116.064 184.862 116.059C185.01 116.015 185.157 116.097 185.201 116.244C185.245 116.387 185.163 116.54 185.015 116.583C184.961 116.6 183.791 116.982 183.791 118.54C183.791 118.693 183.671 118.814 183.517 118.814H183.523Z" fill="#F2B49C"/>
<path d="M184.649 118.157C184.567 118.157 184.485 118.119 184.43 118.053C184.168 117.714 183.889 117.873 183.856 117.894C183.731 117.976 183.561 117.938 183.479 117.807C183.397 117.681 183.436 117.512 183.567 117.43C183.818 117.271 184.408 117.129 184.862 117.72C184.955 117.84 184.933 118.009 184.813 118.102C184.764 118.14 184.704 118.157 184.649 118.157Z" fill="#F2B49C"/>
<path d="M158.564 115.019C158.564 115.019 158.537 115.019 158.526 115.019C158.378 114.997 158.275 114.86 158.296 114.707C158.521 113.16 157.416 112.614 157.367 112.592C157.231 112.526 157.17 112.362 157.236 112.231C157.302 112.1 157.46 112.034 157.597 112.1C157.613 112.105 159.122 112.827 158.838 114.789C158.816 114.926 158.701 115.024 158.57 115.024L158.564 115.019Z" fill="#F2B49C"/>
<path d="M157.548 114.21C157.477 114.21 157.405 114.182 157.351 114.128C157.247 114.018 157.247 113.843 157.356 113.739C157.892 113.226 158.455 113.45 158.679 113.641C158.794 113.739 158.805 113.914 158.706 114.029C158.608 114.144 158.439 114.155 158.324 114.062C158.258 114.007 158.018 113.854 157.733 114.133C157.679 114.182 157.613 114.21 157.542 114.21H157.548Z" fill="#F2B49C"/>
<path d="M179.74 93.2255C180.429 92.6461 181.883 93.1708 182.331 94.0017C182.78 94.8325 182.375 95.2862 182.375 95.2862C182.375 95.2862 182.933 94.9419 183.933 96.1608C184.452 96.7949 184.469 97.4782 184.376 98.0029C184.376 98.0029 185.463 98.9541 185.453 99.7959C185.442 100.638 184.715 101.408 184.715 101.408C184.715 101.408 183.835 102.797 182.933 102.185C181.785 101.403 182.113 100.397 182.113 100.397C182.113 100.397 181.49 101.059 180.768 100.616C180.046 100.173 179.822 99.1837 180.107 98.4621C180.107 98.4621 179.5 98.8284 178.915 98.3091C178.33 97.7898 178.122 97.1065 178.368 95.6415C178.614 94.1821 179.134 93.7284 179.746 93.2145L179.74 93.2255Z" fill="#FFDCC7"/>
<path d="M178.084 91.7116C179.401 91.3399 180.035 93.0071 180.194 93.6904C180.353 94.3791 180.194 95.7238 178.735 96.7624C177.275 97.801 176.384 96.6312 176.231 95.8058C176.051 94.8547 176.231 94.3518 176.668 93.2968C177.106 92.2418 177.45 91.8865 178.084 91.7061V91.7116Z" fill="#FFDCC7"/>
<path d="M178.264 96.9101C178.264 96.9101 178.254 96.9101 178.248 96.9101C178.095 96.8991 177.986 96.768 177.997 96.6204C178.172 94.0731 179.232 93.1384 179.276 93.1001C179.39 93.0017 179.565 93.0127 179.658 93.1275C179.757 93.2422 179.746 93.4117 179.631 93.5101C179.615 93.5265 178.696 94.3683 178.543 96.6586C178.532 96.8008 178.412 96.9155 178.27 96.9155L178.264 96.9101Z" fill="#F2B49C"/>
<path d="M180.243 98.385C180.205 98.385 180.172 98.3795 180.134 98.3631C179.997 98.303 179.932 98.1445 179.992 98.0024C180.784 96.1439 181.823 95.3731 181.867 95.3403C181.987 95.2529 182.156 95.2802 182.249 95.4004C182.337 95.5207 182.309 95.6902 182.189 95.7831C182.178 95.7885 181.222 96.5101 180.495 98.2155C180.451 98.3194 180.347 98.3795 180.243 98.3795V98.385Z" fill="#F2B49C"/>
<path d="M182.402 100.447C182.331 100.447 182.26 100.42 182.206 100.366C182.102 100.256 182.102 100.087 182.211 99.9774C182.993 99.2231 183.785 98.1899 183.791 98.179C183.884 98.0588 184.053 98.0369 184.173 98.1298C184.294 98.2227 184.315 98.3922 184.223 98.5125C184.19 98.5562 183.397 99.5838 182.588 100.371C182.533 100.42 182.468 100.447 182.397 100.447H182.402Z" fill="#F2B49C"/>
<path d="M302.96 138.486V128.007C302.96 127.209 300.358 124.186 300.358 124.186L296.012 120.436V118.627H291.257V120.442L286.955 124.181C286.955 124.181 284.309 127.149 284.309 128.002V138.48C284.675 138.868 284.998 138.797 285.211 139.251C285.435 139.738 285.31 142.503 285.211 142.755C285.003 143.28 284.681 143.247 284.309 143.651V161.865C284.309 163.111 284.501 164.773 285.627 165.068C287.447 165.544 288.638 165.505 292.126 165.587C292.525 165.598 293.23 165.609 293.635 165.62C294.039 165.609 294.744 165.598 295.143 165.587C298.631 165.505 299.822 165.544 301.643 165.068C302.769 164.778 302.96 163.111 302.96 161.865V143.651C302.588 143.247 302.271 143.28 302.063 142.755C301.96 142.503 301.839 139.732 302.063 139.251C302.271 138.797 302.594 138.868 302.96 138.48V138.486Z" fill="#A8C8F9"/>
<path d="M285.211 139.261C285.228 139.299 287.19 139.567 289.764 139.584C292.186 139.595 295.154 139.595 297.565 139.584C300.112 139.573 302.042 139.299 302.058 139.261C302.266 138.808 302.588 138.879 302.954 138.49V128.012C302.954 127.41 301.484 125.557 300.757 124.672L297.215 124.918H290.366L286.534 124.672C285.791 125.546 284.304 127.372 284.304 128.012V138.49C284.67 138.879 284.992 138.808 285.206 139.261H285.211Z" fill="#6593CF"/>
<path d="M293.618 121.52C292.826 121.52 292.033 121.405 291.257 121.181C291.191 121.164 291.153 121.093 291.175 121.028C291.191 120.962 291.262 120.924 291.328 120.946C292.837 121.383 294.394 121.383 295.947 120.946C296.012 120.929 296.078 120.967 296.1 121.033C296.116 121.099 296.078 121.164 296.012 121.186C295.214 121.41 294.411 121.525 293.618 121.525V121.52Z" fill="#81ADEB"/>
<path d="M296.247 116.359C296.247 116.359 296.247 116.359 296.247 116.353C296.247 115.845 295.067 115.599 293.624 115.61C292.213 115.621 291.071 115.867 291.022 116.359V118.622C291.022 118.622 291.022 118.643 291.022 118.66C291.022 119.168 292.202 119.414 293.646 119.403C295.083 119.392 296.247 119.13 296.253 118.627V116.364L296.247 116.359Z" fill="#497AB4"/>
<path d="M296.477 118.588C296.477 118.588 296.477 118.588 296.477 118.583C296.477 118.031 295.198 117.763 293.629 117.774C292.099 117.785 290.858 118.053 290.803 118.588V119.572C290.803 119.572 290.803 119.599 290.803 119.61C290.803 120.162 292.082 120.43 293.651 120.414C295.214 120.403 296.477 120.119 296.483 119.567V118.583L296.477 118.588Z" fill="#497AB4"/>
<path d="M298.303 147.555H288.966C288.901 147.555 288.846 147.5 288.846 147.435C288.846 147.369 288.901 147.314 288.966 147.314H298.303C298.368 147.314 298.423 147.369 298.423 147.435C298.423 147.5 298.368 147.555 298.303 147.555Z" fill="#81ADEB"/>
<path d="M298.303 151.485H288.966C288.901 151.485 288.846 151.43 288.846 151.364C288.846 151.299 288.901 151.244 288.966 151.244H298.303C298.368 151.244 298.423 151.299 298.423 151.364C298.423 151.43 298.368 151.485 298.303 151.485Z" fill="#81ADEB"/>
<path d="M298.303 155.416H288.966C288.901 155.416 288.846 155.362 288.846 155.296C288.846 155.23 288.901 155.176 288.966 155.176H298.303C298.368 155.176 298.423 155.23 298.423 155.296C298.423 155.362 298.368 155.416 298.303 155.416Z" fill="#81ADEB"/>
<path d="M298.303 159.838H288.966C288.901 159.838 288.846 159.784 288.846 159.718C288.846 159.652 288.901 159.598 288.966 159.598H298.303C298.368 159.598 298.423 159.652 298.423 159.718C298.423 159.784 298.368 159.838 298.303 159.838Z" fill="#81ADEB"/>
<path d="M297.499 161.816H289.764C289.169 161.816 288.682 161.33 288.682 160.734V146.412C288.682 145.817 289.169 145.33 289.764 145.33H297.499C298.095 145.33 298.581 145.817 298.581 146.412V160.734C298.581 161.33 298.095 161.816 297.499 161.816ZM289.764 145.576C289.305 145.576 288.928 145.953 288.928 146.412V160.734C288.928 161.193 289.305 161.57 289.764 161.57H297.499C297.958 161.57 298.335 161.193 298.335 160.734V146.412C298.335 145.953 297.958 145.576 297.499 145.576H289.764Z" fill="#81ADEB"/>
<path d="M297.707 142.521H289.557C289.125 142.521 288.775 142.171 288.775 141.739V141.307C288.775 140.875 289.125 140.525 289.557 140.525H297.707C298.139 140.525 298.489 140.875 298.489 141.307V141.739C298.489 142.171 298.139 142.521 297.707 142.521ZM289.557 140.771C289.262 140.771 289.021 141.012 289.021 141.307V141.739C289.021 142.034 289.262 142.275 289.557 142.275H297.707C298.002 142.275 298.243 142.034 298.243 141.739V141.307C298.243 141.012 298.002 140.771 297.707 140.771H289.557Z" fill="#81ADEB"/>
<path d="M318.746 150.07V139.591C318.746 138.793 316.144 135.77 316.144 135.77L311.799 132.02V130.211H307.043V132.026L302.741 135.765C302.741 135.765 300.096 138.733 300.096 139.586V150.064C300.462 150.452 300.784 150.381 300.998 150.835C301.222 151.321 301.096 154.087 300.998 154.339C300.79 154.864 300.467 154.831 300.096 155.235V173.449C300.096 174.695 300.287 176.357 301.413 176.652C303.233 177.128 304.425 177.089 307.912 177.171C308.311 177.182 309.016 177.193 309.421 177.204C309.825 177.193 310.531 177.182 310.93 177.171C314.417 177.089 315.609 177.128 317.429 176.652C318.555 176.362 318.746 174.695 318.746 173.449V155.235C318.375 154.831 318.058 154.864 317.85 154.339C317.746 154.087 317.626 151.316 317.85 150.835C318.058 150.381 318.38 150.452 318.746 150.064V150.07Z" fill="#A8C8F9"/>
<path d="M300.997 150.839C301.014 150.878 302.976 151.145 305.551 151.162C307.972 151.173 310.941 151.173 313.351 151.162C315.898 151.151 317.828 150.878 317.844 150.839C318.052 150.386 318.375 150.457 318.741 150.069V139.59C318.741 138.989 317.27 137.136 316.543 136.25L313.001 136.496H306.152L302.32 136.25C301.577 137.125 300.09 138.95 300.09 139.59V150.069C300.456 150.457 300.779 150.386 300.992 150.839H300.997Z" fill="#6593CF"/>
<path d="M309.405 133.098C308.612 133.098 307.819 132.983 307.043 132.759C306.978 132.742 306.939 132.671 306.961 132.606C306.978 132.54 307.049 132.502 307.114 132.524C308.623 132.961 310.181 132.961 311.733 132.524C311.799 132.507 311.864 132.546 311.886 132.611C311.903 132.677 311.864 132.742 311.799 132.764C311.001 132.988 310.197 133.103 309.405 133.103V133.098Z" fill="#81ADEB"/>
<path d="M312.034 127.937C312.034 127.937 312.034 127.937 312.034 127.931C312.034 127.423 310.853 127.177 309.41 127.188C308 127.199 306.857 127.445 306.808 127.937V130.2C306.808 130.2 306.808 130.222 306.808 130.238C306.808 130.746 307.989 130.992 309.432 130.981C310.87 130.97 312.034 130.708 312.039 130.205V127.942L312.034 127.937Z" fill="#497AB4"/>
<path d="M312.263 130.166C312.263 130.166 312.263 130.166 312.263 130.161C312.263 129.609 310.984 129.341 309.416 129.352C307.885 129.363 306.644 129.631 306.589 130.166V131.15C306.589 131.15 306.589 131.178 306.589 131.189C306.589 131.741 307.869 132.008 309.437 131.992C311.001 131.981 312.263 131.697 312.269 131.145V130.161L312.263 130.166Z" fill="#497AB4"/>
<path d="M314.089 159.133H304.753C304.687 159.133 304.633 159.078 304.633 159.013C304.633 158.947 304.687 158.893 304.753 158.893H314.089C314.155 158.893 314.209 158.947 314.209 159.013C314.209 159.078 314.155 159.133 314.089 159.133Z" fill="#81ADEB"/>
<path d="M314.089 163.063H304.753C304.687 163.063 304.633 163.008 304.633 162.943C304.633 162.877 304.687 162.822 304.753 162.822H314.089C314.155 162.822 314.209 162.877 314.209 162.943C314.209 163.008 314.155 163.063 314.089 163.063Z" fill="#81ADEB"/>
<path d="M314.089 166.994H304.753C304.687 166.994 304.633 166.94 304.633 166.874C304.633 166.809 304.687 166.754 304.753 166.754H314.089C314.155 166.754 314.209 166.809 314.209 166.874C314.209 166.94 314.155 166.994 314.089 166.994Z" fill="#81ADEB"/>
<path d="M314.089 171.416H304.753C304.687 171.416 304.633 171.362 304.633 171.296C304.633 171.23 304.687 171.176 304.753 171.176H314.089C314.155 171.176 314.209 171.23 314.209 171.296C314.209 171.362 314.155 171.416 314.089 171.416Z" fill="#81ADEB"/>
<path d="M313.286 173.394H305.551C304.955 173.394 304.469 172.908 304.469 172.312V157.991C304.469 157.395 304.955 156.908 305.551 156.908H313.286C313.881 156.908 314.368 157.395 314.368 157.991V172.312C314.368 172.908 313.881 173.394 313.286 173.394ZM305.551 157.154C305.092 157.154 304.714 157.531 304.714 157.991V172.312C304.714 172.771 305.092 173.148 305.551 173.148H313.286C313.745 173.148 314.122 172.771 314.122 172.312V157.991C314.122 157.531 313.745 157.154 313.286 157.154H305.551Z" fill="#81ADEB"/>
<path d="M313.493 154.099H305.343C304.911 154.099 304.561 153.749 304.561 153.317V152.885C304.561 152.453 304.911 152.104 305.343 152.104H313.493C313.925 152.104 314.275 152.453 314.275 152.885V153.317C314.275 153.749 313.925 154.099 313.493 154.099ZM305.343 152.349C305.048 152.349 304.807 152.59 304.807 152.885V153.317C304.807 153.612 305.048 153.853 305.343 153.853H313.493C313.788 153.853 314.029 153.612 314.029 153.317V152.885C314.029 152.59 313.788 152.349 313.493 152.349H305.343Z" fill="#81ADEB"/>
<path d="M55.2088 159.92C54.9137 159.92 54.6294 159.739 54.5146 159.45C54.3616 159.067 54.5529 158.63 54.9355 158.482L57.0838 157.635C57.4664 157.482 57.9037 157.673 58.0513 158.056C58.2043 158.438 58.013 158.876 57.6304 159.023L55.4821 159.871C55.3892 159.909 55.2963 159.925 55.2088 159.925V159.92Z" fill="#103254"/>
<path d="M40.7944 165.201C40.6687 165.201 40.5484 165.124 40.4992 164.998C40.4336 164.834 40.5156 164.648 40.6796 164.583L55.0995 158.876C55.2635 158.811 55.4493 158.893 55.5149 159.057C55.5805 159.221 55.4985 159.406 55.3345 159.472L40.9146 165.179C40.8764 165.195 40.8381 165.201 40.7944 165.201Z" fill="#103254"/>
<path d="M61.987 182.364H36.2192C35.9842 182.364 35.7928 182.173 35.7928 181.938V166.14C35.7928 165.993 35.8694 165.856 35.9951 165.779L40.0784 163.249C40.144 163.205 40.226 163.183 40.3025 163.183H64.9005C65.0043 163.15 65.1191 163.15 65.2175 163.199C65.2503 163.216 65.2777 163.232 65.305 163.254C65.3815 163.303 65.4416 163.38 65.4744 163.467C65.5127 163.566 65.5072 163.675 65.469 163.773V179.39C65.469 179.516 65.4143 179.636 65.3159 179.718L62.2603 182.277C62.1838 182.342 62.0854 182.375 61.987 182.375V182.364Z" fill="#1B4976"/>
<path d="M40.379 179.522C40.9405 179.522 41.3957 179.067 41.3957 178.505C41.3957 177.943 40.9405 177.488 40.379 177.488C39.8175 177.488 39.3623 177.943 39.3623 178.505C39.3623 179.067 39.8175 179.522 40.379 179.522Z" fill="#6593CF"/>
<path d="M44.2819 179.522C44.8434 179.522 45.2986 179.067 45.2986 178.505C45.2986 177.943 44.8434 177.488 44.2819 177.488C43.7203 177.488 43.2651 177.943 43.2651 178.505C43.2651 179.067 43.7203 179.522 44.2819 179.522Z" fill="#6593CF"/>
<path d="M59.1828 169.916H48.2832C48.1083 169.916 47.9607 169.774 47.9607 169.594C47.9607 169.414 48.1028 169.271 48.2832 169.271H59.1828C59.3578 169.271 59.5054 169.414 59.5054 169.594C59.5054 169.774 59.3632 169.916 59.1828 169.916Z" fill="#6593CF"/>
<path d="M59.1828 172.268H48.2832C48.1083 172.268 47.9607 172.126 47.9607 171.946C47.9607 171.765 48.1028 171.623 48.2832 171.623H59.1828C59.3578 171.623 59.5054 171.765 59.5054 171.946C59.5054 172.126 59.3632 172.268 59.1828 172.268Z" fill="#6593CF"/>
<path d="M59.1828 174.618H48.2832C48.1083 174.618 47.9607 174.476 47.9607 174.295C47.9607 174.115 48.1028 173.973 48.2832 173.973H59.1828C59.3578 173.973 59.5054 174.115 59.5054 174.295C59.5054 174.476 59.3632 174.618 59.1828 174.618Z" fill="#6593CF"/>
<path d="M59.1828 176.963H48.2832C48.1083 176.963 47.9607 176.821 47.9607 176.641C47.9607 176.46 48.1028 176.318 48.2832 176.318H59.1828C59.3578 176.318 59.5054 176.46 59.5054 176.641C59.5054 176.821 59.3632 176.963 59.1828 176.963Z" fill="#6593CF"/>
<path d="M59.1828 179.313H48.2832C48.1083 179.313 47.9607 179.171 47.9607 178.99C47.9607 178.81 48.1028 178.668 48.2832 178.668H59.1828C59.3578 178.668 59.5054 178.81 59.5054 178.99C59.5054 179.171 59.3632 179.313 59.1828 179.313Z" fill="#6593CF"/>
<path d="M45.9545 169.168H38.7063V175.432H45.9545V169.168Z" fill="#6593CF"/>
<path d="M61.7956 166.446H37.0937C36.9188 166.446 36.7712 166.304 36.7712 166.123C36.7712 165.943 36.9134 165.801 37.0937 165.801H61.7956C61.9705 165.801 62.1181 165.943 62.1181 166.123C62.1181 166.304 61.976 166.446 61.7956 166.446Z" fill="#103254"/>
<path d="M61.9869 181.576C61.812 181.576 61.6644 181.434 61.6644 181.254V166.134C61.6644 166.036 61.7082 165.948 61.7847 165.888L64.5233 163.664C64.6599 163.554 64.8622 163.571 64.9715 163.707C65.0808 163.844 65.0644 164.046 64.9278 164.156L62.3094 166.287V181.254C62.3094 181.429 62.1673 181.576 61.9869 181.576Z" fill="#103254"/>
</g>
<defs>
<clipPath id="clip0_2559_17773">
<rect width="343" height="192.766" fill="white"/>
</clipPath>
</defs>
</svg>
