<svg width="343" height="200" viewBox="0 0 343 200" fill="none" xmlns="http://www.w3.org/2000/svg">
<g clip-path="url(#clip0_2559_26555)">
<path d="M0.025 95.6995L184.315 87.8445V76.7345C178.45 76.8245 74.695 70.9245 67.36 42.5795C66.22 38.1795 67.755 34.2945 71.08 31.2945C74.065 28.6295 78.33 26.6795 82.875 25.8395C86.755 25.1245 91.395 27.9595 92.315 30.1795C95.57 29.0895 93.07 16.3095 81.445 15.5345C81.045 15.5095 80.665 15.4695 80.295 15.4195C80.215 15.4095 80.13 15.3995 80.05 15.3895C79.69 15.3395 79.335 15.2845 79 15.2145C71.91 13.8145 70.01 8.96455 63.275 10.5295C55.825 12.2645 56.335 8.18455 47.355 7.77455C38.615 7.37955 32.285 13.9495 20.445 30.4845C13.78 39.7845 0 45.3595 0 63.4195L0.02 95.6995H0.025Z" fill="url(#paint0_linear_2559_26555)"/>
<path d="M92.31 30.1744C91.44 30.6344 91.24 31.1444 92.31 31.9594C93.38 32.7744 93.23 30.9894 94.145 30.5294C95.065 30.0694 96.545 29.0494 95.88 27.9794C95.215 26.9094 95.065 27.9794 95.42 26.4494C95.775 24.9194 97.385 24.7644 96.045 23.5394C94.705 22.3144 96.045 19.8644 94.075 19.1494C92.105 18.4344 91.39 17.6694 90.625 16.2894C89.86 14.9094 91.735 15.1644 86.135 14.1994C84.375 13.8944 84.45 13.5894 82.87 14.1994C81.81 14.6094 79.565 15.0344 78.4 14.7844C77.825 14.6594 78.035 14.0294 77.75 13.8294C76.885 13.2194 75.165 13.1794 74.76 12.5644C74.35 11.9544 73.94 12.8444 73.56 12.1444C73.14 11.3594 73.765 11.0094 72.95 11.1094C72.135 11.2094 69.705 10.5144 68.68 9.90438C67.655 9.29438 68.615 8.78438 67.34 8.96438C66.065 9.14938 65.775 9.52438 64.605 9.72938C63.43 9.93438 63.51 9.31938 62.895 9.34438C61.46 9.40438 60.555 12.0494 54.72 9.41938C56.285 11.0794 59.345 12.3544 62.815 11.6894C66.285 11.0244 67.1 11.5344 67.1 12.4044C67.1 13.2744 68.68 13.3244 69.345 13.3244C70.01 13.3244 68.325 11.7444 69.905 12.3544C71.485 12.9644 72.965 14.3444 73.835 15.2144C74.705 16.0844 74.755 16.4894 76.285 16.8494C77.815 17.2044 78.735 17.2044 80.11 16.6444C81.49 16.0844 82.56 15.6244 83.885 16.5944C85.21 17.5644 85.465 19.4544 87 18.9944C88.535 18.5344 88.685 18.8944 88.275 20.1194C87.865 21.3444 88.175 21.4994 89.6 21.9044C91.03 22.3144 92.305 22.8244 92.1 23.6894C91.895 24.5594 91.13 23.9944 90.52 24.9644C89.91 25.9344 90.265 25.9344 91.44 26.4944C92.615 27.0544 92 25.9594 92.27 26.3594C92.54 26.7594 92.825 28.0244 91.985 28.0244C91.145 28.0244 91.64 28.5044 92.005 28.8494C92.37 29.1944 93.23 29.4994 92.31 30.1694V30.1744Z" fill="#D2E0F8"/>
<path d="M82.815 11.8542C83.2375 11.8542 83.58 11.5117 83.58 11.0892C83.58 10.6667 83.2375 10.3242 82.815 10.3242C82.3926 10.3242 82.05 10.6667 82.05 11.0892C82.05 11.5117 82.3926 11.8542 82.815 11.8542Z" fill="#D2E0F8"/>
<path d="M59.4701 9.28586C59.8926 9.28586 60.2351 8.94336 60.2351 8.52086C60.2351 8.09836 59.8926 7.75586 59.4701 7.75586C59.0476 7.75586 58.7051 8.09836 58.7051 8.52086C58.7051 8.94336 59.0476 9.28586 59.4701 9.28586Z" fill="#D2E0F8"/>
<path d="M62.125 3.10508C62.125 3.88008 62.755 4.50508 63.525 4.50508C64.3 4.50508 64.925 3.87508 64.925 3.10508C64.925 2.33008 64.295 1.70508 63.525 1.70508C62.755 1.70508 62.125 2.33508 62.125 3.10508Z" fill="#D2E0F8"/>
<path d="M71.02 7.03555C71.02 7.50555 71.4 7.88055 71.87 7.88055C72.34 7.88055 72.715 7.50055 72.715 7.03555C72.715 6.56555 72.335 6.18555 71.87 6.18555C71.4 6.18555 71.02 6.56555 71.02 7.03555Z" fill="#D2E0F8"/>
<path d="M53.02 4.79922C53.02 5.26922 53.4 5.64422 53.87 5.64422C54.34 5.64422 54.715 5.26422 54.715 4.79922C54.715 4.33422 54.335 3.94922 53.87 3.94922C53.405 3.94922 53.02 4.32922 53.02 4.79922Z" fill="#D2E0F8"/>
<path d="M0 95.6998L184.31 87.8448V76.7348C121.29 78.8048 47.07 60.6098 22.325 53.9198C20.515 51.4898 19.095 49.0398 18.825 46.0998C26.325 53.7548 30.555 50.3498 31.915 50.9998C35.13 52.5298 38.19 53.3748 48.375 52.2248C58.56 51.0748 56.95 52.6848 64.68 53.2948C59.935 51.9148 61.31 50.2348 54.61 49.7748C47.91 49.3148 39.715 43.4348 35.12 34.7198C30.525 25.9998 37.415 13.3548 46.535 7.75977C38.08 7.76977 29.36 9.83477 20.705 23.6598C16.175 30.8898 10.215 46.1098 0.01 45.9198C0.01 45.9198 0.01 56.6498 0.01 63.4198V95.6998H0Z" fill="url(#paint1_linear_2559_26555)"/>
<path d="M88.69 73.1947L82.4 70.1697L74.695 74.7897V54.9347H64.355V52.4297H54.865V54.9347V55.0547V73.0047H48.685V66.8397H30.335V59.5747H5.325V72.9547H0V118.135L264.9 118.025V80.7347H267.035L254.335 74.4647L254.27 74.4997V67.1547H237.035V65.0397H238.44V62.7697H216.26V65.0397H217.665V69.2697H205.7V58.0847H195.365V55.5797H185.875V58.0847V69.8397L182.42 70.1297V79.7747H171.225L171.27 66.5347H153.45V74.8047H136.69V62.1047H120.86V57.8847H88.69V73.1947Z" fill="url(#paint2_linear_2559_26555)"/>
<path d="M144.22 82.0645H146.11V79.5545H144.22V82.0645Z" fill="white"/>
<path d="M139.985 82.0645H141.875V79.5545H139.985V82.0645Z" fill="white"/>
<path d="M144.22 88.3594H146.11V85.8494H144.22V88.3594Z" fill="white"/>
<path d="M148.565 82.0645H150.455V79.5545H148.565V82.0645Z" fill="white"/>
<path d="M148.565 88.3594H150.455V85.8494H148.565V88.3594Z" fill="white"/>
<path d="M139.985 88.3594H141.875V85.8494H139.985V88.3594Z" fill="white"/>
<path d="M177.885 86.1953H179.775V83.6853H177.885V86.1953Z" fill="white"/>
<path d="M173.655 86.1953H175.545V83.6853H173.655V86.1953Z" fill="white"/>
<path d="M165.795 73.8555H167.67V69.9905H165.795V73.8555Z" fill="white"/>
<path d="M161.155 73.8555H163.03V69.9905H161.155V73.8555Z" fill="white"/>
<path d="M156.52 73.8555H158.395V69.9905H156.52V73.8555Z" fill="white"/>
<path d="M161.155 81.3906H163.03V77.5256H161.155V81.3906Z" fill="white"/>
<path d="M165.795 81.3906H167.67V77.5256H165.795V81.3906Z" fill="white"/>
<path d="M156.52 81.3906H158.395V77.5256H156.52V81.3906Z" fill="white"/>
<path d="M199.785 65.9902H201.81V61.8102H199.785V65.9902Z" fill="white"/>
<path d="M194.775 65.9902H196.8V61.8102H194.775V65.9902Z" fill="white"/>
<path d="M189.765 65.9902H191.79V61.8102H189.765V65.9902Z" fill="white"/>
<path d="M199.785 73.3203H201.81V69.1403H199.785V73.3203Z" fill="white"/>
<path d="M194.775 73.3203H196.8V69.1403H194.775V73.3203Z" fill="white"/>
<path d="M189.765 73.3203H191.79V69.1403H189.765V73.3203Z" fill="white"/>
<path d="M199.785 80.6465H201.81V76.4665H199.785V80.6465Z" fill="white"/>
<path d="M194.775 80.6465H196.8V76.4665H194.775V80.6465Z" fill="white"/>
<path d="M189.765 80.6465H191.79V76.4665H189.765V80.6465Z" fill="white"/>
<path d="M199.785 87.9707H201.81V83.7907H199.785V87.9707Z" fill="white"/>
<path d="M189.765 87.9707H191.79V83.7907H189.765V87.9707Z" fill="white"/>
<path d="M194.775 87.9707H196.8V83.7907H194.775V87.9707Z" fill="white"/>
<path d="M231.26 72.7656H233.235V68.6856H231.26V72.7656Z" fill="white"/>
<path d="M226.365 72.7656H228.34V68.6856H226.365V72.7656Z" fill="white"/>
<path d="M221.47 72.7656H223.445V68.6856H221.47V72.7656Z" fill="white"/>
<path d="M231.26 80.5957H233.235V76.5157H231.26V80.5957Z" fill="white"/>
<path d="M221.47 80.5957H223.445V76.5157H221.47V80.5957Z" fill="white"/>
<path d="M226.365 80.7207H228.34V76.6407H226.365V80.7207Z" fill="white"/>
<path d="M226.365 88.6699H228.34V84.5899H226.365V88.6699Z" fill="white"/>
<path d="M231.26 88.6699H233.235V84.5899H231.26V88.6699Z" fill="white"/>
<path d="M221.47 88.6699H223.445V84.5899H221.47V88.6699Z" fill="white"/>
<path d="M248.92 74.3047H250.75V70.5297H248.92V74.3047Z" fill="white"/>
<path d="M244.39 74.3047H246.22V70.5297H244.39V74.3047Z" fill="white"/>
<path d="M239.86 74.3047H241.69V70.5297H239.86V74.3047Z" fill="white"/>
<path d="M244.39 81.6641H246.22V77.8891H244.39V81.6641Z" fill="white"/>
<path d="M248.92 81.6641H250.75V77.8891H248.92V81.6641Z" fill="white"/>
<path d="M239.86 81.6641H241.69V77.8891H239.86V81.6641Z" fill="white"/>
<path d="M258.635 87.6152H260.595V85.6552H258.635V87.6152Z" fill="white"/>
<path d="M253.36 87.6152H255.32V85.6552H253.36V87.6152Z" fill="white"/>
<path d="M253.36 92.1543H255.32V90.1943H253.36V92.1543Z" fill="white"/>
<path d="M248.08 87.6152H250.04V85.6552H248.08V87.6152Z" fill="white"/>
<path d="M258.635 92.1543H260.595V90.1943H258.635V92.1543Z" fill="white"/>
<path d="M248.08 92.1543H250.04V90.1943H248.08V92.1543Z" fill="white"/>
<path d="M22.5851 68.0449H25.1001V64.6999H22.5851V68.0449Z" fill="white"/>
<path d="M16.5951 68.0449H19.1101V64.6999H16.5951V68.0449Z" fill="white"/>
<path d="M22.5851 74.3398H25.1001V70.9949H22.5851V74.3398Z" fill="white"/>
<path d="M16.5951 74.3398H19.1101V70.9949H16.5951V74.3398Z" fill="white"/>
<path d="M10.6051 74.3398H13.1201V70.9949H10.6051V74.3398Z" fill="white"/>
<path d="M10.6051 68.0449H13.1201V64.6999H10.6051V68.0449Z" fill="white"/>
<path d="M43.21 74.7891H45.085V70.9241H43.21V74.7891Z" fill="white"/>
<path d="M38.5701 74.7891H40.4451V70.9241H38.5701V74.7891Z" fill="white"/>
<path d="M33.9351 74.7891H35.8101V70.9241H33.9351V74.7891Z" fill="white"/>
<path d="M38.5701 82.3242H40.4451V78.4592H38.5701V82.3242Z" fill="white"/>
<path d="M43.21 82.3242H45.085V78.4592H43.21V82.3242Z" fill="white"/>
<path d="M33.9351 82.3242H35.8101V78.4592H33.9351V82.3242Z" fill="white"/>
<path d="M68.7799 62.8438H70.8049V58.6637H68.7799V62.8438Z" fill="white"/>
<path d="M63.7699 62.8438H65.7949V58.6637H63.7699V62.8438Z" fill="white"/>
<path d="M58.7599 62.8438H60.7849V58.6637H58.7599V62.8438Z" fill="white"/>
<path d="M68.7799 70.1699H70.8049V65.9899H68.7799V70.1699Z" fill="white"/>
<path d="M63.7699 70.1699H65.7949V65.9899H63.7699V70.1699Z" fill="white"/>
<path d="M58.7599 70.1699H60.7849V65.9899H58.7599V70.1699Z" fill="white"/>
<path d="M68.7799 77.4941H70.8049V73.3141H68.7799V77.4941Z" fill="white"/>
<path d="M63.7699 77.4941H65.7949V73.3141H63.7699V77.4941Z" fill="white"/>
<path d="M58.7599 77.4941H60.7849V73.3141H58.7599V77.4941Z" fill="white"/>
<path d="M68.7799 84.8203H70.8049V80.6403H68.7799V84.8203Z" fill="white"/>
<path d="M58.7599 84.8203H60.7849V80.6403H58.7599V84.8203Z" fill="white"/>
<path d="M63.7699 84.8203H65.7949V80.6403H63.7699V84.8203Z" fill="white"/>
<path d="M79.2949 80.9746H81.6799V77.9896H79.2949V80.9746Z" fill="white"/>
<path d="M83.21 80.9746H85.595V77.9896H83.21V80.9746Z" fill="white"/>
<path d="M113.68 66.8301H115.655V62.7501H113.68V66.8301Z" fill="white"/>
<path d="M108.78 66.8301H110.755V62.7501H108.78V66.8301Z" fill="white"/>
<path d="M103.885 66.8301H105.86V62.7501H103.885V66.8301Z" fill="white"/>
<path d="M108.78 74.7793H110.755V70.6993H108.78V74.7793Z" fill="white"/>
<path d="M113.68 74.7793H115.655V70.6993H113.68V74.7793Z" fill="white"/>
<path d="M103.885 74.7793H105.86V70.6993H103.885V74.7793Z" fill="white"/>
<path d="M98.7799 66.8301H100.755V62.7501H98.7799V66.8301Z" fill="white"/>
<path d="M93.8851 66.8301H95.8601V62.7501H93.8851V66.8301Z" fill="white"/>
<path d="M98.7799 74.7793H100.755V70.6993H98.7799V74.7793Z" fill="white"/>
<path d="M93.8851 74.7793H95.8601V70.6993H93.8851V74.7793Z" fill="white"/>
<path d="M131.34 71.1543H133.17V67.3793H131.34V71.1543Z" fill="white"/>
<path d="M126.81 71.1543H128.64V67.3793H126.81V71.1543Z" fill="white"/>
<path d="M122.28 71.1543H124.11V67.3793H122.28V71.1543Z" fill="white"/>
<path d="M126.81 78.5156H128.64V74.7406H126.81V78.5156Z" fill="white"/>
<path d="M131.34 78.5156H133.17V74.7406H131.34V78.5156Z" fill="white"/>
<path d="M122.28 78.5156H124.11V74.7406H122.28V78.5156Z" fill="white"/>
<path d="M343 124.881V70.1309H321.98V78.4009H298.09V124.881H343Z" fill="url(#paint3_linear_2559_26555)"/>
<path d="M316.765 87.2812H318.655V84.7712H316.765V87.2812Z" fill="white"/>
<path d="M310.77 87.2812H312.66V84.7712H310.77V87.2812Z" fill="white"/>
<path d="M316.765 93.5762H318.655V91.0662H316.765V93.5762Z" fill="white"/>
<path d="M310.77 93.5762H312.66V91.0662H310.77V93.5762Z" fill="white"/>
<path d="M304.78 93.5762H306.67V91.0662H304.78V93.5762Z" fill="white"/>
<path d="M304.78 87.2812H306.67V84.7712H304.78V87.2812Z" fill="white"/>
<path d="M337.325 78.6016H339.2V74.7366H337.325V78.6016Z" fill="white"/>
<path d="M332.685 78.6016H334.56V74.7366H332.685V78.6016Z" fill="white"/>
<path d="M328.05 78.6016H329.925V74.7366H328.05V78.6016Z" fill="white"/>
<path d="M332.685 86.1367H334.56V82.2717H332.685V86.1367Z" fill="white"/>
<path d="M337.325 86.1367H339.2V82.2717H337.325V86.1367Z" fill="white"/>
<path d="M328.05 86.1367H329.925V82.2717H328.05V86.1367Z" fill="white"/>
<path d="M267.18 0V192.535L182.42 178.195V31.63L267.18 0Z" fill="#D2E0F8"/>
<path d="M267.18 0L323.785 22.74V181.675L267.18 192.535V0Z" fill="#A8C8F9"/>
<path d="M317.775 32.3203V31.6753L310.925 29.1953V45.4353L311.655 45.6553V30.1053L317.775 32.3203Z" fill="#6593CF"/>
<path d="M308.65 29.0203V28.3703L300.905 25.5703V42.4003L301.64 42.6253V26.4853L308.65 29.0203Z" fill="#6593CF"/>
<path d="M287.335 21.3099V20.6599L277.69 17.1699V35.3749L278.425 35.5949V18.0849L287.335 21.3099Z" fill="#6593CF"/>
<path d="M298.295 25.2741V24.6241L290.45 21.7891V39.2341L291.185 39.4591V22.6991L298.295 25.2741Z" fill="#6593CF"/>
<path d="M298.295 59.3305V58.5955L290.45 56.6855V74.1355L291.185 74.2705V57.6005L298.295 59.3305Z" fill="#6593CF"/>
<path d="M287.335 56.6601V55.9251L277.69 53.5801V71.7801L278.425 71.9151V54.4901L287.335 56.6601Z" fill="#6593CF"/>
<path d="M308.65 61.8505V61.1155L300.905 59.2305V76.0605L301.64 76.1955V60.1455L308.65 61.8505Z" fill="#6593CF"/>
<path d="M317.775 64.0749V63.3399L310.925 61.6699V77.9099L311.655 78.0449V62.5849L317.775 64.0749Z" fill="#6593CF"/>
<path d="M317.775 95.8245V95.0045L310.925 94.1445V110.385L311.655 110.43V95.0595L317.775 95.8245Z" fill="#6593CF"/>
<path d="M287.335 92.0094V91.1894L277.69 89.9844V108.184L278.425 108.234V90.8944L287.335 92.0094Z" fill="#6593CF"/>
<path d="M298.295 93.3851V92.5651L290.45 91.5801V109.03L291.185 109.08V92.4951L298.295 93.3851Z" fill="#6593CF"/>
<path d="M308.65 94.6806V93.8606L300.905 92.8906V109.721L301.64 109.771V93.8056L308.65 94.6806Z" fill="#6593CF"/>
<path d="M317.775 127.574V126.669L310.925 126.619V142.859L311.655 142.819V127.534L317.775 127.574Z" fill="#6593CF"/>
<path d="M298.295 127.44V126.535L290.45 126.48V143.93L291.185 143.89V127.39L298.295 127.44Z" fill="#6593CF"/>
<path d="M287.335 127.366V126.461L277.69 126.391V144.596L278.425 144.556V127.306L287.335 127.366Z" fill="#6593CF"/>
<path d="M308.65 127.516V126.606L300.905 126.551V143.381L301.64 143.346V127.466L308.65 127.516Z" fill="#6593CF"/>
<path d="M317.775 32.3205L311.655 30.1055V45.6555L317.775 47.5055V32.3205Z" fill="#81ADEB"/>
<path d="M308.65 29.0194L301.64 26.4844V42.6244L308.65 44.7444V29.0194Z" fill="#81ADEB"/>
<path d="M287.335 21.3109L278.425 18.0859V35.5959L287.335 38.2959V21.3109Z" fill="#81ADEB"/>
<path d="M298.295 25.2742L291.185 22.6992V39.4592L298.295 41.6092V25.2742Z" fill="#81ADEB"/>
<path d="M298.295 59.3296L291.185 57.5996V74.2696L298.295 75.5796V59.3296Z" fill="#81ADEB"/>
<path d="M287.335 56.6602L278.425 54.4902V71.9152L287.335 73.5602V56.6602Z" fill="#81ADEB"/>
<path d="M308.65 61.8495L301.64 60.1445V76.1945L308.65 77.4895V61.8495Z" fill="#81ADEB"/>
<path d="M317.775 64.0759L311.655 62.5859V78.0459L317.775 79.1709V64.0759Z" fill="#81ADEB"/>
<path d="M317.775 95.8255L311.655 95.0605V110.431L317.775 110.836V95.8255Z" fill="#81ADEB"/>
<path d="M287.335 92.0095L278.425 90.8945V108.235L287.335 108.825V92.0095Z" fill="#81ADEB"/>
<path d="M298.295 93.3841L291.185 92.4941V109.079L298.295 109.549V93.3841Z" fill="#81ADEB"/>
<path d="M308.65 94.6797L301.64 93.8047V109.77L308.65 110.235V94.6797Z" fill="#81ADEB"/>
<path d="M317.775 127.575L311.655 127.535V142.82L317.775 142.5V127.575Z" fill="#81ADEB"/>
<path d="M298.295 127.441L291.185 127.391V143.891L298.295 143.521V127.441Z" fill="#81ADEB"/>
<path d="M287.335 127.365L278.425 127.305V144.555L287.335 144.09V127.365Z" fill="#81ADEB"/>
<path d="M308.65 127.515L301.64 127.465V143.345L308.65 142.98V127.515Z" fill="#81ADEB"/>
<path d="M235.06 27.3145V26.2695L222.975 30.4895V46.6445L223.71 46.4295V31.2795L235.06 27.3145Z" fill="#81ADEB"/>
<path d="M254.475 20.5402V19.4902L239.59 24.6902V41.7502L240.32 41.5352V25.4802L254.475 20.5402Z" fill="#81ADEB"/>
<path d="M202.945 38.5294V37.4844L190.24 41.9194V56.2894L190.97 56.0744V42.7094L202.945 38.5294Z" fill="#81ADEB"/>
<path d="M218.96 32.9395V31.8945L206.345 36.2995V51.5445L207.075 51.3295V37.0895L218.96 32.9395Z" fill="#81ADEB"/>
<path d="M202.945 68.5744V67.6094L190.24 70.6594V85.0244L190.97 84.8894V71.4494L202.945 68.5744Z" fill="#81ADEB"/>
<path d="M218.96 64.7306V63.7656L206.345 66.7906V82.0406L207.075 81.9056V67.5856L218.96 64.7306Z" fill="#81ADEB"/>
<path d="M254.475 56.1994V55.2344L239.59 58.8094V75.8694L240.32 75.7344V59.5994L254.475 56.1994Z" fill="#81ADEB"/>
<path d="M235.06 60.8645V59.8945L222.975 62.7995V78.9495L223.71 78.8145V63.5895L235.06 60.8645Z" fill="#81ADEB"/>
<path d="M254.475 91.8655V90.9805L239.59 92.9305V109.99L240.32 109.935V93.7205L254.475 91.8655Z" fill="#81ADEB"/>
<path d="M218.96 96.5198V95.6348L206.345 97.2848V112.53L207.075 112.475V98.0748L218.96 96.5198Z" fill="#81ADEB"/>
<path d="M235.06 94.4095V93.5195L222.975 95.1045V111.26L223.71 111.205V95.8945L235.06 94.4095Z" fill="#81ADEB"/>
<path d="M202.945 98.6205V97.7305L190.24 99.3955V113.765L190.97 113.71V100.185L202.945 98.6205Z" fill="#81ADEB"/>
<path d="M202.945 128.66V127.855L190.24 128.135V142.5L190.97 142.525V128.925L202.945 128.66Z" fill="#81ADEB"/>
<path d="M254.475 127.531V126.721L239.59 127.051V144.111L240.32 144.136V127.841L254.475 127.531Z" fill="#81ADEB"/>
<path d="M235.06 127.955V127.15L222.975 127.415V143.57L223.71 143.59V128.205L235.06 127.955Z" fill="#81ADEB"/>
<path d="M218.96 128.31V127.5L206.345 127.78V143.025L207.075 143.05V128.57L218.96 128.31Z" fill="#81ADEB"/>
<path d="M235.06 27.3145L223.71 31.2795V46.4295L235.06 43.0845V27.3145Z" fill="#A8C8F9"/>
<path d="M254.475 20.541L240.32 25.481V41.536L254.475 37.366V20.541Z" fill="#A8C8F9"/>
<path d="M202.945 38.5293L190.97 42.7093V56.0743L202.945 52.5443V38.5293Z" fill="#A8C8F9"/>
<path d="M218.96 32.9395L207.075 37.0895V51.3295L218.96 47.8295V32.9395Z" fill="#A8C8F9"/>
<path d="M202.945 68.5762L190.97 71.4512V84.8912L202.945 82.6712V68.5762Z" fill="#A8C8F9"/>
<path d="M218.96 64.7305L207.075 67.5855V81.9055L218.96 79.7005V64.7305Z" fill="#A8C8F9"/>
<path d="M254.475 56.2012L240.32 59.6012V75.7362L254.475 73.1062V56.2012Z" fill="#A8C8F9"/>
<path d="M235.06 60.8652L223.71 63.5902V78.8152L235.06 76.7102V60.8652Z" fill="#A8C8F9"/>
<path d="M254.475 91.8652L240.32 93.7202V109.935L254.475 108.85V91.8652Z" fill="#A8C8F9"/>
<path d="M218.96 96.5195L207.075 98.0745V112.475L218.96 111.565V96.5195Z" fill="#A8C8F9"/>
<path d="M235.06 94.4102L223.71 95.8951V111.205L235.06 110.335V94.4102Z" fill="#A8C8F9"/>
<path d="M202.945 98.6211L190.97 100.186V113.711L202.945 112.791V98.6211Z" fill="#A8C8F9"/>
<path d="M202.945 128.66L190.97 128.925V142.525L202.945 142.915V128.66Z" fill="#A8C8F9"/>
<path d="M254.475 127.529L240.32 127.839V144.134L254.475 144.594V127.529Z" fill="#A8C8F9"/>
<path d="M235.06 127.955L223.71 128.205V143.59L235.06 143.96V127.955Z" fill="#A8C8F9"/>
<path d="M218.96 128.311L207.075 128.571V143.051L218.96 143.436V128.311Z" fill="#A8C8F9"/>
<path d="M182.42 173.75L267.18 186.785V192.535L182.42 178.195V173.75Z" fill="#6593CF"/>
<path d="M267.18 186.785L323.725 177.615V181.675L267.18 192.535V186.785Z" fill="#497AB4"/>
<path d="M233.185 186.785V162.34L208.135 159.6V182.545L233.185 186.785Z" fill="#A8C8F9"/>
<path d="M220.13 160.914V184.574L221.775 184.854V161.224L220.13 160.914Z" fill="#81ADEB"/>
<path d="M204.91 159.25V182L208.135 182.545V159.6L204.91 159.25Z" fill="#81ADEB"/>
<path d="M176.95 155.279H140.93V178.014H176.95V155.279Z" fill="#D2E0F8"/>
<path d="M144.405 178.049H140.93V194.249H144.405V178.049Z" fill="#D2E0F8"/>
<path d="M176.955 178.049H173.48V194.249H176.955V178.049Z" fill="#D2E0F8"/>
<path d="M173.89 158.205H157.055V174.87H173.89V158.205Z" fill="#3C8554"/>
<path d="M166.885 166.96C167.191 166.96 167.44 166.711 167.44 166.405C167.44 166.098 167.191 165.85 166.885 165.85C166.578 165.85 166.33 166.098 166.33 166.405C166.33 166.711 166.578 166.96 166.885 166.96Z" fill="white"/>
<path d="M168.71 168.415V168.47C168.71 168.595 168.61 168.695 168.485 168.695H168.215H167.455C167.455 168.695 167.435 168.695 167.43 168.69L167.39 168.635L166.915 167.98L166.47 168.965L167.6 171.44C167.67 171.595 167.6 171.78 167.445 171.85C167.405 171.87 167.36 171.88 167.315 171.88C167.2 171.88 167.085 171.815 167.035 171.7L165.89 169.2L165.8 170.23V170.46C165.8 170.61 165.675 170.735 165.525 170.735H163.83C163.675 170.735 163.55 170.61 163.55 170.455V170.415C163.55 170.26 163.675 170.135 163.83 170.135H165.165L165.29 168.7V168.695C165.29 168.69 165.29 168.68 165.29 168.675L165.785 167.58H165.15L164.695 168.365C164.635 168.47 164.495 168.51 164.385 168.45L164.345 168.43C164.24 168.37 164.2 168.23 164.26 168.12L164.825 167.145C164.875 167.06 164.965 167.015 165.06 167.025C165.06 167.025 165.06 167.025 165.065 167.025H166.67C166.67 167.025 166.685 167.025 166.695 167.025C166.805 167.025 166.915 167.07 166.985 167.165L167.735 168.195H168.125H168.48C168.605 168.195 168.705 168.295 168.705 168.42L168.71 168.415Z" fill="white"/>
<path d="M168.265 159.99V166.72H170.595V165.145H171.655V166.72H172.315V159.99H168.265ZM169.92 164.11H168.955V162.94H169.92V164.11ZM169.92 161.935H168.955V160.765H169.92V161.935ZM171.625 164.11H170.66V162.94H171.625V164.11ZM171.625 161.935H170.66V160.765H171.625V161.935Z" fill="white"/>
<path d="M158.335 166.125C158.335 168.53 158.34 170.94 158.345 173.345C158.345 173.395 158.385 173.43 158.43 173.435L165.13 173.48C165.18 173.48 165.225 173.435 165.22 173.385C165.22 173.34 165.175 173.305 165.13 173.305C164.93 173.305 164.69 173.305 164.42 173.275C164.26 173.26 163.88 173.22 163.395 173.1C163.235 173.06 162.68 172.915 161.975 172.59C161.495 172.365 161.13 172.195 160.72 171.86C160.36 171.565 160 171.27 159.795 170.74C159.72 170.55 159.535 170.055 159.7 169.465C159.85 168.935 160.19 168.63 160.31 168.53C160.73 168.165 161.18 168.085 161.395 168.045C162 167.945 162.475 168.105 162.68 168.175C163.005 168.29 163.255 168.445 163.445 168.59C163.515 168.645 163.61 168.575 163.58 168.49C163.5 168.26 163.375 167.99 163.185 167.715C162.755 167.085 162.22 166.775 161.895 166.595C161.145 166.17 160.465 166.08 160.025 166.025C159.385 165.945 158.83 165.98 158.405 166.045C158.36 166.05 158.33 166.09 158.33 166.13L158.335 166.125Z" fill="white"/>
<path d="M145.055 161.2C144.85 161.025 144.42 160.73 144.12 160.525L144.475 160.07C144.76 160.245 145.205 160.525 145.425 160.695L145.05 161.2H145.055ZM145.615 161.835C145.38 162.39 145.095 162.99 144.815 163.505L144.26 163.105C144.515 162.7 144.855 162.05 145.125 161.435L145.615 161.835ZM145.36 159.875C145.155 159.69 144.73 159.385 144.445 159.175L144.82 158.735C145.11 158.91 145.55 159.195 145.76 159.375L145.365 159.875H145.36ZM147.575 161.275V161.55H148.855V162.045H147.575V162.36H149.05V162.89H147.575V163.615H146.925V162.89H145.56V162.36H146.925V162.045H145.815V161.55H146.925V161.275H145.85V160.795H146.925V160.47H145.59V159.93H146.925V159.625H145.875V159.145H146.925V158.635H147.575V159.145H148.785V159.93H149.115V160.47H148.785V161.275H147.575ZM147.575 159.93H148.195V159.625H147.575V159.93ZM147.575 160.795H148.195V160.47H147.575V160.795Z" fill="#1B4976"/>
<path d="M150.42 161.129C150.22 160.969 149.78 160.729 149.47 160.569L149.82 160.099C150.115 160.234 150.56 160.449 150.785 160.599L150.415 161.124L150.42 161.129ZM150.935 161.854C150.7 162.424 150.415 163.039 150.14 163.554L149.57 163.174C149.825 162.764 150.17 162.094 150.44 161.474L150.935 161.854ZM150.71 159.704C150.505 159.544 150.075 159.289 149.785 159.124L150.135 158.659C150.425 158.809 150.865 159.044 151.085 159.189L150.71 159.704ZM154.135 160.809C153.97 161.489 153.69 162.054 153.33 162.509C153.655 162.749 154.04 162.944 154.475 163.069C154.34 163.199 154.155 163.449 154.07 163.609C153.615 163.459 153.235 163.234 152.9 162.959C152.57 163.249 152.195 163.464 151.79 163.619C151.71 163.479 151.525 163.224 151.4 163.104C151.325 163.284 151.23 163.454 151.125 163.604C151.015 163.509 150.745 163.349 150.59 163.289C151.13 162.544 151.175 161.464 151.175 160.694V159.334H152.395V158.629H153.025V159.334H153.895L154 159.309L154.465 159.419C154.35 159.824 154.18 160.279 154.03 160.564L153.48 160.404C153.54 160.284 153.61 160.104 153.665 159.919H153.025V160.659H153.625L153.735 160.639L154.13 160.809H154.135ZM152.46 162.519C152.17 162.174 151.95 161.779 151.76 161.329C151.73 161.904 151.625 162.539 151.405 163.084C151.795 162.954 152.15 162.764 152.46 162.519ZM151.785 159.919V160.659H152.4V159.919H151.785ZM152.33 161.219C152.475 161.539 152.66 161.834 152.885 162.089C153.095 161.844 153.26 161.549 153.375 161.219H152.33Z" fill="#1B4976"/>
<path d="M145.25 168.213C145.455 168.573 145.85 168.728 146.405 168.758C147.07 168.783 148.415 168.768 149.17 168.708C149.1 168.848 149.015 169.118 148.99 169.283C148.295 169.313 147.08 169.328 146.405 169.298C145.76 169.273 145.325 169.113 145 168.703C144.82 168.913 144.625 169.118 144.39 169.348L144.095 168.763C144.27 168.633 144.485 168.453 144.67 168.273V167.058H144.175V166.483H145.245V167.433C145.55 166.818 145.585 166.078 145.585 165.523V164.618H147.06V166.198H146.085C146.07 166.338 146.055 166.473 146.03 166.618H147.13V168.253H146.25V168.498H145.74V167.643C145.665 167.813 145.575 167.968 145.47 168.113C145.42 168.053 145.335 167.953 145.245 167.873V168.213H145.25ZM144.79 165.778C144.68 165.518 144.4 165.123 144.145 164.838L144.66 164.543C144.915 164.808 145.215 165.183 145.33 165.448L144.785 165.773L144.79 165.778ZM146.115 165.098V165.718H146.53V165.098H146.115ZM146.255 167.098V167.773H146.605V167.098H146.255ZM147.845 166.768H147.19V166.268H147.53C147.52 166.068 147.465 165.783 147.395 165.558L147.725 165.493H147.225V164.993H147.845V164.418H148.42V164.993H149.015V165.493H148.61L148.92 165.558C148.825 165.813 148.735 166.073 148.665 166.268H149.06V166.768H148.42V167.183H149.015V167.678H148.42V168.563H147.845V167.678H147.235V167.183H147.845V166.768ZM147.845 165.493C147.925 165.713 147.985 165.998 147.995 166.178L147.645 166.263H148.515L148.245 166.188C148.305 165.998 148.375 165.703 148.41 165.488H147.85L147.845 165.493Z" fill="#1B4976"/>
<path d="M154.47 169.144H152.77V169.394H152.2V166.664L152.14 166.749C152.075 166.679 151.955 166.569 151.835 166.474V166.899H151.035V167.109H151.84V167.574H151.035V167.589C151.035 167.659 151.035 167.729 151.03 167.799H151.975V168.294H150.99C151.295 168.464 151.78 168.754 151.925 168.849L151.565 169.364C151.375 169.194 151.02 168.914 150.735 168.709C150.555 168.974 150.27 169.214 149.835 169.409C149.755 169.279 149.59 169.089 149.45 168.984C149.905 168.809 150.16 168.559 150.3 168.299H149.5V167.804H150.45C150.455 167.729 150.46 167.659 150.46 167.589V167.579H149.695V167.114H150.46V166.904H149.67V165.709H151.845V166.119C152.14 165.659 152.38 165.024 152.535 164.419L153.115 164.549C153.04 164.839 152.945 165.129 152.84 165.409H153.245C153.36 165.119 153.475 164.754 153.54 164.469L154.15 164.609C154.05 164.879 153.94 165.164 153.835 165.409H154.43V165.974H153.805V166.469H154.385V167.004H153.805V167.514H154.385V168.049H153.805V168.579H154.48V169.154L154.47 169.144ZM149.965 165.334H149.535V164.844H149.965V164.414H150.515V164.844H151.015V164.414H151.56V164.844H151.98V165.334H151.56V165.609H151.015V165.334H150.515V165.609H149.965V165.334ZM150.135 166.489H150.475V166.109H150.135V166.489ZM151.335 166.109H150.985V166.489H151.335V166.109ZM153.225 165.964H152.765V166.459H153.225V165.964ZM153.225 166.994H152.765V167.504H153.225V166.994ZM152.765 168.564H153.225V168.034H152.765V168.564Z" fill="#1B4976"/>
<path d="M145.57 171.17V172.175C146.2 172.02 146.94 171.785 147.415 171.585C147.605 171.51 147.79 171.425 147.995 171.295L148.285 171.97C148.075 172.055 147.84 172.155 147.66 172.22C147.12 172.435 146.265 172.7 145.57 172.87V173.855C145.57 174.085 145.675 174.145 145.915 174.19C146.075 174.21 146.295 174.22 146.535 174.22C147.09 174.22 147.955 174.15 148.39 174.035V174.815C147.89 174.89 147.08 174.925 146.495 174.925C146.15 174.925 145.83 174.905 145.6 174.865C145.135 174.78 144.87 174.525 144.87 174.065V171.16C144.87 171.04 144.855 170.765 144.825 170.605H145.615C145.59 170.765 145.57 171.01 145.57 171.16V171.17ZM148.335 171.115L147.905 171.295C147.8 171.075 147.635 170.76 147.49 170.555L147.91 170.385C148.045 170.58 148.235 170.92 148.335 171.115ZM148.97 170.87L148.55 171.05C148.44 170.825 148.265 170.515 148.12 170.315L148.54 170.145C148.685 170.34 148.88 170.685 148.97 170.87Z" fill="#1B4976"/>
<path d="M150.43 173.234C150.58 172.774 150.585 171.769 150.585 171.124C150.585 170.909 150.57 170.769 150.535 170.634H151.32C151.315 170.659 151.285 170.894 151.285 171.119C151.285 171.749 151.27 172.874 151.125 173.409C150.965 174.009 150.63 174.534 150.175 174.939L149.525 174.509C149.995 174.179 150.28 173.689 150.43 173.234ZM152.035 174.194V171.089C152.035 170.849 152 170.649 151.99 170.629H152.785C152.785 170.629 152.75 170.854 152.75 171.094V173.879C153.18 173.694 153.71 173.269 154.065 172.754L154.475 173.339C154.03 173.914 153.265 174.489 152.67 174.794C152.555 174.859 152.49 174.909 152.44 174.954L151.99 174.584C152.01 174.484 152.035 174.334 152.035 174.189V174.194Z" fill="#1B4976"/>
<path d="M41.43 180.295C41.665 183.34 41.12 183.805 41.275 184.585C41.43 185.365 41.665 185.99 42.68 186.69C43.695 187.39 46.425 189.03 47.205 189.265C47.985 189.5 50.8 190.085 51.415 188.955C52.445 187.075 50.535 185.535 48.275 184.675C46.015 183.815 45.565 183.26 45.485 183.025C45.405 182.79 45.72 180.375 45.72 180.375L41.43 180.295Z" fill="#FFDCC7"/>
<path d="M41.5449 184.703C42.0399 185.668 43.0749 186.993 47.8949 187.393C50.2649 187.588 51.0849 186.313 48.2749 184.673C48.2749 184.673 51.9599 186.008 52.6649 187.493C53.3649 188.973 51.5799 189.768 50.3249 189.833C46.9049 190.013 44.6899 188.448 43.7299 188.038C41.7499 187.193 40.6299 186.603 41.2999 183.738C41.2999 183.738 41.1999 184.018 41.5499 184.703H41.5449Z" fill="#071D33"/>
<path d="M26.56 170.919C24.31 172.989 23.61 172.844 23.095 173.449C22.58 174.054 22.235 174.624 22.31 175.854C22.385 177.084 22.79 180.244 23.085 180.999C23.385 181.759 24.665 184.329 25.935 184.114C28.05 183.759 28.08 181.309 27.355 178.999C26.63 176.689 26.79 175.994 26.925 175.789C27.06 175.584 29.155 174.334 29.155 174.334L26.56 170.914V170.919Z" fill="#FFDCC7"/>
<path d="M23.1701 173.738C22.7151 174.723 22.3151 176.358 24.9851 180.388C26.3001 182.373 27.8101 182.223 27.3551 179.003C27.3551 179.003 28.5851 182.723 27.8551 184.193C27.1251 185.663 25.4001 184.748 24.5701 183.803C22.3101 181.228 22.1701 178.518 21.9001 177.513C21.3401 175.438 21.1051 174.188 23.7751 172.943C23.7751 172.943 23.4951 173.033 23.1701 173.738Z" fill="#071D33"/>
<path d="M47.325 143.055C47.325 143.055 47.615 147.7 47.53 148.93C47.14 154.49 43.965 163.645 41.1 166.205C38.235 168.765 27.495 178.055 27.495 178.055C27.495 178.055 24.495 175.43 22.855 172.87C22.855 172.87 32.7 162.825 33.31 161.7C33.925 160.575 33.525 144.155 33.525 144.155L47.32 143.055H47.325Z" fill="#2A6295"/>
<path d="M39.975 151.929C40.59 154.689 43.25 162.874 43.76 164.614C44.27 166.354 47.24 182.619 47.24 182.619C47.24 182.619 45.91 184.664 39.565 184.769C39.565 184.769 36.29 168.194 35.475 166.659C34.66 165.124 30.46 156.634 29.54 154.589C28.62 152.544 27.495 148.964 28.62 142.924L39.67 143.639L39.975 151.924V151.929Z" fill="#2A6295"/>
<path d="M43.145 162.814C43.035 162.814 42.935 162.739 42.905 162.629L39.53 149.944C39.495 149.809 39.575 149.674 39.705 149.639C39.835 149.604 39.975 149.684 40.01 149.814L43.385 162.499C43.42 162.634 43.34 162.769 43.21 162.804C43.19 162.809 43.165 162.814 43.145 162.814Z" fill="#1B4976"/>
<path d="M36.5999 169.978C36.4849 169.978 36.3799 169.898 36.3549 169.778C36.3499 169.748 35.7399 166.713 35.5399 166.013C35.3799 165.458 33.8849 163.143 33.3199 162.298C33.2449 162.183 33.2749 162.028 33.3899 161.953C33.5049 161.878 33.6599 161.908 33.7349 162.023C33.9449 162.338 35.8099 165.148 36.0199 165.878C36.2249 166.593 36.8199 169.558 36.8449 169.683C36.8699 169.818 36.785 169.948 36.65 169.978C36.6349 169.978 36.6149 169.978 36.5999 169.978Z" fill="#1B4976"/>
<path d="M35.6901 112.859L41.8701 113.054L44.0351 113.754L47.4951 130.559L47.2251 142.829C47.2251 142.829 40.4051 146.539 31.3501 143.019L31.8951 116.869L35.6901 112.859Z" fill="#D2E0F8"/>
<path d="M35.69 112.859C33.505 113.399 30.055 114.059 28.615 116.559C27.755 118.054 27.36 121.104 27.6 122.644C27.6 122.644 28.69 129.514 28.615 132.089C28.54 134.664 26.375 144.419 26.375 144.419C26.375 144.419 30.12 146.874 34.255 146.484C34.6 146.449 38.025 137.869 37.9 132.649C37.53 117.359 35.745 113.754 35.69 112.864" fill="#2A6298"/>
<path d="M28.3649 124.835C28.2849 124.835 28.2099 124.8 28.1599 124.73C28.0799 124.615 28.1099 124.46 28.2199 124.38L30.1449 123.03C30.2599 122.95 30.4149 122.98 30.4949 123.09C30.5749 123.2 30.5449 123.36 30.4349 123.44L28.5099 124.79C28.4649 124.82 28.4149 124.835 28.3649 124.835Z" fill="#1B4976"/>
<path d="M58.49 117.974C57.26 117.629 56.725 116.329 56.475 115.424C56.23 114.519 55.78 113.439 56.4 113.134C57.02 112.829 57.675 112.964 57.675 112.964C57.675 112.964 58.26 111.404 58.7 111.294C59.14 111.184 59.155 111.254 59.54 111.529C59.925 111.804 60.585 112.234 60.585 112.234C60.585 112.234 60.95 112.144 61.445 112.539C61.94 112.934 63.07 114.814 62.7 115.724C62.33 116.634 61.75 117.674 61.01 118.079C60.265 118.489 59.335 118.199 58.49 117.964V117.974Z" fill="#FFDCC7"/>
<path d="M57.5601 114.644C57.4701 114.644 57.3901 114.579 57.3751 114.484C57.3601 114.379 57.4301 114.284 57.5351 114.269C57.5951 114.259 59.0451 114.044 59.6901 113.994C59.7951 113.984 59.8201 113.959 59.8201 113.959C59.8451 113.874 59.6101 113.564 59.4001 113.484C59.1701 113.394 58.4351 113.369 58.0151 113.369C57.9101 113.369 57.8301 113.284 57.8251 113.184C57.8251 113.079 57.9051 112.994 58.0101 112.994C58.1251 112.994 59.1651 112.989 59.5351 113.134C59.8351 113.249 60.2401 113.674 60.1901 114.014C60.1751 114.109 60.1001 114.334 59.7201 114.364C59.0851 114.414 57.6051 114.634 57.5951 114.634C57.5851 114.634 57.5751 114.634 57.5651 114.634L57.5601 114.644Z" fill="#F2B49C"/>
<path d="M61.0049 116.479C60.9099 116.479 60.8199 116.459 60.7399 116.399C60.5849 116.289 60.4999 116.129 60.4499 115.989C60.1749 116.109 59.7349 116.244 59.4449 116.054C59.2349 115.914 59.1349 115.754 59.0999 115.619L58.5799 115.579C58.3649 115.559 58.1849 115.469 58.0599 115.314C57.7799 114.979 57.8299 114.454 57.8349 114.399C57.8449 114.294 57.9349 114.219 58.0399 114.234C58.1449 114.244 58.2149 114.339 58.2049 114.439C58.1949 114.554 58.1949 114.894 58.3449 115.079C58.4099 115.154 58.4949 115.199 58.6099 115.209L59.2849 115.264C59.3399 115.264 59.3899 115.294 59.4199 115.339C59.4499 115.384 59.4649 115.439 59.4499 115.489C59.4499 115.489 59.4449 115.609 59.6449 115.744C59.8049 115.849 60.2449 115.694 60.4899 115.554C60.5449 115.524 60.6149 115.524 60.6699 115.554C60.7249 115.584 60.7649 115.644 60.7699 115.709C60.7749 115.784 60.8199 116.004 60.9499 116.099C61.0199 116.144 61.2649 116.049 61.4249 115.929C61.5099 115.869 61.6249 115.884 61.6849 115.969C61.7449 116.054 61.7299 116.169 61.6449 116.229C61.5749 116.279 61.2849 116.484 60.9999 116.484L61.0049 116.479Z" fill="#F2B49C"/>
<path d="M41.8699 113.055C41.8699 113.055 45.8949 114.23 47.5299 115.475C48.8299 116.465 54.8649 121.69 54.8649 121.69L56.9649 116.62C56.9649 116.62 57.9749 118.61 61.2199 118.18C61.2199 118.18 59.2249 126.135 58.4899 127.385C57.9099 128.375 57.1149 129.52 53.5549 127.615C51.5599 126.55 48.9199 124.745 48.9199 124.745C48.0799 123.845 48.0949 123.275 47.0249 121.885C44.9549 119.195 40.5799 113.21 41.8649 113.055H41.8699Z" fill="#2A6298"/>
<path d="M46.6599 115.24C47.6599 116.355 48.3549 119.775 48.7449 121.555C49.9149 126.935 48.6299 128.105 48.2749 131.95C47.5599 139.8 48.7899 144.475 48.7899 144.475C47.9699 146.055 44.9699 146.19 44.9699 146.19C44.9699 146.19 43.8099 139.775 44.0649 133.105C44.4449 123.175 43.4699 120.025 42.7749 116.62C42.3299 114.435 41.8699 113.055 41.8699 113.055C41.8699 113.055 45.4249 113.86 46.6599 115.24Z" fill="#2A6298"/>
<path d="M35.2099 110.073C34.5299 111.223 33.7699 112.823 31.2849 113.398C28.7999 113.973 27.3899 112.818 25.9499 111.938C24.5099 111.058 22.7349 111.633 22.7349 111.633C22.7349 111.633 24.7849 108.948 27.1349 108.768C29.4849 108.588 31.5249 110.798 33.8699 108.363L35.2099 110.073Z" fill="#071D33"/>
<path d="M41.8799 107.964V114.724C41.8599 116.619 37.4249 116.314 35.6799 112.879V107.959H41.8799V107.964Z" fill="#FFDCC7"/>
<g style="mix-blend-mode:multiply" opacity="0.6">
<path d="M41.8799 110.389V113.589C38.6299 114.924 35.6799 112.299 35.6799 112.299V110.309C36.8899 109.669 38.6649 108.734 38.7749 108.734C38.8949 108.734 40.7299 109.734 41.8799 110.384V110.389Z" fill="#F4BDA2"/>
</g>
<path d="M46.1898 103.424C46.1898 108.814 43.0398 113.184 38.8848 113.184C34.7298 113.184 31.5798 108.814 31.5798 103.424C31.5798 98.0341 34.7298 93.6641 38.8848 93.6641C43.0398 93.6641 46.1898 98.0341 46.1898 103.424Z" fill="#FFDCC7"/>
<path d="M41.7648 104.959C42.1817 104.959 42.5198 104.621 42.5198 104.204C42.5198 103.787 42.1817 103.449 41.7648 103.449C41.3478 103.449 41.0098 103.787 41.0098 104.204C41.0098 104.621 41.3478 104.959 41.7648 104.959Z" fill="#103254"/>
<path d="M40.9948 102.744C40.9348 102.744 40.8748 102.724 40.8248 102.679C40.7248 102.584 40.7148 102.429 40.8098 102.324C41.0248 102.094 41.3348 101.914 41.6898 101.819C42.0198 101.734 42.3848 101.734 42.6898 101.824C42.8198 101.864 42.8948 102.004 42.8598 102.134C42.8198 102.264 42.6798 102.344 42.5498 102.299C42.3348 102.234 42.0598 102.234 41.8198 102.299C41.5598 102.369 41.3298 102.499 41.1798 102.659C41.1298 102.714 41.0648 102.739 40.9948 102.739V102.744Z" fill="#103254"/>
<path d="M35.8849 104.959C36.3019 104.959 36.6399 104.621 36.6399 104.204C36.6399 103.787 36.3019 103.449 35.8849 103.449C35.4679 103.449 35.1299 103.787 35.1299 104.204C35.1299 104.621 35.4679 104.959 35.8849 104.959Z" fill="#103254"/>
<path d="M36.6799 102.744C36.6149 102.744 36.5499 102.719 36.4999 102.669C36.3449 102.504 36.1049 102.369 35.8649 102.309C35.6049 102.239 35.3399 102.239 35.1299 102.309C34.9999 102.349 34.8599 102.279 34.8149 102.149C34.7699 102.019 34.8449 101.879 34.9749 101.834C35.2749 101.739 35.6349 101.734 35.9899 101.829C36.3199 101.914 36.6349 102.099 36.8549 102.329C36.9499 102.429 36.9449 102.589 36.8449 102.684C36.7949 102.729 36.7349 102.754 36.6699 102.754L36.6799 102.744Z" fill="#103254"/>
<path d="M37.5799 109.923C37.7849 110.538 38.4899 110.923 39.1549 110.773C39.8199 110.623 40.1949 110.008 39.9949 109.388C39.7899 108.773 39.0849 108.388 38.4199 108.538C37.7549 108.683 37.3799 109.303 37.5799 109.923Z" fill="#EC8B80"/>
<path d="M45.685 94.8792C46.96 96.5892 47.815 98.9742 47.445 102.699C47.445 102.699 46.585 102.829 46.27 103.284C46.27 103.284 45.555 99.9642 44.76 98.8792C43.41 97.0342 34.705 96.9692 33.415 98.7542C32.5 100.019 31.98 102.074 31.98 103.289C31.98 103.289 31.07 102.474 30.43 102.849C30.43 102.849 29.57 97.8242 32.755 94.4642C34.645 92.4692 37.85 91.4842 40.81 92.2242C41.365 92.3642 42.13 92.9342 42.13 92.9342C42.13 92.9342 44.19 92.8892 45.68 94.8892L45.685 94.8792Z" fill="#071D33"/>
<path d="M48.0698 104.664C47.8948 105.819 47.1248 106.659 46.3448 106.539C45.5698 106.419 45.0848 105.389 45.2598 104.234C45.4348 103.079 46.2048 102.239 46.9848 102.359C47.7598 102.479 48.2448 103.509 48.0698 104.664Z" fill="#FFDCC7"/>
<path d="M29.7698 104.664C29.9448 105.819 30.7148 106.659 31.4948 106.539C32.2698 106.419 32.7548 105.389 32.5798 104.234C32.4048 103.079 31.6348 102.239 30.8548 102.359C30.0798 102.479 29.5948 103.509 29.7698 104.664Z" fill="#FFDCC7"/>
<path d="M38.7949 107.179C38.7599 107.179 38.7249 107.174 38.6899 107.159C37.9699 106.834 37.9199 106.604 37.9049 106.519C37.8799 106.409 37.9099 106.299 37.9849 106.214C38.3949 105.749 38.5849 105.309 38.5849 105.309C38.6399 105.184 38.7849 105.124 38.9149 105.179C39.0399 105.234 39.0999 105.379 39.0449 105.509C39.0349 105.529 38.8499 105.959 38.4399 106.454C38.5199 106.519 38.6749 106.614 38.8949 106.709C39.0199 106.764 39.0749 106.914 39.0199 107.039C38.9799 107.134 38.8849 107.184 38.7899 107.184L38.7949 107.179Z" fill="#F2B49C"/>
<path d="M46.1349 105.555C46.1349 105.555 46.1199 105.555 46.1149 105.555C46.0099 105.545 45.9399 105.45 45.9499 105.345C46.1399 103.67 46.9999 103.495 47.0399 103.49C47.1449 103.47 47.2399 103.54 47.2599 103.64C47.2799 103.74 47.2149 103.84 47.1149 103.86C47.0949 103.865 46.4849 104.035 46.3299 105.39C46.3199 105.485 46.2399 105.555 46.1449 105.555H46.1349Z" fill="#F2B49C"/>
<path d="M46.9349 105.079C46.8699 105.079 46.8099 105.049 46.7749 104.989C46.6149 104.724 46.4099 104.794 46.3499 104.819C46.2549 104.859 46.1449 104.819 46.0999 104.729C46.0549 104.634 46.0949 104.524 46.1849 104.479C46.3749 104.384 46.8149 104.334 47.0949 104.794C47.1499 104.884 47.1199 104.999 47.0299 105.049C46.9999 105.069 46.9649 105.074 46.9349 105.074V105.079Z" fill="#F2B49C"/>
<path d="M31.64 105.554C31.545 105.554 31.465 105.484 31.455 105.389C31.3 104.019 30.675 103.859 30.665 103.859C30.565 103.834 30.5 103.739 30.52 103.639C30.54 103.539 30.635 103.474 30.735 103.494C30.77 103.499 31.63 103.679 31.825 105.349C31.835 105.454 31.765 105.544 31.66 105.559C31.655 105.559 31.645 105.559 31.64 105.559V105.554Z" fill="#F2B49C"/>
<path d="M30.8399 105.078C30.8049 105.078 30.7749 105.068 30.7449 105.053C30.6549 104.998 30.6299 104.883 30.6799 104.798C30.9599 104.338 31.3949 104.388 31.5899 104.483C31.6849 104.528 31.7199 104.638 31.6749 104.733C31.6299 104.823 31.5199 104.863 31.4249 104.823C31.3649 104.798 31.1549 104.728 30.9999 104.993C30.9649 105.053 30.9049 105.083 30.8399 105.083V105.078Z" fill="#F2B49C"/>
<path d="M41.7348 97.6336C41.7348 97.6336 39.0498 98.9486 36.0898 100.239C33.1298 101.529 32.3048 102.814 32.4148 105.254C32.4148 105.254 30.8798 103.639 31.3448 100.264C31.8098 96.8936 35.0198 94.3436 37.8698 93.9586C40.7198 93.5736 42.3648 94.6436 42.3648 94.6436C42.3648 94.6436 43.7348 94.6686 45.2448 96.4786C46.7548 98.2886 46.8598 102.594 45.6298 104.759C45.6298 104.759 45.4648 100.429 41.7348 97.6286V97.6336Z" fill="#071D33"/>
<path d="M29.7651 124.645L35.8551 125.245C35.8551 125.245 36.0301 134.505 36.0301 135.96C36.0301 137.415 33.6451 138.275 32.6751 138.445C31.7051 138.615 21.4601 135.875 21.4601 135.875C21.4601 135.875 20.4901 135.02 21.1951 133.045C21.9001 131.07 24.0201 124.385 24.0201 124.385L29.7601 124.64L29.7651 124.645Z" fill="#071D33"/>
<path d="M49.2499 124.984C49.1249 124.984 49.0199 124.894 48.9999 124.769C48.9949 124.724 48.3949 120.159 48.0549 119.199C48.0099 119.069 48.0749 118.924 48.2099 118.879C48.3399 118.834 48.4849 118.899 48.5299 119.034C48.8849 120.039 49.4749 124.514 49.4999 124.704C49.5199 124.839 49.4199 124.969 49.2849 124.984C49.2749 124.984 49.2649 124.984 49.2499 124.984Z" fill="#1B4976"/>
<path d="M33.0799 146.83C30.7899 146.83 28.5099 145.91 28.3949 145.865C28.2649 145.815 28.2049 145.665 28.2599 145.54C28.3099 145.41 28.4549 145.35 28.5849 145.405C28.6149 145.415 31.6299 146.63 34.0849 146.265L34.9999 144.19C35.0549 144.065 35.2049 144.005 35.3299 144.06C35.4549 144.115 35.5149 144.265 35.4599 144.39L34.4899 146.59C34.4549 146.665 34.3849 146.72 34.3049 146.735C33.9049 146.805 33.4949 146.835 33.0849 146.835L33.0799 146.83Z" fill="#1B4976"/>
<path d="M45.31 146.459C45.075 146.459 44.935 146.434 44.92 146.434C44.815 146.414 44.73 146.329 44.715 146.219L44.42 144.019C44.4 143.884 44.5 143.754 44.635 143.739C44.77 143.719 44.895 143.819 44.915 143.954L45.185 145.959C45.515 145.974 46.25 145.939 47.12 145.479C47.245 145.414 47.395 145.459 47.46 145.584C47.525 145.704 47.48 145.859 47.355 145.924C46.495 146.379 45.745 146.464 45.31 146.464V146.459Z" fill="#1B4976"/>
<path d="M25.1649 134.35C25.1649 134.35 26.6549 135.24 27.0149 135.92C27.3749 136.6 27.3799 137.14 27.3499 137.34C27.3199 137.54 26.8249 138.155 26.8249 138.155C26.8249 138.155 26.7249 139.39 26.5249 139.66C26.3249 139.93 25.2899 140.605 24.8499 140.39C24.8499 140.39 22.8899 140.4 22.1999 139.625C21.5099 138.85 21.2799 137.43 21.9249 135.765L25.1699 134.355L25.1649 134.35Z" fill="#FFDCC7"/>
<path d="M23.81 127.669C24.665 127.089 29.04 123.794 30.29 123.234C31.54 122.674 34.85 120.464 35.415 118.074C35.89 116.064 34.82 113.439 32.32 113.944C32.32 113.944 29.84 114.209 26.525 116.824C25.835 117.369 20.555 122.709 20.13 123.114C17.93 125.209 17.81 126.404 18.29 128.179C18.765 129.954 21.53 136.689 21.53 136.689C21.53 136.689 23.335 135.259 26.03 134.899L23.815 127.669H23.81Z" fill="#2A6298"/>
<path d="M31.265 114.183C32.19 114.388 32.495 115.868 32.625 117.328C32.8 119.328 32.46 126.068 32.46 126.068L33.225 126.343C33.225 126.343 33.655 118.648 33.285 116.503C32.83 113.863 31.945 113.888 31.945 113.888C31.815 113.838 31.605 113.813 31.38 113.893C31.155 113.973 31.005 114.148 30.99 114.303L31.26 114.183H31.265Z" fill="#071D33"/>
<path d="M29.025 115.164C29.975 115.219 30.33 116.584 30.695 118.004C31.195 119.949 31.095 126.784 31.095 126.784L31.895 126.929C31.895 126.929 31.925 119.134 31.215 117.084C30.335 114.554 29.455 114.699 29.455 114.699C29.295 114.709 29.125 114.729 28.92 114.844C28.715 114.959 28.56 115.274 28.57 115.434L29.03 115.164H29.025Z" fill="#071D33"/>
<path d="M85.2898 173.066C84.1148 173.701 81.9748 174.581 81.2898 176.706C80.4148 179.426 81.9448 180.091 82.2348 182.416C82.3848 183.601 81.7898 187.951 83.9198 189.986C85.5698 191.566 89.7498 193.141 90.7048 189.316C91.0348 187.996 89.7648 182.861 89.7498 182.006C89.6898 178.746 90.2948 176.716 89.2448 175.591C87.9148 174.171 86.5248 172.401 85.2948 173.066H85.2898Z" fill="#071D33"/>
<path d="M97.095 143.611C92.685 143.461 84.02 143.611 82.955 141.026C81.89 138.441 82.65 131.601 83.715 121.566C83.715 121.566 84.475 112.596 84.78 107.276C85.085 101.956 88.36 99.6358 90.035 99.6058C94.21 99.5208 100.235 99.5158 102.77 99.6708C105.305 99.8258 110.375 100.131 112.045 101.956C113.715 103.781 113.565 108.036 113.415 111.381C113.265 114.726 113.515 133.121 113.515 136.166C113.515 139.211 114.275 142.706 110.02 143.616C105.765 144.526 97.095 143.616 97.095 143.616V143.611Z" fill="#497AB4"/>
<path d="M104.87 193.07L105.605 197.05C105.8 198.825 107.175 200.325 108.585 199.9C110.69 199.27 114.83 199.405 116.89 199.41C118.805 199.41 124.055 196.985 124.2 195.565C124.345 194.145 123.785 192.64 122.17 192.655C120.555 192.67 116.985 192.145 116.985 192.145C116.985 192.145 114.075 191.245 113.57 190.84C111.515 189.19 106.09 190.105 104.865 193.065L104.87 193.07Z" fill="#071D33"/>
<path d="M114.63 139.365C114.63 139.365 115.01 145.45 114.9 147.055C114.385 154.335 110.235 166.325 106.48 169.675C102.73 173.025 89.745 182.005 89.745 182.005C89.745 182.005 81.05 182.72 83.725 173.55C83.725 173.55 93.47 165.14 96.28 163.78C97.79 163.05 96.565 140.805 96.565 140.805L114.63 139.365Z" fill="#1B4976"/>
<path d="M105.51 150.335C106.315 153.95 110.38 165.54 111.05 167.82C111.72 170.1 115.065 190.655 115.065 190.655C115.065 190.655 112.78 193.86 104.475 193.995C104.475 193.995 100.19 172.29 99.1149 170.28C98.0449 168.27 92.5499 157.15 91.3449 154.47C90.1399 151.79 88.6649 147.1 90.1399 139.195L104.61 140.135L105.515 150.335H105.51Z" fill="#1B4976"/>
<path d="M109.715 163.675C109.61 163.675 109.51 163.61 109.475 163.5L105.27 150.41C105.23 150.28 105.3 150.14 105.43 150.095C105.56 150.05 105.7 150.125 105.745 150.255L109.95 163.345C109.99 163.475 109.92 163.615 109.79 163.66C109.765 163.67 109.74 163.67 109.715 163.67V163.675Z" fill="#103254"/>
<path d="M100.585 174.551C100.47 174.551 100.365 174.471 100.34 174.351C100.33 174.311 99.535 170.331 99.275 169.416C99.065 168.676 97.1 165.636 96.36 164.531C96.285 164.416 96.315 164.261 96.43 164.186C96.545 164.111 96.7 164.141 96.775 164.256C96.885 164.421 99.48 168.316 99.755 169.281C100.02 170.216 100.8 174.091 100.83 174.256C100.855 174.391 100.77 174.521 100.635 174.551C100.62 174.551 100.6 174.551 100.585 174.551Z" fill="#103254"/>
<path d="M100.735 102.301L107.61 102.551C107.61 102.551 109.48 103.146 112.75 104.926C116.025 106.701 116.285 108.926 116.75 111.916C117.22 114.911 115.895 130.311 115.82 133.316C115.725 137.151 115.09 146.096 115.09 146.096C115.09 146.096 110.185 146.986 104.945 146.986C99.7049 146.986 89.7899 144.461 89.7899 144.461C89.7899 144.461 88.7549 120.396 88.4499 117.951C88.2649 116.491 88.3999 106.811 90.4399 105.566C92.1049 104.556 94.0899 102.856 99.1449 102.501L100.725 102.306L100.735 102.301Z" fill="#EF8E80"/>
<path d="M107.83 96.6211V105.486C107.805 107.971 101.99 109.541 99.7048 105.041V96.6211H107.83Z" fill="#FFDCC7"/>
<path d="M85.1049 130.586C85.1049 130.586 87.1349 131.836 87.6199 132.781C88.1049 133.721 88.0999 134.466 88.0499 134.736C87.9999 135.006 87.3099 135.846 87.3099 135.846C87.3099 135.846 87.1499 137.546 86.8699 137.911C86.5899 138.276 85.1549 139.186 84.5549 138.886C84.5549 138.886 81.8599 138.861 80.9299 137.781C79.9999 136.701 79.7049 134.746 80.6199 132.466L85.1049 130.586Z" fill="#FFDCC7"/>
<path d="M75.9899 122.96C76.3799 124.415 79.9799 133.74 79.9799 133.74C79.9799 133.74 82.1699 131.67 86.1249 131.365L84.0099 122.53L92.3299 116.03C92.3299 116.03 97.1399 113.9 97.6399 111.845C98.5599 108.09 97.1299 102.79 94.5199 103.43C91.0499 104.28 88.0449 106.56 85.7549 107.995C83.8399 109.195 79.5649 113.215 78.2749 114.79C75.8149 117.795 75.4099 120.81 75.9799 122.96H75.9899Z" fill="#EF8E80"/>
<path d="M114 105.801C115.405 106.376 122.885 114.571 124.83 117.491C126.775 120.411 126.775 123.576 125.075 125.281C123.37 126.986 118.99 126.986 118.99 126.986C118.99 126.986 111.685 127.471 113.15 122.606C114.615 117.741 116.07 117.736 116.07 117.736L114.005 105.801H114Z" fill="#EF8E80"/>
<path d="M91.9648 104.115C91.9648 104.115 92.3948 113.285 88.1648 125.395L88.6648 130.195C88.6648 130.195 95.8298 121.525 97.1898 102.465L91.9598 104.115H91.9648Z" fill="#497AB4"/>
<path d="M114.825 106.121C117.45 112.501 117.12 120.956 117.12 120.956L116.115 126.976C116.4 113.791 109.45 103.186 109.45 103.186C111.195 103.806 114.825 106.126 114.825 106.126V106.121Z" fill="#497AB4"/>
<path d="M116.935 122.916C116.6 122.936 115.97 123.366 115.815 123.631C115.215 124.656 115.015 126.606 115.79 127.021C116.565 127.436 120.28 128.736 121.02 127.136C121.76 125.536 116.93 122.916 116.93 122.916H116.935Z" fill="#F2B49C"/>
<path d="M119.02 121.926C119.355 121.271 120.515 121.211 121.045 121.696C121.575 122.181 121.415 122.651 121.415 122.651C121.415 122.651 121.715 122.216 122.74 122.816C123.275 123.131 123.555 123.196 123.625 123.626C123.625 123.626 124.64 124.001 124.855 124.641C125.07 125.281 124.52 126.476 124.52 126.476C124.52 126.476 123.515 128.461 122.42 128.076C122.12 127.971 122.11 128.006 122.11 128.006C122.11 128.006 121.91 128.181 121.285 128.081C120.66 127.976 120.39 127.626 120.27 127.361C120.27 127.361 119.85 127.666 119.28 127.551C118.115 127.311 118.41 125.486 118.485 124.161C118.555 122.951 118.72 122.511 119.015 121.931L119.02 121.926Z" fill="#FFDCC7"/>
<path d="M118.53 126.736C119.045 125.361 119.62 122.681 119.465 122.136C119.18 121.161 118.855 120.816 117.795 121.011C117.605 121.046 116.935 121.516 116.625 122.796C116.405 123.706 116.175 124.636 116.27 125.546C116.36 126.386 116.525 126.796 117.14 126.976C117.755 127.156 118.385 127.116 118.53 126.731V126.736Z" fill="#FFDCC7"/>
<path d="M120.44 127.107C120.405 127.107 120.365 127.097 120.335 127.082C120.21 127.022 120.155 126.872 120.215 126.747C121.06 124.972 121.07 123.762 121.07 123.752C121.07 123.612 121.18 123.502 121.32 123.502C121.46 123.502 121.57 123.612 121.57 123.752C121.57 123.807 121.565 125.077 120.67 126.967C120.625 127.057 120.535 127.112 120.445 127.112L120.44 127.107Z" fill="#F2B49C"/>
<path d="M118.555 126.412C118.555 126.412 118.535 126.412 118.525 126.412C118.39 126.397 118.29 126.272 118.305 126.137C118.525 124.192 118.72 122.747 118.725 122.732C118.745 122.597 118.87 122.502 119.005 122.517C119.14 122.537 119.235 122.662 119.22 122.797C119.22 122.812 119.02 124.247 118.805 126.187C118.79 126.317 118.68 126.407 118.555 126.407V126.412Z" fill="#F2B49C"/>
<path d="M122.28 127.821C122.23 127.821 122.185 127.806 122.14 127.776C122.025 127.696 121.995 127.541 122.075 127.431C122.955 126.126 123.08 124.986 123.08 124.971C123.095 124.836 123.21 124.731 123.355 124.746C123.49 124.761 123.595 124.881 123.58 125.016C123.58 125.066 123.45 126.291 122.49 127.706C122.44 127.776 122.365 127.816 122.285 127.816L122.28 127.821Z" fill="#F2B49C"/>
<path d="M117.475 120.99C117.45 120.99 117.42 120.99 117.395 120.975C117.265 120.93 117.195 120.79 117.24 120.66C117.275 120.56 118.125 118.205 121.62 118.055C121.76 118.055 121.875 118.155 121.88 118.295C121.885 118.435 121.78 118.55 121.64 118.555C118.495 118.69 117.74 120.735 117.71 120.825C117.675 120.93 117.575 120.99 117.475 120.99Z" fill="#E2685C"/>
<path d="M99.755 104.021C99.755 104.021 102.075 105.831 107.83 105.486L107.9 100.721H99.635L99.755 104.016V104.021Z" fill="#F2B49C"/>
<path d="M110.27 103.086C111.705 103.061 110.89 100.761 110.89 100.761C110.89 100.761 108.65 100.131 108.485 97.9061C108.485 97.8761 109.145 83.1011 105.16 82.1461C100.44 81.0211 97.2049 84.7411 95.6549 89.2861C94.9999 91.2161 93.88 91.7711 92.73 92.5161C92.28 92.8111 92.46 93.6211 93.05 93.6511L93.745 93.7861C93.9 93.8161 94.005 93.9661 93.98 94.1261C93.785 95.4711 94.2999 103.386 98.9049 103.911C99.4449 103.971 99.97 104.001 100.495 104.011C105.25 104.096 108.255 103.116 110.265 103.086H110.27Z" fill="#FFDCC7"/>
<path d="M106.13 97.206C106.13 97.206 107.04 96.926 107.135 97.501C107.23 98.076 107.375 104.331 107.375 104.331L109.165 103.111L109.235 104.901L110.81 103.971L111.095 105.906L113.46 103.686C116.405 101.741 121.365 99.531 121.175 91.411C121.02 84.906 118.235 82.116 114.21 79.851C110.185 77.586 105.31 78.926 103.71 79.241C101.48 79.681 98.485 81.171 96.89 84.221C95.815 86.276 96.365 87.611 96.365 87.611C96.365 87.611 96.83 86.496 98.035 85.351C99.24 84.206 100.955 83.246 104.25 82.866C104.25 82.866 103.97 86.896 104.255 89.571C104.47 91.596 105.9 96.496 106.115 97.206" fill="#103254"/>
<path d="M98.43 90.9517C98.9657 90.9517 99.4 90.5174 99.4 89.9817C99.4 89.446 98.9657 89.0117 98.43 89.0117C97.8942 89.0117 97.46 89.446 97.46 89.9817C97.46 90.5174 97.8942 90.9517 98.43 90.9517Z" fill="#103254"/>
<path d="M100.73 87.8052L98.46 87.7852C98.32 87.7852 98.21 87.6702 98.21 87.5352C98.21 87.4002 98.325 87.2852 98.46 87.2852L100.73 87.3052C100.87 87.3052 100.98 87.4202 100.98 87.5552C100.98 87.6902 100.865 87.8052 100.73 87.8052Z" fill="#103254"/>
<path d="M94.67 99.3955C96.925 99.6505 97.44 97.5055 96.695 96.2555C95.95 95.0055 94.605 95.4106 93.97 95.4456C93.97 95.4456 93.98 96.2106 94.255 97.7306C94.38 98.4256 94.665 99.3955 94.665 99.3955H94.67Z" fill="#EC8B80"/>
<path d="M105.385 97.7415C105.495 98.9965 108.055 97.3215 108.835 95.6165C109.62 93.9115 109.325 92.1015 108.18 91.5765C107.54 91.2815 106.765 91.4515 106.075 91.9565C106.075 91.9565 105.03 93.7465 105.38 97.7415H105.385Z" fill="#FFDCC7"/>
<path d="M106.295 96.006C106.295 96.006 106.275 96.006 106.265 96.006C106.13 95.991 106.03 95.866 106.045 95.731C106.315 93.356 107.53 93.106 107.585 93.096C107.72 93.071 107.85 93.161 107.875 93.296C107.9 93.431 107.81 93.561 107.68 93.586C107.655 93.591 106.765 93.831 106.545 95.786C106.53 95.911 106.42 96.006 106.295 96.006Z" fill="#F2B49C"/>
<path d="M107.44 95.3258C107.355 95.3258 107.275 95.2808 107.225 95.2058C106.985 94.8058 106.655 94.9258 106.595 94.9558C106.47 95.0108 106.32 94.9558 106.265 94.8358C106.21 94.7158 106.26 94.5658 106.38 94.5058C106.65 94.3758 107.265 94.3008 107.655 94.9508C107.725 95.0708 107.69 95.2208 107.57 95.2958C107.53 95.3208 107.485 95.3308 107.44 95.3308V95.3258Z" fill="#F2B49C"/>
<path d="M118.366 80.3684C118.687 79.9158 118.467 79.2081 117.875 78.7878C117.283 78.3675 116.542 78.3938 116.221 78.8464C115.9 79.2991 116.12 80.0067 116.712 80.427C117.304 80.8473 118.045 80.8211 118.366 80.3684Z" fill="#497AB4"/>
<path d="M106.045 84.1556C101.915 81.4156 97.7649 80.9506 97.7649 80.9506C102.15 75.2506 110.12 74.6406 116.545 78.9606C122.97 83.2806 124.745 92.2056 120.36 97.9106C120.36 97.9106 113.05 88.8056 106.045 84.1556Z" fill="#6593CF"/>
<path d="M98.7249 80.3664C98.7249 80.3664 92.3349 79.1764 91.3299 79.4014C90.5599 79.5714 90.3599 80.0164 92.0299 81.6464C93.6999 83.2764 97.3149 83.3564 99.5299 83.9864C101.935 84.6714 107.17 85.3214 112.195 88.9514C112.195 88.9514 107.125 81.6964 98.7299 80.3714L98.7249 80.3664Z" fill="#6593CF"/>
<path d="M111.385 88.1012C111.32 88.1012 111.255 88.0762 111.205 88.0262C111.175 87.9962 108.25 85.0262 106.65 83.8512C103.49 81.5262 99.1999 80.7512 99.1599 80.7412C99.0249 80.7162 98.9349 80.5862 98.9549 80.4512C98.9799 80.3162 99.1049 80.2212 99.2449 80.2462C99.4249 80.2762 103.685 81.0462 106.945 83.4462C108.58 84.6462 111.44 87.5512 111.56 87.6762C111.655 87.7762 111.655 87.9312 111.56 88.0312C111.51 88.0812 111.45 88.1012 111.385 88.1012Z" fill="#497AB4"/>
<path d="M113.44 88.3411C113.36 88.3411 113.28 88.3012 113.235 88.2312C113.155 88.1162 113.185 87.9612 113.3 87.8862C114.425 87.1162 116.9 81.7712 116.475 80.5162C116.43 80.3862 116.5 80.2461 116.63 80.2011C116.765 80.1561 116.905 80.2262 116.945 80.3562C117.445 81.8462 114.91 87.3812 113.575 88.2962C113.53 88.3262 113.48 88.3411 113.435 88.3411H113.44Z" fill="#497AB4"/>
</g>
<defs>
<linearGradient id="paint0_linear_2559_26555" x1="92.155" y1="95.6995" x2="92.155" y2="7.75455" gradientUnits="userSpaceOnUse">
<stop stop-color="#FCFDFE" stop-opacity="0.03"/>
<stop offset="0.08" stop-color="#E2EDFD" stop-opacity="0.32"/>
<stop offset="0.14" stop-color="#CDDFFB" stop-opacity="0.56"/>
<stop offset="0.2" stop-color="#BDD5FA" stop-opacity="0.75"/>
<stop offset="0.26" stop-color="#B1CEF9" stop-opacity="0.89"/>
<stop offset="0.3" stop-color="#AAC9F9" stop-opacity="0.97"/>
<stop offset="0.33" stop-color="#A8C8F9"/>
</linearGradient>
<linearGradient id="paint1_linear_2559_26555" x1="92.155" y1="95.6998" x2="92.155" y2="7.75476" gradientUnits="userSpaceOnUse">
<stop stop-color="white" stop-opacity="0"/>
<stop offset="0.33" stop-color="#81ADEB"/>
</linearGradient>
<linearGradient id="paint2_linear_2559_26555" x1="133.52" y1="118.135" x2="133.52" y2="52.4297" gradientUnits="userSpaceOnUse">
<stop stop-color="white" stop-opacity="0"/>
<stop offset="0.29" stop-color="#E4EAF4" stop-opacity="0.6"/>
<stop offset="0.66" stop-color="#DCE4F1"/>
</linearGradient>
<linearGradient id="paint3_linear_2559_26555" x1="320.545" y1="124.881" x2="320.545" y2="70.1309" gradientUnits="userSpaceOnUse">
<stop stop-color="white" stop-opacity="0"/>
<stop offset="0.29" stop-color="#E4EAF4" stop-opacity="0.6"/>
<stop offset="0.66" stop-color="#DCE4F1"/>
</linearGradient>
<clipPath id="clip0_2559_26555">
<rect width="343" height="200" fill="white"/>
</clipPath>
</defs>
</svg>
